<svg xmlns="http://www.w3.org/2000/svg" width="141" height="141" viewBox="0 0 141 141" fill="none"><mask id="mask0_19129_22633" style="mask-type:luminance" maskUnits="userSpaceOnUse" x="53" y="0" width="30" height="35">
<path d="M56.0933 19.3175C56.1969 16.5728 56.7559 13.5681 58.0454 10.4848L56.1443 7.60925C53.3852 3.43169 53.5942 0 53.5942 0L59.6492 7.41951L66.015 15.2218L82.0716 34.8992L63.1982 28.5347L56.0916 19.3192L56.0933 19.3175Z" fill="white"></path>
</mask><g mask="url(#mask0_19129_22633)">
<path d="M82.0716 0H53.3853V34.8992H82.0716V0Z" fill="url(#paint0_linear_19129_22633)"></path>
<path fill-rule="evenodd" clip-rule="evenodd" d="M56.0933 19.3175C56.1561 17.6639 56.3838 15.9137 56.8374 14.1095L73.0366 23.8239L82.0732 34.8975L63.1999 28.533L56.0933 19.3175Z" fill="url(#paint1_linear_19129_22633)"></path>
</g><mask id="mask1_19129_22633" style="mask-type:luminance" maskUnits="userSpaceOnUse" x="16" y="37" width="91" height="104">
<path d="M16.0004 89.0013C16.0004 117.722 40.1829 141 70.0092 141C77.0631 141 83.8011 139.698 89.9784 137.33C68.0503 131.673 52.9333 103.58 62.7786 87.1088C68.91 76.8546 80.4015 77.3928 85.184 81.4199C88.3117 84.0533 87.3144 87.6846 85.4847 90.8366C97.2192 85.5991 106.127 72.9143 106.127 72.9143L95.5474 43.1741C87.9431 39.237 79.248 37.001 70.0092 37.001C40.6365 37.001 16.0004 59.8451 16.0004 88.9997" fill="white"></path>
</mask><g mask="url(#mask1_19129_22633)">
<path d="M106.128 37.0027H16.0004V141.002H106.128V37.0027Z" fill="url(#paint2_linear_19129_22633)"></path>
<path fill-rule="evenodd" clip-rule="evenodd" d="M89.9801 137.331C68.052 131.675 52.935 103.582 62.7803 87.1105C68.9117 76.8563 80.4032 77.3945 85.1857 81.4216C88.3134 84.055 87.3161 87.6863 85.4864 90.8382C97.2209 85.6007 106.128 72.9159 106.128 72.9159L98.2334 50.7245L71.3649 60.3456C57.765 60.1232 45.2677 64.8814 41.102 74.5157C27.8249 105.227 51.8426 137.984 89.9784 137.33" fill="url(#paint3_linear_19129_22633)"></path>
<path fill-rule="evenodd" clip-rule="evenodd" d="M106.128 72.9175L95.5492 43.1773C87.9448 39.2401 79.2497 37.0042 70.011 37.0042C63.2917 37.0042 56.8222 38.2031 50.8386 40.3949C37.2166 52.2439 33.0576 67.3283 38.0491 84.6666C53.4651 66.7427 71.3429 56.1581 106.13 72.9191" fill="url(#paint4_linear_19129_22633)"></path>
<path fill-rule="evenodd" clip-rule="evenodd" d="M105.797 73.3722C106.014 73.0794 106.128 72.9175 106.128 72.9175L105.87 72.1929L104.703 72.7277C104.577 72.8995 104.976 73.117 105.797 73.3722ZM89.98 137.331C69.9905 132.174 55.6634 108.374 60.7466 91.728H60.7432C58.1336 96.5909 58.7521 106.104 61.0507 111.961C62.6154 115.948 64.8036 119.751 67.4285 123.169C73.4325 130.986 79.9258 135.764 89.98 137.331Z" fill="#4F83D5"></path>
</g><mask id="mask2_19129_22633" style="mask-type:luminance" maskUnits="userSpaceOnUse" x="29" y="3" width="78" height="72">
<path d="M71.3377 60.3472C63.1523 60.2605 54.4996 62.5325 46.5588 69.2535C44.7104 70.8189 42.9011 72.6247 41.1427 74.6971C41.1427 74.6971 37.3473 58.7115 50.8724 40.3606C47.1467 37.4573 39.8498 27.9473 40.3323 14.7587L36.5828 11.9797C31.1411 7.93954 29.7786 3.53625 29.7786 3.53625L40.898 10.205L52.5883 17.2156L95.4624 42.9287L106.13 72.9158C106.13 72.9158 89.9375 60.5435 71.3377 60.3455" fill="white"></path>
</mask><g mask="url(#mask2_19129_22633)">
<path d="M106.128 3.53625H29.7769V74.6971H106.128V3.53625Z" fill="#499AE5"></path>
<path fill-rule="evenodd" clip-rule="evenodd" d="M50.8708 40.3606C47.145 37.4573 39.8481 27.9473 40.3306 14.7587L36.5811 11.9797C31.1395 7.93954 29.7769 3.53625 29.7769 3.53625L40.8964 10.205L52.5867 17.2156L95.4608 42.9287L99.3632 53.9009L50.8708 40.3606Z" fill="url(#paint5_linear_19129_22633)"></path>
</g><mask id="mask3_19129_22633" style="mask-type:luminance" maskUnits="userSpaceOnUse" x="59" y="84" width="66" height="54">
<path d="M123.782 84.0879C123.609 111.047 67.0838 121.665 60.7434 91.7282C55.6619 108.373 69.9923 132.174 89.9802 137.331C109.924 129.686 124.02 110.93 124.02 89.0015C124.02 87.3446 123.94 85.7056 123.782 84.0879Z" fill="white"></path>
</mask><g mask="url(#mask3_19129_22633)">
<path d="M124.02 84.0879H55.66V137.331H124.02V84.0879Z" fill="url(#paint6_linear_19129_22633)"></path>
<path fill-rule="evenodd" clip-rule="evenodd" d="M123.782 84.0879C123.609 111.047 67.0837 121.665 60.7433 91.7282C58.1184 100.322 60.6702 110.823 66.5026 119.682C86.6315 130.411 125.759 114.266 123.782 84.0895" fill="url(#paint7_linear_19129_22633)"></path>
<path fill-rule="evenodd" clip-rule="evenodd" d="M67.3826 103.229C64.1462 100.399 61.7762 96.6057 60.7415 91.728C55.6601 108.373 69.9905 132.174 89.9784 137.331C76.0964 132.228 66.7642 116.399 67.3826 103.229Z" fill="#29259C"></path>
</g><defs>
<linearGradient id="paint0_linear_19129_22633" x1="95.3912" y1="44.0819" x2="39.9794" y2="-13.4719" gradientUnits="userSpaceOnUse">
<stop stop-color="#2E279D"></stop>
<stop offset="0.46" stop-color="#4D80E4"></stop>
<stop offset="1" stop-color="#46B3E6"></stop>
</linearGradient>
<linearGradient id="paint1_linear_19129_22633" x1="86.2135" y1="30.015" x2="50.4732" y2="17.7577" gradientUnits="userSpaceOnUse">
<stop stop-color="#363DAF"></stop>
<stop offset="1" stop-color="#4471D2"></stop>
</linearGradient>
<linearGradient id="paint2_linear_19129_22633" x1="61.0644" y1="37.9481" x2="61.0644" y2="147.785" gradientUnits="userSpaceOnUse">
<stop stop-color="#2E279D"></stop>
<stop offset="0.0001" stop-color="#4262CC"></stop>
<stop offset="1" stop-color="#4A93E5"></stop>
</linearGradient>
<linearGradient id="paint3_linear_19129_22633" x1="71.8576" y1="62.4017" x2="71.7775" y2="137.339" gradientUnits="userSpaceOnUse">
<stop stop-color="#4871D7"></stop>
<stop offset="1" stop-color="#3A53BB"></stop>
</linearGradient>
<linearGradient id="paint4_linear_19129_22633" x1="107.62" y1="55.9406" x2="37.3695" y2="55.9406" gradientUnits="userSpaceOnUse">
<stop stop-color="#3336A9"></stop>
<stop offset="1" stop-color="#425FCA"></stop>
</linearGradient>
<linearGradient id="paint5_linear_19129_22633" x1="99.2953" y1="53.9778" x2="29.8092" y2="53.9778" gradientUnits="userSpaceOnUse">
<stop stop-color="#6CAAE8"></stop>
<stop offset="1" stop-color="#93D5EB"></stop>
</linearGradient>
<linearGradient id="paint6_linear_19129_22633" x1="60.5716" y1="118.259" x2="157.874" y2="91.1831" gradientUnits="userSpaceOnUse">
<stop stop-color="#2E279D"></stop>
<stop offset="0.46" stop-color="#4D80E4"></stop>
<stop offset="1" stop-color="#46B3E6"></stop>
</linearGradient>
<linearGradient id="paint7_linear_19129_22633" x1="59.7103" y1="98.796" x2="128.007" y2="98.796" gradientUnits="userSpaceOnUse">
<stop stop-color="#3438AB"></stop>
<stop offset="1" stop-color="#3C59BF"></stop>
</linearGradient>
</defs><style>@media (prefers-color-scheme: light) { :root { filter: none; } }
@media (prefers-color-scheme: dark) { :root { filter: none; } }
</style></svg>