<svg width="175" height="150" viewBox="0 0 175 150" fill="none" xmlns="http://www.w3.org/2000/svg">
<g clip-path="url(#clip0_17966_10469)">
<path fill-rule="evenodd" clip-rule="evenodd" d="M58.6281 74.0871C58.4948 74.0871 58.4293 74.0216 58.296 73.9563L55.5001 71.8612C55.4347 71.7959 55.3668 71.7304 55.3668 71.5994C55.3013 71.5339 52.9735 64.8565 52.8401 57.5899C52.7068 49.2102 59.2926 46.4607 60.4904 46.0026C63.2183 41.42 71.0019 40.438 77.1246 40.438C83.577 40.438 89.5639 41.4855 91.1618 42.271C97.0153 44.955 98.4799 49.8649 99.2776 52.549C99.411 53.1384 99.5443 53.5965 99.6777 53.8583C100.41 55.1022 100.143 63.22 99.942 66.8205C100.01 67.0824 99.8766 67.2787 99.8766 67.3442C99.8111 67.5407 99.6099 67.606 99.411 67.606C99.3455 67.6715 99.2776 67.8026 99.1443 67.9333C98.5453 68.6535 98.281 70.6829 98.1476 71.7959C98.0798 72.1886 98.0798 72.4504 98.0143 72.6469C97.9464 73.0398 97.6142 73.1706 97.4153 73.1706C97.0153 73.1706 96.751 72.8432 96.3509 72.4504C96.2175 72.2541 96.0187 72.0578 95.8853 71.9923C95.6865 71.8612 95.2185 71.5339 94.8863 61.3215L88.0338 51.5017C83.1769 54.382 66.0796 54.9059 63.8172 54.9714C62.0884 57.0662 58.0947 60.5357 56.9647 61.4522C57.2315 61.9761 57.7625 63.1545 57.9637 64.1365C58.2959 65.3804 59.0283 73.2361 59.0937 73.5635C59.0937 73.7598 59.0282 73.9563 58.827 74.0216C58.7615 74.0871 58.6936 74.0871 58.6281 74.0871ZM56.167 71.2068L58.0292 72.5814C57.7625 69.6356 57.2969 65.1838 57.0302 64.3328C56.7659 63.1545 55.9657 61.5178 55.9657 61.5178C55.9002 61.3215 55.9657 61.0596 56.0991 60.9286C56.167 60.9286 61.4215 56.4771 63.2183 54.2512C63.3517 54.1201 63.485 54.0549 63.6184 54.0549C63.8172 54.0549 83.7103 53.5965 87.9004 50.4541C87.9683 50.3888 88.1017 50.3888 88.2351 50.3888C88.366 50.3888 88.4993 50.4541 88.5672 50.5851L95.752 60.8631C95.8174 60.9941 95.8174 61.0596 95.8174 61.1249C95.9508 65.5767 96.283 70.5521 96.4843 71.3376C96.6831 71.4686 96.8819 71.5994 97.0153 71.7959C97.0832 71.8612 97.1487 71.9267 97.1487 71.9923C97.2165 71.8612 97.2166 71.7959 97.2166 71.6649C97.4154 69.9629 97.6821 68.1952 98.4799 67.3442C98.6787 67.0168 98.8799 66.886 99.0109 66.755C99.2776 61.2559 99.3455 55.1022 98.8799 54.3167C98.6787 53.9894 98.5453 53.4655 98.3465 52.811C97.6142 50.2578 96.2175 45.6097 90.7617 43.122C89.1662 42.3365 83.2448 41.3545 77.1246 41.3545C72.2677 41.3545 63.7518 42.0092 61.2227 46.5917C61.1572 46.7225 61.0239 46.7881 60.956 46.7881C60.6238 46.9191 53.6379 49.145 53.7712 57.5899C53.9046 64.1365 55.9002 70.2247 56.167 71.2068Z" fill="black"/>
<path fill-rule="evenodd" clip-rule="evenodd" d="M55.8564 71.4394L58.7225 73.6086C58.7225 73.6086 57.9223 65.3921 57.5901 64.1429C57.3234 62.9598 58.3939 58.7766 58.3939 58.7766C58.3939 58.7766 61.8529 56.781 63.72 54.4145C63.72 54.4145 83.909 53.9544 88.3052 50.7334L95.502 61.0536C95.502 61.0536 95.8342 71.2422 96.3022 71.5709C96.7677 71.8337 97.5 73.0828 97.7013 72.4913C97.8347 71.8337 98.0335 68.6786 98.967 67.561C99.3671 67.101 99.566 66.9695 99.6339 66.9695C99.6993 65.5233 100.167 55.2691 99.4326 53.9544C98.6348 52.574 98.1668 45.8034 91.1713 42.5168C87.7717 41.0049 65.4513 38.0469 60.9218 46.2634C60.9218 46.2634 53.1915 48.5642 53.3904 57.504C53.5237 64.8003 55.8564 71.4394 55.8564 71.4394ZM99.6339 67.101C99.6339 67.101 99.6339 67.0352 99.6339 66.9695C99.6993 66.9037 99.6339 67.101 99.6339 67.101Z" fill="black"/>
<path fill-rule="evenodd" clip-rule="evenodd" d="M26.9382 119.646C26.9382 119.646 23.5366 125.312 23.5366 126.901C23.5366 128.424 21.3372 130.458 21.3372 131.716C21.3372 132.908 19.7977 139.816 19.7977 139.816C19.7977 139.816 31.0923 140.244 32.3338 138.721C33.5729 137.132 28.8319 118.388 26.9382 119.646Z" fill="#B2B2B2"/>
<path d="M27.0808 119.595C27.2819 119.595 27.5204 119.703 27.8142 120.022C28.1076 120.342 28.4282 120.843 28.7908 121.558C29.7133 123.473 31.0069 127.371 31.9041 130.995C32.3526 132.807 32.699 134.54 32.8513 135.914C32.9275 136.602 32.954 137.191 32.9226 137.651C32.8902 138.126 32.7991 138.411 32.6882 138.542L32.6853 138.546C32.6314 138.612 32.5506 138.714 32.322 138.838C32.0841 138.967 31.6806 139.123 30.9783 139.271C29.5716 139.57 27.0104 139.832 22.2849 139.832H20.0203C20.0246 139.832 20.0159 139.832 19.9919 139.824C19.9698 139.817 19.9433 139.805 19.9148 139.789C19.8723 139.766 19.839 139.739 19.8181 139.723C19.7971 139.68 19.7844 139.651 19.7781 139.626C19.7747 139.613 19.7751 139.606 19.7751 139.604L19.7898 139.575L19.7957 139.546C19.9953 138.662 20.3792 137.002 20.7126 135.441C20.8793 134.661 21.0341 133.904 21.1472 133.279C21.2587 132.663 21.3347 132.152 21.3347 131.879C21.3347 131.579 21.4456 131.262 21.6453 130.9C21.8455 130.538 22.1183 130.157 22.4226 129.726L22.4236 129.727L22.4265 129.722C22.6925 129.327 22.9663 128.906 23.1736 128.497C23.3784 128.093 23.5339 127.673 23.5339 127.285C23.5339 126.925 23.6968 126.32 23.9714 125.573C24.2418 124.838 24.6075 124 24.9851 123.191C25.7308 121.594 26.5163 120.123 26.6931 119.807C26.7335 119.758 26.7596 119.714 26.7732 119.688C26.7752 119.684 26.7765 119.68 26.7781 119.677C26.8879 119.63 27.0141 119.595 27.0808 119.595Z" stroke="black" stroke-width="0.5"/>
<path fill-rule="evenodd" clip-rule="evenodd" d="M135.276 113.69C135.276 113.69 138.412 110.404 139.66 111.578C140.841 112.818 141.86 118.145 141.86 118.145C141.86 118.145 143.514 121.828 144.499 122.742C145.418 123.656 147.091 129.09 147.358 130.622C147.62 132.123 146.845 139.49 145.598 139.816C144.35 140.077 131.27 137.994 131.27 137.994L135.276 113.69Z" fill="#B2B2B2"/>
<path d="M138.88 111.465C139.291 111.465 139.574 111.573 139.865 111.795C140.147 112.087 140.409 112.558 140.642 113.141C140.877 113.726 141.074 114.399 141.238 115.062C141.566 116.39 141.75 117.651 141.819 118.05L141.823 118.074L141.833 118.098C142.041 118.631 142.468 119.57 142.928 120.457C143.159 120.901 143.399 121.336 143.626 121.702C143.793 121.973 143.96 122.217 144.114 122.4L144.263 122.562C144.514 122.803 144.815 123.322 145.135 124.024C145.449 124.715 145.766 125.55 146.057 126.392C146.636 128.065 147.104 129.744 147.241 130.331C147.286 130.598 147.305 131.302 147.273 132.239C147.242 133.17 147.162 134.307 147.019 135.421C146.876 136.537 146.671 137.619 146.393 138.444C146.254 138.857 146.1 139.195 145.934 139.438C145.774 139.672 145.62 139.79 145.482 139.832H144.98C143.715 139.832 140.347 139.395 137.213 138.937C135.651 138.708 134.154 138.475 133.019 138.292C132.452 138.2 131.975 138.121 131.626 138.061C131.268 137.999 131.06 137.959 131.016 137.947L130.984 137.938H130.95C130.954 137.938 130.921 137.934 130.885 137.882C130.852 137.835 130.839 137.778 130.852 137.729L130.855 137.719L130.857 137.708L134.991 113.805L134.995 113.783V113.762C134.995 113.751 134.996 113.747 134.997 113.745C134.997 113.744 134.998 113.742 135 113.739C135.002 113.736 135.006 113.73 135.015 113.72C135.025 113.709 135.037 113.698 135.054 113.681L135.067 113.669L135.078 113.654C135.113 113.609 135.27 113.448 135.528 113.221C135.78 112.999 136.114 112.728 136.49 112.465C136.867 112.201 137.283 111.949 137.699 111.764C138.117 111.577 138.522 111.465 138.88 111.465Z" stroke="black" stroke-width="0.5"/>
<path fill-rule="evenodd" clip-rule="evenodd" d="M102.735 102.245C102.735 102.245 133.615 109.916 137.681 110.703C140.348 111.227 134.101 119.226 133.502 137.846C133.434 139.419 102.412 137.32 101.612 137.189C100.812 137.058 102.735 102.245 102.735 102.245Z" fill="#B2B2B2"/>
<path d="M102.467 102.179L102.496 102.194L102.529 102.201C102.531 102.201 102.539 102.203 102.557 102.208C102.576 102.212 102.602 102.218 102.636 102.226C102.703 102.243 102.798 102.266 102.919 102.296C103.161 102.357 103.508 102.444 103.944 102.553C104.818 102.772 106.052 103.081 107.536 103.454C110.504 104.198 114.472 105.193 118.555 106.208C126.202 108.108 134.267 110.085 136.896 110.625L137.349 110.714L137.351 110.715C137.671 110.768 137.882 110.921 138.047 111.135C138.222 111.443 138.255 111.881 138.124 112.608C137.992 113.339 137.709 114.303 137.32 115.62L137.285 115.74L137.24 115.886C135.97 120.005 133.818 126.986 133.489 137.649V137.657C133.489 137.765 133.47 137.821 133.409 137.876C133.327 137.951 133.144 138.045 132.74 138.129C131.938 138.297 130.418 138.397 127.557 138.397C123.181 138.397 116.875 138.132 111.569 137.852C108.917 137.712 106.516 137.568 104.732 137.451C103.841 137.392 103.104 137.34 102.567 137.298C102.034 137.257 101.715 137.226 101.631 137.212C101.569 137.197 101.561 137.192 101.553 137.185C101.544 137.178 101.509 137.145 101.469 137.018C101.384 136.754 101.312 136.215 101.274 135.093C101.2 132.866 101.267 128.453 101.566 119.651C101.732 115.362 101.898 111.073 102.031 107.839C102.097 106.223 102.156 104.871 102.201 103.915C102.224 103.436 102.244 103.058 102.26 102.795C102.268 102.664 102.274 102.564 102.28 102.495C102.283 102.466 102.284 102.444 102.286 102.429L102.297 102.41V102.351C102.297 102.325 102.303 102.293 102.317 102.26C102.325 102.243 102.334 102.231 102.341 102.221C102.385 102.2 102.415 102.187 102.44 102.181C102.462 102.176 102.466 102.179 102.467 102.179Z" stroke="black" stroke-width="0.5"/>
<path fill-rule="evenodd" clip-rule="evenodd" d="M26.7607 119.815C26.7607 119.815 31.1303 136.476 30.8005 138.502C30.5362 140.464 59.4714 139.287 59.4714 139.287L60.4001 105.237C60.4001 105.237 49.4739 111.186 45.7664 112.755C41.9909 114.258 27.5561 118.573 26.7607 119.815Z" fill="#B2B2B2"/>
<path d="M60.9351 104.803C60.9515 104.803 60.9729 104.809 60.9937 104.829L61.022 104.857L61.0591 104.876C61.073 104.883 61.0995 104.897 61.1118 104.963L61.1187 105.048L60.1851 139.043V139.05C60.185 139.117 60.1593 139.174 60.1245 139.212C60.0878 139.252 60.0514 139.262 60.0347 139.262C59.963 139.262 57.6984 139.344 54.4868 139.427C51.2665 139.509 47.079 139.592 43.1431 139.592C37.4704 139.592 34.4641 139.394 32.8472 139.157C32.0379 139.039 31.5904 138.913 31.3354 138.805C31.0953 138.703 31.0311 138.618 30.9858 138.562L30.9771 138.552L30.9673 138.542C30.8933 138.469 30.8431 138.343 30.8423 138.195C30.8744 137.972 30.8613 137.635 30.8169 137.229C30.7686 136.788 30.6827 136.234 30.5679 135.596C30.3382 134.318 29.9883 132.686 29.5747 130.897C28.7503 127.333 27.6696 123.139 26.77 119.873C26.7707 119.761 26.7749 119.696 26.8032 119.634C26.8481 119.572 26.9334 119.49 27.0786 119.388C27.2314 119.28 27.4378 119.158 27.7036 119.021C28.2353 118.749 28.9872 118.427 29.9897 118.04C31.9945 117.267 34.9766 116.245 39.1489 114.858L39.1509 114.857C42.0057 113.873 44.7664 113.007 46.1157 112.407L46.1147 112.406C47.9653 111.64 51.6118 109.755 54.8013 108.066C56.4 107.22 57.8888 106.422 58.9849 105.835C59.5332 105.541 59.9827 105.301 60.2993 105.134C60.4577 105.05 60.5816 104.986 60.6675 104.942C60.7032 104.924 60.7312 104.911 60.7515 104.901H60.8042L60.8774 104.829C60.898 104.809 60.9187 104.803 60.9351 104.803Z" stroke="black" stroke-width="0.5"/>
<path fill-rule="evenodd" clip-rule="evenodd" d="M65.5582 88.6738L66.4918 102.968C66.4918 102.968 75.3496 111.779 79.1469 111.975C82.8786 112.105 85.1434 111.975 87.3427 109.886C89.5396 107.732 94.5371 103.098 95.136 101.075C95.8029 99.117 95.0027 88.8043 95.136 88.0865C95.3349 87.3032 65.5582 88.6738 65.5582 88.6738Z" fill="#D8D8D8"/>
<path d="M66.2498 102.989L66.2488 102.981L65.323 88.6172C65.323 88.5868 65.3238 88.5678 65.3298 88.5469C65.3351 88.5288 65.3469 88.501 65.3816 88.4668L65.3835 88.4648C65.3857 88.4627 65.3928 88.4562 65.406 88.4473C65.4187 88.4387 65.4338 88.4304 65.449 88.4229C65.4645 88.4152 65.4778 88.4099 65.4861 88.4072C65.4873 88.4069 65.4883 88.4065 65.489 88.4062C65.8254 88.3951 70.3079 88.1877 75.6541 87.9805C81.1595 87.767 87.5951 87.5537 91.4304 87.5537C93.2192 87.5537 94.1307 87.6029 94.616 87.6738C94.8579 87.7092 94.9764 87.748 95.0398 87.7783C95.0913 87.803 95.1114 87.8229 95.157 87.8682C95.1541 87.8647 95.156 87.8668 95.1609 87.877C95.1666 87.8889 95.1734 87.9054 95.1775 87.9238C95.1816 87.9425 95.183 87.9591 95.1824 87.9707C95.1817 87.982 95.1796 87.9842 95.1814 87.9805L95.155 88.0322V88.0918C95.155 88.2279 95.1721 88.6803 95.1882 89.2725C95.2046 89.8706 95.2205 90.6233 95.2205 91.375V91.3857C95.3199 93.6184 95.4024 95.7647 95.4109 97.5156C95.4151 98.3911 95.4009 99.1645 95.3611 99.7988C95.3211 100.435 95.2566 100.914 95.1667 101.213C95.0307 101.632 94.7038 102.18 94.2312 102.816C93.7622 103.448 93.164 104.149 92.5046 104.872C91.845 105.596 91.1276 106.338 90.4216 107.052L88.408 109.058C88.2118 109.252 88.0199 109.426 87.8328 109.604C87.6558 109.771 87.4853 109.939 87.3445 110.111C85.4239 111.947 83.5147 112.334 80.8347 112.334H79.0603C78.1697 112.288 76.9503 111.739 75.5876 110.889C74.2365 110.046 72.7837 108.933 71.4343 107.812C68.8291 105.647 66.6301 103.467 66.3328 103.172C66.3206 103.149 66.3106 103.129 66.3005 103.111C66.2834 103.082 66.2729 103.065 66.2644 103.048C66.2515 103.023 66.2498 103.012 66.2498 102.997V102.989Z" stroke="black" stroke-width="0.5"/>
<path fill-rule="evenodd" clip-rule="evenodd" d="M58.7255 73.9283C58.7255 73.9283 56.5291 70.5757 55.6465 71.3017C54.0849 72.6875 55.8502 82.4096 55.8502 82.4096C55.8502 82.4096 58.5189 87.4403 59.6052 86.1864C60.7594 84.9325 58.7255 73.9283 58.7255 73.9283Z" fill="#D8D8D8"/>
<path d="M56.0618 71.2939C56.2304 71.2939 56.4451 71.392 56.6995 71.6133C56.948 71.8295 57.202 72.1353 57.4485 72.4814C57.9232 73.1483 58.3414 73.9292 58.6057 74.4238V74.4551L58.6125 74.4844C58.9035 75.6824 59.4699 78.2756 59.8254 80.7285C60.0033 81.9558 60.1269 83.1404 60.1389 84.0947C60.1449 84.5721 60.1234 84.9841 60.0686 85.3115C60.0131 85.6426 59.9279 85.8528 59.8362 85.9639C59.6086 86.1887 59.4131 86.2715 59.2434 86.2715C58.9904 86.2715 58.6778 86.1253 58.3225 85.8359C57.9738 85.5519 57.6177 85.1571 57.2825 84.7256C56.6124 83.8629 56.0514 82.8858 55.8293 82.4424L55.8127 82.4082L55.7903 82.3848L55.7883 82.375C55.6274 81.5699 55.2233 79.1589 55.0618 76.7744C54.9809 75.5813 54.9614 74.4044 55.0608 73.4424C55.1105 72.9613 55.1894 72.5414 55.301 72.2041C55.4136 71.8639 55.5527 71.6294 55.7083 71.4922L55.7151 71.4863L55.7209 71.4795C55.8318 71.3673 55.9674 71.2942 56.0618 71.2939Z" stroke="black" stroke-width="0.5"/>
<path fill-rule="evenodd" clip-rule="evenodd" d="M98.0933 70.4264C98.0933 70.4264 98.2266 67.2573 99.7082 66.934C101.124 66.6105 101.832 70.5058 101.832 72.8343C101.832 75.0979 101.164 82.774 99.4129 82.9033C97.6597 83.0975 96.1139 82.7292 96.1139 81.3711C96.1139 80.0127 98.0933 70.4264 98.0933 70.4264Z" fill="#D8D8D8"/>
<path d="M99.8716 66.9902C100.182 66.9903 100.469 67.1357 100.738 67.4912C101.013 67.8543 101.256 68.4235 101.457 69.2295V69.2305C101.72 70.3234 101.855 71.749 101.855 73.1162C101.855 73.1167 101.855 73.1191 101.855 73.124C101.855 73.1294 101.854 73.1375 101.854 73.1475C101.854 73.1674 101.854 73.1964 101.853 73.2334C101.852 73.3075 101.85 73.4145 101.846 73.5498C101.839 73.8206 101.827 74.2045 101.803 74.6641C101.756 75.5841 101.666 76.8048 101.494 78.0273C101.321 79.2533 101.069 80.4664 100.703 81.3789C100.52 81.8355 100.313 82.2031 100.085 82.458C99.8602 82.7103 99.6268 82.8399 99.3804 82.8584L99.3657 82.8594L99.3511 82.8623C99.0386 82.9228 98.7246 82.9229 98.4507 82.9229C97.9833 82.9229 97.5229 82.872 97.1821 82.6514C96.8642 82.4454 96.603 82.0586 96.603 81.2666C96.6031 80.9384 96.6768 80.145 96.7925 79.1143C96.9074 78.0902 97.0619 76.849 97.2183 75.6377C97.5313 73.2118 97.8514 70.9176 97.8843 70.7266L97.8882 70.7051V70.6846C97.8882 70.5391 97.9374 69.6767 98.1997 68.8096C98.3307 68.3767 98.5108 67.9562 98.7544 67.625C98.9916 67.3024 99.2802 67.0762 99.6353 66.9902H99.8716Z" stroke="black" stroke-width="0.5"/>
<path fill-rule="evenodd" clip-rule="evenodd" d="M57.6698 64.6425C57.6698 64.6425 58.5354 83.1662 59.5369 85.3261C60.468 87.4862 71.1275 103.457 73.9936 103.457C76.7919 103.457 84.6531 103.457 86.8524 101.624C89.0517 99.7918 95.5793 93.9009 95.3125 91.4789C94.9803 88.9917 98.0453 80.3516 97.7785 76.359C97.4439 72.3661 98.7121 70.2062 98.1108 67.7187C97.5118 65.297 95.5793 52.3369 92.1821 49.915C88.7171 47.4277 77.1241 44.9405 69.9297 48.344C62.6673 51.7478 57.0709 56.3296 57.6698 64.6425Z" fill="#D8D8D8"/>
<path d="M78.5088 46.1875C81.4672 46.1875 84.3277 46.611 86.7266 47.2295C89.1284 47.8487 91.0487 48.6577 92.1406 49.4199V49.4209C92.818 49.9089 93.4534 50.8187 94.04 52.0215C94.6235 53.2178 95.1449 54.6752 95.6064 56.2266C96.5296 59.3293 97.2064 62.779 97.6709 65.207L97.6719 65.21C97.8184 65.9355 97.931 66.5731 98.0361 67.0459L98.1396 67.4609C98.4544 68.7134 98.2666 69.9053 98.0664 71.3584C97.8669 72.6751 97.6656 74.2048 97.8008 76.1338V76.1387C97.8958 77.2189 97.736 78.6508 97.4551 80.2217C97.1752 81.7869 96.7799 83.4677 96.416 85.043C96.0847 86.3564 95.7853 87.6262 95.585 88.7002C95.3867 89.7632 95.2784 90.6685 95.3506 91.2373C95.385 91.5278 95.327 91.8811 95.1758 92.292C95.0249 92.7018 94.7866 93.1536 94.4795 93.6348C93.8649 94.5975 92.9883 95.654 92.0283 96.6865C90.1099 98.75 87.8841 100.694 86.8281 101.576L86.8252 101.579C86.3531 101.986 85.6123 102.319 84.668 102.583C83.7285 102.846 82.6108 103.034 81.4053 103.169C78.9941 103.438 76.2569 103.487 73.9404 103.487C73.6229 103.487 73.1584 103.276 72.5586 102.825C71.9714 102.384 71.2965 101.745 70.5664 100.962C69.1067 99.3972 67.4487 97.2838 65.8613 95.1016C64.2749 92.9207 62.7629 90.6756 61.5938 88.8496C60.4189 87.0146 59.6038 85.6237 59.3984 85.1387V85.1377L59.3203 84.9121C59.2403 84.6415 59.1553 84.2359 59.0693 83.71C58.9562 83.0179 58.8443 82.1428 58.7354 81.1475C58.5175 79.157 58.3128 76.6956 58.1348 74.2773C57.9572 71.8653 57.8063 69.4901 57.6953 67.6729L57.4971 64.416C57.1727 59.8018 58.7175 56.3919 61.1006 53.7734C63.4924 51.1454 66.7346 49.3094 69.8057 47.8701L69.8076 47.8682C72.085 46.7735 75.0911 46.1875 78.5088 46.1875Z" stroke="black" stroke-width="0.5"/>
<path fill-rule="evenodd" clip-rule="evenodd" d="M63.4485 102.617C63.4485 102.617 75.3058 109.608 77.9707 109.608C80.6355 109.608 83.2325 109.411 84.2315 108.951C85.1651 108.492 98.8216 101.172 98.8216 101.172L98.955 141.038L62.6483 139.33L63.4485 102.617Z" fill="#BDBDBD"/>
<path d="M98.8137 100.76C98.8221 100.759 98.8474 100.757 98.9045 100.794L98.9172 100.803L98.9319 100.81C98.9261 100.807 98.9428 100.815 98.9631 100.861C98.9821 100.903 98.9905 100.951 98.9905 100.98V100.981L99.1213 140.753V140.953C99.1191 140.955 99.1179 140.958 99.1155 140.96C99.0604 141.01 99.0018 141.027 98.9768 141.027H98.9114L62.8801 139.321H62.8684C62.7421 139.321 62.6579 139.236 62.6555 139.117L63.4485 102.364V102.358C63.4486 102.324 63.4643 102.268 63.5344 102.186C63.5844 102.173 63.6111 102.17 63.6262 102.171C63.6351 102.172 63.6512 102.175 63.6848 102.208L63.7053 102.228L63.7297 102.243C65.3855 103.261 68.4314 105.085 71.3215 106.655C72.7663 107.44 74.1764 108.163 75.3557 108.691C75.945 108.955 76.4808 109.172 76.9368 109.323C77.3865 109.472 77.7809 109.565 78.0793 109.565C79.6369 109.565 80.9668 109.515 82.0012 109.424C83.0227 109.334 83.7911 109.202 84.1985 109.018L84.2063 109.014C84.6776 108.78 88.2759 106.757 91.759 104.783C93.5035 103.794 95.2229 102.815 96.5149 102.076C97.1608 101.706 97.7001 101.395 98.0823 101.173C98.2731 101.062 98.4255 100.973 98.5325 100.91C98.5858 100.878 98.629 100.851 98.6604 100.832C98.6759 100.822 98.6907 100.813 98.7024 100.805C98.7031 100.805 98.7041 100.803 98.7063 100.801C98.7679 100.771 98.7927 100.763 98.8137 100.76Z" stroke="black" stroke-width="0.5"/>
<path fill-rule="evenodd" clip-rule="evenodd" d="M71.4816 137.408C71.4816 137.408 75.2774 125.808 78.5194 120.991C78.5194 120.991 83.6644 121.348 83.7977 121.81C83.9941 122.272 83.0702 123.526 83.3345 124.912C83.6643 126.298 86.0606 134.879 87.3166 137.189L87.0967 137.408L71.4816 137.627V137.408Z" fill="#2A2A2A"/>
<path d="M78.7742 121.029C81.2772 121.191 82.5568 121.386 83.2146 121.572C83.545 121.666 83.6919 121.75 83.7576 121.808C83.8068 121.851 83.8155 121.88 83.8269 121.935L83.8308 121.957L83.8396 121.979C83.8812 122.08 83.8859 122.187 83.8523 122.33C83.8167 122.482 83.7438 122.655 83.6414 122.887L83.6375 122.896L83.6335 122.907C83.4324 123.491 83.2086 124.198 83.3552 124.983L83.3562 124.988C83.4937 125.652 84.1675 128.098 84.9548 130.646C85.734 133.169 86.6385 135.837 87.2566 136.983C87.3036 137.128 87.2914 137.183 87.2683 137.229C87.2272 137.308 87.1652 137.355 87.0876 137.355H87.0828L71.6697 137.68C71.5604 137.68 71.5194 137.656 71.5017 137.637L71.49 137.62L71.489 137.617C71.4546 137.549 71.4366 137.512 71.4285 137.476C71.4223 137.448 71.4214 137.414 71.4392 137.363L71.4431 137.351C71.5081 137.13 72.4588 134.248 73.8132 130.827C75.1705 127.399 76.9206 123.462 78.5769 121.118L78.5867 121.104L78.5945 121.09C78.6038 121.072 78.6286 121.03 78.7742 121.029Z" stroke="black" stroke-width="0.5"/>
<path fill-rule="evenodd" clip-rule="evenodd" d="M74.0791 110.825C74.0791 110.825 83.3589 111.73 86.7803 110.372L89.8732 114.928L83.1379 123.617C83.1379 123.617 79.9499 120.805 77.45 122.357C77.45 122.357 74.094 117.443 71.9214 115.956L74.0791 110.825Z" fill="#2A2A2A"/>
<path d="M83.1693 123.789C83.1865 123.641 83.2759 123.648 83.3441 123.735C83.3107 123.747 83.2758 123.757 83.2328 123.757L83.1683 123.817L83.1693 123.789ZM86.8129 110.356C86.8722 110.374 86.9317 110.412 86.973 110.449L89.8871 114.611L89.9008 114.63L89.9174 114.646C89.9257 114.654 89.9418 114.682 89.9418 114.729C89.9417 114.776 89.9259 114.804 89.9174 114.812L89.9037 114.825L89.8929 114.84L83.3988 123.43C83.3814 123.439 83.3658 123.448 83.3519 123.456C83.3223 123.473 83.3043 123.483 83.2875 123.491C83.2626 123.503 83.2511 123.507 83.2328 123.507H83.1312L83.0892 123.546C83.0775 123.54 83.0636 123.532 83.0453 123.521C83.0313 123.514 83.015 123.506 82.9974 123.496C82.9963 123.495 82.9955 123.493 82.9945 123.492C82.9738 123.47 82.9472 123.445 82.9183 123.419C82.8595 123.366 82.7771 123.298 82.6752 123.22C82.4703 123.063 82.1792 122.862 81.8314 122.664C81.1418 122.271 80.1981 121.871 79.2367 121.871C78.6672 121.871 78.0822 122.01 77.6342 122.305C77.5697 122.346 77.4434 122.35 77.3031 122.225C77.2953 122.212 77.2866 122.197 77.2767 122.182C77.2495 122.139 77.2096 122.08 77.1605 122.009C77.062 121.865 76.9201 121.664 76.7435 121.42C76.3898 120.932 75.896 120.272 75.3353 119.569C74.2319 118.186 72.8428 116.603 71.7455 115.851C71.722 115.824 71.6934 115.776 71.6781 115.711C71.6622 115.643 71.6656 115.579 71.6791 115.534L73.7367 110.973L73.7416 110.961L73.7465 110.948C73.7748 110.864 73.8711 110.795 73.9701 110.793C73.9741 110.793 73.9787 110.794 73.9838 110.795C74.0072 110.797 74.0421 110.801 74.0873 110.806C74.1778 110.815 74.3108 110.827 74.4799 110.843C74.8184 110.874 75.3034 110.914 75.8881 110.955C77.0569 111.037 78.6287 111.119 80.2357 111.119C83.2332 111.119 85.474 110.86 86.6556 110.382L86.6781 110.372L86.6986 110.358C86.7161 110.347 86.7494 110.337 86.8129 110.356Z" stroke="black" stroke-width="0.5"/>
<path fill-rule="evenodd" clip-rule="evenodd" d="M65.3595 99.9351C65.3595 99.9351 62.1254 106.264 62.1254 107.052C62.1254 107.774 70.6641 119.133 71.4594 119.396C72.1893 119.724 74.2524 112.803 78.2994 110.046C78.2994 110.046 65.5584 102.43 65.3595 99.9351Z" fill="#BDBDBD"/>
<path d="M65.4688 99.9893C65.5156 100.009 65.5416 100.029 65.5566 100.048C65.5729 100.068 65.5937 100.107 65.5938 100.192V100.203L65.5947 100.214C65.6179 100.486 65.7899 100.785 66.0195 101.084C66.2569 101.393 66.5882 101.741 66.9883 102.114C67.7894 102.862 68.8887 103.735 70.126 104.641C72.5905 106.444 75.6229 108.39 77.9844 109.76C78.0767 109.855 78.0938 109.918 78.0938 109.953C78.0937 110.087 78.0538 110.109 78.0332 110.119L78.0166 110.127L78.001 110.138C75.4798 111.873 73.9229 115.062 72.8672 117.127C72.4634 117.917 72.1907 118.466 71.9453 118.823C71.7107 119.164 71.5469 119.26 71.3828 119.267C71.3798 119.265 71.3763 119.264 71.3721 119.262C71.3577 119.255 71.3291 119.24 71.2979 119.229C71.2822 119.223 71.2631 119.217 71.2412 119.212C71.2317 119.206 71.2188 119.198 71.2041 119.187C71.1698 119.16 71.1265 119.124 71.0742 119.075C70.9694 118.978 70.8376 118.843 70.6816 118.673C70.3701 118.333 69.9732 117.864 69.5195 117.307C68.6127 116.192 67.489 114.731 66.3936 113.253C65.2981 111.775 64.2321 110.282 63.4414 109.103C63.0458 108.513 62.7212 108.003 62.4961 107.616C62.3834 107.422 62.2976 107.263 62.2412 107.141C62.2132 107.08 62.1943 107.032 62.1826 106.997C62.1695 106.957 62.1709 106.948 62.1709 106.96C62.1709 106.895 62.1968 106.761 62.2617 106.55C62.3241 106.347 62.4148 106.096 62.5283 105.809C62.7554 105.235 63.0675 104.53 63.4033 103.804C64.0746 102.352 64.837 100.826 65.2012 100.111L65.209 100.096L65.2148 100.08C65.2233 100.056 65.2361 100.039 65.2725 100.022C65.3123 100.005 65.3755 99.9925 65.4688 99.9893Z" stroke="black" stroke-width="0.5"/>
<path fill-rule="evenodd" clip-rule="evenodd" d="M95.4754 95.811L95.0142 98.2256C95.0142 98.2256 87.7142 106.284 82.918 109.389C82.918 109.389 89.8768 116.497 90.1387 118.083C90.1387 118.083 99.591 108.801 100.512 104.574L100.732 100.415L95.4754 95.811Z" fill="#BDBDBD"/>
<path d="M95.6193 95.9575L95.6544 95.9819L95.6642 95.9907L101.076 100.769L101.103 100.792L101.122 100.801C101.123 100.807 101.125 100.816 101.126 100.829L101.128 100.91L100.992 104.041V104.083C100.744 105.079 99.9954 106.415 98.9747 107.886C97.9512 109.361 96.6745 110.946 95.4132 112.416C92.893 115.352 90.4482 117.815 90.2462 118.011C90.2388 118.018 90.2159 118.035 90.1798 118.05C90.1447 118.065 90.1092 118.073 90.0802 118.073H90.0138C89.968 118.042 89.9213 117.999 89.8849 117.937L89.8439 117.848C89.8038 117.679 89.7066 117.475 89.5802 117.258C89.441 117.02 89.2528 116.74 89.0294 116.43C88.5824 115.81 87.9822 115.058 87.3126 114.258C85.9728 112.658 84.3459 110.855 83.0929 109.511L83.0939 109.51L83.0841 109.501L83.045 109.441C83.0393 109.428 83.0357 109.415 83.0323 109.403C83.0534 109.363 83.0726 109.326 83.0919 109.293C83.1156 109.254 83.1328 109.229 83.1437 109.216C85.4277 107.79 88.1683 105.334 90.4327 103.118C92.7108 100.888 94.5269 98.8844 94.9406 98.3843L94.9874 98.3286L94.9962 98.2563L95.2609 96.1431C95.2867 96.0943 95.3046 96.0649 95.3263 96.0405C95.3466 96.0178 95.3758 95.9947 95.4337 95.9761L95.4503 95.9702L95.4659 95.9634C95.4925 95.9507 95.5314 95.942 95.5704 95.9458C95.5889 95.9476 95.6053 95.9514 95.6193 95.9575Z" stroke="black" stroke-width="0.5"/>
<path fill-rule="evenodd" clip-rule="evenodd" d="M65.0853 100.668C65.0853 100.668 64.1376 133.484 65.7633 140.547C66.1716 142.378 47.6497 139.597 47.6497 139.597L43.9901 119.075C43.9901 119.075 51.782 117.398 52.935 116.613C54.0188 115.828 49.6144 113.867 49.2754 112.951C48.9365 111.97 60.0489 106.323 61.541 103.903C62.0136 103.119 64.1376 100.799 65.0853 100.668Z" fill="#B2B2B2"/>
<path d="M64.8091 100.705C64.8632 100.705 64.8942 100.706 64.9224 100.713C64.9464 100.719 64.9726 100.731 65.0063 100.764L65.0347 100.792L65.0698 100.809C65.0745 100.811 65.0783 100.815 65.0815 100.817L65.063 100.853V100.923C65.0629 100.929 65.0622 100.937 65.062 100.947C65.0616 100.967 65.0618 100.995 65.061 101.031C65.0595 101.101 65.0562 101.201 65.0532 101.329C65.0473 101.584 65.0391 101.949 65.0288 102.411C65.0082 103.335 64.9811 104.645 64.9526 106.229C64.8958 109.398 64.835 113.665 64.8228 118.139C64.8105 122.613 64.8461 127.297 64.98 131.297C65.1129 135.266 65.3431 138.586 65.7261 140.358C65.7256 140.542 65.7179 140.658 65.6411 140.776C65.5501 140.886 65.4029 141.007 65.022 141.101C64.6211 141.2 63.9828 141.266 62.9292 141.266C58.1799 141.266 48.4649 139.761 47.9888 139.694L47.9712 139.692H47.9536C47.9453 139.692 47.9253 139.69 47.8911 139.652C47.8563 139.613 47.8228 139.552 47.7974 139.479L44.2271 119.525C44.2299 119.439 44.2534 119.367 44.2837 119.322C44.3113 119.281 44.3385 119.267 44.3745 119.267H44.4067L44.439 119.259C45.9333 118.865 47.8422 118.322 49.4858 117.813C50.3073 117.558 51.0643 117.311 51.6714 117.094C52.2698 116.88 52.7461 116.688 52.9868 116.542L53.1577 116.437L53.0933 116.248C53.0402 116.092 52.9131 115.938 52.7827 115.806C52.6447 115.666 52.4716 115.52 52.2896 115.377C51.9249 115.092 51.5035 114.808 51.2046 114.611C50.6778 114.252 50.2585 113.948 49.9478 113.679C49.6411 113.414 49.4641 113.203 49.3843 113.03C49.3586 112.924 49.3666 112.82 49.4487 112.679C49.5443 112.515 49.7367 112.307 50.0903 112.021C50.7959 111.451 52.0563 110.64 54.1812 109.326H54.1821C55.6055 108.441 57.2173 107.437 58.5649 106.506C59.2387 106.041 59.8507 105.592 60.3413 105.182C60.8262 104.777 61.2139 104.394 61.4185 104.062L61.4233 104.053C61.5768 103.781 62.1597 102.977 62.8569 102.213C63.2039 101.834 63.5725 101.471 63.9233 101.194C64.2739 100.917 64.5784 100.748 64.8091 100.705Z" stroke="black" stroke-width="0.5"/>
<path fill-rule="evenodd" clip-rule="evenodd" d="M96.7737 97.3467C96.7737 97.3467 97.5666 131.904 96.9725 137.028L111.673 138.408C111.673 138.408 118.456 119.747 118.456 114.228L110.409 111.223L114.021 108.928C114.021 108.928 103.551 102.999 101.832 100.634C100.113 98.3343 96.7737 97.3467 96.7737 97.3467Z" fill="#B2B2B2"/>
<path d="M97.1549 97.1582H97.1559C97.3008 97.2279 99.9194 98.3132 101.686 100.604V100.605C102.116 101.198 103.092 101.995 104.276 102.844C105.472 103.7 106.913 104.631 108.305 105.493C111.081 107.212 113.682 108.668 113.769 108.712C113.79 108.722 113.831 108.745 113.831 108.88C113.831 108.916 113.812 108.981 113.715 109.079L110.858 111.023L110.455 111.297L110.913 111.465L118.416 114.206L118.423 114.209C118.519 114.24 118.586 114.338 118.586 114.429C118.585 115.781 118.183 117.896 117.563 120.341C116.945 122.778 116.118 125.521 115.282 128.117C113.637 133.224 111.962 137.746 111.774 138.28C111.736 138.351 111.675 138.397 111.602 138.397H111.548L97.2233 137.027L97.2106 137.026H97.1989C97.1698 137.026 97.1353 137.019 97.1012 137.005C97.0833 136.997 97.0703 136.987 97.0592 136.979C97.0529 136.966 97.0469 136.954 97.0416 136.942C97.0309 136.918 97.0244 136.9 97.0211 136.887C97.0189 136.878 97.0183 136.873 97.0182 136.87V136.869L97.0397 136.829L97.0446 136.784C97.1977 135.526 97.2607 132.448 97.2701 128.557C97.2796 124.657 97.2354 119.921 97.1725 115.331C97.1096 110.74 97.0276 106.294 96.9615 102.976C96.9285 101.317 96.8994 99.9395 96.8785 98.9668C96.8681 98.4801 96.8599 98.0951 96.8541 97.8262C96.8513 97.6918 96.8488 97.5867 96.8473 97.5127C96.8465 97.4758 96.8467 97.4468 96.8463 97.4258C96.8461 97.4153 96.8454 97.4066 96.8453 97.4004V97.3906C96.8453 97.256 96.8862 97.2328 96.9069 97.2227C96.9607 97.1963 97.0232 97.1729 97.0787 97.1621C97.1299 97.1522 97.1519 97.1576 97.1549 97.1582Z" stroke="black" stroke-width="0.5"/>
</g>
<path fill-rule="evenodd" clip-rule="evenodd" d="M143.492 134.838L146.961 130.25L149.085 127.5C149.085 127.5 151.311 128.627 151.113 129.6C150.979 130.574 150.786 134.133 149.986 134.967C149.25 135.801 148.783 136.427 148.783 136.427L143.492 134.838Z" fill="#D8D8D8"/>
<path d="M149.475 127.446L149.335 127.654L149.347 127.661C149.53 127.77 150.04 128.051 150.485 128.455C150.94 128.869 151.249 129.342 151.168 129.832L151.165 129.853V129.873C151.165 129.96 151.151 130.078 151.132 130.254C151.115 130.414 151.098 130.606 151.097 130.817C150.992 131.79 150.89 132.66 150.729 133.372C150.586 134.002 150.405 134.473 150.166 134.777L150.061 134.897C149.674 135.284 149.358 135.636 149.138 135.891C149.028 136.018 148.943 136.121 148.884 136.193C148.855 136.229 148.832 136.258 148.817 136.277C148.809 136.287 148.803 136.295 148.799 136.3C148.797 136.302 148.795 136.304 148.794 136.306L148.793 136.307V136.308H148.792L148.778 136.327L148.767 136.349C148.745 136.392 148.702 136.419 148.645 136.419H148.537L143.654 135.11L143.621 135.102H143.595C143.595 135.101 143.58 135.098 143.554 135.075C143.533 135.057 143.512 135.032 143.494 135.006C143.496 134.848 143.502 134.779 143.53 134.716L147.108 130.167L147.109 130.168L149.035 127.754C149.119 127.672 149.183 127.638 149.225 127.628C149.256 127.62 149.287 127.621 149.335 127.653L149.475 127.446Z" stroke="black" stroke-width="0.5"/>
<path fill-rule="evenodd" clip-rule="evenodd" d="M155.359 129.285C155.359 129.285 154.541 130.199 154.337 130.832C154.064 131.465 154.404 133.153 154.541 134.137C154.678 135.121 155.687 142.29 155.62 143.134C155.553 143.907 154.617 144.719 152.915 145.001C151.211 145.282 150.662 143.134 150.662 143.134C150.662 143.134 149.447 137.726 149.31 136.601C149.106 135.476 150.008 129.952 150.211 129.601C150.415 129.179 150.825 128.476 151.439 127.773C151.846 127.421 154.042 127.501 154.042 127.501C154.042 127.501 156.447 127.197 157.197 127.267C157.878 127.338 159.691 126.216 160.578 126.567C161.395 126.849 162.155 127.501 162.155 127.501C162.155 127.501 164.581 126.705 165.535 127.267C166.42 127.83 167.563 128.667 167.563 128.667C167.563 128.667 170.51 127.753 171.394 128.667C172.281 129.582 174.549 134.4 174.549 135.334C173.423 135.334 157.423 135.334 157.423 135.334L155.359 129.285Z" fill="#D8D8D8"/>
<path d="M174.549 135.333C174.549 133.933 171.841 129.093 171.434 128.672C170.477 127.691 168.296 128.322 167.478 128.602C167.068 128.322 166.32 127.691 165.637 127.27C164.75 126.709 162.979 127.2 162.228 127.48C161.888 127.2 161.138 126.779 160.524 126.569C159.843 126.288 159.023 126.639 158.275 126.989C157.865 127.13 157.388 127.34 157.185 127.34C156.434 127.27 154.253 127.48 153.91 127.55C153.093 127.48 151.798 127.55 151.321 127.971C150.638 128.742 150.161 129.514 149.957 129.864C149.753 130.355 149.207 135.544 149.343 136.736C149.547 137.857 150.367 142.065 150.367 142.205C150.367 142.345 150.638 144.028 151.661 144.799C152.002 145.009 152.342 145.08 152.683 145.08C152.819 145.08 152.889 145.08 153.025 145.08C155.547 144.589 155.888 143.116 155.888 142.626C155.957 142.065 155.614 139.26 155.07 135.193C155.001 134.702 154.934 134.352 154.934 134.141C154.934 133.931 154.867 133.721 154.867 133.51C154.73 132.809 154.593 131.477 154.73 131.126C154.867 130.636 155.48 129.934 155.684 129.724M157.592 135.403C157.319 135.403 157.115 135.193 157.115 134.913C157.115 134.702 157.319 134.422 157.592 134.422" stroke="black" stroke-width="0.5"/>
<path fill-rule="evenodd" clip-rule="evenodd" d="M160.127 129.367C160.127 129.367 159.381 132.559 159.451 133.334C159.451 134.038 160.405 138.392 160.405 138.955C160.405 139.519 160.666 143.9 160.803 144.534C160.87 145.097 160.204 146.422 159.451 146.634C158.628 146.845 157.518 146.427 156.972 145.934C156.356 145.44 155.032 142.46 155.169 141.967C155.236 141.474 154.312 135.08 154.312 134.587C154.312 134.094 153.68 131.027 153.817 130.534C154.227 128.983 156.07 128.667 156.07 128.667L160.127 129.367Z" fill="#D8D8D8"/>
<path d="M156.074 128.651C156.009 128.651 154.278 128.931 153.746 130.748C153.679 131.097 153.746 131.865 154.079 133.403C154.146 133.892 154.211 134.451 154.211 134.59C154.211 134.8 154.345 135.429 154.543 137.106C154.809 138.713 155.209 141.368 155.209 141.717C155.011 142.486 156.141 145.211 156.807 145.84C157.339 146.259 158.139 146.608 158.936 146.608C159.135 146.608 159.336 146.608 159.468 146.539C160.601 146.259 161.065 144.512 160.934 143.674C160.8 143.115 160.601 139.481 160.601 138.922C160.601 138.573 160.467 137.665 160.268 136.337C160.201 135.569 160.067 134.73 160.002 134.451C160.002 133.682 159.801 129.979 159.801 129.979" stroke="black" stroke-width="0.5" stroke-linecap="round"/>
<path fill-rule="evenodd" clip-rule="evenodd" d="M164.839 130.168C164.839 130.168 163.823 134.133 164.228 135.266C164.431 135.833 165.557 139.951 165.761 140.801C165.962 141.579 165.806 143.755 165.535 144.534C165.31 145.467 162.38 146.634 161.704 145.934C160.822 145.226 160.328 140.929 160.127 139.867C159.856 138.806 159.35 134.346 159.281 133.496C158.943 130.522 159.825 129.602 159.825 129.602L164.839 130.168Z" fill="#D8D8D8"/>
<path d="M160.158 129.302C160.091 129.442 159.145 130.492 159.483 133.571C159.55 134.271 160.022 138.89 160.293 140.01C160.36 140.29 160.429 140.85 160.429 141.48C160.63 143.649 160.834 145.189 161.507 145.749C161.845 145.959 162.183 146.099 162.658 146.099C162.926 146.099 163.197 146.029 163.535 145.959C164.345 145.749 165.224 145.259 165.493 144.629C165.831 143.72 165.898 141.13 165.696 140.29C165.629 139.94 165.562 138.82 165.562 137.84C165.493 136.37 165.426 135.461 165.291 135.041C165.088 134.341 165.629 131.821 165.967 130.352" stroke="black" stroke-width="0.5" stroke-linecap="round"/>
<path fill-rule="evenodd" clip-rule="evenodd" d="M166.129 130.002C166.129 130.002 164.408 132.426 164.408 132.634C164.341 132.772 163.958 137.749 163.958 138.234C163.958 138.649 164.754 141.924 165.085 142.201C165.415 142.477 167.166 142.496 167.563 141.734C168.465 141.034 168.239 137.534 168.239 137.534C168.239 137.534 169.46 135.08 169.592 134.734C169.726 134.318 170.973 133.509 171.169 132.401L166.129 130.002Z" fill="#D8D8D8"/>
<path d="M166.055 129.953C164.549 132.482 164.482 132.623 164.482 132.693C164.345 133.044 163.866 138.033 163.866 138.244C163.866 138.665 164.686 141.968 165.302 142.389C165.508 142.46 165.645 142.53 165.848 142.53C166.055 142.53 166.191 142.53 166.328 142.46C166.874 142.319 167.627 141.898 167.968 141.195C168.447 140.352 168.31 138.103 168.31 137.401C168.584 136.768 169.54 135.012 169.677 134.66C169.677 134.59 169.814 134.45 169.953 134.309C170.363 133.887 170.976 133.255 171.183 132.412" stroke="black" stroke-width="0.5" stroke-linecap="round"/>
<path d="M151.584 138.749C152.295 138.89 152.943 138.961 153.592 138.961H153.656" stroke="black" stroke-width="0.5" stroke-linecap="round"/>
<path d="M159.103 139.746H156.884" stroke="black" stroke-width="0.5" stroke-linecap="round"/>
<path d="M164.318 140.491C163.369 140.491 162.487 140.42 161.607 140.349" stroke="black" stroke-width="0.5" stroke-linecap="round"/>
<path d="M163.327 134.373C163.327 134.373 163.327 134.373 163.259 134.373L161.108 134.161" stroke="black" stroke-width="0.5" stroke-linecap="round"/>
<path d="M155.93 134.373C156.002 134.373 156.002 134.373 156.002 134.373L158.561 134.232" stroke="black" stroke-width="0.5" stroke-linecap="round"/>
<path d="M165.13 136.937L167.138 136.767" stroke="black" stroke-width="0.5" stroke-linecap="round"/>
<path fill-rule="evenodd" clip-rule="evenodd" d="M23.5701 136.47C23.5701 136.47 21.235 132.198 21.1008 130.93C20.9007 129.728 22.8357 128.593 22.8357 128.593C22.8357 128.593 27.0398 133.934 27.8402 134.401C28.6429 134.868 28.6429 136.938 27.8402 136.938C27.0398 136.938 23.5701 136.47 23.5701 136.47Z" fill="#D8D8D8"/>
<path d="M22.6542 128.45C22.724 128.404 22.8368 128.419 22.8993 128.511L22.9042 128.52L22.911 128.528C23.7667 129.598 24.8522 130.912 25.7821 131.992C26.2469 132.531 26.6746 133.014 27.0155 133.378C27.1856 133.56 27.3361 133.715 27.4598 133.833C27.5721 133.941 27.6807 134.036 27.7675 134.087V134.088C28.0593 134.272 28.278 134.613 28.3905 135.027C28.5025 135.439 28.5007 135.892 28.3846 136.263L28.3817 136.27L28.3807 136.277C28.2697 136.722 28.0145 136.929 27.703 136.929C27.3279 136.929 26.3291 136.819 25.3768 136.705C24.9051 136.648 24.4524 136.592 24.1034 136.549C23.9294 136.528 23.7804 136.51 23.6688 136.498C23.6091 136.491 23.5532 136.487 23.5087 136.483C23.3898 136.422 23.3487 136.393 23.329 136.354L23.3221 136.339L23.3134 136.327L23.1425 136.043C22.9001 135.621 22.464 134.818 22.0331 133.944C21.7472 133.364 21.4672 132.759 21.2509 132.22C21.0316 131.675 20.8884 131.222 20.8593 130.937L20.8573 130.927C20.7754 130.336 21.1293 129.764 21.5927 129.292C22.0468 128.828 22.5495 128.518 22.6522 128.451L22.6542 128.45Z" stroke="black" stroke-width="0.5"/>
<path fill-rule="evenodd" clip-rule="evenodd" d="M18.041 130.515C18.041 130.515 21.0288 129.568 21.3607 129.635C21.6291 129.701 24.1354 131.15 24.4038 131.615C24.6039 132.079 24.9017 135.924 24.9017 136.455C24.9017 136.986 23.8634 142.524 23.7951 143.055C23.7292 143.586 22.2952 144.968 21.3607 145.035C19.9577 145.168 18.9946 144.557 18.9263 143.495C18.7945 142.366 18.9943 137.339 19.1944 136.343C19.3944 135.347 19.0601 131.695 19.0601 131.695L18.041 130.515Z" fill="#D8D8D8"/>
<path d="M18.3379 142.441C18.4745 143.743 19.6213 145.11 21.1756 145.11C21.244 145.11 21.3098 145.11 21.3781 145.11C22.5274 144.98 23.8084 143.613 23.8767 142.832C23.945 142.701 24.011 141.92 24.1476 141.074C24.5526 138.536 24.8893 136.583 24.8893 136.193C24.8893 136.193 24.7552 132.288 24.4184 131.637C24.1476 130.986 21.8515 129.684 21.5124 129.619C21.3782 129.554 21.1073 129.554 17.8669 130.53" stroke="black" stroke-width="0.5"/>
<path fill-rule="evenodd" clip-rule="evenodd" d="M11.4016 130.295C11.4016 130.295 14.0998 128.469 14.5 128.535C16.3032 128.931 19.0158 131.176 19.1475 131.835C19.2159 132.428 19.1475 135.664 19.1475 136.455C19.0817 137.18 18.9262 143.033 18.9262 143.495C19.058 146.856 17.9773 148.049 17.377 148.115C14.9077 148.444 13.6594 147.542 13.3934 147.015C13.0592 146.488 13.3934 135.48 13.3934 135.48H1C1 135.48 1.77948 131.032 3.51434 130.175C3.9145 129.977 7.18169 129.845 7.78194 130.373C7.78194 130.373 10.7331 129.372 11.4016 130.295Z" fill="#D8D8D8"/>
<path d="M13.1113 147.032C13.448 147.557 14.2581 148.474 16.215 148.474C16.5518 148.474 16.8909 148.474 17.2959 148.409C17.9011 148.343 19.2529 147.688 19.0503 143.493C19.0503 143.034 19.3187 137.398 19.3871 136.677C19.3871 135.956 19.5213 132.613 19.3871 131.892C19.2529 130.975 16.3492 128.812 14.529 128.353C14.4606 128.353 14.3923 128.353 14.3923 128.353C13.8531 128.353 12.5696 129.14 11.4911 129.926C11.2203 129.729 10.8153 129.664 10.2077 129.664C9.33172 129.664 8.38742 129.861 7.91406 129.992C7.50902 129.795 6.69891 129.664 5.5521 129.664C5.48378 129.664 3.7294 129.664 3.32436 129.926C1.43578 130.844 1 134.6 1 135.48" stroke="black" stroke-width="0.5"/>
<path fill-rule="evenodd" clip-rule="evenodd" d="M13.3934 131.615C13.3934 131.615 14.0054 132.841 14.2787 133.375C14.4836 133.908 13.7677 140.674 13.836 141.075C13.9068 141.475 13.6094 146.993 13.6778 147.326C13.6778 147.593 12.8606 149.501 11.9016 149.435C10.9427 149.368 9.08747 148.495 8.74587 147.895C8.40426 147.228 8.44436 143.471 8.44436 142.737C8.37604 141.937 8.44436 135.186 8.44436 134.919C8.44436 134.586 8.23938 132.385 8.23938 132.385L13.3934 131.615Z" fill="#D8D8D8"/>
<path d="M8.30322 141.735C8.3691 141.998 8.43146 143.566 8.43146 144.16C8.36558 146.006 8.36557 147.391 8.62909 147.918C9.08782 148.709 10.5299 149.369 11.5791 149.435C11.5791 149.435 11.5791 149.435 11.645 149.435C12.1037 149.435 12.6283 149.171 13.0236 148.643C13.3505 148.314 13.8752 147.523 13.7434 147.127C13.7434 146.929 13.8093 145.413 13.8093 144.226C13.8752 142.182 13.941 141.193 13.8751 140.995C13.8751 140.863 13.941 139.742 14.0728 138.753C14.3998 134.863 14.3997 133.742 14.268 133.412C14.0069 132.819 13.2188 131.566 13.2188 131.5" stroke="black" stroke-width="0.5" stroke-linecap="round"/>
<path fill-rule="evenodd" clip-rule="evenodd" d="M7.86068 131.395C7.86068 131.395 8.45981 133.306 8.51906 133.834C8.58051 134.361 8.3033 142.395 8.3033 142.395C8.3033 142.395 6.78992 142.746 6.3115 141.955C5.83088 141.164 5.61897 137.063 5.61897 136.47C5.61897 135.811 4.00374 134.954 3.94448 134.559C3.82378 134.163 3.65576 133.155 3.65576 133.155L7.86068 131.395Z" fill="#D8D8D8"/>
<path d="M3.75867 133.112C3.75867 133.575 3.75867 134.303 3.82455 134.567C3.89287 134.633 4.22715 134.898 4.42723 135.03C5.02992 135.559 5.70092 136.022 5.70092 136.617C5.70092 138.534 5.90102 141.444 6.2353 141.972C6.43782 142.303 7.44311 142.501 8.31176 142.501C8.38008 139.262 8.51427 134.369 8.51427 134.038C8.44595 133.641 8.04579 132.385 7.84327 131.658" stroke="black" stroke-width="0.5" stroke-linecap="round"/>
<path d="M12.8429 141.982L10.0737 141.735" stroke="black" stroke-width="0.5" stroke-linecap="round"/>
<path d="M11.0276 134.121H13.6896" stroke="black" stroke-width="0.5" stroke-linecap="round"/>
<path d="M18.2986 132.852L15.8147 132.718" stroke="black" stroke-width="0.5" stroke-linecap="round"/>
<path d="M23.962 133.57C23.4545 133.57 23.0104 133.221 22.5663 132.942C22.2491 132.663 21.9953 132.454 21.7416 132.454" stroke="black" stroke-width="0.5" stroke-linecap="round"/>
<path d="M22.7423 138.133H22.6789C22.4251 138.061 22.1713 137.989 21.9176 137.989C21.4735 137.845 20.9659 137.773 20.5219 137.773" stroke="black" stroke-width="0.5" stroke-linecap="round"/>
<path d="M17.8179 141.517C16.9199 141.517 15.1924 141.357 15.1924 141.357" stroke="black" stroke-width="0.5" stroke-linecap="round"/>
<defs>
<clipPath id="clip0_17966_10469">
<rect width="128" height="95" fill="white" transform="translate(19.5251 40)"/>
</clipPath>
</defs>
</svg>
