<svg width="300" height="200" viewBox="0 0 300 200" fill="none" xmlns="http://www.w3.org/2000/svg">
<g clip-path="url(#clip0_17966_9404)">
<mask id="mask0_17966_9404" style="mask-type:luminance" maskUnits="userSpaceOnUse" x="8" y="25" width="279" height="152">
<path d="M286.852 25.4727H8.85815V176.854H286.852V25.4727Z" fill="white"/>
</mask>
<g mask="url(#mask0_17966_9404)">
<path d="M286.851 136.159C286.867 137.397 286.637 138.625 286.174 139.773C285.711 140.921 285.025 141.966 284.155 142.847C283.285 143.728 282.249 144.427 281.107 144.905C279.965 145.382 278.739 145.628 277.501 145.628H210.703C211.674 147.402 212.043 149.443 211.757 151.445C211.47 153.447 210.543 155.302 209.113 156.732C208.568 157.275 207.959 157.751 207.3 158.15H219.639C224.8 158.15 229.169 162.224 229.235 167.38C229.25 168.618 229.02 169.846 228.557 170.995C228.094 172.143 227.408 173.188 226.538 174.069C225.668 174.95 224.632 175.65 223.49 176.128C222.348 176.606 221.123 176.853 219.885 176.854H158.548C156.501 176.853 154.51 176.182 152.882 174.941C151.253 173.701 150.076 171.961 149.532 169.988C148.988 168.014 149.106 165.917 149.868 164.017C150.63 162.117 151.995 160.52 153.752 159.47H117.008C111.847 159.47 107.478 155.396 107.412 150.24C107.391 148.571 107.817 146.927 108.646 145.478C109.475 144.029 110.676 142.828 112.126 142.001C110.607 141.212 109.334 140.021 108.445 138.559C107.557 137.096 107.087 135.417 107.088 133.705V122.25C107.087 120.788 107.429 119.345 108.087 118.039C108.745 116.733 109.701 115.6 110.878 114.732H44.8492C39.6932 114.732 35.3292 110.668 35.2532 105.517C35.2347 104.277 35.4628 103.046 35.9244 101.896C36.386 100.745 37.0718 99.6979 37.9419 98.8149C38.812 97.9318 39.849 97.2306 40.9925 96.752C42.1361 96.2734 43.3635 96.027 44.6032 96.0272H49.2717C51.1872 96.0265 53.0242 95.2653 54.3787 93.9107C55.7332 92.5562 56.4945 90.7193 56.4952 88.8037V88.7987C56.4945 86.8835 55.7336 85.047 54.3796 83.6925C53.0256 82.3381 51.1893 81.5765 49.2742 81.5752H18.2082C15.7284 81.5752 13.3502 80.5901 11.5967 78.8366C9.84324 77.0832 8.85815 74.705 8.85815 72.2252C8.85815 69.7454 9.84324 67.3672 11.5967 65.6137C13.3502 63.8603 15.7284 62.8752 18.2082 62.8752H63.1197C64.3475 62.8755 65.5634 62.634 66.6979 62.1644C67.8325 61.6948 68.8634 61.0064 69.7318 60.1384C70.6003 59.2704 71.2893 58.2398 71.7595 57.1056C72.2297 55.9713 72.4718 54.7555 72.4722 53.5277C72.4725 52.2998 72.231 51.0839 71.7614 49.9494C71.2918 48.8149 70.6034 47.784 69.7354 46.9155C68.8674 46.047 67.8368 45.358 66.7026 44.8879C65.5683 44.4177 64.3525 44.1755 63.1247 44.1752H50.3002C45.1337 44.1752 40.7652 40.0912 40.7092 34.9252C40.6955 33.6886 40.9272 32.4617 41.391 31.3153C41.8547 30.1689 42.5412 29.1259 43.4108 28.2467C44.2804 27.3675 45.3158 26.6695 46.457 26.1932C47.5982 25.7168 48.8225 25.4716 50.0592 25.4717H135.368C140.392 25.4717 144.705 29.3377 144.949 34.3617C145.031 36.0191 144.671 37.6687 143.907 39.1417H253.923C256.403 39.1417 258.781 40.1268 260.535 41.8802C262.288 43.6337 263.273 46.0119 263.273 48.4917C263.273 50.9715 262.288 53.3497 260.535 55.1031C258.781 56.8566 256.403 57.8417 253.923 57.8417H213.173C213.171 59.854 212.371 61.7833 210.948 63.2062C209.525 64.6291 207.596 65.4293 205.584 65.4312H159.65C161.011 66.7162 161.956 68.3804 162.36 70.2082C162.765 72.036 162.611 73.9431 161.919 75.6826C161.227 77.4221 160.029 78.9137 158.48 79.9644C156.93 81.015 155.101 81.5761 153.229 81.5752H140.387C139.882 81.5748 139.381 81.674 138.914 81.867C138.447 82.0601 138.023 82.3432 137.666 82.7004C137.308 83.0575 137.024 83.4815 136.831 83.9483C136.637 84.415 136.537 84.9154 136.537 85.4207V85.4257C136.537 85.931 136.637 86.4313 136.831 86.8981C137.024 87.3649 137.308 87.7889 137.666 88.146C138.023 88.5031 138.447 88.7863 138.914 88.9794C139.381 89.1724 139.882 89.2716 140.387 89.2712H244.642C247.122 89.2712 249.5 90.2563 251.254 92.0097C253.007 93.7632 253.992 96.1414 253.992 98.6212C253.992 101.101 253.007 103.479 251.254 105.233C249.5 106.986 247.122 107.971 244.642 107.971H217.678C219.045 108.808 220.175 109.981 220.959 111.38C221.742 112.778 222.154 114.354 222.154 115.957V118.625C222.154 120.341 221.683 122.023 220.79 123.488C219.898 124.954 218.619 126.145 217.094 126.931H277.255C282.416 126.931 286.785 131.005 286.851 136.161" fill="white"/>
</g>
<path d="M230.811 62.7598V74.2743M225.054 68.5168H236.569" stroke="#343A40" stroke-miterlimit="10" stroke-linecap="round"/>
<path d="M75.9165 0V10.1705M70.8315 5.085H81.002" stroke="#343A40" stroke-miterlimit="10" stroke-linecap="round"/>
<path d="M272.592 16.9369C272.592 18.2752 272.195 19.5835 271.451 20.6963C270.708 21.8091 269.651 22.6765 268.415 23.1887C267.178 23.7009 265.818 23.835 264.505 23.5739C263.193 23.3129 261.987 22.6685 261.041 21.7222C260.094 20.7759 259.45 19.5702 259.189 18.2577C258.928 16.9451 259.061 15.5845 259.574 14.3481C260.086 13.1116 260.953 12.0548 262.066 11.3113C263.179 10.5678 264.487 10.1709 265.825 10.1709C267.62 10.1709 269.341 10.8837 270.61 12.1526C271.879 13.4214 272.591 15.1424 272.592 16.9369Z" stroke="#343A40" stroke-miterlimit="10"/>
<path d="M46.033 129.911C46.0335 131.25 45.6371 132.558 44.8939 133.671C44.1506 134.784 43.094 135.652 41.8577 136.165C40.6213 136.677 39.2607 136.812 37.948 136.551C36.6352 136.29 35.4293 135.646 34.4827 134.699C33.5362 133.753 32.8915 132.548 32.6302 131.235C32.3689 129.922 32.5028 128.562 33.0148 127.325C33.5269 126.089 34.3942 125.032 35.507 124.288C36.6198 123.544 37.9281 123.147 39.2665 123.147C41.0607 123.147 42.7814 123.86 44.0503 125.128C45.3192 126.397 46.0323 128.117 46.033 129.911Z" stroke="#343A40" stroke-miterlimit="10"/>
<path d="M293.862 115.762C293.862 116.41 293.67 117.043 293.31 117.582C292.95 118.12 292.439 118.54 291.84 118.788C291.241 119.036 290.583 119.101 289.948 118.974C289.312 118.848 288.728 118.536 288.27 118.078C287.812 117.62 287.5 117.036 287.374 116.401C287.248 115.765 287.312 115.107 287.56 114.508C287.808 113.91 288.228 113.398 288.767 113.038C289.305 112.678 289.939 112.486 290.587 112.486C291.455 112.486 292.288 112.831 292.903 113.446C293.517 114.06 293.862 114.893 293.862 115.762Z" stroke="#343A40" stroke-miterlimit="10"/>
<path d="M69.7077 102.59C69.7077 103.238 69.5156 103.871 69.1557 104.41C68.7958 104.948 68.2842 105.368 67.6857 105.616C67.0872 105.864 66.4286 105.929 65.7932 105.803C65.1578 105.676 64.5742 105.364 64.1161 104.906C63.658 104.448 63.3461 103.864 63.2197 103.229C63.0933 102.594 63.1582 101.935 63.4061 101.336C63.654 100.738 64.0738 100.226 64.6125 99.8665C65.1511 99.5066 65.7844 99.3145 66.4322 99.3145C67.301 99.3145 68.1341 99.6596 68.7484 100.274C69.3626 100.888 69.7077 101.721 69.7077 102.59Z" stroke="#343A40" stroke-miterlimit="10"/>
<path d="M150.176 194.584C177.612 194.584 199.853 192.048 199.853 188.92C199.853 185.792 177.612 183.256 150.176 183.256C122.741 183.256 100.5 185.792 100.5 188.92C100.5 192.048 122.741 194.584 150.176 194.584Z" fill="#E9ECEF"/>
<path d="M113.965 89.8262C119.166 89.8193 124.194 91.6954 128.12 95.1077H134.44C134.812 95.1076 135.18 95.1993 135.509 95.3748C135.838 95.5504 136.119 95.8043 136.326 96.1141C136.534 96.4239 136.662 96.7801 136.699 97.1512C136.736 97.5223 136.681 97.8968 136.54 98.2417L134.218 103.884C135.56 107.485 135.918 111.379 135.254 115.164C134.591 118.949 132.929 122.489 130.442 125.418C127.954 128.348 124.73 130.56 121.103 131.829C117.475 133.097 113.575 133.375 109.804 132.633C106.033 131.892 102.528 130.158 99.6506 127.611C96.7731 125.064 94.627 121.795 93.4335 118.142C92.2401 114.489 92.0425 110.584 92.8612 106.829C93.6799 103.074 95.4852 99.6058 98.091 96.7812C100.062 94.6482 102.891 92.1762 106.299 90.8637C108.859 89.8762 111.992 89.8262 113.965 89.8262Z" fill="#FFC107" stroke="black" stroke-miterlimit="10" stroke-linecap="round"/>
<path d="M122.408 119.339C120.026 117.897 117.295 117.134 114.511 117.134C111.727 117.134 108.996 117.897 106.615 119.339" stroke="black" stroke-miterlimit="10" stroke-linecap="round"/>
<path d="M106.35 107.87C106.837 107.87 107.233 107.475 107.233 106.988C107.233 106.501 106.837 106.105 106.35 106.105C105.863 106.105 105.468 106.501 105.468 106.988C105.468 107.475 105.863 107.87 106.35 107.87Z" stroke="black" stroke-miterlimit="10" stroke-linecap="round"/>
<path d="M122.231 107.87C122.719 107.87 123.114 107.475 123.114 106.988C123.114 106.501 122.719 106.105 122.231 106.105C121.744 106.105 121.349 106.501 121.349 106.988C121.349 107.475 121.744 107.87 122.231 107.87Z" stroke="black" stroke-miterlimit="10" stroke-linecap="round"/>
<mask id="path-14-inside-1_17966_9404" fill="white">
<path d="M139.406 25.8241C152.208 30.9964 158.393 45.5672 153.221 58.3688C148.049 71.1705 133.478 77.3554 120.676 72.1833L92.8606 60.9451C80.0589 55.7728 73.874 41.202 79.0462 28.4003C84.2185 15.5986 98.7893 9.41364 111.591 14.5859L139.406 25.8241ZM107.845 23.8577C100.164 20.7544 91.4214 24.4654 88.3181 32.1464C85.2147 39.8274 88.9257 48.5699 96.6067 51.6732L124.422 62.9114C132.103 66.0146 140.846 62.3037 143.949 54.6228C147.052 46.9418 143.341 38.1993 135.66 35.0959L107.845 23.8577Z"/>
</mask>
<path d="M139.406 25.8241C152.208 30.9964 158.393 45.5672 153.221 58.3688C148.049 71.1705 133.478 77.3554 120.676 72.1833L92.8606 60.9451C80.0589 55.7728 73.874 41.202 79.0462 28.4003C84.2185 15.5986 98.7893 9.41364 111.591 14.5859L139.406 25.8241ZM107.845 23.8577C100.164 20.7544 91.4214 24.4654 88.3181 32.1464C85.2147 39.8274 88.9257 48.5699 96.6067 51.6732L124.422 62.9114C132.103 66.0146 140.846 62.3037 143.949 54.6228C147.052 46.9418 143.341 38.1993 135.66 35.0959L107.845 23.8577Z" fill="#DEE2E6"/>
<path d="M139.406 25.8241L139.781 24.8969L139.781 24.8969L139.406 25.8241ZM153.221 58.3688L154.148 58.7434L154.148 58.7434L153.221 58.3688ZM120.676 72.1833L120.302 73.1104L120.302 73.1104L120.676 72.1833ZM92.8606 60.9451L92.486 61.8722L92.8606 60.9451ZM79.0462 28.4003L78.119 28.0257L78.119 28.0257L79.0462 28.4003ZM111.591 14.5859L111.216 15.5131L111.591 14.5859ZM88.3181 32.1464L87.3909 31.7718L87.3909 31.7718L88.3181 32.1464ZM124.422 62.9114L124.048 63.8386L124.048 63.8386L124.422 62.9114ZM143.949 54.6228L144.876 54.9974L144.876 54.9974L143.949 54.6228ZM135.66 35.0959L136.035 34.1687L136.035 34.1687L135.66 35.0959ZM139.406 25.8241L139.032 26.7512C151.321 31.7167 157.259 45.7046 152.294 57.9942L153.221 58.3688L154.148 58.7434C159.527 45.4297 153.095 30.2761 139.781 24.8969L139.406 25.8241ZM153.221 58.3688L152.294 57.9942C147.328 70.2838 133.34 76.2213 121.051 71.2561L120.676 72.1833L120.302 73.1104C133.615 78.4894 148.769 72.0572 154.148 58.7434L153.221 58.3688ZM120.676 72.1833L121.051 71.2561L93.2353 60.0179L92.8606 60.9451L92.486 61.8722L120.302 73.1104L120.676 72.1833ZM92.8606 60.9451L93.2353 60.0179C80.9456 55.0525 75.008 41.0646 79.9734 28.7749L79.0462 28.4003L78.119 28.0257C72.7399 41.3395 79.1722 56.4931 92.486 61.8722L92.8606 60.9451ZM79.0462 28.4003L79.9734 28.7749C84.9388 16.4853 98.9267 10.5477 111.216 15.5131L111.591 14.5859L111.966 13.6587C98.6518 8.27957 83.4982 14.7119 78.119 28.0257L79.0462 28.4003ZM111.591 14.5859L111.216 15.5131L139.032 26.7513L139.406 25.8241L139.781 24.8969L111.966 13.6587L111.591 14.5859ZM107.845 23.8577L108.22 22.9305C100.026 19.6203 90.7011 23.5787 87.3909 31.7718L88.3181 32.1464L89.2452 32.521C92.1417 25.352 100.301 21.8884 107.47 24.7849L107.845 23.8577ZM88.3181 32.1464L87.3909 31.7718C84.0806 39.9649 88.039 49.2902 96.2321 52.6004L96.6067 51.6732L96.9813 50.746C89.8123 47.8496 86.3488 39.6899 89.2452 32.521L88.3181 32.1464ZM96.6067 51.6732L96.2321 52.6004L124.048 63.8386L124.422 62.9114L124.797 61.9842L96.9813 50.746L96.6067 51.6732ZM124.422 62.9114L124.048 63.8386C132.241 67.1487 141.566 63.1904 144.876 54.9974L143.949 54.6228L143.022 54.2482C140.125 61.4171 131.966 64.8806 124.797 61.9842L124.422 62.9114ZM143.949 54.6228L144.876 54.9974C148.186 46.8043 144.228 37.479 136.035 34.1687L135.66 35.0959L135.286 36.0231C142.455 38.9196 145.918 47.0793 143.022 54.2482L143.949 54.6228ZM135.66 35.0959L136.035 34.1687L108.22 22.9305L107.845 23.8577L107.47 24.7849L135.286 36.0231L135.66 35.0959Z" fill="#343A40" mask="url(#path-14-inside-1_17966_9404)"/>
<mask id="path-16-inside-2_17966_9404" fill="white">
<path d="M215.076 134.317C219.113 147.521 211.682 161.498 198.478 165.534C185.274 169.571 171.298 162.14 167.261 148.936L158.49 120.247C154.453 107.043 161.885 93.0669 175.088 89.03C188.292 84.9932 202.268 92.4245 206.305 105.628L215.076 134.317ZM196.742 108.552C194.32 100.63 185.934 96.171 178.012 98.593C170.09 101.015 165.631 109.401 168.053 117.323L176.824 146.012C179.246 153.935 187.632 158.393 195.554 155.971C203.476 153.549 207.935 145.163 205.513 137.241L196.742 108.552Z"/>
</mask>
<path d="M215.076 134.317C219.113 147.521 211.682 161.498 198.478 165.534C185.274 169.571 171.298 162.14 167.261 148.936L158.49 120.247C154.453 107.043 161.885 93.0669 175.088 89.03C188.292 84.9932 202.268 92.4245 206.305 105.628L215.076 134.317ZM196.742 108.552C194.32 100.63 185.934 96.171 178.012 98.593C170.09 101.015 165.631 109.401 168.053 117.323L176.824 146.012C179.246 153.935 187.632 158.393 195.554 155.971C203.476 153.549 207.935 145.163 205.513 137.241L196.742 108.552Z" fill="#DEE2E6"/>
<path d="M198.478 165.534L198.77 166.491L198.77 166.491L198.478 165.534ZM158.49 120.247L157.533 120.539V120.539L158.49 120.247ZM175.088 89.03L174.796 88.0737L174.796 88.0737L175.088 89.03ZM206.305 105.628L207.261 105.336V105.336L206.305 105.628ZM196.742 108.552L197.698 108.26V108.26L196.742 108.552ZM178.012 98.593L177.719 97.6367L177.719 97.6367L178.012 98.593ZM168.053 117.323L167.097 117.616V117.616L168.053 117.323ZM195.554 155.971L195.846 156.928L195.846 156.928L195.554 155.971ZM215.076 134.317L214.12 134.61C217.995 147.286 210.861 160.703 198.185 164.578L198.478 165.534L198.77 166.491C212.502 162.292 220.231 147.757 216.032 134.025L215.076 134.317ZM198.478 165.534L198.185 164.578C185.51 168.453 172.093 161.319 168.217 148.644L167.261 148.936L166.305 149.228C170.503 162.96 185.038 170.689 198.77 166.491L198.478 165.534ZM167.261 148.936L168.217 148.644L159.446 119.955L158.49 120.247L157.533 120.539L166.305 149.228L167.261 148.936ZM158.49 120.247L159.446 119.955C155.571 107.279 162.705 93.8618 175.38 89.9863L175.088 89.03L174.796 88.0737C161.064 92.2721 153.335 106.807 157.533 120.539L158.49 120.247ZM175.088 89.03L175.38 89.9863C188.056 86.111 201.473 93.245 205.349 105.921L206.305 105.628L207.261 105.336C203.063 91.604 188.528 83.8754 174.796 88.0737L175.088 89.03ZM206.305 105.628L205.349 105.921L214.12 134.61L215.076 134.317L216.032 134.025L207.261 105.336L206.305 105.628ZM196.742 108.552L197.698 108.26C195.115 99.8092 186.17 95.0532 177.719 97.6367L178.012 98.593L178.304 99.5493C185.698 97.2887 193.525 101.45 195.786 108.844L196.742 108.552ZM178.012 98.593L177.719 97.6367C169.269 100.22 164.513 109.165 167.097 117.616L168.053 117.323L169.009 117.031C166.749 109.637 170.91 101.81 178.304 99.5493L178.012 98.593ZM168.053 117.323L167.097 117.616L175.868 146.305L176.824 146.012L177.78 145.72L169.009 117.031L168.053 117.323ZM176.824 146.012L175.868 146.305C178.451 154.755 187.396 159.511 195.846 156.928L195.554 155.971L195.262 155.015C187.868 157.275 180.041 153.114 177.78 145.72L176.824 146.012ZM195.554 155.971L195.846 156.928C204.297 154.344 209.053 145.399 206.469 136.949L205.513 137.241L204.557 137.534C206.817 144.928 202.656 152.754 195.262 155.015L195.554 155.971ZM205.513 137.241L206.469 136.949L197.698 108.26L196.742 108.552L195.786 108.844L204.557 137.534L205.513 137.241Z" fill="#343A40" mask="url(#path-16-inside-2_17966_9404)"/>
<mask id="path-18-inside-3_17966_9404" fill="white">
<path d="M192.685 72.2741C200.604 83.5842 197.855 99.1728 186.545 107.092C175.235 115.012 159.647 112.263 151.727 100.953L134.52 76.3783C126.601 65.0682 129.349 49.4795 140.659 41.5601C151.969 33.6408 167.558 36.3895 175.477 47.6995L178.345 51.7953C182.074 57.1198 173.882 62.8555 170.154 57.531L167.286 53.4353C162.534 46.6493 153.181 45.0001 146.395 49.7516C139.609 54.5033 137.96 63.8565 142.711 70.6426L159.919 95.2171C164.67 102.003 174.024 103.652 180.81 98.9008C187.596 94.1491 189.245 84.7959 184.493 78.0098L181.625 73.9141C177.898 68.5896 186.088 62.8547 189.817 68.1783L192.685 72.2741Z"/>
</mask>
<path d="M192.685 72.2741C200.604 83.5842 197.855 99.1728 186.545 107.092C175.235 115.012 159.647 112.263 151.727 100.953L134.52 76.3783C126.601 65.0682 129.349 49.4795 140.659 41.5601C151.969 33.6408 167.558 36.3895 175.477 47.6995L178.345 51.7953C182.074 57.1198 173.882 62.8555 170.154 57.531L167.286 53.4353C162.534 46.6493 153.181 45.0001 146.395 49.7516C139.609 54.5033 137.96 63.8565 142.711 70.6426L159.919 95.2171C164.67 102.003 174.024 103.652 180.81 98.9008C187.596 94.1491 189.245 84.7959 184.493 78.0098L181.625 73.9141C177.898 68.5896 186.088 62.8547 189.817 68.1783L192.685 72.2741Z" fill="#F8F9FA"/>
<path d="M192.685 72.2741L191.866 72.8476L192.685 72.2741ZM186.545 107.092L187.119 107.911L187.119 107.911L186.545 107.092ZM134.52 76.3783L133.701 76.9519L133.701 76.9519L134.52 76.3783ZM140.659 41.5601L140.086 40.741L140.086 40.741L140.659 41.5601ZM175.477 47.6995L176.297 47.1259L176.297 47.1259L175.477 47.6995ZM178.345 51.7953L177.526 52.3688L178.345 51.7953ZM170.154 57.531L169.335 58.1046L170.154 57.531ZM167.286 53.4353L168.105 52.8617L168.105 52.8617L167.286 53.4353ZM146.395 49.7516L145.821 48.9325L145.821 48.9325L146.395 49.7516ZM142.711 70.6426L141.892 71.2161L141.892 71.2161L142.711 70.6426ZM159.919 95.2171L160.738 94.6435L159.919 95.2171ZM180.81 98.9008L181.383 99.7199L181.383 99.7199L180.81 98.9008ZM181.625 73.9141L180.806 74.4876L180.806 74.4876L181.625 73.9141ZM189.817 68.1783L190.636 67.6047L190.636 67.6046L189.817 68.1783ZM192.685 72.2741L191.866 72.8476C199.468 83.7053 196.829 98.6705 185.972 106.273L186.545 107.092L187.119 107.911C198.881 99.6752 201.74 83.463 193.504 71.7005L192.685 72.2741ZM186.545 107.092L185.972 106.273C175.114 113.876 160.149 111.237 152.546 100.379L151.727 100.953L150.908 101.526C159.144 113.289 175.356 116.148 187.119 107.911L186.545 107.092ZM151.727 100.953L152.546 100.379L135.339 75.8048L134.52 76.3783L133.701 76.9519L150.908 101.526L151.727 100.953ZM134.52 76.3783L135.339 75.8048C127.736 64.947 130.375 49.9819 141.233 42.3793L140.659 41.5601L140.086 40.741C128.323 48.9771 125.465 65.1894 133.701 76.9519L134.52 76.3783ZM140.659 41.5601L141.233 42.3793C152.091 34.7767 167.056 37.4155 174.658 48.2731L175.477 47.6995L176.297 47.1259C168.06 35.3635 151.848 32.5048 140.086 40.741L140.659 41.5601ZM175.477 47.6995L174.658 48.2731L177.526 52.3688L178.345 51.7953L179.165 51.2217L176.297 47.1259L175.477 47.6995ZM178.345 51.7953L177.526 52.3688C178.297 53.4703 178.422 54.5304 178.193 55.4431C177.957 56.3819 177.327 57.2387 176.472 57.8374C175.617 58.436 174.597 58.7349 173.634 58.6352C172.698 58.5382 171.744 58.059 170.973 56.9575L170.154 57.531L169.335 58.1046C170.428 59.6654 171.896 60.4658 173.428 60.6245C174.933 60.7805 176.426 60.311 177.619 59.4757C178.812 58.6404 179.764 57.3977 180.133 55.9299C180.507 54.436 180.257 52.7824 179.165 51.2217L178.345 51.7953ZM170.154 57.531L170.973 56.9575L168.105 52.8617L167.286 53.4353L166.467 54.0088L169.335 58.1046L170.154 57.531ZM167.286 53.4353L168.105 52.8617C163.037 45.6234 153.06 43.8641 145.821 48.9325L146.395 49.7516L146.969 50.5708C153.302 46.136 162.032 47.6753 166.467 54.0089L167.286 53.4353ZM146.395 49.7516L145.821 48.9325C138.583 54.0009 136.824 63.9777 141.892 71.2161L142.711 70.6426L143.531 70.069C139.096 63.7353 140.635 55.0056 146.969 50.5708L146.395 49.7516ZM142.711 70.6426L141.892 71.2161L159.1 95.7907L159.919 95.2171L160.738 94.6435L143.531 70.069L142.711 70.6426ZM159.919 95.2171L159.1 95.7907C164.168 103.029 174.145 104.788 181.383 99.7199L180.81 98.9008L180.236 98.0816C173.902 102.516 165.173 100.977 160.738 94.6435L159.919 95.2171ZM180.81 98.9008L181.383 99.7199C188.622 94.6515 190.381 84.6747 185.312 77.4363L184.493 78.0098L183.674 78.5834C188.109 84.9171 186.57 93.6467 180.236 98.0816L180.81 98.9008ZM184.493 78.0098L185.312 77.4363L182.445 73.3405L181.625 73.9141L180.806 74.4876L183.674 78.5834L184.493 78.0098ZM181.625 73.9141L182.445 73.3405C181.673 72.239 181.549 71.179 181.778 70.2663C182.014 69.3277 182.644 68.4709 183.499 67.8723C184.353 67.2738 185.374 66.9749 186.337 67.0745C187.273 67.1715 188.226 67.6507 188.998 68.752L189.817 68.1783L190.636 67.6046C189.543 66.0441 188.075 65.2438 186.543 65.0852C185.038 64.9293 183.544 65.3987 182.351 66.234C181.159 67.0693 180.207 68.3118 179.838 69.7796C179.464 71.2733 179.713 72.9269 180.806 74.4876L181.625 73.9141ZM189.817 68.1783L188.998 68.7519L191.866 72.8476L192.685 72.2741L193.504 71.7005L190.636 67.6047L189.817 68.1783Z" fill="#343A40" mask="url(#path-18-inside-3_17966_9404)"/>
<g clip-path="url(#clip1_17966_9404)">
<mask id="path-20-inside-4_17966_9404" fill="white">
<path d="M139.406 25.8241C152.208 30.9964 158.393 45.5672 153.221 58.3688C148.048 71.1704 133.478 77.3553 120.676 72.1833L92.8604 60.9451C80.0587 55.7728 73.8738 41.202 79.046 28.4003C84.2182 15.5986 98.789 9.41363 111.591 14.5859L139.406 25.8241ZM107.845 23.8577C100.164 20.7544 91.4211 24.4653 88.3178 32.1464C85.2145 39.8274 88.9255 48.5699 96.6065 51.6732L124.422 62.9114C132.103 66.0146 140.845 62.3037 143.949 54.6228C147.052 46.9418 143.341 38.1993 135.66 35.0959L107.845 23.8577Z"/>
</mask>
<path d="M139.406 25.8241C152.208 30.9964 158.393 45.5672 153.221 58.3688C148.048 71.1704 133.478 77.3553 120.676 72.1833L92.8604 60.9451C80.0587 55.7728 73.8738 41.202 79.046 28.4003C84.2182 15.5986 98.789 9.41363 111.591 14.5859L139.406 25.8241ZM107.845 23.8577C100.164 20.7544 91.4211 24.4653 88.3178 32.1464C85.2145 39.8274 88.9255 48.5699 96.6065 51.6732L124.422 62.9114C132.103 66.0146 140.845 62.3037 143.949 54.6228C147.052 46.9418 143.341 38.1993 135.66 35.0959L107.845 23.8577Z" fill="#DEE2E6"/>
<path d="M139.406 25.8241L139.781 24.8969L139.781 24.8969L139.406 25.8241ZM153.221 58.3688L154.148 58.7434L154.148 58.7434L153.221 58.3688ZM120.676 72.1833L120.301 73.1104L120.301 73.1105L120.676 72.1833ZM79.046 28.4003L78.1188 28.0257L78.1188 28.0257L79.046 28.4003ZM88.3178 32.1464L87.3906 31.7718L87.3906 31.7718L88.3178 32.1464ZM124.422 62.9114L124.047 63.8386L124.047 63.8386L124.422 62.9114ZM143.949 54.6228L144.876 54.9974L144.876 54.9974L143.949 54.6228ZM135.66 35.0959L136.035 34.1687L136.035 34.1687L135.66 35.0959ZM139.406 25.8241L139.032 26.7512C151.321 31.7167 157.259 45.7046 152.293 57.9942L153.221 58.3688L154.148 58.7434C159.527 45.4297 153.094 30.2761 139.781 24.8969L139.406 25.8241ZM153.221 58.3688L152.293 57.9942C147.328 70.2837 133.34 76.2213 121.051 71.2561L120.676 72.1833L120.301 73.1105C133.615 78.4894 148.769 72.0571 154.148 58.7434L153.221 58.3688ZM120.676 72.1833L121.051 71.2561L93.235 60.0179L92.8604 60.9451L92.4858 61.8722L120.301 73.1104L120.676 72.1833ZM92.8604 60.9451L93.235 60.0179C80.9454 55.0525 75.0079 41.0646 79.9732 28.7749L79.046 28.4003L78.1188 28.0257C72.7397 41.3395 79.172 56.4931 92.4858 61.8722L92.8604 60.9451ZM79.046 28.4003L79.9732 28.7749C84.9385 16.4852 98.9265 10.5477 111.216 15.5131L111.591 14.5859L111.965 13.6587C98.6515 8.27956 83.4979 14.7119 78.1188 28.0257L79.046 28.4003ZM111.591 14.5859L111.216 15.5131L139.032 26.7513L139.406 25.8241L139.781 24.8969L111.965 13.6587L111.591 14.5859ZM107.845 23.8577L108.219 22.9305C100.026 19.6203 90.7009 23.5786 87.3906 31.7718L88.3178 32.1464L89.245 32.521C92.1414 25.352 100.301 21.8884 107.47 24.7849L107.845 23.8577ZM88.3178 32.1464L87.3906 31.7718C84.0805 39.9648 88.0388 49.2902 96.2319 52.6004L96.6065 51.6732L96.9811 50.746C89.8121 47.8496 86.3486 39.6899 89.245 32.521L88.3178 32.1464ZM96.6065 51.6732L96.2319 52.6004L124.047 63.8386L124.422 62.9114L124.797 61.9842L96.9811 50.746L96.6065 51.6732ZM124.422 62.9114L124.047 63.8386C132.24 67.1486 141.566 63.1904 144.876 54.9974L143.949 54.6228L143.022 54.2482C140.125 61.417 131.965 64.8805 124.797 61.9842L124.422 62.9114ZM143.949 54.6228L144.876 54.9974C148.186 46.8043 144.228 37.479 136.035 34.1687L135.66 35.0959L135.286 36.0231C142.454 38.9196 145.918 47.0793 143.022 54.2482L143.949 54.6228ZM135.66 35.0959L136.035 34.1687L108.219 22.9305L107.845 23.8577L107.47 24.7849L135.286 36.0231L135.66 35.0959Z" fill="#343A40" mask="url(#path-20-inside-4_17966_9404)"/>
</g>
<g clip-path="url(#clip2_17966_9404)">
<mask id="path-22-inside-5_17966_9404" fill="white">
<path d="M215.076 134.317C219.113 147.521 211.681 161.498 198.478 165.534C185.274 169.571 171.298 162.14 167.261 148.936L158.49 120.247C154.453 107.043 161.884 93.067 175.088 89.03C188.292 84.9932 202.268 92.4245 206.305 105.628L215.076 134.317ZM196.742 108.552C194.32 100.63 185.934 96.171 178.012 98.593C170.09 101.015 165.631 109.401 168.053 117.323L176.824 146.012C179.246 153.934 187.632 158.393 195.554 155.971C203.476 153.549 207.935 145.163 205.513 137.241L196.742 108.552Z"/>
</mask>
<path d="M215.076 134.317C219.113 147.521 211.681 161.498 198.478 165.534C185.274 169.571 171.298 162.14 167.261 148.936L158.49 120.247C154.453 107.043 161.884 93.067 175.088 89.03C188.292 84.9932 202.268 92.4245 206.305 105.628L215.076 134.317ZM196.742 108.552C194.32 100.63 185.934 96.171 178.012 98.593C170.09 101.015 165.631 109.401 168.053 117.323L176.824 146.012C179.246 153.934 187.632 158.393 195.554 155.971C203.476 153.549 207.935 145.163 205.513 137.241L196.742 108.552Z" fill="#DEE2E6"/>
<path d="M215.076 134.317L216.032 134.025L216.032 134.025L215.076 134.317ZM198.478 165.534L198.77 166.491L198.77 166.491L198.478 165.534ZM167.261 148.936L166.304 149.228L166.304 149.228L167.261 148.936ZM175.088 89.03L174.795 88.0737L174.795 88.0737L175.088 89.03ZM178.012 98.593L177.719 97.6367L177.719 97.6367L178.012 98.593ZM176.824 146.012L175.867 146.305L175.867 146.305L176.824 146.012ZM195.554 155.971L195.846 156.928L195.846 156.928L195.554 155.971ZM205.513 137.241L206.469 136.949L206.469 136.949L205.513 137.241ZM215.076 134.317L214.12 134.61C217.995 147.285 210.861 160.703 198.185 164.578L198.478 165.534L198.77 166.491C212.502 162.292 220.23 147.757 216.032 134.025L215.076 134.317ZM198.478 165.534L198.185 164.578C185.51 168.453 172.092 161.319 168.217 148.644L167.261 148.936L166.304 149.228C170.503 162.96 185.038 170.689 198.77 166.491L198.478 165.534ZM167.261 148.936L168.217 148.644L159.446 119.955L158.49 120.247L157.533 120.539L166.304 149.228L167.261 148.936ZM158.49 120.247L159.446 119.955C155.571 107.279 162.705 93.8618 175.38 89.9863L175.088 89.03L174.795 88.0737C161.064 92.2722 153.335 106.807 157.533 120.539L158.49 120.247ZM175.088 89.03L175.38 89.9863C188.056 86.111 201.473 93.245 205.348 105.921L206.305 105.628L207.261 105.336C203.063 91.604 188.527 83.8754 174.795 88.0737L175.088 89.03ZM206.305 105.628L205.348 105.921L214.12 134.61L215.076 134.317L216.032 134.025L207.261 105.336L206.305 105.628ZM196.742 108.552L197.698 108.26C195.114 99.8092 186.17 95.0532 177.719 97.6367L178.012 98.593L178.304 99.5493C185.698 97.2887 193.525 101.45 195.785 108.844L196.742 108.552ZM178.012 98.593L177.719 97.6367C169.269 100.22 164.513 109.165 167.096 117.616L168.053 117.323L169.009 117.031C166.748 109.637 170.91 101.81 178.304 99.5493L178.012 98.593ZM168.053 117.323L167.096 117.616L175.867 146.305L176.824 146.012L177.78 145.72L169.009 117.031L168.053 117.323ZM176.824 146.012L175.867 146.305C178.451 154.755 187.396 159.511 195.846 156.928L195.554 155.971L195.262 155.015C187.868 157.275 180.041 153.114 177.78 145.72L176.824 146.012ZM195.554 155.971L195.846 156.928C204.297 154.344 209.053 145.399 206.469 136.949L205.513 137.241L204.557 137.534C206.817 144.928 202.656 152.754 195.262 155.015L195.554 155.971ZM205.513 137.241L206.469 136.949L197.698 108.26L196.742 108.552L195.785 108.844L204.557 137.534L205.513 137.241Z" fill="#343A40" mask="url(#path-22-inside-5_17966_9404)"/>
</g>
<path d="M182.938 39.4492L180.573 50.0603" stroke="#343A40" stroke-miterlimit="10" stroke-linecap="round"/>
<path d="M199.009 49.8652L190.193 56.225" stroke="#343A40" stroke-miterlimit="10" stroke-linecap="round"/>
<path d="M204.101 68.3269L193.286 67.2224" stroke="#343A40" stroke-miterlimit="10" stroke-linecap="round"/>
</g>
<defs>
<clipPath id="clip0_17966_9404">
<rect width="300" height="200" fill="white"/>
</clipPath>
<clipPath id="clip1_17966_9404">
<rect width="93" height="46.5" fill="white" transform="translate(69.6807 5.2207)"/>
</clipPath>
<clipPath id="clip2_17966_9404">
<rect width="43" height="91" fill="white" transform="translate(179.181 81.7207)"/>
</clipPath>
</defs>
</svg>
