<svg width="236" height="150" viewBox="0 0 236 150" fill="none" xmlns="http://www.w3.org/2000/svg">
<g clip-path="url(#clip0_17966_9654)">
<mask id="mask0_17966_9654" style="mask-type:luminance" maskUnits="userSpaceOnUse" x="0" y="-21" width="236" height="206">
<path d="M235.5 -20.5H0.5V184.5H235.5V-20.5Z" fill="white"/>
</mask>
<g mask="url(#mask0_17966_9654)">
<path fill-rule="evenodd" clip-rule="evenodd" d="M63.8787 5.91632C63.8787 5.91632 96.4621 20.4911 100.21 20.0476C100.782 13.9008 100.909 -1.37109 100.909 -1.37109H66.2918L63.8787 5.91632Z" fill="#D8D8D8"/>
<path fill-rule="evenodd" clip-rule="evenodd" d="M101.199 -1.25859C101.01 -1.25859 100.883 -1.13316 100.883 -0.945037C100.883 -0.756893 100.756 13.7295 100.183 19.8752C96.3701 19.7498 75.5903 10.9702 64.5956 6.07869L66.8832 -0.819607C66.9477 -1.00773 66.8186 -1.19587 66.6293 -1.25859C66.4377 -1.3213 66.2483 -1.19587 66.1838 -1.00773L63.8338 6.1414C63.7692 6.32952 63.8962 6.51767 64.0231 6.58038C65.3574 7.14479 95.6707 20.5651 100.31 20.5651C100.437 20.5651 100.5 20.5651 100.564 20.5651C100.691 20.5651 100.818 20.4397 100.883 20.2515C101.453 14.2939 101.58 -0.756893 101.58 -0.945037C101.58 -1.13316 101.391 -1.25859 101.199 -1.25859Z" fill="black"/>
<path fill-rule="evenodd" clip-rule="evenodd" d="M144.823 132.667C145.266 124.302 144.313 113.988 143.616 101.662C142.852 89.2719 132.808 53.8011 129.948 49.7761C127.153 45.814 125.246 47.7008 120.288 43.0467C115.329 38.3929 79.2273 19.211 71.663 16.1922C64.0986 13.1734 52.7855 13.6137 52.7855 13.6137C52.7855 13.6137 50.1794 13.8652 46.6846 11.9785C45.4127 11.2867 29.2037 8.26791 23.9915 9.65151C23.9915 9.65151 19.5433 9.65151 15.2845 14.1168C12.5514 16.884 13.8857 93.6743 17.3827 99.0829C20.9421 104.429 19.2894 122.856 21.8955 128.956C24.5016 134.994 28.5043 155.811 28.7604 158.389C28.9498 160.905 25.4549 179.143 25.201 183.798H145.266C145.266 183.798 144.569 157.194 144.123 152.792C143.616 148.327 144.377 141.094 144.823 132.667Z" fill="#B2B2B2"/>
<path fill-rule="evenodd" clip-rule="evenodd" d="M144.657 138.698C144.784 136.808 144.911 134.855 145.038 132.901C145.356 126.286 144.911 118.6 144.341 109.654C144.151 107.134 144.024 104.487 143.833 101.715C143.136 89.241 132.922 53.6447 130.131 49.6125C128.61 47.5335 127.34 46.9664 125.881 46.3365C124.422 45.7064 122.773 45.0765 120.425 42.8083C115.351 38.0202 79.2573 18.8675 71.7726 15.8434C64.2858 12.8193 52.9318 13.1973 52.8048 13.2603C52.7424 13.2603 50.2676 13.4493 46.8416 11.6222C45.6364 10.9922 29.4619 7.84212 24.0689 9.22818C23.4986 9.29117 19.2484 9.48019 15.1251 13.8273C13.4121 15.6544 13.4121 40.9812 13.7285 55.6608C14.1094 73.9945 15.2521 96.4232 17.219 99.3842C19.0569 102.219 19.4378 109.023 19.8187 115.513C20.1372 121.12 20.4536 126.412 21.6587 129.247C24.2605 135.295 28.2568 156.338 28.4461 158.606C28.5731 159.929 27.6219 165.788 26.7331 171.396C25.9089 176.499 25.0201 181.854 24.8932 184.059C24.8932 184.248 25.0847 184.437 25.2741 184.437C25.4656 184.437 25.5925 184.311 25.6549 184.059C25.7173 181.917 26.6061 176.625 27.4303 171.522C28.3815 165.537 29.2704 159.929 29.1434 158.543C28.954 156.212 24.9577 135.295 22.2935 128.995C21.1508 126.286 20.8344 121.057 20.5159 115.513C20.1372 108.835 19.7563 101.967 17.7894 99.0062C16.2657 96.6751 14.9336 79.2865 14.4279 55.6608C13.9824 33.6101 14.4903 15.4654 15.633 14.2683C19.6917 9.9842 24.0689 9.92119 24.0689 9.92119C24.1335 9.92119 24.1335 9.92119 24.1959 9.92119C29.208 8.59815 45.3201 11.6222 46.5252 12.2523C50.1406 14.1423 52.7424 13.9533 52.8694 13.9533C52.9318 13.8903 64.1588 13.5123 71.5187 16.4734C78.8119 19.4345 115.035 38.7132 119.917 43.3122C122.392 45.6433 124.168 46.3994 125.564 46.9664C127.023 47.5966 128.164 48.1005 129.561 50.0536C132.352 53.9597 142.438 89.3669 143.136 101.778C143.263 104.55 143.452 107.134 143.643 109.717C144.214 118.6 144.657 126.286 144.341 132.838C144.214 134.855 144.087 136.745 143.96 138.635C143.579 144.494 143.263 149.597 143.579 152.999C144.087 157.409 144.784 183.807 144.784 184.059C144.784 184.248 144.911 184.437 145.103 184.437H145.165C145.356 184.437 145.483 184.248 145.483 184.059C145.483 183.807 144.784 157.346 144.276 152.936C143.96 149.597 144.276 144.494 144.657 138.698Z" fill="black"/>
<path fill-rule="evenodd" clip-rule="evenodd" d="M100.489 20.1668C89.9698 11.9674 76.2831 9.75979 71.0859 10.0752C71.0859 10.0752 85.2182 34.1691 89.462 42.3685C93.6455 50.568 105.686 76.8063 108.981 85.0057C112.276 93.2053 120.957 114.713 123.302 119.885C125.646 125.057 132.046 142.591 132.046 142.591C132.046 142.591 133.884 143.096 135.089 136.032C136.23 129.031 136.23 121.083 136.23 117.804C136.23 114.524 120.957 47.099 112.465 37.2596C111.643 36.2504 105.621 24.1404 100.489 20.1668Z" fill="white"/>
<path fill-rule="evenodd" clip-rule="evenodd" d="M111.318 34.7314C108.961 30.6429 104.569 22.969 100.62 19.8869C90.1784 11.8984 77.2534 9.75977 71.8411 9.75977C71.4581 9.75977 71.1396 9.75977 70.8232 9.82267C70.6941 9.82267 70.5671 9.88558 70.5047 9.94848C70.4402 10.0743 70.4402 10.2001 70.5047 10.3259C70.6941 10.5775 84.7661 34.48 88.969 42.5312C93.1073 50.5196 105.204 76.6865 108.58 84.9894C109.725 87.9458 120.296 113.987 122.969 119.774C125.325 124.869 131.628 142.229 131.693 142.418C131.755 142.544 131.82 142.607 131.947 142.67C132.011 142.67 132.011 142.67 132.138 142.67C132.775 142.67 134.43 141.978 135.448 135.814C136.658 128.769 136.658 120.906 136.658 117.572C136.658 114.427 121.378 46.9973 112.719 36.996C112.527 36.8072 112.017 35.8638 111.318 34.7314ZM135.958 117.572C135.958 120.906 135.958 128.706 134.749 135.688C133.92 140.783 132.711 141.726 132.265 141.915C131.501 139.713 125.835 124.24 123.606 119.522C120.931 113.672 110.427 87.6943 109.215 84.738C105.841 76.4349 93.7443 50.2051 89.606 42.2167C85.7216 34.7945 73.496 13.9742 71.458 10.4517C71.5872 10.4517 71.7141 10.4517 71.8411 10.4517C77.1265 10.4517 89.8599 12.5274 100.175 20.453C104.059 23.4722 108.58 31.3349 110.745 35.1088C111.509 36.4927 111.955 37.1846 112.144 37.4363C115.648 41.4619 120.995 56.5582 127.236 79.9574C132.201 98.5761 135.958 115.937 135.958 117.572Z" fill="black"/>
<path fill-rule="evenodd" clip-rule="evenodd" d="M101.019 19.5146L97.4655 17.8574C97.4655 17.8574 93.467 21.4268 93.6564 23.084C94.1643 26.5897 97.4655 28.247 99.3679 31.3701C99.3679 31.3701 103.112 31.1151 106.857 31.8164C108.254 32.0712 106.158 26.1435 104.763 23.9764C103.366 21.873 101.019 19.5146 101.019 19.5146Z" fill="#BDBDBD"/>
<path fill-rule="evenodd" clip-rule="evenodd" d="M101.104 19.206C101.104 19.1426 101.104 19.1426 101.042 19.1426L97.5106 17.4948C97.3858 17.4314 97.2588 17.4314 97.134 17.5581C96.7553 17.9384 93.0366 21.2341 93.2883 23.0087C93.6047 25.3537 94.9906 26.8748 96.5035 28.4592C97.3858 29.3465 98.2681 30.2972 98.9611 31.3746C99.0235 31.5014 99.1504 31.5647 99.2774 31.5647C99.2774 31.5647 99.8434 31.5014 100.788 31.5014C102.239 31.5014 104.444 31.6282 106.65 32.0083C106.715 32.0718 106.777 32.0718 106.84 32.0718C107.029 32.0718 107.281 31.945 107.408 31.6914C108.038 30.4872 106.084 25.4805 104.95 23.7058C103.5 21.6144 101.231 19.2693 101.104 19.206ZM106.84 31.6914L106.777 31.3113H106.84V31.6914ZM106.777 31.3113C104.509 30.9309 102.301 30.8041 100.788 30.8041C100.16 30.8041 99.7186 30.8676 99.4647 30.8676C98.7093 29.7267 97.8894 28.8396 97.007 27.9522C95.6211 26.4311 94.2331 25.0368 93.9813 22.9453C93.8565 21.9312 95.9353 19.5862 97.4482 18.1919L100.663 19.7764C100.977 20.0933 103.058 22.1848 104.32 24.1495C105.705 26.1775 107.156 30.6775 106.777 31.3113Z" fill="black"/>
<path fill-rule="evenodd" clip-rule="evenodd" d="M82.9008 7.9787C76.5308 3.77221 65.6417 1.44922 65.6417 1.44922L63.9846 6.0952C63.9846 6.0952 75.7045 14.7593 77.9318 17.9613C80.7983 21.9167 86.9768 30.5807 86.9768 30.5807C89.0793 28.6974 98.5675 18.2752 97.3581 17.5218C91.4357 13.7548 88.7607 11.8085 82.9008 7.9787Z" fill="white"/>
<path fill-rule="evenodd" clip-rule="evenodd" d="M97.5431 17.4586C93.9944 15.1861 91.5863 13.5449 88.9888 11.7774C87.278 10.6412 85.5026 9.37876 83.2214 7.8638C76.8859 3.63453 65.9881 1.29896 65.9236 1.23584C65.7342 1.23584 65.5427 1.29896 65.4802 1.48833L63.8318 6.15947C63.7694 6.28571 63.8318 6.47509 63.9588 6.53821C64.0857 6.66445 75.556 15.3124 77.7726 18.4685C80.5616 22.4453 86.7077 31.0932 86.7077 31.0932C86.7702 31.1564 86.8347 31.2195 86.9617 31.2195C86.9617 31.2195 86.9617 31.2195 87.0241 31.2195C87.0886 31.2195 87.151 31.2195 87.2134 31.1564C88.7995 29.7677 97.924 19.8573 97.7971 17.9635C97.7971 17.7111 97.6701 17.5848 97.5431 17.4586ZM87.0241 30.3358C85.8835 28.7576 80.8155 21.5616 78.3428 18.0267C76.1887 14.9968 66.2399 7.3588 64.5936 6.15947L66.0506 1.99332C67.8238 2.43518 77.1399 4.70763 82.7782 8.43192C85.1239 9.94687 86.8971 11.2094 88.6079 12.4087C91.143 14.113 93.5511 15.7542 97.0998 18.0267C97.0998 19.3523 89.8131 27.7477 87.0241 30.3358Z" fill="black"/>
<path fill-rule="evenodd" clip-rule="evenodd" d="M113.978 48.2405C109.73 39.8723 107.319 33.3289 106.876 31.693C106.368 30.0573 99.5205 29.3651 99.3935 31.1897C98.6317 41.0049 100.091 39.8723 101.231 49.6876C102.436 59.5029 102.436 64.1586 102.436 64.1586C104.085 65.5429 127.613 133.054 129.261 137.018C130.912 140.981 131.609 141.925 132.115 142.617C132.56 143.31 136.111 129.53 137.062 124.434C137.951 119.275 128.818 87.0609 127.359 81.2094C125.964 75.3582 118.228 56.6715 113.978 48.2405Z" fill="#BDBDBD"/>
<path fill-rule="evenodd" clip-rule="evenodd" d="M127.934 80.9093C126.468 75.0035 118.762 56.5318 114.43 47.9241C109.971 39.191 107.677 32.6567 107.358 31.4001C106.977 30.1437 104.111 29.5781 102.2 29.5781C100.289 29.5781 99.1419 30.1437 99.0773 31.0231C98.6318 37.2433 99.0149 39.0652 99.7143 42.081C100.097 43.7775 100.543 45.9136 100.988 49.4949C102.135 59.1706 102.135 63.8828 102.135 63.9455C102.135 64.0712 102.2 64.134 102.262 64.1969C103.474 65.4535 115.385 98.7528 122.519 118.67C125.958 128.094 128.635 135.571 129.143 136.827C130.673 140.597 131.437 141.665 131.883 142.356L132.01 142.482C132.074 142.607 132.201 142.67 132.328 142.67C132.711 142.67 133.03 142.67 135.005 135.194C136.088 131.11 137.17 126.586 137.616 124.198C138.38 119.989 132.647 98.6271 129.591 87.1294C128.825 84.302 128.188 82.0402 127.934 80.9093ZM136.916 124.073C136.023 128.722 133.284 139.592 132.328 141.728C131.883 141.037 131.183 139.843 129.78 136.576C129.272 135.382 126.595 127.905 123.221 118.418C112.964 89.8939 104.365 66.0818 102.837 63.8199C102.837 63.066 102.772 58.2909 101.69 49.432C101.244 45.788 100.734 43.6517 100.416 41.9555C99.7143 39.0026 99.3334 37.2433 99.7789 31.086C99.8413 30.5833 100.797 30.2692 102.2 30.2692C104.238 30.2692 106.467 30.9603 106.659 31.5887C107.231 33.5993 109.715 40.1961 113.793 48.2382C117.996 56.5947 125.831 75.3176 127.232 81.035C127.488 82.2288 128.125 84.4906 128.889 87.3178C131.947 98.7528 137.68 120.052 136.916 124.073Z" fill="black"/>
<path fill-rule="evenodd" clip-rule="evenodd" d="M122.196 111.933C119.076 104.004 100.411 54.2255 95.9504 47.429C91.429 40.6953 80.7894 16.152 75.8204 12.6279C70.8536 9.10371 66.5839 4.00627 64.2275 4.69851C64.2275 4.69851 61.1695 6.08301 59.9601 8.66319C58.8131 11.2434 51.9331 10.7399 53.1425 13.3201C54.2895 15.9003 68.751 28.7384 74.4195 32.7028C80.09 36.7306 88.8165 64.4832 95.6964 69.8954C99.0084 72.4756 125.956 139.497 131.88 149.063C131.88 149.063 134.936 140.19 133.791 136.917C132.58 133.645 125.254 119.863 122.196 111.933Z" fill="#B2B2B2"/>
<path fill-rule="evenodd" clip-rule="evenodd" d="M130.219 128.212C127.613 122.868 124.37 116.266 122.59 111.676C122.145 110.607 121.51 108.783 120.621 106.457C114.518 90.4861 100.278 53.0744 96.3377 47.1641C94.7473 44.7118 92.2058 39.8076 89.5997 34.5886C84.8308 25.22 79.4293 14.5939 76.1862 12.3303C74.471 11.0728 72.8183 9.68951 71.3549 8.36911C68.6864 6.10554 66.5882 4.21924 64.8709 4.21924C64.6815 4.21924 64.49 4.28211 64.363 4.34499C64.2985 4.34499 64.2985 4.34499 64.2985 4.34499C64.1715 4.40787 61.0575 5.85403 59.8503 8.49486C59.4048 9.5009 57.6875 10.0668 56.1638 10.5069C54.638 10.9471 53.3662 11.3872 52.9853 12.2046C52.7938 12.5818 52.7938 13.022 53.0477 13.4621C54.255 16.1658 68.9403 29.1184 74.4065 32.9539C77.0126 34.8403 80.445 42.1968 84.069 50.0563C87.947 58.482 92.0143 67.2218 95.5737 70.0513C97.291 71.3716 106.063 91.7438 113.818 109.726C121.191 126.829 128.82 144.56 131.618 149.087C131.68 149.213 131.807 149.276 131.934 149.276C132.126 149.213 132.19 149.15 132.253 149.024C132.38 148.647 135.367 139.97 134.159 136.638C133.651 135.254 132.126 132.174 130.219 128.212ZM131.807 148.081C128.756 142.674 121.51 125.823 114.453 109.475C105.936 89.6688 97.8635 70.9316 96.0192 69.4853C92.5867 66.7817 88.5818 58.1046 84.7039 49.742C81.082 41.8194 77.585 34.3372 74.7874 32.3879C69.0028 28.3638 54.765 15.5999 53.6847 13.1477C53.5556 12.8962 53.5556 12.7076 53.6202 12.519C53.8741 11.9531 55.146 11.5758 56.3532 11.1986C58.006 10.6955 59.9127 10.1297 60.4851 8.74636C61.5654 6.48279 64.2984 5.09951 64.5545 4.97376C64.6815 4.97376 64.8085 4.97376 64.8709 4.97376C66.2697 4.97376 68.4303 6.7972 70.9094 8.93499C72.3728 10.1925 74.0256 11.6387 75.8053 12.8962C78.8568 15.034 84.4499 26.1003 88.9627 34.9031C91.6334 40.1219 94.1125 45.0892 95.7652 47.5413C99.6431 53.3889 114.391 92.1209 119.922 106.708C120.81 109.035 121.51 110.858 121.891 111.927C123.735 116.58 126.976 123.182 129.582 128.527C131.426 132.299 133.017 135.569 133.46 136.889C134.413 139.467 132.507 145.881 131.807 148.081Z" fill="black"/>
<path fill-rule="evenodd" clip-rule="evenodd" d="M138.62 122.097C138.431 116.683 121.897 47.0511 120.251 43.0849C118.604 39.1186 110.369 27.6601 107.076 29.2971C107.076 29.2971 106.379 30.9339 110.117 35.8447C113.917 40.7554 117.21 45.4143 118.858 51.4582C120.505 57.5652 136.023 114.039 135.328 123.671C134.566 133.241 132.92 141.236 132.222 147.784C133.109 145.895 138.812 129.778 138.62 122.097Z" fill="#B2B2B2"/>
<path fill-rule="evenodd" clip-rule="evenodd" d="M132.146 147.847C131.558 149.226 131.676 155.055 132.027 161.636C131.911 155.117 131.969 149.539 132.146 147.847Z" fill="#DCDCDC"/>
<path fill-rule="evenodd" clip-rule="evenodd" d="M139.202 122.052C139.139 119.216 134.682 99.4921 130.544 81.9738C126.47 64.5814 121.633 44.9837 120.742 42.904C119.341 39.4382 111.957 28.7256 107.883 28.7256C107.565 28.7256 107.309 28.7887 107.055 28.9146C106.928 28.9146 106.863 28.9777 106.863 29.1036C106.801 29.2926 106.164 31.0571 109.984 35.9724C113.612 40.6985 116.986 45.4248 118.641 51.5373L118.96 52.5454C129.718 91.9302 135.638 117.892 135.192 123.69C134.745 129.613 133.918 134.97 133.219 139.633C132.836 142.532 132.391 145.241 132.137 147.699C131.562 149.085 131.5 153.622 131.945 161.751C132.072 167.171 132.455 177.316 133.791 184.122C133.791 184.311 133.983 184.437 134.11 184.437C134.172 184.437 134.172 184.437 134.172 184.437C134.364 184.374 134.491 184.248 134.491 184.059C134.491 183.933 133.281 171.834 132.644 161.688C132.518 155.324 132.644 149.715 132.836 147.888C133.727 145.998 139.456 129.866 139.202 122.052ZM133.918 139.759C134.682 135.033 135.446 129.677 135.892 123.753C136.464 115.687 125.96 75.5461 119.595 52.3564L119.341 51.3482C117.621 45.1096 114.184 40.3204 110.556 35.5313C107.565 31.6872 107.438 29.9228 107.5 29.4819C107.627 29.4188 107.756 29.4188 107.883 29.4188C111.32 29.4188 118.514 39.3123 120.105 43.1561C121.441 46.3699 138.311 116.191 138.502 122.115C138.692 128.227 135.063 139.696 133.154 144.989C133.408 143.351 133.665 141.586 133.918 139.759Z" fill="black"/>
<path fill-rule="evenodd" clip-rule="evenodd" d="M57.4662 76.4595C57.0853 76.52 50.2376 78.9975 41.1733 80.4478C50.1752 79.058 57.4662 76.7011 57.4662 76.4595Z" fill="#DCDCDC"/>
<path fill-rule="evenodd" clip-rule="evenodd" d="M25.033 81.7871C26.69 81.9292 28.4116 81.9292 30.1332 81.8581C28.4116 81.9292 26.7546 81.9292 25.033 81.7871Z" fill="#DCDCDC"/>
<path fill-rule="evenodd" clip-rule="evenodd" d="M53.4395 59.5184C53.4395 59.5184 53.4934 59.4118 53.6013 59.1987C53.4934 59.3053 53.4395 59.5184 53.4395 59.5184Z" fill="#DCDCDC"/>
<path fill-rule="evenodd" clip-rule="evenodd" d="M82.2721 71.5934C77.3827 70.8384 76.1776 72.9777 73.8276 73.9217C71.4797 74.8655 70.9718 75.306 66.7173 75.0543C64.1155 74.9284 59.0992 76.061 57.384 76.5643C57.384 76.816 50.0844 79.2701 41.0696 80.7174C37.6393 81.2836 33.8948 81.7241 30.0857 81.85C28.3706 81.9129 26.6575 81.9129 25.0069 81.7872C11.4191 81.0319 9.45222 102.992 9.45222 102.992C9.45222 102.992 11.2921 80.9691 25.0069 81.7872C26.7199 81.9129 28.3706 81.9129 30.0857 81.85C33.7678 81.7241 37.5769 81.2836 41.0696 80.7174C50.1468 79.2072 57.0031 76.6274 57.384 76.5643C57.1947 74.1734 57.0677 67.9439 55.925 64.1056C54.5907 59.8897 53.9559 59.2606 53.7019 59.2606C53.5749 59.3863 53.5126 59.4492 53.5126 59.4492C53.5126 59.4492 53.5749 59.3235 53.7019 59.2606C54.1474 58.883 55.4795 57.3728 55.671 54.5413C55.925 51.0176 54.9716 43.2781 54.0204 34.4057C53.0671 25.5336 49.7659 21.1289 44.8141 16.4726C39.8623 11.7534 29.2593 9.17351 29.2593 9.17351C10.4034 8.48135 7.10219 27.1696 6.40493 32.7698C5.70553 38.4329 5.9595 59.1975 5.9595 59.1975C2.65831 65.7415 2.65827 71.3417 2.8498 78.1374C3.10374 84.8703 5.00829 79.9622 5.45161 83.2343C5.95948 86.5062 1.89647 97.2662 1.19707 106.138C0.499816 115.011 5.95946 118.975 9.19824 123.883C12.4994 128.791 33.9572 137.663 39.165 138.355C44.3708 139.047 56.8137 137.663 65.7661 136.027C74.7809 134.391 72.8764 135.335 78.9709 133.699C85.1299 132.063 86.716 131.119 91.7323 125.267C95.9847 120.359 95.7308 109.851 94.7796 104.251C93.3829 95.8819 91.7323 72.9777 82.2721 71.5934Z" fill="#B2B2B2"/>
<path fill-rule="evenodd" clip-rule="evenodd" d="M94.5064 99.7985C93.0431 89.5359 90.6888 72.3477 82.2895 71.0885C81.5879 71.0254 80.953 70.9625 80.3806 70.9625C77.8972 70.9625 76.5608 71.781 75.2889 72.5365C74.7789 72.9143 74.2065 73.229 73.6341 73.4809C73.3156 73.5438 73.0616 73.6697 72.8077 73.7957C71.4067 74.3623 70.6427 74.677 68.5424 74.677C68.0345 74.677 67.3975 74.6142 66.6981 74.6142C64.2793 74.4882 59.9515 75.3696 57.5972 75.9993C57.5972 75.6846 57.5348 75.3067 57.5348 74.9289C57.4057 71.9698 57.1518 67.1219 56.1339 63.8478C55.1784 60.7628 54.5435 59.5665 54.1605 59.0629C54.7975 58.3704 55.753 56.9222 55.8799 54.4038C56.1339 51.3816 55.4344 45.2745 54.6705 38.0969C54.5435 36.8377 54.4165 35.5785 54.225 34.2565C53.3341 25.5047 50.1512 20.9087 44.9348 16.0607C39.9701 11.3387 29.5973 8.82026 29.1519 8.69434C29.1519 8.69434 29.1519 8.69434 29.0873 8.69434C28.771 8.69434 28.3879 8.69434 28.0695 8.69434C20.2426 8.69434 14.26 12.0313 10.3153 18.5792C8.088 22.3568 6.49766 27.2048 5.7961 32.6194C5.16125 37.971 5.35062 57.5519 5.35062 58.9999C2.10538 65.422 2.04298 70.9625 2.29692 78.0139C2.36148 81.0992 2.80693 82.2324 3.88724 82.2324C4.01421 82.2324 4.07875 82.2324 4.14331 82.2324C4.27028 82.2324 4.33273 82.2324 4.39729 82.2324C4.52426 82.2324 4.71576 82.2324 4.90514 83.1769C5.09666 84.6879 4.27031 88.0248 3.31482 91.9284C2.23236 96.3985 1.02504 101.372 0.641982 106.032C0.0695459 113.083 3.25239 116.987 6.3061 120.827C7.19703 121.898 7.961 122.905 8.72496 123.975C12.0972 129.012 33.925 137.953 38.9521 138.645C39.9055 138.771 41.0525 138.834 42.5159 138.834C49.0064 138.834 58.8712 137.575 65.7426 136.316C69.6894 135.56 71.5337 135.371 72.9347 135.182C74.652 134.993 75.5429 134.868 79.0442 133.923C85.3431 132.286 86.9335 131.216 91.9606 125.423C96.4153 120.261 95.9698 109.243 95.1434 104.08C94.8895 102.946 94.698 101.498 94.5064 99.7985ZM91.4527 124.983C86.5526 130.649 85.0247 131.657 78.8527 133.294C75.4159 134.175 74.525 134.301 72.8077 134.49C71.4713 134.679 69.6248 134.868 65.6156 135.623C58.7421 136.882 48.944 138.142 42.5159 138.142C41.1149 138.142 39.9701 138.078 39.0791 137.953C34.1144 137.26 12.6072 128.508 9.29738 123.598C8.53341 122.527 7.70704 121.457 6.87852 120.386C3.88722 116.672 0.768951 112.831 1.34139 106.094C1.72445 101.498 2.93391 96.5245 4.01422 92.1172C5.03428 87.9618 5.79607 84.7508 5.60669 83.1138C5.47973 82.2953 5.22366 81.4768 4.39729 81.4768C4.27032 81.4768 4.20571 81.4768 4.07874 81.5398C4.01418 81.5398 3.9518 81.5398 3.88724 81.5398C3.69786 81.5398 3.12329 81.5398 2.99633 77.9511C2.74239 70.9625 2.80693 65.5479 5.98761 59.1889C6.05217 59.1889 6.05218 59.1258 6.05218 59.0629C6.05218 58.8739 5.86066 38.2228 6.49766 32.6823C7.64253 23.8049 12.0326 8.75731 29.0249 9.3869C29.7243 9.57579 39.7162 12.0942 44.4248 16.5644C49.5164 21.3494 52.6347 25.7566 53.5256 34.3193C53.715 35.6416 53.8419 36.9636 53.9711 38.2228C54.7329 45.2745 55.3699 51.3816 55.1784 54.3409C54.989 56.9852 53.842 58.3704 53.3965 58.8111C53.2695 58.8739 53.1426 59.0629 53.0802 59.1889C53.0156 59.3148 53.0801 59.5036 53.2071 59.5665C53.3341 59.6296 53.5256 59.6296 53.6526 59.5665C53.842 59.8184 54.4165 60.7 55.4344 64.0369C56.4524 67.2478 56.7063 72.0327 56.8333 74.9289C56.8333 75.4327 56.8978 75.8105 56.8978 76.1881C56.8333 76.1881 56.7708 76.1881 56.7063 76.2512C51.4876 78.0139 46.2066 79.3362 40.9256 80.2807C37.0434 80.9101 33.288 81.288 29.9158 81.351C28.1964 81.4139 26.4791 81.4139 24.8888 81.288C24.5703 81.288 24.3163 81.288 24.0602 81.288C18.5876 81.288 14.1975 85.0656 11.4602 92.1172C9.3598 97.343 8.91437 102.695 8.91437 102.821C8.85196 103.009 9.04348 103.198 9.23286 103.198C9.42439 103.261 9.55136 103.072 9.61593 102.883C9.61593 102.695 11.5872 81.9805 24.1872 81.9805C24.3787 81.9805 24.5703 81.9805 24.8242 82.0436C26.4145 82.1065 28.134 82.1065 29.9783 82.1065C33.4796 81.9805 37.1703 81.6027 41.0525 80.9101C46.2712 80.0919 50.5343 78.9584 52.6347 78.3918C55.8799 77.5104 57.0248 77.0066 57.4057 76.7547C59.633 76.1252 64.2168 75.1808 66.6335 75.3067C70.4512 75.4955 71.3421 75.1179 73.0616 74.4254C73.3155 74.2994 73.5695 74.2364 73.888 74.1104C74.525 73.8587 75.0974 73.4809 75.6699 73.1031C76.8793 72.4105 78.1533 71.6551 80.3806 71.6551C80.953 71.6551 81.5255 71.718 82.1625 71.781C90.0518 72.9772 92.4061 89.7878 93.807 99.8614C93.9986 101.561 94.1879 103.009 94.444 104.206C95.2704 109.243 95.7158 120.009 91.4527 124.983Z" fill="black"/>
<path fill-rule="evenodd" clip-rule="evenodd" d="M58.1115 116.735C53.9452 117.694 47.6334 118.293 45.0466 118.593C45.0466 118.593 52.9983 118.113 58.1115 116.735Z" fill="#B2B2B2"/>
<path fill-rule="evenodd" clip-rule="evenodd" d="M82.7411 73.0369C82.7411 73.0369 78.9945 70.7058 75.1833 77.006C71.4345 83.3062 65.9705 92.8826 66.2266 98.049C66.4805 103.215 63.1772 112.54 62.4778 114.871L65.0817 107.184C65.0817 107.184 67.1778 107.31 67.4317 107.877C68.7036 110.713 63.6205 115.816 65.9705 120.289C68.3851 124.699 70.1648 135.851 78.4866 132.449C90.0472 127.786 94.05 120.73 93.7939 111.847C93.6045 102.963 89.6018 76.313 82.7411 73.0369Z" fill="#B2B2B2"/>
<path fill-rule="evenodd" clip-rule="evenodd" d="M58.1738 116.885C60.4915 116.321 62.1464 115.632 62.4111 114.817C61.815 115.632 60.2269 116.321 58.1738 116.885Z" fill="#B2B2B2"/>
<path fill-rule="evenodd" clip-rule="evenodd" d="M82.8079 72.4253C82.6809 72.3624 81.9213 71.9844 80.8453 71.9844C79.326 71.9844 77.0491 72.7402 74.7702 76.5193C70.8449 83.1959 65.5918 92.6438 65.8457 97.7455C66.0351 102.155 63.5668 109.902 62.4908 113.177C62.3014 113.681 62.1744 114.122 62.1098 114.437C61.7311 114.878 60.782 115.571 58.3137 116.263C54.7693 117.145 49.7056 117.712 46.667 118.027C46.0967 118.09 45.6534 118.153 45.2101 118.216C45.0207 118.216 44.8313 118.405 44.8937 118.594C44.8937 118.783 45.0853 118.909 45.2746 118.909C45.337 118.909 53.377 118.405 58.5031 116.956C61.0984 116.326 62.4907 115.571 62.7447 114.689L65.213 107.256C66.0975 107.319 66.9217 107.571 67.0487 107.697C67.4899 108.831 66.9217 110.406 66.2245 112.169C65.2754 114.689 64.1994 117.46 65.6542 120.105C66.0975 121.05 66.5408 122.247 67.0487 123.507C68.6928 127.79 70.7179 133.081 75.4653 133.081C76.4143 133.081 77.4279 132.892 78.5039 132.451C89.3264 128.042 94.2652 121.428 94.0113 111.539C93.8219 103.288 90.0236 75.9525 82.8079 72.4253ZM78.25 131.821C77.2385 132.199 76.3519 132.388 75.4653 132.388C71.2258 132.388 69.2631 127.349 67.6814 123.255C67.2381 121.932 66.7302 120.735 66.2245 119.791C65.0215 117.46 65.9727 114.752 66.9217 112.421C67.6168 110.595 68.2495 108.831 67.6814 107.445C67.365 106.815 65.9727 106.627 65.213 106.564C65.9727 103.477 66.6054 100.139 66.5408 97.7455C66.289 92.7697 71.4776 83.4478 75.4028 76.8973C77.4903 73.3701 79.5175 72.6772 80.8453 72.6772C81.7943 72.6772 82.4291 73.0552 82.4291 73.0552C82.4291 73.0552 82.4292 73.0552 82.4916 73.0552C88.9476 76.1415 93.0623 101.776 93.3141 111.539C93.568 121.113 88.7582 127.538 78.25 131.821Z" fill="black"/>
<path fill-rule="evenodd" clip-rule="evenodd" d="M101.038 19.3274C104.524 22.8399 105.919 27.9205 106.868 31.433C106.868 31.433 108.516 29.5513 109.024 28.6103C109.975 26.7915 103.257 17.1948 101.101 14.874C101.101 14.874 100.784 18.0102 101.038 19.3274Z" fill="#B2B2B2"/>
<path fill-rule="evenodd" clip-rule="evenodd" d="M101.201 14.7245C101.074 14.7879 100.947 14.9145 100.947 15.0411C100.947 15.1677 100.569 18.27 100.822 19.5995C100.822 19.6628 100.885 19.7262 100.947 19.7895C104.425 23.2716 105.815 28.4631 106.7 31.8188C106.764 31.9454 106.827 32.072 106.954 32.072C107.016 32.072 107.016 32.072 107.016 32.072C107.143 32.072 107.27 32.072 107.332 32.0087C107.397 31.8821 108.976 30.046 109.482 29.0963C110.621 26.8172 103.097 16.5606 101.58 14.8512C101.453 14.7245 101.326 14.6612 101.201 14.7245ZM108.85 28.7798C108.533 29.3496 107.711 30.3625 107.205 30.9956C106.259 27.5769 104.868 22.7651 101.518 19.3463C101.391 18.5232 101.453 16.8771 101.58 15.9275C104.298 19.2197 109.545 27.3235 108.85 28.7798Z" fill="black"/>
<path fill-rule="evenodd" clip-rule="evenodd" d="M58.1115 116.735C53.9452 117.694 47.6334 118.293 45.0466 118.593C45.0466 118.593 52.9983 118.113 58.1115 116.735Z" fill="white"/>
<path fill-rule="evenodd" clip-rule="evenodd" d="M58.1738 116.885C60.4915 116.321 62.1464 115.632 62.4111 114.817C61.815 115.632 60.2269 116.321 58.1738 116.885Z" fill="white"/>
<path fill-rule="evenodd" clip-rule="evenodd" d="M82.7454 73.0901C82.7454 73.0901 78.9967 70.763 75.1833 77.0522C71.4366 83.3413 65.9726 92.9009 66.2266 98.0581C66.4805 103.215 63.1772 112.523 62.4778 114.85L65.0817 107.177C65.0817 107.177 67.1799 107.303 67.4339 107.869C68.7036 110.699 63.6205 115.794 65.9727 120.259C66.926 121.957 67.7502 124.661 68.8951 127.114C78.7427 125.353 77.4084 122.586 82.046 119.567C93.8627 111.831 106.316 111.831 106.125 102.964C105.998 98.3098 100.089 79.6937 97.6116 72.5869C95.0076 65.1656 88.9067 71.895 82.7454 73.0901Z" fill="white"/>
<path fill-rule="evenodd" clip-rule="evenodd" d="M93.7208 68.5747C92.0723 68.5747 90.1075 69.4595 88.0782 70.4706C86.3652 71.2923 84.5274 72.1138 82.7519 72.4931C82.498 72.3666 81.8007 72.1138 80.912 72.1138C79.3905 72.1138 77.1072 72.8722 74.824 76.6641C70.8944 83.3633 65.6305 92.8431 65.8845 97.9624C66.0739 102.386 63.6012 110.16 62.523 113.446C62.3336 113.952 62.2067 114.394 62.1421 114.71C61.7612 115.153 60.81 115.848 58.3373 116.543C54.7865 117.428 49.7142 117.997 46.6713 118.313C46.0988 118.376 45.6555 118.439 45.2122 118.502C45.0207 118.502 44.8313 118.692 44.8937 118.881C44.8937 119.071 45.0853 119.197 45.2746 119.197C45.3392 119.197 53.392 118.692 58.5289 117.238C61.1285 116.606 62.523 115.848 62.7769 114.963L65.2496 107.506C66.1384 107.569 66.9626 107.821 67.0896 107.948C67.5329 109.085 66.9626 110.665 66.2654 112.435C65.3142 114.963 64.236 117.744 65.6929 120.398C66.1384 121.346 66.5817 122.547 67.0896 123.811C67.5329 124.948 67.9762 126.149 68.5465 127.287C68.5465 127.413 68.6735 127.539 68.865 127.539C68.865 127.539 68.865 127.476 68.9274 127.476C75.7127 126.276 77.2342 124.632 79.0742 122.61C79.8984 121.725 80.7226 120.777 82.1817 119.829C86.4298 117.048 90.7402 115.279 94.545 113.699C101.203 110.981 106.532 108.833 106.34 102.892C106.213 98.0255 100 78.497 97.844 72.3035C97.0198 69.7755 95.6231 68.5747 93.7208 68.5747ZM94.2932 113.067C90.4239 114.647 86.1113 116.416 81.8008 119.26C80.2793 120.272 79.3905 121.22 78.5663 122.168C76.8533 124 75.3964 125.58 69.0544 126.781C68.5465 125.707 68.1678 124.632 67.7223 123.558C67.279 122.231 66.7711 121.03 66.2654 120.082C64.9957 117.744 66.0114 115.026 66.9626 112.688C67.6599 110.855 68.2926 109.085 67.7223 107.695C67.406 107.063 66.0114 106.873 65.2496 106.81C66.0114 103.713 66.6441 100.364 66.5817 97.9624C66.3278 92.9697 71.5271 83.6162 75.4588 77.0434C77.5527 73.5043 79.5799 72.809 80.912 72.809C81.8631 72.809 82.498 73.1883 82.498 73.1883C82.5604 73.1883 82.6874 73.2513 82.7519 73.1883C84.7167 72.8722 86.5567 71.9242 88.3945 71.1027C90.3615 70.1546 92.1993 69.2698 93.7208 69.2698C94.7365 69.2698 96.1956 69.5859 97.2092 72.4931C100 80.6458 105.516 98.4678 105.643 102.892C105.77 108.327 100.952 110.349 94.2932 113.067Z" fill="black"/>
<path fill-rule="evenodd" clip-rule="evenodd" d="M99.2538 71.8004C94.4957 71.4235 90.0561 70.1675 84.4092 76.4481C84.4092 76.4481 82.0614 82.0381 82.5047 90.4544C82.9502 97.74 85.8037 101.634 87.0088 103.77C87.7707 105.151 98.4296 107.726 101.348 107.35C104.076 106.973 109.342 110.05 111.245 111.683C112.069 112.374 128.945 120.1 132.434 120.979C141.825 123.491 128.056 72.2401 125.835 69.9162C119.999 63.8866 107.502 72.4913 99.2538 71.8004Z" fill="#D8D8D8"/>
<path fill-rule="evenodd" clip-rule="evenodd" d="M125.803 69.8352C124.344 68.2636 122.379 67.5093 119.78 67.5093C116.734 67.5093 113.184 68.578 109.76 69.5838C106.398 70.5896 102.912 71.5956 99.994 71.5956C99.6152 71.5956 99.2967 71.5956 98.9804 71.5956C98.5371 71.5326 98.0291 71.4699 97.5858 71.4068C96.4431 71.344 95.3025 71.2182 94.162 71.2182C91.3708 71.2182 87.947 71.7842 83.8883 76.3733C83.8259 76.3733 83.8258 76.4362 83.8258 76.4362C83.7613 76.499 81.4156 82.2196 81.9235 90.5807C82.2398 97.1188 84.5231 100.891 85.9176 103.217C86.107 103.531 86.2985 103.782 86.4255 104.034C87.3121 105.605 96.824 107.869 100.312 107.869C100.629 107.869 100.883 107.869 101.072 107.806C101.264 107.806 101.391 107.806 101.518 107.806C104.307 107.806 108.998 110.572 110.711 112.081C111.535 112.772 128.53 120.567 132.08 121.51C132.334 121.573 132.588 121.573 132.778 121.573C133.791 121.573 134.489 121.007 134.996 119.876C137.09 115.035 134.364 100.576 132.524 92.4666C130.178 81.9682 126.944 70.9668 125.803 69.8352ZM134.364 119.562C133.856 120.693 133.221 121.07 132.27 120.819C128.784 119.876 112.043 112.269 111.219 111.578C109.379 109.943 104.56 107.114 101.518 107.114C101.326 107.114 101.199 107.114 101.01 107.114C100.818 107.177 100.566 107.177 100.312 107.177C96.6971 107.177 87.6306 104.788 87.0582 103.719C86.8688 103.468 86.7419 103.154 86.5525 102.839C85.2204 100.639 82.9371 96.8673 82.6207 90.5807C82.1774 82.7854 84.2046 77.3791 84.4585 76.7505C88.3278 72.4757 91.5602 71.91 94.162 71.91C95.3025 71.91 96.3807 72.0357 97.5213 72.0986C97.9646 72.1614 98.4725 72.2243 98.9158 72.2871C99.2967 72.2871 99.6152 72.2871 99.994 72.2871C102.974 72.2871 106.525 71.2811 109.949 70.2753C113.311 69.2695 116.799 68.2008 119.78 68.2008C122.125 68.2008 123.963 68.8923 125.295 70.2753C126.119 71.1554 129.227 80.8995 131.827 92.5924C134.934 106.36 135.821 116.167 134.364 119.562Z" fill="black"/>
<path fill-rule="evenodd" clip-rule="evenodd" d="M98.1044 107.916C94.5428 109.049 94.7968 112.009 95.0507 113.143C95.2422 114.339 97.151 116.292 100.013 115.41C102.811 114.465 112.032 117.74 114.384 118.874C116.739 120.07 127.359 124.982 130.92 124.479C134.482 124.038 137.088 121.708 137.088 121.708C137.088 121.708 128.312 117.488 118.645 113.017C108.979 108.608 101.666 106.719 98.1044 107.916Z" fill="#D8D8D8"/>
<path fill-rule="evenodd" clip-rule="evenodd" d="M137.329 121.515C137.265 121.451 128.487 117.226 118.882 112.812C109.086 108.335 101.707 106.506 98.0808 107.704C94.3277 108.903 94.5192 112.056 94.7732 113.317C95.0271 114.515 96.4905 116.091 98.6533 116.091C99.1611 116.091 99.6711 116.028 100.179 115.839C100.498 115.713 100.881 115.713 101.388 115.713C104.888 115.713 112.075 118.235 114.365 119.307C114.43 119.37 125.943 124.983 130.522 124.983C130.714 124.983 130.903 124.983 131.095 124.983C134.656 124.478 137.329 122.145 137.392 122.082C137.519 122.019 137.519 121.893 137.519 121.767C137.519 121.64 137.456 121.577 137.329 121.515ZM130.968 124.289C130.841 124.289 130.649 124.289 130.522 124.289C126.834 124.289 117.61 120.127 114.684 118.677C112.456 117.605 105.142 114.956 101.388 114.956C100.816 114.956 100.371 115.019 99.9897 115.145C99.5442 115.335 99.0987 115.398 98.6533 115.398C96.7444 115.398 95.6641 113.947 95.4726 113.191C95.2186 111.803 95.2186 109.344 98.3348 108.335C98.9718 108.146 99.7981 108.02 100.689 108.02C104.634 108.02 110.804 109.912 118.626 113.506C126.834 117.289 134.529 120.947 136.503 121.893C135.674 122.523 133.576 123.911 130.968 124.289Z" fill="black"/>
<path fill-rule="evenodd" clip-rule="evenodd" d="M102.936 66.231C102.936 66.231 104.658 67.2858 106.313 68.5164C105.187 67.4616 103.93 66.524 102.936 66.231Z" fill="#D8D8D8"/>
<path fill-rule="evenodd" clip-rule="evenodd" d="M169.595 71.4886C164.378 69.1601 157.061 51.1615 155.66 48.3925C154.261 45.5604 150.444 46.0639 150.444 46.0639C147.833 48.1406 142.425 48.3925 137.717 48.6441C132.946 48.8329 119.773 50.0286 117.165 50.4691C114.557 50.9727 111.946 53.7416 110.548 55.3778C109.084 57.0142 102.531 60.2865 100.112 61.9229C97.7581 63.5591 95.9139 65.1952 95.9139 65.1952C95.9139 65.1952 95.4038 67.3349 96.1032 68.7194C96.8026 70.1041 98.266 73.1248 98.0121 75.0128C97.7582 76.9007 96.3572 81.306 96.3572 82.9422C96.3572 84.5786 98.0121 86.2147 100.366 85.5224C102.721 84.8303 105.329 81.5577 106.73 79.2292C108.193 76.9007 108.639 73.6283 109.084 71.7403C109.084 71.7403 107.812 69.9153 106.22 68.342C104.63 67.0204 102.975 65.8876 102.975 65.8876C103.93 66.2023 105.14 67.2092 106.22 68.342C107.556 69.4746 108.893 70.7963 109.084 71.7403C109.084 71.7403 115.702 67.0833 120.664 67.5237C122.254 67.7125 126.963 68.8454 131.545 69.223C134.917 69.2858 138.862 68.7194 138.862 68.7194C137.017 69.4118 134.282 69.4746 131.545 69.223C131.226 69.223 130.91 69.223 130.591 69.1601C131.099 72.4324 137.463 74.5722 139.118 75.0128L161.324 88.5433C167.686 85.5224 168.641 82.9422 170.296 79.9216C171.949 76.9007 174.749 73.88 169.595 71.4886Z" fill="#D8D8D8"/>
<path fill-rule="evenodd" clip-rule="evenodd" d="M138.812 69.001C138.812 69.001 134.9 69.591 131.558 69.5256C134.269 69.7877 136.983 69.7223 138.812 69.001Z" fill="#D8D8D8"/>
<path fill-rule="evenodd" clip-rule="evenodd" d="M169.689 71.3703C165.501 69.4754 159.601 56.3375 157.061 50.7793C156.553 49.6422 156.173 48.8211 155.983 48.3159C154.46 45.3472 150.588 45.7894 150.399 45.7894C150.334 45.7894 150.272 45.8525 150.272 45.9158C147.797 47.8737 142.593 48.1265 137.96 48.379H137.706C133.01 48.6317 119.748 49.8319 117.208 50.2738C114.606 50.716 112.069 53.3689 110.419 55.327C109.53 56.2745 106.612 57.9799 104.01 59.4326C102.486 60.3167 100.963 61.2011 100.076 61.8327C97.7259 63.475 95.8235 65.1172 95.8235 65.1172C95.759 65.1802 95.6966 65.2435 95.6966 65.3066C95.6966 65.3699 95.1887 67.5806 95.9505 69.0333C97.3472 71.7492 97.9799 73.8968 97.7905 75.16C97.726 75.9811 97.4096 77.2443 97.0933 78.5709C96.6478 80.3394 96.1399 82.2342 96.1399 83.1817C96.1399 84.1291 96.6478 85.0765 97.4096 85.6451C98.2984 86.2767 99.4411 86.4661 100.646 86.0872C102.994 85.3923 105.66 82.1712 107.182 79.6447C108.325 77.7498 108.895 75.2231 109.276 73.3915C109.403 72.9494 109.467 72.5072 109.53 72.1283C110.418 71.5597 116.322 67.6436 120.763 68.0858C121.334 68.1489 122.285 68.2753 123.492 68.528C125.394 68.9069 127.869 69.3491 130.344 69.6649C131.106 73.1388 137.706 75.16 139.038 75.5391C139.23 75.6022 139.419 75.5391 139.484 75.3495C139.546 75.16 139.419 74.9706 139.23 74.9073C136.563 74.0862 131.932 72.1914 131.106 69.728C131.297 69.728 131.424 69.728 131.551 69.728C134.342 69.9807 137.136 69.9807 139.038 69.2227C139.23 69.1596 139.292 68.9702 139.292 68.7805C139.23 68.6544 139.038 68.528 138.849 68.528C138.849 68.528 134.85 69.1596 131.551 69.0333C128.696 68.7805 125.775 68.2753 123.619 67.8331C122.412 67.6436 121.398 67.4542 120.826 67.3911C116.448 66.9489 110.926 70.3596 109.403 71.3703C108.959 70.4229 107.754 69.2227 106.547 68.2122C105.406 67.0753 104.199 66.0646 103.248 65.7488C103.059 65.6857 102.867 65.7488 102.805 65.9382C102.74 66.0646 102.805 66.254 102.932 66.3804C103.629 66.8226 104.899 67.77 106.104 68.7805C107.373 70.1071 108.516 71.5597 108.832 72.0019C108.768 72.3808 108.706 72.7599 108.579 73.2021C108.198 75.0969 107.69 77.434 106.612 79.2656C105.088 81.729 102.613 84.7607 100.392 85.4556C99.4411 85.7082 98.5523 85.582 97.8529 85.0765C97.2202 84.6344 96.9017 83.9397 96.9017 83.1817C96.9017 82.2975 97.3472 80.4027 97.7905 78.6972C98.1069 77.3707 98.4254 76.1075 98.4878 75.2864C98.7417 73.4546 97.6011 70.7387 96.5854 68.7174C96.0775 67.6436 96.2669 66.0015 96.3939 65.5593C96.7748 65.2435 98.4878 63.7908 100.519 62.4012C101.343 61.7696 102.805 60.9483 104.391 60.0642C107.119 58.4851 109.975 56.8428 110.926 55.769C111.815 54.6954 114.671 51.4109 117.335 50.9687C119.874 50.4635 133.073 49.3264 137.771 49.0739H138.025C142.656 48.8212 147.924 48.5686 150.588 46.4841C151.16 46.421 154.143 46.3577 155.348 48.6317C155.538 49.0739 155.919 49.958 156.426 51.0318C159.22 57.2219 164.931 69.9807 169.373 72.0019C170.894 72.6966 171.783 73.4546 172.037 74.339C172.483 75.6653 171.594 77.1813 170.64 78.7603C170.389 79.1392 170.197 79.5814 169.943 79.9605C169.816 80.213 169.689 80.4657 169.562 80.7185C168.103 83.4344 166.898 85.7714 161.122 88.4874C160.995 88.6137 160.868 88.8032 160.995 88.9926C161.06 89.119 161.187 89.1821 161.314 89.1821C161.376 89.1821 161.376 89.1821 161.441 89.119C167.406 86.2767 168.674 83.8766 170.197 81.0343C170.324 80.7815 170.451 80.5921 170.578 80.3394C170.767 79.8972 171.021 79.5183 171.275 79.0761C172.229 77.434 173.244 75.7286 172.737 74.1495C172.418 73.0757 171.402 72.1914 169.689 71.3703Z" fill="black"/>
<path fill-rule="evenodd" clip-rule="evenodd" d="M143.052 113.641C140.691 113.891 137.373 112.953 132.905 111.514C128.375 110.137 125.758 107.572 124.353 107.572L122.95 116.644C122.95 116.644 125.31 118.772 129.778 120.398C134.31 122.025 139.733 122.213 142.35 122.213C144.967 122.213 145.669 120.586 147.584 118.959C149.499 117.333 150.646 117.145 149.499 115.706C148.285 114.329 145.415 113.391 143.052 113.641Z" fill="#D8D8D8"/>
<path fill-rule="evenodd" clip-rule="evenodd" d="M143.172 113.346C140.818 113.595 137.379 112.597 133.114 111.288C130.692 110.539 128.846 109.479 127.383 108.606C126.173 107.857 125.28 107.358 124.516 107.358C124.327 107.358 124.135 107.483 124.135 107.67C124.135 107.857 124.327 108.045 124.516 108.045C125.091 108.045 125.917 108.543 127.064 109.23C128.465 110.04 130.439 111.163 132.922 111.974C137.252 113.284 140.753 114.282 143.237 114.032C145.466 113.845 148.203 114.718 149.286 116.028C149.604 116.34 149.731 116.589 149.667 116.776C149.667 117.088 149.221 117.4 148.584 117.837C148.266 118.086 147.885 118.398 147.439 118.772C146.929 119.209 146.549 119.583 146.165 120.02C145.083 121.142 144.254 121.953 142.473 121.953C140.308 121.953 134.641 121.766 130.058 120.082C125.728 118.523 123.371 116.464 123.307 116.464C123.18 116.34 122.988 116.34 122.861 116.464C122.734 116.652 122.734 116.839 122.861 116.963C122.988 117.088 125.345 119.146 129.802 120.768C134.514 122.452 140.243 122.639 142.473 122.639C144.573 122.639 145.528 121.641 146.676 120.456C147.056 120.082 147.44 119.708 147.885 119.271C148.33 118.959 148.713 118.647 149.03 118.398C149.796 117.837 150.304 117.462 150.368 116.839C150.431 116.464 150.241 116.09 149.858 115.591C148.584 114.094 145.655 113.096 143.172 113.346Z" fill="black"/>
<path fill-rule="evenodd" clip-rule="evenodd" d="M151.615 106.219C147.861 107.165 146.652 106.219 143.598 105.273C140.48 104.328 136.279 100.102 132.27 98.9675C128.198 97.7692 126.098 99.6611 126.098 99.6611L122.089 108.3C123.998 107.859 124.889 108.994 127.051 109.751C129.152 110.444 136.471 114.417 139.079 114.606C141.689 114.858 146.652 116.246 149.516 115.552C152.316 114.858 154.225 114.165 155.88 113.219C157.533 112.273 157.533 107.165 157.025 105.715C156.579 104.328 155.37 105.273 151.615 106.219Z" fill="#D8D8D8"/>
<path fill-rule="evenodd" clip-rule="evenodd" d="M153.607 105.296C152.974 105.485 152.152 105.736 151.139 105.988C148.163 106.743 146.897 106.303 144.87 105.611C144.427 105.422 143.921 105.296 143.288 105.107C141.958 104.667 140.312 103.534 138.539 102.338C136.449 100.891 134.233 99.4436 132.016 98.7515C127.901 97.5558 125.685 99.4436 125.558 99.5696C125.433 99.6953 125.433 99.8841 125.558 100.073C125.685 100.199 125.876 100.199 126.066 100.073C126.128 100.01 128.091 98.3739 131.827 99.4436C133.916 100.073 136.068 101.52 138.158 102.968C139.931 104.163 141.642 105.296 143.097 105.736C143.667 105.925 144.173 106.114 144.681 106.303C146.706 106.995 148.163 107.499 151.266 106.68C152.342 106.429 153.164 106.177 153.861 105.988C155.824 105.359 156.078 105.359 156.267 105.988C156.775 107.373 156.648 112.281 155.253 113.036C153.607 113.98 151.771 114.672 148.987 115.365C147.087 115.805 144.11 115.302 141.704 114.861C140.564 114.672 139.552 114.483 138.793 114.421C137.146 114.295 133.537 112.596 130.688 111.211C129.042 110.456 127.647 109.764 126.888 109.512C126.193 109.323 125.622 109.009 125.114 108.757C124.038 108.254 123.089 107.75 121.759 108.128C121.57 108.191 121.443 108.379 121.506 108.568C121.506 108.757 121.697 108.82 121.886 108.82C123.027 108.505 123.787 108.883 124.798 109.386C125.306 109.638 125.939 109.953 126.636 110.204C127.396 110.456 128.788 111.085 130.37 111.841C133.284 113.225 136.955 114.924 138.728 115.113C139.488 115.176 140.501 115.365 141.577 115.553C143.413 115.868 145.44 116.246 147.214 116.246C147.909 116.246 148.606 116.182 149.176 116.057C151.961 115.365 153.926 114.609 155.634 113.665C157.535 112.596 157.408 107.184 156.964 105.799C156.521 104.415 155.445 104.73 153.607 105.296Z" fill="black"/>
<path fill-rule="evenodd" clip-rule="evenodd" d="M153.041 94.3588C148.328 95.307 139.283 89.6804 136.481 88.4792C133.615 87.2779 128.71 82.8525 128.71 82.8525L126.608 97.8359C126.608 97.8359 140.749 105.865 142.66 106.56C144.571 107.256 148.584 107.256 152.342 107.509C152.342 107.509 158.966 106.307 160.623 106.055C162.278 105.865 164.634 99.7324 163.935 97.8359C163.233 96.0024 157.756 93.4105 153.041 94.3588Z" fill="#D8D8D8"/>
<path fill-rule="evenodd" clip-rule="evenodd" d="M152.785 93.6937C149.28 94.3878 142.974 91.1706 139.215 89.2781C138.068 88.6474 137.112 88.1427 136.475 87.8904C133.671 86.7548 128.767 82.3392 128.767 82.3392C128.575 82.2131 128.383 82.2131 128.257 82.3392C128.13 82.4654 128.13 82.7177 128.257 82.8439C128.448 83.0331 133.29 87.3227 136.157 88.5212C136.794 88.7735 137.749 89.2781 138.896 89.8458C142.974 91.9906 149.153 95.1447 152.912 94.3878C157.563 93.5045 162.788 96.0278 163.425 97.668C163.806 98.8034 162.979 101.894 161.768 103.976C161.004 105.238 160.494 105.427 160.367 105.427C158.837 105.616 152.721 106.689 152.148 106.815C151.255 106.752 150.364 106.752 149.536 106.689C146.669 106.562 143.992 106.436 142.591 105.932C140.743 105.238 126.664 97.3526 126.535 97.2895C126.408 97.1634 126.154 97.2265 126.089 97.4157C125.963 97.5418 126.027 97.7942 126.216 97.8572C126.791 98.2357 140.424 105.868 142.337 106.562C143.865 107.13 146.605 107.256 149.471 107.382C150.364 107.446 151.255 107.446 152.148 107.509H152.211C152.275 107.509 158.837 106.373 160.494 106.121C161.066 106.058 161.705 105.427 162.342 104.355C163.616 102.273 164.634 98.8665 164.062 97.4788C163.298 95.3339 157.69 92.7476 152.785 93.6937Z" fill="black"/>
<path fill-rule="evenodd" clip-rule="evenodd" d="M166.416 86.6587C164.249 86.2176 160.937 85.9653 160.937 85.9653C159.79 84.8305 150.106 79.9133 146.538 77.7699C142.97 75.6895 138.255 73.6092 133.54 71.2136C127.167 67.9355 119.076 68.1876 119.076 68.1876L127.613 84.074C131.373 85.7132 144.943 93.9085 148.894 94.8542C153.863 96.052 160.745 98.1323 162.592 97.8802C164.505 97.691 168.073 94.1608 169.474 92.2695C170.875 90.4412 168.518 87.1631 166.416 86.6587Z" fill="#D8D8D8"/>
<path fill-rule="evenodd" clip-rule="evenodd" d="M166.287 85.8804C164.378 85.4423 161.58 85.1921 160.943 85.1921C159.925 84.3161 156.11 82.2512 152.357 80.2487C150.067 79.0598 147.904 77.871 146.568 77.0576C144.343 75.806 141.672 74.4921 138.872 73.1781C137.155 72.3647 135.373 71.4887 133.529 70.55C127.17 67.2962 119.026 67.4839 118.964 67.4839C118.772 67.5466 118.646 67.6717 118.646 67.8594C118.646 68.0472 118.772 68.2349 119.026 68.2349C119.091 68.2349 127.041 68.0472 133.212 71.1756C135.057 72.1143 136.836 72.9904 138.554 73.8038C141.354 75.1177 144.024 76.3693 146.187 77.6832C147.523 78.4968 149.686 79.623 152.038 80.8746C155.664 82.8142 159.798 85.0668 160.562 85.7552C160.562 85.8178 160.689 85.8804 160.754 85.8804C160.816 85.8804 164.059 86.068 166.16 86.5688C167.305 86.8189 168.641 88.0705 169.149 89.4471C169.403 90.0101 169.53 90.8861 169.022 91.5744C167.432 93.6393 163.997 96.8307 162.407 97.0184C161.135 97.1435 157.317 96.1424 153.566 95.2037C151.976 94.7658 150.321 94.3276 148.795 94.0148C146.379 93.4516 140.082 89.9476 134.992 87.1944C131.812 85.4423 129.076 83.9406 127.615 83.315C127.424 83.2523 127.232 83.315 127.17 83.5025C127.105 83.6902 127.17 83.878 127.359 84.0033C128.76 84.5663 131.493 86.068 134.611 87.8201C140.017 90.761 146.125 94.0775 148.668 94.7031C150.132 95.0159 151.784 95.4541 153.375 95.892C157.063 96.8307 160.498 97.7065 162.088 97.7065C162.215 97.7065 162.342 97.7065 162.471 97.7065C164.505 97.4563 168.131 93.8897 169.594 92.0125C170.102 91.2616 170.229 90.2605 169.786 89.1967C169.214 87.6323 167.686 86.1933 166.287 85.8804Z" fill="black"/>
<path fill-rule="evenodd" clip-rule="evenodd" d="M106.426 108.825C102.746 106.506 98.1153 106.883 97.2265 109.515C96.9101 110.58 97.6074 112.774 98.4338 113.213C99.512 113.84 101.479 117.913 103.381 120.233C105.221 122.551 104.778 122.99 108.52 123.241C112.327 123.492 112.773 121.173 112.773 121.173C112.519 118.854 109.028 110.455 106.426 108.825Z" fill="#D8D8D8"/>
<path fill-rule="evenodd" clip-rule="evenodd" d="M106.758 108.296C105.142 107.287 103.203 106.719 101.393 106.719C99.0666 106.719 97.3859 107.665 96.8672 109.178C96.4799 110.376 97.2546 112.835 98.2252 113.34C98.7417 113.655 99.7122 115.168 100.616 116.618C101.393 117.879 102.297 119.266 103.138 120.275C103.526 120.717 103.784 121.095 103.977 121.41C105.142 122.923 105.529 123.302 108.697 123.491C108.891 123.491 109.084 123.491 109.215 123.491C112.835 123.491 113.352 121.158 113.416 121.095C113.416 121.032 113.416 121.032 113.416 120.969C113.158 118.636 109.538 110.061 106.758 108.296ZM108.761 122.797C105.787 122.608 105.594 122.293 104.561 120.969C104.367 120.654 104.107 120.275 103.719 119.834C102.88 118.825 102.039 117.564 101.264 116.24C100.164 114.538 99.2603 113.151 98.548 112.772C97.9024 112.394 97.19 110.376 97.515 109.43C97.9669 108.169 99.3894 107.413 101.393 107.413C103.074 107.413 104.819 107.917 106.371 108.926C108.761 110.376 112.381 118.51 112.706 120.969C112.575 121.284 111.929 122.986 108.761 122.797Z" fill="black"/>
<path fill-rule="evenodd" clip-rule="evenodd" d="M117.245 114.91C115.594 113.651 115.594 114.029 114.77 112.456C113.946 110.946 112.995 109.184 111.346 108.743C111.346 108.743 108.239 107.359 106.59 108.491C105.004 109.687 102.721 111.071 105.066 113.526C106.844 115.351 106.59 114.847 107.668 116.924C108.746 119 109.19 120.322 109.825 121.58C110.395 122.902 110.268 124.538 112.868 124.727C115.469 124.979 118.956 126.048 120.415 124.853C121.811 123.72 118.893 116.232 117.245 114.91Z" fill="#D8D8D8"/>
<path fill-rule="evenodd" clip-rule="evenodd" d="M117.671 114.471C117.223 114.098 116.905 113.911 116.649 113.725C115.945 113.29 115.816 113.166 115.241 112.109C114.41 110.555 113.388 108.815 111.66 108.318C111.404 108.193 109.934 107.572 108.464 107.572C107.696 107.572 107.057 107.758 106.547 108.131L106.353 108.255C105.267 109.063 103.988 109.934 103.861 111.177C103.797 111.985 104.117 112.73 104.948 113.601C105.396 114.036 105.652 114.284 105.906 114.533C106.674 115.279 106.739 115.341 107.505 116.895C108.208 118.262 108.656 119.257 109.039 120.189C109.295 120.624 109.422 121.059 109.616 121.494C109.743 121.743 109.87 121.991 109.934 122.24C110.317 123.359 110.703 124.602 113.003 124.788C113.707 124.85 114.41 124.975 115.177 125.099C116.328 125.223 117.544 125.41 118.566 125.41C119.588 125.41 120.357 125.223 120.869 124.85C121.252 124.54 121.379 124.043 121.379 123.297C121.379 120.81 119.141 115.59 117.671 114.471ZM120.421 124.291C120.036 124.602 119.461 124.726 118.566 124.726C117.606 124.726 116.457 124.54 115.306 124.415C114.537 124.291 113.771 124.167 113.068 124.105C111.277 123.918 110.959 123.11 110.638 122.053C110.511 121.743 110.446 121.432 110.317 121.183C110.126 120.748 109.934 120.375 109.743 119.878C109.295 119.008 108.848 117.951 108.144 116.522C107.313 114.968 107.249 114.844 106.418 114.036C106.162 113.849 105.906 113.539 105.458 113.103C104.819 112.42 104.5 111.798 104.565 111.239C104.627 110.306 105.779 109.499 106.739 108.815L106.993 108.691C107.378 108.442 107.888 108.318 108.464 108.318C109.87 108.318 111.342 108.939 111.342 108.939C111.404 108.939 111.404 108.939 111.404 108.939C112.941 109.374 113.834 110.99 114.667 112.482C115.241 113.601 115.433 113.787 116.201 114.284C116.457 114.471 116.776 114.657 117.223 115.03C118.439 115.962 120.613 120.873 120.675 123.297C120.675 123.98 120.548 124.229 120.421 124.291Z" fill="black"/>
<path fill-rule="evenodd" clip-rule="evenodd" d="M122.411 114.414C120.382 112.284 118.161 111.407 116.132 111.971C114.167 112.535 112.835 115.353 113.532 116.167C114.229 116.981 115.562 118.61 117.464 120.363C119.304 122.054 119.683 124.309 121.777 126C123.933 127.753 127.23 125.937 129.894 125.311C132.621 124.747 133.001 123.933 133.001 123.933L126.976 122.806C127.8 119.862 124.376 116.48 122.411 114.414Z" fill="#D8D8D8"/>
<path fill-rule="evenodd" clip-rule="evenodd" d="M132.963 123.551C132.773 123.488 132.584 123.551 132.459 123.742C132.459 123.742 132.081 124.442 129.683 124.951C128.988 125.078 128.231 125.332 127.538 125.587C125.454 126.223 123.309 126.922 121.921 125.714C120.849 124.823 120.219 123.806 119.65 122.725C119.082 121.771 118.514 120.817 117.567 119.926C116.052 118.527 114.918 117.128 114.161 116.238C114.034 116.047 113.844 115.856 113.782 115.729C113.655 115.602 113.593 115.284 113.717 114.711C114.034 113.63 114.981 112.422 116.179 112.04C118.009 111.531 120.092 112.358 122.048 114.457L122.3 114.711C124.256 116.81 127.221 119.99 126.528 122.598C126.464 122.788 126.528 122.979 126.718 123.043C126.907 123.106 127.096 122.979 127.159 122.788C128.041 119.799 124.886 116.428 122.805 114.266L122.551 113.948C120.408 111.658 118.073 110.768 115.99 111.404C114.539 111.786 113.466 113.249 113.087 114.521C112.835 115.22 112.897 115.856 113.214 116.174C113.341 116.365 113.466 116.492 113.655 116.683C114.413 117.573 115.549 118.972 117.126 120.499C117.946 121.262 118.452 122.152 119.018 123.106C119.65 124.187 120.281 125.269 121.48 126.286C122.175 126.859 122.995 127.113 123.877 127.113C125.076 127.113 126.464 126.668 127.727 126.223C128.485 126.032 129.177 125.777 129.808 125.65C132.584 125.014 133.09 124.187 133.152 123.997C133.217 123.806 133.152 123.615 132.963 123.551Z" fill="black"/>
<path fill-rule="evenodd" clip-rule="evenodd" d="M151.412 44.7025C149.635 45.7109 150.016 54.5334 152.811 59.7638C155.669 65.0574 166.655 76.9679 174.404 79.0475C174.404 79.0475 174.086 81.19 176.5 81.8832C178.977 82.5764 194.22 69.2166 195.998 68.2083C197.775 67.137 174.785 29.5781 174.785 29.5781C174.785 29.5781 153.192 43.6313 151.412 44.7025Z" fill="white"/>
<path fill-rule="evenodd" clip-rule="evenodd" d="M174.854 29.4273C174.727 29.3647 174.662 29.4273 174.6 29.49C174.344 29.6155 152.959 43.4074 151.178 44.4731C149.204 45.6643 149.585 54.6291 152.449 59.9576C155.441 65.4118 166.261 76.9468 174.025 79.2037C174.025 79.8933 174.282 81.5233 176.444 82.0876C176.509 82.1502 176.636 82.1502 176.763 82.1502C178.863 82.1502 185.61 76.8842 192.356 71.4928C194.267 69.9255 195.731 68.7345 196.239 68.421C196.303 68.421 196.43 68.2955 196.43 68.1075C197.13 65.4745 177.335 33.2516 175.046 29.5528C175.046 29.49 174.919 29.4273 174.854 29.4273ZM195.793 67.9194C195.221 68.2328 193.82 69.3614 191.911 70.9285C187.329 74.6273 178.801 81.4607 176.763 81.4607C176.7 81.4607 176.636 81.4607 176.636 81.3978C174.473 80.8337 174.727 79.0784 174.789 79.0156C174.789 78.8276 174.662 78.7021 174.536 78.6395C167.025 76.6334 156.015 64.9102 153.086 59.5815C150.16 54.1275 150.16 45.9149 151.558 45.0374C153.213 44.097 171.925 31.9977 174.662 30.2424C183.064 43.909 196.049 65.8506 195.793 67.9194Z" fill="black"/>
<path fill-rule="evenodd" clip-rule="evenodd" d="M215.579 3.84313C216.978 -1.7455 215.198 -2.81299 213.098 -2.81299C213.098 -2.81299 208.52 2.08491 203.876 4.53386C199.299 6.98282 189.759 16.0879 185.498 19.6043C181.237 23.058 174.497 25.8838 174.178 28.3327C173.795 30.7816 172.016 32.8538 174.878 38.1284C177.675 43.3403 179.457 46.166 179.457 46.166C179.457 46.166 180.538 51.3779 184.799 57.3434C188.995 63.3086 196.118 71.6601 201.397 74.486C206.738 77.2488 209.919 76.5582 209.919 76.5582C209.919 76.5582 214.18 73.4184 215.579 72.0371C216.978 70.6556 217.359 54.2036 216.978 48.6149C216.659 43.0264 214.18 9.43176 215.579 3.84313Z" fill="#565656"/>
<path fill-rule="evenodd" clip-rule="evenodd" d="M217.066 46.0879C216.431 36.8785 214.589 8.80869 215.796 3.88858C216.558 0.860828 216.496 -1.0946 215.669 -2.23001C215.099 -2.92387 214.208 -3.23926 213.003 -3.23926C212.939 -3.23926 212.812 -3.23926 212.749 -3.1131C212.685 -3.1131 208.112 1.74392 203.668 4.14089C200.302 5.97017 194.522 11.0795 189.886 15.2427C187.982 16.8827 186.393 18.3335 185.186 19.2797C183.598 20.6674 181.631 21.8659 179.789 23.0013C176.677 24.9567 174.009 26.6598 173.755 28.2998C173.692 28.8044 173.565 29.3091 173.374 29.8767C172.866 31.8321 172.231 34.1031 174.516 38.3293C177.12 43.1864 178.836 45.9618 179.09 46.4033C179.216 47.0341 180.359 52.0172 184.424 57.6943C188.87 63.9391 195.918 72.2653 201.191 75.0409C204.81 76.9963 207.541 77.2486 208.811 77.2486C209.51 77.2486 209.891 77.1855 209.891 77.1855C209.954 77.1855 210.018 77.1224 210.018 77.1224C210.208 76.9963 214.335 73.9055 215.734 72.5176C217.385 70.8776 217.576 53.6574 217.258 48.7372C217.193 48.1064 217.131 47.2233 217.066 46.0879ZM215.226 72.013C213.954 73.2745 210.208 76.1132 209.7 76.4917C209.573 76.4917 209.256 76.5547 208.811 76.5547C207.604 76.5547 205 76.3024 201.507 74.4101C196.364 71.6976 189.378 63.4976 184.997 57.3158C180.867 51.4495 179.789 46.2772 179.724 46.2141C179.724 46.151 179.724 46.151 179.724 46.0879C179.662 46.0249 177.882 43.2495 175.151 38.0139C172.993 34.04 173.565 31.8952 174.073 30.0029C174.2 29.4983 174.39 28.9306 174.454 28.426C174.643 27.0383 177.312 25.3983 180.17 23.6321C182.012 22.4336 183.979 21.2351 185.632 19.8474C186.837 18.8381 188.49 17.3873 190.329 15.7473C194.967 11.6472 200.745 6.53786 203.984 4.77168C208.176 2.56394 212.431 -1.78847 213.13 -2.54539C214.081 -2.54539 214.654 -2.29308 215.099 -1.78847C215.796 -0.842292 215.796 0.986981 215.162 3.69935C213.827 8.74561 215.669 35.9323 216.369 46.151C216.431 47.2864 216.496 48.1695 216.558 48.7372C216.939 54.7297 216.431 70.8145 215.226 72.013Z" fill="black"/>
<path fill-rule="evenodd" clip-rule="evenodd" d="M213.991 79.2822L228.794 183.798H235.438V-20.0737H209.245L213.991 79.2822Z" fill="#565656"/>
<path fill-rule="evenodd" clip-rule="evenodd" d="M208.07 -1.51134C206.672 11.7655 209.85 25.7975 210.55 36.3055C211.249 46.8138 204.511 56.6297 205.273 69.592C205.972 82.5541 212.646 91.9927 215.125 110.555C217.604 129.18 217.412 155.797 222.052 165.991C226.629 176.121 228.979 183.798 228.979 183.798L209.342 -20.0737C209.342 -14.7882 209.469 -14.8511 208.07 -1.51134Z" fill="#565656"/>
<path fill-rule="evenodd" clip-rule="evenodd" d="M222.47 165.642C219.476 159.163 218.458 145.26 217.503 131.861C216.928 124.501 216.42 116.889 215.527 110.41C214.255 101.036 211.899 93.9279 209.861 87.6373C207.758 81.2836 205.976 75.8108 205.593 69.4571C205.21 62.7262 206.867 56.9386 208.46 51.2771C209.861 46.1186 211.262 41.2118 210.943 36.1793C210.687 32.908 210.242 29.2596 209.734 25.485C208.649 17.0555 207.44 7.49365 208.46 -1.62787C209.734 -13.706 209.734 -14.7755 209.734 -18.8016C209.734 -19.2419 209.734 -19.6821 209.734 -20.1855C209.734 -20.3743 209.542 -20.5 209.351 -20.5C209.159 -20.5 208.968 -20.3743 208.968 -20.1855C208.968 -19.6821 208.968 -19.2419 208.968 -18.8016C209.032 -14.8384 209.032 -13.706 207.758 -1.69078C206.74 7.55655 207.95 17.1184 209.032 25.5481C209.542 29.3853 209.988 32.9711 210.179 36.1793C210.56 41.149 209.159 45.9929 207.758 51.0883C206.166 56.8127 204.511 62.6631 204.894 69.4571C205.275 75.9365 207.059 81.4724 209.159 87.8261C211.262 94.1167 213.554 101.162 214.828 110.473C215.719 117.015 216.229 124.564 216.801 131.924C217.821 146.015 218.777 159.288 221.768 165.957C226.354 175.959 228.646 183.696 228.646 183.759C228.71 183.885 228.837 184.011 229.029 184.011H229.091C229.283 183.948 229.41 183.759 229.347 183.57C229.347 183.445 226.991 175.707 222.47 165.642Z" fill="black"/>
<path fill-rule="evenodd" clip-rule="evenodd" d="M53.4458 104.226C53.8267 104.226 54.0182 104.416 54.3346 104.86C54.5885 105.241 54.7801 105.685 54.9071 106.383C55.034 107.017 55.0964 107.715 55.034 108.476C54.9694 109.237 54.7801 109.872 54.5886 110.506C54.3346 111.141 54.1452 111.521 53.8267 111.902C53.5104 112.219 53.1919 112.409 52.8755 112.409C52.4946 112.409 52.2407 112.156 51.9868 111.775C51.7328 111.331 51.5413 110.887 51.4143 110.252C51.2874 109.555 51.2874 108.92 51.2874 108.159C51.3519 107.398 51.4789 106.763 51.7328 106.129C51.9222 105.494 52.1762 104.987 52.4947 104.67C52.811 104.289 53.1295 104.162 53.4458 104.226Z" fill="#DCDCDC"/>
<path fill-rule="evenodd" clip-rule="evenodd" d="M53.2652 104.074C52.0493 103.949 50.898 105.827 50.7065 108.268C50.6419 109.394 50.7689 110.458 51.0896 111.335C51.4102 112.211 51.9848 112.774 52.6261 112.837H52.6885C53.9044 112.837 54.9933 111.022 55.1203 108.581C55.3118 106.077 54.5457 104.137 53.2652 104.074ZM54.4811 108.518C54.2896 110.646 53.3922 112.148 52.6885 112.148H52.6261C52.3054 112.086 51.9848 111.71 51.7287 111.084C51.4726 110.333 51.3456 109.332 51.4102 108.33C51.6017 106.202 52.4969 104.7 53.2006 104.7C53.9689 104.763 54.6081 106.328 54.4811 108.518Z" fill="black"/>
<path fill-rule="evenodd" clip-rule="evenodd" d="M83.7396 112.6C84.1227 112.274 84.4411 112.078 84.8866 111.882C85.2675 111.686 85.5861 111.621 85.9046 111.621C86.2231 111.621 86.4146 111.686 86.604 111.882C86.7309 112.078 86.7309 112.274 86.6685 112.6C86.6039 112.927 86.477 113.188 86.223 113.58C85.967 113.906 85.713 114.298 85.3321 114.625C84.949 114.886 84.5682 115.147 84.1851 115.343C83.8042 115.539 83.4856 115.604 83.1671 115.604C82.8486 115.604 82.5947 115.539 82.4677 115.343C82.3408 115.147 82.2762 114.951 82.3408 114.625C82.4032 114.298 82.5302 113.971 82.7863 113.645C83.0402 113.253 83.3587 112.927 83.7396 112.6Z" fill="white"/>
<path fill-rule="evenodd" clip-rule="evenodd" d="M86.0189 111.408C85.298 111.408 84.3813 111.851 83.5312 112.485C82.1539 113.562 81.631 114.892 82.2206 115.652C82.3519 115.779 82.6144 116.033 83.1374 116.033C83.8583 116.033 84.7751 115.589 85.6273 114.956C87.0024 113.879 87.592 112.548 87.0024 111.788C86.8044 111.661 86.544 111.408 86.0189 111.408ZM85.1667 114.385C84.5125 114.956 83.727 115.272 83.1374 115.272C83.0061 115.272 82.8748 115.272 82.7435 115.146C82.5477 114.892 82.8748 113.942 83.9896 113.055C84.7083 112.485 85.496 112.168 86.0189 112.168C86.1502 112.168 86.346 112.168 86.4127 112.295C86.6753 112.548 86.2815 113.498 85.1667 114.385Z" fill="black"/>
<path fill-rule="evenodd" clip-rule="evenodd" d="M46.6244 105.291C46.9407 105.291 47.1946 105.418 47.5131 105.862C47.7671 106.242 47.9565 106.75 48.0834 107.448C48.148 108.082 48.2104 108.717 48.148 109.478C48.0834 110.176 47.9564 110.81 47.7671 111.508C47.5131 112.143 47.2592 112.587 46.9407 112.967C46.6244 113.285 46.3058 113.475 45.9895 113.475C45.671 113.412 45.3547 113.221 45.1007 112.84C44.8468 112.46 44.6553 111.952 44.5283 111.318C44.4013 110.62 44.4013 109.986 44.4659 109.224C44.5283 108.463 44.5929 107.829 44.8468 107.194C45.0362 106.56 45.2901 106.052 45.671 105.735C45.9895 105.354 46.2435 105.227 46.6244 105.291Z" fill="#DCDCDC"/>
<path fill-rule="evenodd" clip-rule="evenodd" d="M46.8027 105.078C45.6191 105.015 44.4979 106.843 44.3731 109.301C44.1859 111.822 44.9326 113.776 46.1786 113.902H46.241C47.4246 113.902 48.4834 112.074 48.6707 109.679C48.8579 107.158 48.0487 105.204 46.8027 105.078ZM47.9863 109.616C47.799 111.759 46.9275 113.208 46.241 113.208C45.4943 113.145 44.8702 111.57 44.995 109.364C45.1822 107.221 46.0538 105.771 46.7403 105.771C47.4871 105.834 48.1111 107.41 47.9863 109.616Z" fill="black"/>
<path fill-rule="evenodd" clip-rule="evenodd" d="M192.195 67.1458C188.093 70.4185 174.268 78.4743 174.141 78.5371C174.014 78.6002 173.952 78.8519 174.014 79.0407C174.079 79.1035 174.204 79.1666 174.331 79.1666C174.393 79.1666 174.458 79.1666 174.52 79.1666C174.647 79.0407 188.472 71.0478 192.638 67.7122C192.827 67.5865 192.827 67.3976 192.7 67.2088C192.573 67.0829 192.384 67.0829 192.195 67.1458Z" fill="black"/>
<path fill-rule="evenodd" clip-rule="evenodd" d="M209.569 21.5427C209.44 21.4803 209.181 21.4803 209.115 21.6677C207.176 24.854 195.796 32.6014 195.731 32.7265C195.538 32.7889 195.473 33.0389 195.602 33.1638C195.667 33.2889 195.796 33.3513 195.925 33.3513C195.989 33.3513 196.054 33.2889 196.119 33.2889C196.573 32.9138 207.759 25.354 209.698 22.0426C209.827 21.8551 209.762 21.6677 209.569 21.5427Z" fill="black"/>
<path fill-rule="evenodd" clip-rule="evenodd" d="M93.0244 4.45391C99.7011 6.30732 102.689 6.4397 104.851 3.32863C106.442 1.07806 108.03 -1.37109 108.03 -1.37109H75.9849C75.9849 -1.37109 88.893 3.32863 93.0244 4.45391Z" fill="#D8D8D8"/>
<path fill-rule="evenodd" clip-rule="evenodd" d="M107.339 -1.13608C107.274 -1.07443 105.686 1.1446 104.16 3.24036C102.062 5.95251 99.3292 5.82924 92.6558 4.16496C88.5863 3.11708 75.8098 -1.19772 75.6829 -1.25935C75.4935 -1.321 75.302 -1.19772 75.2395 -1.0128C75.175 -0.889521 75.3019 -0.642946 75.4289 -0.581318C75.6204 -0.581318 88.397 3.79512 92.4643 4.78136C95.5158 5.58268 97.8034 6.07579 99.6477 6.07579C101.871 6.07579 103.397 5.33613 104.733 3.67184C106.257 1.57608 107.909 -0.704595 107.909 -0.766244C108.036 -0.889521 107.974 -1.13607 107.782 -1.19772C107.655 -1.321 107.401 -1.25935 107.339 -1.13608Z" fill="black"/>
<path fill-rule="evenodd" clip-rule="evenodd" d="M50.5387 77.4785C50.4117 77.4163 37.9451 71.558 28.1491 73.116C27.9576 73.116 27.8306 73.3031 27.8952 73.49C27.8952 73.6769 28.0845 73.8015 28.2761 73.8015C37.8181 72.2436 50.0932 78.0394 50.2202 78.1018C50.2847 78.1018 50.3492 78.1018 50.3492 78.1018C50.4762 78.1018 50.6032 78.0394 50.6656 77.9147C50.7926 77.7901 50.7302 77.5407 50.5387 77.4785Z" fill="black"/>
<path fill-rule="evenodd" clip-rule="evenodd" d="M43.8069 54.8496C43.7423 54.8496 32.3001 50.6744 22.121 54.1839C21.9317 54.2444 21.8047 54.4865 21.8671 54.6075C21.9317 54.7891 22.1834 54.9101 22.3728 54.8496C32.3001 51.4006 43.4906 55.4546 43.553 55.5151C43.6175 55.5151 43.6799 55.5151 43.6799 55.5151C43.8693 55.5151 43.9963 55.4546 44.0587 55.3336C44.1232 55.152 43.9963 54.9706 43.8069 54.8496Z" fill="black"/>
<path fill-rule="evenodd" clip-rule="evenodd" d="M26.7954 41.3463C26.6039 41.4086 26.5393 41.5952 26.5393 41.7819C26.6039 41.9686 26.7954 42.0308 26.9869 42.0308C41.513 38.4844 52.329 54.35 52.456 54.5367C52.5206 54.5989 52.6475 54.6611 52.7767 54.6611C52.8412 54.6611 52.9036 54.6611 52.9682 54.5989C53.0973 54.5367 53.1597 54.2878 53.0328 54.1633C52.9037 53.9766 41.8337 37.6755 26.7954 41.3463Z" fill="black"/>
<path fill-rule="evenodd" clip-rule="evenodd" d="M25.8443 27.748C25.6549 27.8122 25.4634 27.9409 25.5279 28.1335C25.5279 28.3264 25.6549 28.5192 25.8443 28.4549C36.3956 27.9409 46.4369 35.1387 46.4993 35.203C46.5639 35.2672 46.6908 35.2672 46.7532 35.2672C46.8178 35.2672 46.9448 35.2672 47.0072 35.1387C47.1342 34.9458 47.0717 34.7532 46.9448 34.6245C46.8178 34.5603 36.6495 27.2338 25.8443 27.748Z" fill="black"/>
<path fill-rule="evenodd" clip-rule="evenodd" d="M11.686 58.9854C11.4988 58.9854 11.3739 59.1104 11.3115 59.2982C10.6272 63.3651 7.01828 73.0634 7.01828 73.1259C6.95587 73.3136 7.01825 73.564 7.20548 73.6264C7.26789 73.6264 7.2679 73.6264 7.32816 73.6264C7.45297 73.6264 7.57778 73.564 7.64019 73.3763C7.82741 73.0008 11.3115 63.5529 11.9959 59.4233C12.0583 59.2355 11.9335 59.048 11.686 58.9854Z" fill="black"/>
<path fill-rule="evenodd" clip-rule="evenodd" d="M80.5397 120.425C73.3649 121.572 66.1901 114.369 66.1256 114.305C65.9986 114.178 65.8092 114.178 65.6822 114.305C65.4907 114.433 65.4907 114.624 65.6177 114.815C65.9362 115.07 72.0307 121.254 78.8267 121.254C79.4616 121.254 80.0319 121.19 80.6043 121.126C80.7937 121.062 80.9207 120.871 80.9207 120.68C80.8582 120.488 80.7313 120.361 80.5397 120.425Z" fill="black"/>
<path fill-rule="evenodd" clip-rule="evenodd" d="M163.255 90.3732C163.07 90.3106 162.885 90.4359 162.824 90.624C162.699 91.1881 162.699 91.6895 162.639 92.2536C162.517 93.2564 162.394 94.1338 162.024 95.0739C161.901 95.2619 162.024 95.4501 162.209 95.5754C162.209 95.5754 162.269 95.5754 162.331 95.5754C162.454 95.5754 162.577 95.5127 162.639 95.3874C163.07 94.3219 163.192 93.3191 163.315 92.3163C163.377 91.8148 163.377 91.2508 163.5 90.7493C163.56 90.5614 163.438 90.3732 163.255 90.3732Z" fill="black"/>
<path fill-rule="evenodd" clip-rule="evenodd" d="M149.247 85.6842C149.054 85.6226 148.86 85.6842 148.795 85.869L148.731 86.1767C148.214 87.7773 147.698 89.2547 146.536 90.5475C146.407 90.7323 146.471 90.9168 146.6 91.04C146.665 91.1016 146.729 91.1016 146.859 91.1016C146.923 91.1016 147.052 91.1016 147.117 90.9784C148.343 89.5626 148.924 87.962 149.376 86.423L149.505 86.1151C149.57 85.9304 149.441 85.7458 149.247 85.6842Z" fill="black"/>
<path fill-rule="evenodd" clip-rule="evenodd" d="M147.659 97.6179C147.468 97.5563 147.278 97.6179 147.151 97.7413C146.516 98.9125 145.944 100.33 145.374 101.686C144.993 102.611 144.547 103.597 144.166 104.46C144.039 104.645 144.104 104.892 144.293 104.953C144.358 104.953 144.42 104.953 144.485 104.953C144.612 104.953 144.739 104.892 144.801 104.768C145.182 103.905 145.628 102.857 146.008 101.933C146.579 100.577 147.151 99.2206 147.786 98.111C147.848 97.9263 147.786 97.7413 147.659 97.6179Z" fill="black"/>
<path fill-rule="evenodd" clip-rule="evenodd" d="M141.999 108.061C141.81 107.998 141.554 108.124 141.554 108.313C141.173 109.258 140.665 110.141 140.155 111.023C139.965 111.338 139.774 111.59 139.584 111.906C139.52 112.095 139.584 112.284 139.711 112.41C139.774 112.41 139.838 112.41 139.901 112.41C140.028 112.41 140.155 112.347 140.219 112.284C140.411 111.969 140.538 111.653 140.727 111.401C141.3 110.456 141.872 109.573 142.191 108.502C142.253 108.313 142.126 108.124 141.999 108.061Z" fill="black"/>
<path fill-rule="evenodd" clip-rule="evenodd" d="M137.605 115.03C137.402 115.03 137.198 115.161 137.198 115.358C136.994 116.407 136.451 117.784 135.567 118.637C135.431 118.768 135.431 118.964 135.567 119.096C135.636 119.227 135.771 119.227 135.838 119.227C135.907 119.227 136.042 119.227 136.111 119.161C137.334 117.981 137.809 116.014 137.945 115.489C137.945 115.293 137.809 115.096 137.605 115.03Z" fill="black"/>
<path fill-rule="evenodd" clip-rule="evenodd" d="M119.489 59.6517C119.556 59.4576 119.424 59.2635 119.224 59.2635C119.026 59.1987 118.828 59.328 118.762 59.5222C118.695 59.7811 117.569 65.6059 120.285 67.8061C120.35 67.8709 120.416 67.8709 120.483 67.8709C120.614 67.8709 120.748 67.8709 120.815 67.7415C120.946 67.612 120.879 67.3533 120.748 67.2237C118.363 65.347 119.489 59.7165 119.489 59.6517Z" fill="black"/>
<path fill-rule="evenodd" clip-rule="evenodd" d="M145.109 68.1484C144.922 68.1484 144.797 68.2701 144.797 68.4527C144.61 70.523 143.172 72.8975 141.797 74.3587C141.672 74.4804 141.672 74.724 141.859 74.8457C141.922 74.9066 141.984 74.9066 142.047 74.9066C142.171 74.9066 142.234 74.8457 142.296 74.7849C143.796 73.2628 145.296 70.7056 145.483 68.5137C145.483 68.3311 145.359 68.1484 145.109 68.1484Z" fill="black"/>
<path fill-rule="evenodd" clip-rule="evenodd" d="M98.2661 73.6895C98.0724 73.6895 97.9433 73.8808 97.9433 74.0722C97.9433 74.2635 98.0724 74.3912 98.2661 74.4549C98.2661 74.4549 98.3952 74.4549 98.5889 74.7102C99.3637 75.8584 99.8801 79.0482 99.751 79.4309C99.1054 80.962 96.4584 83.0033 96.4584 83.0033C96.3293 83.131 96.2648 83.386 96.3939 83.5137C96.4584 83.6413 96.5876 83.6413 96.6521 83.6413C96.7812 83.6413 96.8458 83.6413 96.9103 83.5774C97.0395 83.5137 99.6864 81.4085 100.397 79.75C100.719 79.0482 100.009 75.5396 99.17 74.3275C98.9117 73.9445 98.5889 73.6895 98.2661 73.6895Z" fill="black"/>
<path fill-rule="evenodd" clip-rule="evenodd" d="M108.585 112.662C107.154 111.751 105.721 111.621 104.477 112.271C104.289 112.336 104.227 112.597 104.29 112.792C104.352 112.922 104.602 112.987 104.787 112.922C106.095 112.271 107.401 112.727 108.21 113.312C109.829 114.353 111.012 116.239 111.012 116.89C111.012 116.89 111.012 116.89 111.012 116.955C110.638 117.215 109.02 116.825 107.776 116.369C107.589 116.239 107.401 116.369 107.339 116.565C107.277 116.76 107.339 116.955 107.526 117.02C108.023 117.215 109.456 117.736 110.513 117.736C110.888 117.736 111.2 117.67 111.385 117.54C111.572 117.345 111.697 117.15 111.697 116.89C111.697 115.849 110.328 113.833 108.585 112.662Z" fill="black"/>
<path fill-rule="evenodd" clip-rule="evenodd" d="M118.007 115.849C117.064 115.03 114.109 115.408 113.795 115.408C113.606 115.471 113.481 115.66 113.481 115.849C113.543 116.037 113.733 116.163 113.92 116.1C115.052 115.974 116.999 115.911 117.565 116.415C118.321 117.045 119.451 118.934 119.578 119.5C118.76 119.563 117.503 119.815 117.441 119.815C117.251 119.878 117.126 120.067 117.189 120.256C117.189 120.382 117.378 120.508 117.503 120.508C117.565 120.508 117.565 120.508 117.565 120.508C117.628 120.508 119.012 120.256 119.765 120.193C119.954 120.13 120.144 120.004 120.206 119.815C120.52 118.934 118.697 116.478 118.007 115.849Z" fill="black"/>
<path fill-rule="evenodd" clip-rule="evenodd" d="M97.5969 111.349C97.4054 111.473 97.3408 111.721 97.4678 111.845C97.5324 112.031 97.7884 112.093 97.9175 111.969C98.0445 111.907 100.539 110.419 102.396 112.961C103.547 114.635 103.356 115.131 103.356 115.131C102.844 115.069 101.372 115.441 100.924 115.565C100.795 115.627 100.668 115.813 100.732 115.999C100.732 116.123 100.924 116.247 101.051 116.247C101.115 116.247 101.115 116.247 101.18 116.247C101.948 115.999 102.971 115.813 103.227 115.813C103.547 115.875 103.803 115.751 103.93 115.503C104.378 114.821 103.612 113.581 102.97 112.589C100.732 109.489 97.5969 111.349 97.5969 111.349Z" fill="black"/>
</g>
</g>
<defs>
<clipPath id="clip0_17966_9654">
<rect width="236" height="150" fill="white"/>
</clipPath>
</defs>
</svg>
