<svg width="205" height="150" viewBox="0 0 205 150" fill="none" xmlns="http://www.w3.org/2000/svg">
<g clip-path="url(#clip0_17966_9079)">
<mask id="mask0_17966_9079" style="mask-type:luminance" maskUnits="userSpaceOnUse" x="19" y="-3" width="168" height="168">
<path d="M187 -3H19V165H187V-3Z" fill="white"/>
</mask>
<g mask="url(#mask0_17966_9079)">
<path fill-rule="evenodd" clip-rule="evenodd" d="M83.6206 15.08C79.2066 14.7436 70.7142 21.5133 67.6861 21.1769C64.6183 20.8405 49.3569 26.2646 49.3569 26.2646C49.3569 26.2646 49.6925 36.8186 50.7032 42.5791C51.7119 48.3396 55.4528 68.7326 59.1937 74.8294C59.1937 74.8294 60.1195 77.0159 58.8581 81.9776C58.2698 84.248 59.8668 91.4801 60.8756 93.4986C61.8844 95.5168 59.1937 127.094 59.1937 130.837C59.1937 134.579 59.5312 138.321 59.5312 138.321C59.5312 138.321 56.7991 138.994 57.4703 142.021C58.185 145.091 57.1347 147.824 57.1347 147.824L55.1172 164.769H105.693V34.7582C105.693 34.7582 88.0346 15.4164 83.6206 15.08Z" fill="#B2B2B2"/>
<path fill-rule="evenodd" clip-rule="evenodd" d="M83.6318 14.7653C81.1976 14.555 77.5453 16.4897 74.355 18.2141C71.6267 19.6441 69.0661 21.032 67.7217 20.8638C64.6578 20.5273 49.9658 25.7426 49.336 25.9529C49.253 25.995 49.1682 26.0792 49.1682 26.2053C49.1682 26.2895 49.5453 36.8042 50.5541 42.5241C51.8966 50.3052 55.4659 68.9792 59.0333 74.8254C59.1162 75.0357 59.8723 77.2229 58.6562 81.8073C58.0679 84.2046 59.746 91.5229 60.7114 93.4997C61.3845 94.8456 60.3343 110.281 59.6215 120.501C59.284 125.549 58.9918 129.586 58.9918 130.764C58.9918 134.002 59.284 137.283 59.3274 138.082C58.6976 138.292 56.7235 139.26 57.3118 142.036C57.983 144.98 56.9761 147.629 56.9761 147.672V147.714L54.9605 164.705C54.919 164.832 55.0039 164.916 55.1284 164.958H55.1717C55.2962 164.958 55.381 164.874 55.381 164.748L57.4381 147.798C57.5211 147.503 58.4035 144.896 57.7737 141.91C57.144 139.134 59.5367 138.503 59.6215 138.461C59.746 138.419 59.7894 138.335 59.7894 138.208C59.7894 138.166 59.4537 134.465 59.4537 130.764C59.4537 129.586 59.746 125.591 60.0816 120.501C61.0489 106.412 61.8031 94.6353 61.1318 93.3315C60.0816 91.2285 58.5713 84.0785 59.1162 81.9335C60.3758 76.9705 59.4952 74.7414 59.4537 74.6572L59.4104 74.6151C55.8845 68.8531 52.3585 50.1789 50.9727 42.4401C50.0507 37.1406 49.6716 27.7194 49.6302 26.3316C51.2668 25.7847 64.8671 20.99 67.6803 21.3265C69.1491 21.4947 71.6681 20.1488 74.5643 18.5926C77.7131 16.9103 81.3239 15.0176 83.6318 15.1859C87.746 15.5223 104.327 33.5235 105.419 34.7433V164.748C105.419 164.832 105.545 164.958 105.67 164.958C105.796 164.958 105.881 164.832 105.881 164.748V34.6591C105.881 34.6172 105.881 34.5751 105.838 34.533C105.125 33.7339 88.0816 15.1017 83.6318 14.7653Z" fill="black"/>
<path fill-rule="evenodd" clip-rule="evenodd" d="M150.063 22.844C148.049 22.1712 142.634 19.9004 140.367 18.5547C138.101 17.209 131.092 14.013 129.959 13.3402C128.826 12.6673 102.845 83.9882 102.636 84.8714C102.427 85.7966 100.832 164.014 100.832 164.014H152.12C151.448 156.739 146.916 108.168 146.916 108.168C146.916 108.168 148.803 103.753 148.803 99.2113C148.803 94.6696 147.125 92.7773 147.125 92.7773C147.125 92.7773 148.049 85.7966 149.182 81.4652C150.819 75.2834 158.289 66.7048 158.289 59.8923C158.289 57.7055 163.955 42.7769 163.955 28.521C163.914 27.8483 152.12 23.5169 150.063 22.844Z" fill="#B2B2B2"/>
<path fill-rule="evenodd" clip-rule="evenodd" d="M157.837 25.4099C154.601 24.1901 151.111 22.9284 150.103 22.592C148.127 21.9611 142.704 19.6899 140.434 18.302C139.089 17.5029 136.061 16.0729 133.665 14.9373C131.941 14.0962 130.47 13.3812 130.009 13.1288C129.924 13.0868 129.841 13.0447 129.756 13.0868C129.462 13.2129 128.662 13.5494 115.462 48.9205C108.779 66.7953 102.389 84.3337 102.305 84.7964C102.052 85.6796 100.623 155.959 100.496 163.992C100.455 164.119 100.581 164.203 100.708 164.203C100.834 164.203 100.917 164.119 100.917 163.992C101.464 137.075 102.557 85.932 102.725 84.8806C102.893 84.2916 127.612 16.4094 129.882 13.5494C130.47 13.8859 131.858 14.5588 133.455 15.3159C135.893 16.4935 138.878 17.9235 140.181 18.7226C142.494 20.0685 147.959 22.3817 149.976 23.0126C152.961 24.0219 163.009 27.7651 163.68 28.5222C163.68 38.7425 160.739 49.4673 159.142 55.2293C158.469 57.6266 158.048 59.2249 158.048 59.8558C158.048 63.8092 155.442 68.3515 152.961 72.7676C151.238 75.8799 149.597 78.8241 148.926 81.3896C147.791 85.6375 146.865 92.6612 146.865 92.7454C146.865 92.7875 146.865 92.8715 146.908 92.9136C146.95 92.9136 148.506 94.8064 148.506 99.1804C148.506 103.597 146.656 108.013 146.656 108.055C146.656 108.097 146.612 108.139 146.656 108.181C146.697 108.686 151.153 156.843 151.826 163.992C151.867 164.119 151.952 164.203 152.079 164.203C152.205 164.203 152.288 164.077 152.288 163.95C151.617 156.927 147.286 110.073 147.076 108.181C147.286 107.676 148.967 103.428 148.967 99.1804C148.967 95.1006 147.665 93.1239 147.329 92.7033C147.453 91.8622 148.294 85.4693 149.346 81.5159C150.018 78.9923 151.658 76.0902 153.381 73.02C155.861 68.5617 158.469 63.9353 158.469 59.8558C158.469 59.267 158.931 57.6266 159.562 55.3554C161.159 49.5515 164.144 38.7425 164.144 28.4801C164.144 28.2278 164.144 27.8914 157.837 25.4099Z" fill="black"/>
<path fill-rule="evenodd" clip-rule="evenodd" d="M105.887 20.1249C100.715 19.5784 86.1245 14.3662 86.1245 14.3662C86.1245 14.3662 95.6275 64.5969 105.34 75.4837C105.34 75.4837 120.058 49.4646 123.925 34.5005C127.753 19.5784 127.542 14.3662 127.542 14.3662C127.542 14.3662 111.858 20.7133 105.887 20.1249Z" fill="white"/>
<path fill-rule="evenodd" clip-rule="evenodd" d="M127.459 14.2197C127.374 14.1777 127.291 14.1777 127.25 14.1777C127.082 14.2617 112.941 19.9324 106.603 19.9324C106.268 19.9324 106.015 19.9324 105.723 19.8904C100.687 19.3863 86.2096 14.2197 86.0833 14.1777C86.0003 14.1777 85.9155 14.1777 85.8306 14.2197C85.7892 14.2617 85.7477 14.3458 85.7892 14.4298C85.874 14.9338 95.3996 64.8356 105.008 75.5887C105.052 75.6308 105.135 75.6727 105.176 75.6727C105.219 75.6727 105.219 75.6727 105.219 75.6727C105.302 75.6727 105.344 75.6308 105.387 75.5468C105.555 75.2948 120.115 49.3777 123.933 34.592C127.753 19.8064 127.542 14.5978 127.542 14.3878C127.542 14.3037 127.501 14.2617 127.459 14.2197ZM123.473 34.4661C119.906 48.3697 106.73 72.1864 105.135 75.0428C96.1124 64.4156 87.175 19.4283 86.2926 14.7238C88.6438 15.5639 100.981 19.8904 105.68 20.3524C105.974 20.3944 106.268 20.3944 106.603 20.3944C112.562 20.3944 124.942 15.6059 127.082 14.7238C127.082 16.0679 126.746 21.7806 123.473 34.4661Z" fill="black"/>
<path fill-rule="evenodd" clip-rule="evenodd" d="M88.8476 6.8928C88.9324 9.82406 99.5686 19.2976 102.039 19.7648C104.552 20.2322 109.536 20.7419 111.295 20.0622C117.366 17.7682 124.737 7.4026 124.737 6.72287C124.737 6.04315 124.527 0.775391 124.527 0.775391H88.9739C88.9739 0.775391 88.7646 4.89615 88.8476 6.8928Z" fill="#D8D8D8"/>
<path fill-rule="evenodd" clip-rule="evenodd" d="M124.463 0.586426C124.336 0.586426 124.212 0.713332 124.212 0.840238C124.253 0.88254 124.463 6.04342 124.463 6.72027C124.336 7.39711 117.122 17.5497 111.123 19.7917C109.529 20.3839 104.789 20.0032 101.978 19.4956C99.6719 19.0726 89.0583 9.76604 88.9319 6.88948C88.849 4.94357 89.0998 0.88254 89.0998 0.840238C89.0998 0.713332 88.9734 0.586426 88.849 0.586426C88.7226 0.586426 88.6378 0.67103 88.6378 0.797936C88.6378 0.840238 88.387 4.94357 88.4719 6.88948C88.5963 9.97755 99.4607 19.4956 101.895 19.9186C103.32 20.2147 106.173 20.5531 108.481 20.5531C109.612 20.5531 110.663 20.4685 111.29 20.2147C114.564 18.988 118.044 15.5615 120.394 12.9387C122.826 10.1891 124.925 7.2279 124.925 6.72027C124.925 6.04342 124.672 1.00945 124.672 0.797936C124.672 0.67103 124.589 0.586426 124.463 0.586426Z" fill="black"/>
<path fill-rule="evenodd" clip-rule="evenodd" d="M89.1414 1.84024C90.3595 4.87157 100.426 13.6288 102.902 14.0919C105.376 14.5129 109.78 14.4287 111.5 13.7129C113.681 12.7867 124.169 2.13495 124.672 1.16662C125.008 0.57718 125.302 -2.62256 125.302 -2.62256L88.3872 -2.45414C88.3872 -2.45414 88.555 0.324576 89.1414 1.84024Z" fill="#D8D8D8"/>
<path fill-rule="evenodd" clip-rule="evenodd" d="M125.281 -2.9581C125.155 -2.99995 125.072 -2.87442 125.029 -2.74887C124.946 -1.53533 124.695 0.473311 124.484 0.891782C123.982 1.8124 113.548 12.3996 111.411 13.2783C109.694 13.9897 105.336 14.0734 102.947 13.6131C100.643 13.1947 90.6292 4.65797 89.3715 1.60317C88.8266 0.138538 88.6588 -2.5815 88.6588 -2.62334C88.6588 -2.74887 88.5344 -2.83257 88.408 -2.83257C88.2817 -2.83257 88.1987 -2.70702 88.1987 -2.5815C88.1987 -2.45595 88.3665 0.264085 88.9529 1.77055C90.1672 4.74166 100.14 13.5713 102.864 14.0734C103.828 14.2408 105.168 14.3245 106.468 14.3245C108.479 14.3245 110.489 14.1153 111.579 13.655C113.842 12.7343 124.359 2.06348 124.861 1.10101C125.196 0.473311 125.449 -2.4141 125.491 -2.74887C125.491 -2.83257 125.406 -2.9581 125.281 -2.9581Z" fill="black"/>
<path fill-rule="evenodd" clip-rule="evenodd" d="M106.865 33.8091C107.001 35.3192 107.684 42.8279 108.14 45.4705C108.14 45.4705 107.093 36.4099 106.865 33.8091Z" fill="#909090"/>
<path fill-rule="evenodd" clip-rule="evenodd" d="M106.803 33.9144C107.015 36.5203 107.984 45.5991 107.984 45.5991C107.563 42.9511 106.93 35.4275 106.803 33.9144C106.803 33.8302 106.803 33.7462 106.803 33.6622L103.055 33.6201C103.055 33.6201 100.74 36.6464 100.613 39.5045C100.655 36.6464 103.055 33.6201 103.055 33.6201H101.328C100.781 33.9984 95.3904 39.9669 94.8417 46.5238C94.4212 51.2733 103.898 74.0966 105.246 75.4836C105.246 75.4836 113.627 58.0405 114.091 55.0983C114.555 52.156 107.015 35.2593 106.803 33.6622C106.803 33.6622 106.803 33.7462 106.803 33.9144Z" fill="#909090"/>
<path fill-rule="evenodd" clip-rule="evenodd" d="M106.986 33.4954C106.986 33.4954 106.986 33.4954 106.986 33.4533C106.944 33.4112 106.944 33.4112 106.903 33.3691C106.903 33.3691 106.86 33.3271 106.818 33.3271H106.777L103.055 33.2427H101.341C101.299 33.2427 101.258 33.2848 101.214 33.2848C100.756 33.6219 95.2353 39.6893 94.6508 46.3888C94.2322 51.2764 103.765 74.2821 105.104 75.5881C105.146 75.6304 105.187 75.6725 105.229 75.6725C105.272 75.6725 105.272 75.6725 105.272 75.6725C105.355 75.6725 105.396 75.6304 105.438 75.546C105.774 74.8297 113.802 58.018 114.262 55.0685C114.554 53.0461 111.375 44.9562 109.035 39.0574C107.989 36.3607 107.069 34.0011 106.986 33.4954ZM113.802 54.9843C113.384 57.6387 106.358 72.5545 105.187 74.9982C103.347 72.1332 94.7338 51.0658 95.1109 46.4309C95.6539 40.0686 100.713 34.3383 101.424 33.7061H102.595C101.969 34.6331 100.421 37.0348 100.421 39.3943C100.421 39.5208 100.503 39.605 100.63 39.605C100.756 39.605 100.839 39.5208 100.839 39.3943C100.964 36.9085 102.804 34.2539 103.181 33.7061L106.567 33.7484V33.8326C106.694 35.3074 107.32 42.8915 107.738 45.5461C107.738 45.6724 107.865 45.7568 107.989 45.7147C108.072 45.7147 108.198 45.5882 108.157 45.4617C108.157 45.4197 107.487 39.0151 107.154 35.4758C107.529 36.4449 108.031 37.7511 108.617 39.2259C110.791 44.7456 114.094 53.0882 113.802 54.9843Z" fill="black"/>
<path fill-rule="evenodd" clip-rule="evenodd" d="M110.212 20.9848C110.212 20.9848 102.66 21.7357 102.2 19.2744L96.1174 24.2385C96.1174 24.2385 98.5083 30.5793 101.235 33.8332C101.235 33.8332 105.094 34.0001 107.106 34.3338C107.106 34.3338 110.798 31.956 112.476 29.9538C113.943 28.2017 115.874 26.3661 115.621 25.4483C115.412 24.5723 110.212 20.9848 110.212 20.9848Z" fill="#909090"/>
<path fill-rule="evenodd" clip-rule="evenodd" d="M110.182 20.6025C110.14 20.6025 110.097 20.5609 110.014 20.5609C110.014 20.5609 108.885 20.6857 107.503 20.6857C104.322 20.6857 102.479 20.1031 102.27 19.0629C102.27 18.9797 102.229 18.9381 102.144 18.8965C102.061 18.8965 101.978 18.8965 101.935 18.9381L95.8236 23.8896C95.7406 23.9312 95.7407 24.0144 95.7821 24.1392C95.7821 24.1809 98.2107 30.547 100.932 33.751C100.973 33.7926 101.014 33.8341 101.099 33.8341C101.141 33.8341 104.95 34.0006 106.916 34.3336H106.958C107.001 34.3336 107.042 34.3336 107.084 34.2919C107.252 34.2086 110.81 31.9202 112.484 29.8814C112.776 29.5484 113.112 29.1324 113.446 28.7994C114.743 27.3015 115.874 26.0532 115.665 25.221C115.456 24.3057 111.061 21.2266 110.182 20.6025ZM113.112 28.5081C112.776 28.8411 112.441 29.2571 112.148 29.6316C110.642 31.4208 107.42 33.5428 106.916 33.8758C105.074 33.5846 101.81 33.4181 101.224 33.4181C98.7971 30.5054 96.6193 25.0962 96.2422 24.0977L101.935 19.479C102.438 20.6025 104.28 21.1434 107.503 21.1434C108.675 21.1434 109.722 21.0602 110.014 21.0186C111.981 22.3916 115.079 24.7634 115.246 25.3459C115.414 25.9285 114.2 27.3015 113.112 28.5081Z" fill="black"/>
<path fill-rule="evenodd" clip-rule="evenodd" d="M88.7924 6.81592C88.0363 7.87107 87.8685 9.51709 87.1105 12.8514C86.6901 14.7929 91.0211 30.7467 91.0211 30.7467C96.6154 23.4874 103.807 19.8154 103.807 19.8154C101.073 19.3933 88.7924 6.81592 88.7924 6.81592Z" fill="white"/>
<path fill-rule="evenodd" clip-rule="evenodd" d="M103.639 19.6226C101.546 19.2862 93.0088 11.0431 88.7833 6.71133C88.74 6.66928 88.6985 6.62722 88.6155 6.66928C88.574 6.66928 88.4892 6.66928 88.4477 6.75339C87.8613 7.55246 87.652 8.68799 87.2749 10.5805C87.109 11.2114 86.9826 11.9684 86.7733 12.8516C86.3133 14.8282 90.4992 30.1367 90.6651 30.7675C90.7084 30.8517 90.7499 30.9357 90.8329 30.9357C90.8744 30.9357 90.8743 30.9357 90.8743 30.9357C90.9592 30.9357 91.0422 30.8936 91.0837 30.8517C96.5253 23.7442 103.598 20.0852 103.681 20.0432C103.766 20.0011 103.807 19.917 103.807 19.8329C103.807 19.7067 103.722 19.6647 103.639 19.6226ZM91.0007 30.2209C89.7035 25.5105 86.8582 14.4497 87.1919 12.9777C87.4012 12.0945 87.5691 11.3375 87.6935 10.6646C88.0291 9.02443 88.2384 7.97303 88.657 7.21601C90.205 8.81416 99.7476 18.4451 103.011 19.917C101.379 20.8423 95.6466 24.2909 91.0007 30.2209Z" fill="black"/>
<path fill-rule="evenodd" clip-rule="evenodd" d="M124.999 5.58024C124.241 6.00139 121.586 12.6553 107.808 20.3621C107.808 20.3621 108.989 20.8253 112.317 22.9311C115.645 25.0367 121.081 31.6906 121.081 31.6906C121.081 31.6906 126.811 13.287 126.515 11.3077C126.22 9.32836 125.757 5.117 124.999 5.58024Z" fill="white"/>
<path fill-rule="evenodd" clip-rule="evenodd" d="M126.537 10.106C126.075 6.68149 125.739 5.11719 125.068 5.11719C124.985 5.11719 124.9 5.15947 124.858 5.20174C124.649 5.32858 124.481 5.58226 124.104 6.13186C122.635 8.24579 118.819 13.7842 107.745 20.0837C107.661 20.126 107.619 20.2106 107.619 20.2951C107.619 20.3797 107.661 20.422 107.745 20.4642C107.787 20.4642 108.962 20.9716 112.192 23.0432C115.421 25.1149 120.833 31.7103 120.874 31.7948C120.916 31.8371 121.001 31.8794 121.042 31.8794H121.084C121.168 31.8371 121.251 31.7948 121.251 31.7103C121.502 30.9492 126.999 13.1078 126.704 11.1207C126.663 10.8248 126.578 10.4865 126.537 10.106ZM120.957 31.1606C119.826 29.8077 115.38 24.5229 112.442 22.6626C110.178 21.2252 108.92 20.5488 108.332 20.2528C119.238 13.9956 123.013 8.49946 124.481 6.38554C124.732 6.00503 124.985 5.66681 125.068 5.58226C125.488 5.83592 125.907 8.87997 126.118 10.1906C126.159 10.5711 126.201 10.9093 126.242 11.2053C126.454 12.685 122.971 24.692 120.957 31.1606Z" fill="black"/>
<path fill-rule="evenodd" clip-rule="evenodd" d="M87.8932 9.14376C84.8594 8.51455 84.3956 12.122 80.4794 15.6037C76.8139 18.8336 74.1176 22.0636 72.6017 24.916L77.7397 26.4261L70.6633 29.3205C70.6633 29.3205 96.6552 70.6808 105.123 76.4277L105.881 75.0433C105.881 75.0433 95.3486 47.2321 94.3794 43.1633C87.2616 13.0449 88.0195 13.6322 87.8932 9.14376Z" fill="#B2B2B2"/>
<path fill-rule="evenodd" clip-rule="evenodd" d="M94.6565 43.1849C88.3456 16.1205 88.3042 13.8511 88.2627 10.405C88.2627 10.0268 88.2193 9.60652 88.2193 9.14424C88.2193 9.06018 88.1363 8.97613 88.0534 8.93411C87.8026 8.89209 87.5933 8.89209 87.384 8.89209C85.8379 8.89209 84.9593 10.0688 83.7884 11.6658C82.9946 12.8004 81.9915 14.1453 80.4868 15.4901C76.9326 18.684 74.2155 21.92 72.6694 24.9038C72.6279 24.9457 72.6279 25.0299 72.6279 25.1139C72.6694 25.1558 72.7109 25.1979 72.7958 25.24L77.2682 26.5427L70.831 29.1484C70.7462 29.1903 70.7047 29.2324 70.7047 29.3164C70.6632 29.3585 70.6632 29.4425 70.7047 29.4846C71.7493 31.2076 96.6212 71.0897 104.982 76.7632C105.025 76.8053 105.066 76.8053 105.108 76.8053H105.149C105.232 76.8053 105.276 76.7632 105.317 76.6792L106.028 75.3342C106.07 75.2923 106.07 75.2081 106.07 75.1241C105.943 74.8719 95.6181 47.2193 94.6565 43.1849ZM105.025 76.2588C96.872 70.3333 73.2973 32.8045 71.2477 29.4846L78.0205 26.7109C78.1035 26.6688 78.1883 26.5848 78.1883 26.5008C78.1883 26.4168 78.1035 26.3326 78.0205 26.2907L73.171 24.8617C74.7171 22.004 77.3511 18.8941 80.779 15.8263C82.3252 14.4815 83.3283 13.0526 84.1655 11.9599C85.4193 10.1949 86.2131 9.14424 87.7592 9.35435C87.8026 9.7326 87.8026 10.1108 87.8026 10.447C87.8441 13.8931 87.8856 16.1625 94.2398 43.311C95.1599 47.3033 104.816 73.107 105.609 75.2081L105.025 76.2588Z" fill="black"/>
<path fill-rule="evenodd" clip-rule="evenodd" d="M140.177 25.7355C139.423 23.8033 136.112 18.8049 133.389 16.7047C130.706 14.6046 129.324 12.3364 128.611 10.8242C127.857 9.31213 126.475 8.89209 126.475 8.89209C126.475 8.89209 125.888 9.31213 126.433 10.6982C126.893 11.9583 121.823 28.1717 121.069 30.1039C120.315 32.078 114.449 49.1315 114.157 51.5256C113.862 53.9199 106.907 72.2334 105.734 74.1235C101.209 81.5163 102.676 82.7343 102.423 87.5646C102.549 85.5905 103.766 82.1042 105.274 78.954C106.488 76.3917 120.609 61.4804 124.84 55.726C129.032 50.0136 141.517 31.322 141.517 31.322L134.017 27.7096L140.177 25.7355Z" fill="#B2B2B2"/>
<path fill-rule="evenodd" clip-rule="evenodd" d="M141.768 31.151L134.726 27.7944L140.343 26.0321C140.428 25.9902 140.469 25.9481 140.511 25.9062C140.511 25.8224 140.511 25.7803 140.511 25.6965C139.756 23.8082 136.443 18.7732 133.677 16.5914C131.622 14.9969 130.072 13.1088 128.898 10.8011C128.143 9.20663 126.718 8.74509 126.676 8.70312C126.592 8.70312 126.509 8.70312 126.467 8.74509C126.424 8.78705 125.754 9.33252 126.299 10.8011C126.759 11.934 121.938 27.5845 120.975 30.0601C120.262 31.9062 114.351 49.0254 114.057 51.5011C113.764 53.8506 106.763 72.1447 105.63 73.9908C102.151 79.7392 102.193 81.7952 102.319 84.6484C102.319 85.5296 102.361 86.4107 102.319 87.5016C102.319 87.6275 102.402 87.7534 102.529 87.7534C102.655 87.7534 102.738 87.6694 102.738 87.5435C102.864 85.7812 103.954 82.5084 105.589 79.0259C106.219 77.7251 110.452 72.9839 114.896 67.9488C118.921 63.3334 123.113 58.592 125.125 55.9066C129.318 50.2422 141.727 31.6965 141.853 31.4868C141.853 31.4447 141.895 31.3609 141.853 31.3188C141.853 31.235 141.81 31.1931 141.768 31.151ZM124.748 55.6129C122.777 58.3402 118.586 63.0396 114.56 67.6132C110.074 72.6902 105.841 77.4735 105.17 78.8581C104.29 80.7463 103.326 83.0958 102.779 85.068C102.779 84.9421 102.779 84.7743 102.779 84.6484C102.655 81.8791 102.613 79.8651 106.051 74.2426C107.223 72.3125 114.183 54.0605 114.477 51.5849C114.769 49.1932 120.724 32.0321 121.393 30.2279C121.897 28.9272 127.304 12.1018 126.759 10.6752C126.424 9.79405 126.55 9.37446 126.676 9.20663C127.012 9.37446 127.934 9.87797 128.521 11.0109C129.695 13.3605 131.288 15.2906 133.383 16.927C136.025 18.983 139.127 23.6404 140.007 25.6544L134.054 27.5426C133.972 27.5845 133.887 27.6266 133.887 27.7523C133.887 27.8363 133.928 27.9203 134.013 27.9622L141.306 31.4447C139.924 33.5426 128.688 50.3262 124.748 55.6129Z" fill="black"/>
<path fill-rule="evenodd" clip-rule="evenodd" d="M54.2179 95.5347C52.4964 95.8508 51.1859 96.2854 48.6028 97.1941C48.6028 97.1941 51.8006 96.0877 54.2179 95.5347Z" fill="#DCDCDC"/>
<path fill-rule="evenodd" clip-rule="evenodd" d="M49.7341 93.2065C50.049 93.1434 50.362 93.0806 50.6316 93.0806C50.4073 93.0806 50.0924 93.0806 49.7341 93.2065Z" fill="#DCDCDC"/>
<path fill-rule="evenodd" clip-rule="evenodd" d="M71.1894 96.562C69.6829 95.2172 67.59 95.9736 65.9571 95.5113C64.2828 95.049 61.9805 94.965 60.3062 94.965C58.6752 94.965 57.3779 94.965 56.1222 95.1332C55.4095 95.2172 54.7816 95.3012 54.1971 95.3852C51.7685 95.9736 48.5047 97.1501 48.5047 97.1501C51.1407 96.1837 52.4813 95.7214 54.1971 95.3852C54.9494 95.2172 55.6188 95.1332 56.1222 95.1332C56.1222 95.1332 56.7916 87.8212 57.378 86.3085C58.0059 84.7955 57.8381 82.8205 58.0059 81.1816C58.1303 79.5007 59.2182 74.7943 59.2182 74.7943C59.2182 74.7943 56.1637 65.9695 55.285 63.7004C54.363 61.4311 53.3184 54.9597 52.8999 52.0601C52.8999 52.0601 49.4249 33.9905 49.4249 26.2583C49.4249 26.2583 47.4167 26.4263 47.0396 26.8886C45.1145 29.0318 45.5331 37.1421 45.3653 38.1927C45.3653 38.1927 43.608 38.823 43.7324 40.63C43.9002 42.4369 41.3058 46.9334 40.5516 50.1271C39.7993 53.2787 37.9986 55.8421 37.7063 58.2795C37.4141 60.6747 37.2463 65.9695 37.2463 65.9695L34.8611 70.1718C34.8611 70.1718 30.8845 70.9282 28.5408 74.7102C25.4014 79.8369 23.8949 90.8467 23.1407 92.7799C23.1407 92.7799 19.2489 96.562 19.8353 100.344C19.8353 100.344 17.1145 110.429 25.2336 118.876C25.2336 118.876 33.2282 122.616 36.8277 123.54C40.4686 124.423 42.3522 124.591 44.151 125.347C45.9517 126.104 48.3784 128.373 52.1457 128.541C55.8714 128.667 58.7997 129.97 60.6833 131.693C61.1434 132.113 60.6833 129.297 60.6833 129.297L62.944 130.054C62.944 130.054 66.7113 129.424 68.3423 126.86C70.0166 124.297 70.8953 123.246 70.7708 120.683C70.603 118.119 72.696 97.9065 71.1894 96.562ZM50.6391 92.9479C50.3883 92.9479 50.0942 92.99 49.802 93.0321C49.6341 93.074 49.4248 93.1582 49.2155 93.2001C49.4248 93.1582 49.5927 93.074 49.802 93.0321C50.1376 92.9479 50.4298 92.9479 50.6391 92.9479C51.6441 92.9479 54.2386 94.1665 55.4529 94.797C54.2386 94.2086 51.7686 92.99 50.6391 92.9479ZM46.7889 94.1665C46.0761 94.4608 43.7325 95.4273 40.9287 96.94C36.4506 99.4195 31.6368 102.865 28.9179 106.521C31.9725 102.361 36.9521 99.0833 40.9287 96.94C43.0216 95.7635 45.0297 94.797 46.704 94.0825C46.4118 93.8724 44.9882 92.99 43.1046 92.1075C41.6414 91.4351 39.7578 90.7208 37.5385 90.2165C39.5051 90.5947 41.5151 91.3511 43.1046 92.1075C45.1145 93.0321 46.4118 93.8724 46.704 94.0825C47.6675 93.7044 48.4632 93.4102 49.1326 93.2422C47.9598 93.5783 46.7889 94.1665 46.7889 94.1665ZM22.8484 95.3433C22.8484 95.3433 27.4943 87.9052 37.5385 90.2165C35.1948 89.7963 28.0807 88.4096 22.8484 95.3433Z" fill="#B2B2B2"/>
<path fill-rule="evenodd" clip-rule="evenodd" d="M46.8 94.3614C46.8 94.3614 47.9634 93.7868 49.1267 93.4585C48.4612 93.6227 47.673 93.9098 46.717 94.2792C46.8 94.3202 46.8 94.3614 46.8 94.3614Z" fill="#DCDCDC"/>
<path fill-rule="evenodd" clip-rule="evenodd" d="M40.8721 97.0039C43.7399 95.5264 46.1346 94.5826 46.8624 94.2955C46.8624 94.2955 46.8624 94.2543 46.7775 94.2134C45.0655 94.9111 43.0121 95.8549 40.8721 97.0039Z" fill="#DCDCDC"/>
<path fill-rule="evenodd" clip-rule="evenodd" d="M28.5822 106.672C28.4445 106.938 28.3427 107.16 28.239 107.383C28.3427 107.16 28.4785 106.938 28.5822 106.672Z" fill="#DCDCDC"/>
<path fill-rule="evenodd" clip-rule="evenodd" d="M42.9048 92.0962C41.3436 91.3574 39.3694 90.6187 37.4783 90.2495C39.6165 90.742 41.4662 91.4395 42.9048 92.0962Z" fill="#DCDCDC"/>
<path fill-rule="evenodd" clip-rule="evenodd" d="M67.7917 95.5595C67.1204 95.5174 66.4925 95.5174 65.9043 95.3913C64.6051 95.0127 62.6781 94.8445 60.2043 94.8445C58.6959 94.8445 57.4382 94.8445 56.2636 94.9706C56.3899 93.6245 56.9763 87.7777 57.4798 86.4738C57.9417 85.3801 57.9832 84.034 58.0247 82.7721C58.0247 82.2252 58.0661 81.7626 58.1095 81.2578C58.2339 79.6594 59.3238 74.9482 59.3238 74.9061C59.3238 74.864 59.3238 74.8219 59.3238 74.78C59.2823 74.6958 56.2636 65.9045 55.3849 63.675C54.7552 62.0766 53.9595 58.2067 52.9941 52.0653C52.9526 51.8971 49.5153 33.8937 49.5153 26.2801C49.5153 26.238 49.4738 26.1959 49.4323 26.154C49.3908 26.1119 49.3475 26.0698 49.2645 26.0698C48.9289 26.1119 47.1678 26.2801 46.7492 26.7849C45.156 28.5096 45.1145 33.8516 45.073 36.712C45.073 37.343 45.073 37.8057 45.0315 38.1001C44.5696 38.2683 43.2289 39.0255 43.3534 40.666C43.4382 41.6334 42.684 43.4843 41.8864 45.4614C41.2171 47.0598 40.5459 48.7002 40.2102 50.1304C39.8746 51.6026 39.2882 52.9487 38.7018 54.2527C38.0721 55.6829 37.5272 56.9869 37.3594 58.2909C37.0671 60.5623 36.8993 65.3577 36.8993 65.9464L34.5518 70.0267C33.922 70.1949 30.4017 71.1204 28.2221 74.6537C25.9161 78.3554 24.534 84.9174 23.612 89.2499C23.2764 90.8904 22.9822 92.1944 22.7729 92.7413C22.3543 93.1618 18.8755 96.7374 19.4619 100.397C19.2527 101.196 17.1145 110.997 24.9111 119.157C24.9526 119.157 24.9526 119.2 24.9941 119.2C25.0789 119.241 33.0434 122.985 36.6051 123.911C38.0306 124.247 39.2053 124.5 40.2102 124.71C41.762 125.004 42.8933 125.257 43.9417 125.677C44.4432 125.888 44.9881 126.224 45.6179 126.603C47.2527 127.57 49.2645 128.79 51.9891 128.874C55.4264 129 58.4017 130.136 60.4136 131.987C60.4984 132.071 60.5814 132.113 60.6663 132.113C60.7492 132.113 60.8341 132.071 60.8756 131.987C61.0849 131.735 61 130.683 60.8756 129.758L62.7611 130.389C62.8026 130.389 62.8459 130.389 62.8874 130.389C63.0552 130.346 66.7433 129.758 68.4629 127.107C68.6288 126.855 68.7966 126.603 68.923 126.35C70.2636 124.289 71.0197 123.153 70.8933 120.798C70.8519 119.999 71.0197 117.517 71.229 114.404C71.8568 105.15 72.3188 97.4104 71.2704 96.485C70.2636 95.5595 69.0078 95.5595 67.7917 95.5595ZM70.767 114.362C70.5577 117.517 70.3899 119.999 70.4314 120.798C70.5577 123.027 69.8865 124.079 68.5459 126.098C68.4195 126.35 68.2517 126.603 68.0839 126.855C66.5755 129.169 63.306 129.842 62.8459 129.926L60.6663 129.211C60.5814 129.169 60.4985 129.169 60.4551 129.253C60.3722 129.295 60.3721 129.379 60.3721 129.421C60.4984 130.178 60.5814 131.062 60.54 131.482C58.4433 129.631 55.4264 128.58 52.0306 128.411C49.3908 128.327 47.4205 127.15 45.8272 126.224C45.1993 125.803 44.6544 125.509 44.1095 125.257C43.0197 124.794 41.8865 124.584 40.2951 124.247C39.2882 124.037 38.1569 123.827 36.7315 123.448C33.2942 122.607 25.8331 119.073 25.2052 118.821C17.3238 110.534 19.8805 100.565 19.8805 100.481C19.8805 100.439 19.922 100.439 19.8805 100.397C19.3356 96.7793 23.1086 93.0779 23.15 93.0358C23.15 93.0358 23.1915 92.9937 23.1915 92.9516C23.4027 92.3626 23.6949 91.1007 24.072 89.3341C24.9526 85.0435 26.378 78.5236 28.5992 74.864C30.8203 71.2465 34.7196 70.4473 34.7611 70.4473C34.8026 70.4473 34.8874 70.4052 34.9289 70.3631L37.3178 66.1148C37.3178 66.0727 37.3594 66.0727 37.3594 66.0306C37.3594 65.9464 37.4857 60.7305 37.7798 58.333C37.9476 57.113 38.534 55.809 39.1204 54.4209C39.7068 53.1169 40.2951 51.7289 40.6288 50.2146C40.9644 48.8265 41.6357 47.228 42.307 45.6296C43.1027 43.6105 43.8983 41.7176 43.8154 40.6239C43.6891 39.0255 45.2408 38.4786 45.3238 38.4367C45.4086 38.4367 45.4501 38.3525 45.4501 38.2683C45.4916 38.0159 45.4916 37.4691 45.5331 36.7541C45.5331 34.104 45.6179 28.6778 47.0848 27.0793C47.2941 26.827 48.301 26.6167 49.0552 26.5325C49.1382 34.3143 52.4926 51.9813 52.534 52.1495C53.4975 58.2909 54.3366 62.2449 54.9645 63.8432C55.8035 65.9464 58.611 74.1069 58.8637 74.864C58.7374 75.453 57.8154 79.6594 57.6475 81.2157C57.6061 81.7205 57.6061 82.2252 57.5646 82.73C57.5212 83.9919 57.4798 85.2538 57.0612 86.3054C56.5163 87.6515 55.9298 93.3721 55.8035 94.8445C55.7187 94.8024 55.5942 94.7603 55.4264 94.6761C54.0424 93.9611 51.5271 92.7834 50.5222 92.7834C50.3129 92.7834 50.0187 92.8255 49.6416 92.9095C49.4323 92.9516 49.223 92.9937 48.9704 93.0779C48.301 93.2881 47.5449 93.5826 46.6229 93.919C46.1628 93.6245 44.9052 92.8255 43.0612 91.9841C41.0493 91.0586 39.1619 90.3857 37.4857 90.0912C36.1865 89.7968 34.8874 89.6286 33.6298 89.6286C31.8272 89.6286 30.2339 89.9649 28.8519 90.4699C27.762 90.8484 26.7137 91.3952 25.7483 92.1102C23.5686 93.6245 22.5222 95.3072 22.4807 95.3072C22.4373 95.4334 22.4373 95.5595 22.5636 95.6437C22.6466 95.6858 22.7729 95.6858 22.8578 95.6016C23.9042 94.2135 25.0789 93.0779 26.378 92.1944C27.0493 91.7739 27.8035 91.3531 28.6841 91.0165C30.1925 90.4278 31.8272 90.1333 33.5883 90.1333C35.1797 90.1333 36.5221 90.3857 37.3178 90.5118L37.3594 90.5539C39.2468 90.9746 41.0908 91.6055 42.8933 92.4047C44.3603 93.0778 45.4916 93.7508 46.1214 94.1294C44.4018 94.8866 42.5162 95.8119 40.6722 96.8214C36.8993 98.8825 31.7009 102.206 28.5577 106.538C28.3899 106.791 28.2221 107.001 28.0543 107.253C27.9713 107.337 28.0128 107.506 28.1391 107.548C28.2221 107.632 28.3484 107.59 28.4314 107.506C28.5992 107.253 28.767 107.043 28.9348 106.791C32.0365 102.542 37.7798 98.9667 40.923 97.2422C43.6476 95.7698 45.8272 94.8445 46.6663 94.4658H46.7492L46.7907 94.4237C47 94.3397 48.0484 93.835 49.0967 93.4984C49.3475 93.4563 49.5586 93.3721 49.7679 93.3302C50.0602 93.2881 50.3129 93.246 50.4807 93.246C51.5705 93.2881 54.1273 94.5079 55.1738 95.0548C54.8815 95.0969 54.461 95.1809 54.0425 95.2651C52.3247 95.6016 51.0671 96.0222 48.3425 97.0317C48.301 97.0317 48.301 97.0738 48.301 97.0738H48.2576C48.1747 97.1159 48.1747 97.2422 48.1747 97.3262C48.2162 97.3683 48.2162 97.3683 48.2162 97.3683C48.2576 97.4525 48.384 97.4945 48.4688 97.4525C48.6348 97.4104 51.7365 96.2746 54.1273 95.7277C54.6722 95.6016 55.3001 95.5174 56.0128 95.4334H56.0543C57.3119 95.3072 58.6111 95.3072 60.2043 95.3072C62.6348 95.3072 64.5222 95.4753 65.7798 95.8119C66.4077 95.9801 67.1204 95.9801 67.7917 95.9801C68.9645 96.0222 70.0976 96.0222 70.9763 96.8214C71.8983 97.6627 71.1875 108.137 70.767 114.362Z" fill="black"/>
<path fill-rule="evenodd" clip-rule="evenodd" d="M60.1045 126.115L60.6306 129.284C60.6306 128.928 60.3873 127.66 60.1045 126.115Z" fill="#B2B2B2"/>
<path fill-rule="evenodd" clip-rule="evenodd" d="M70.7296 97.111C70.5221 97.0689 69.2305 96.1011 66.6511 97.8264C64.0284 99.5938 61.3226 101.866 60.3667 105.99C59.4088 110.156 58.7848 117.773 59.0337 119.667C59.16 120.761 59.7011 123.622 60.1159 125.979L59.7011 123.286C59.7011 123.286 61.6979 128.798 62.9876 128.966C64.2377 129.093 66.2759 128.63 67.609 126.442C68.9402 124.253 69.8132 122.949 69.9395 120.929C70.1054 118.867 71.1877 97.1531 70.7296 97.111Z" fill="#B2B2B2"/>
<path fill-rule="evenodd" clip-rule="evenodd" d="M70.812 96.773C70.812 96.773 70.7705 96.773 70.729 96.7311C70.5197 96.6469 70.103 96.4785 69.5185 96.4785C68.6436 96.4785 67.6424 96.8572 66.5582 97.5726C63.9317 99.2979 61.1807 101.612 60.1795 105.863C59.1802 110.071 58.5957 117.73 58.805 119.623C58.9294 120.507 59.3046 122.527 59.6799 124.505C59.7628 125.009 59.8458 125.472 59.9306 125.935L60.4718 129.302C60.4718 129.386 60.5962 129.47 60.6811 129.47H60.7226C60.8055 129.47 60.9299 129.344 60.9299 129.26C60.9299 128.881 60.6811 127.619 60.3473 125.851L60.2625 125.178C60.9715 126.861 62.0971 128.965 62.9739 129.091C63.1398 129.091 63.3076 129.134 63.4735 129.134C64.307 129.134 66.3923 128.881 67.8517 126.482L67.9347 126.314C69.2696 124.21 70.0201 122.905 70.186 120.886C70.2689 119.834 70.6027 113.732 70.812 108.219C70.9779 104.979 71.0628 102.37 71.1043 100.476C71.1872 96.8572 71.0628 96.8151 70.812 96.773ZM69.7278 120.843C69.6034 122.779 68.8529 124 67.5595 126.062L67.435 126.272C66.1 128.418 64.224 128.671 63.4735 128.671C63.3076 128.671 63.1813 128.671 63.0153 128.628C62.2234 128.544 60.6811 125.22 59.9306 123.116C59.8873 123.074 59.8872 123.032 59.8458 123.032C59.5969 121.559 59.3461 120.212 59.2632 119.539C59.0539 117.687 59.6384 110.113 60.5962 105.947C61.556 101.907 64.141 99.7188 66.809 97.9513C67.8102 97.2781 68.7266 96.9414 69.5185 96.9414C70.02 96.9414 70.3953 97.0676 70.5612 97.1518L70.6027 97.1939C70.8949 98.7509 69.8937 118.529 69.7278 120.843Z" fill="black"/>
<path fill-rule="evenodd" clip-rule="evenodd" d="M163.808 102.474C164.315 102.021 164.994 101.659 165.84 101.387C164.909 101.568 164.315 101.976 163.808 102.474Z" fill="#DCDCDC"/>
<path fill-rule="evenodd" clip-rule="evenodd" d="M153.438 109.461C155.344 108.388 156.602 107.616 156.602 107.616L153.438 109.461Z" fill="#DCDCDC"/>
<path fill-rule="evenodd" clip-rule="evenodd" d="M159.094 105.308C159.937 104.754 160.993 104.328 162.258 104.242C161.161 104.029 160.064 104.584 159.094 105.308Z" fill="#DCDCDC"/>
<path fill-rule="evenodd" clip-rule="evenodd" d="M177.531 102.476C175.363 101.517 172.4 100.82 168.522 101.038C170.983 100.995 174.527 101.299 177.531 102.476Z" fill="#DCDCDC"/>
<path fill-rule="evenodd" clip-rule="evenodd" d="M180.21 99.0999C180.21 99.0999 180.84 93.679 179.748 90.5272C178.696 87.3335 175.838 83.131 175.838 83.131C175.838 83.131 174.323 74.5164 171.759 71.5326C171.759 71.5326 173.567 68.7591 172.811 65.7755C172.053 62.7498 171.003 59.8921 170.245 57.4969C169.489 55.1014 168.018 43.6291 166.336 42.8727C166.336 42.8727 167.387 37.5777 166.336 36.065C166.336 36.065 166.546 30.1816 163.855 29.4673C163.855 29.4673 162.258 32.3248 162.552 33.9638C162.89 35.6448 159.694 46.7809 159.567 48.4619C159.4 50.1007 156.541 60.8167 155.489 64.1364C154.439 67.4564 148.678 82.2066 148.678 83.131C148.678 84.0556 149.142 84.4758 149.142 84.4758C149.142 84.4758 151.116 88.8462 151.413 90.2331C151.707 91.5778 153.345 99.2681 153.345 100.781C153.345 102.294 153.177 109.732 153.556 109.522L156.835 107.715C156.835 107.715 157.676 106.286 159.273 105.277C160.241 104.563 161.334 104.017 162.426 104.227C162.426 104.227 162.763 103.218 163.855 102.378C164.36 101.874 164.949 101.537 165.874 101.369C165.034 101.621 164.36 101.958 163.855 102.378C163.308 102.924 162.89 103.596 162.426 104.227C161.164 104.311 160.114 104.731 159.273 105.277C157.886 106.286 156.835 107.715 156.835 107.715C156.835 107.715 155.532 108.471 153.556 109.522C153.556 109.522 158.938 108.933 161.67 109.059C165.284 109.228 169.826 110.404 169.826 110.404C169.826 110.404 164.36 109.228 161.67 109.059C159.652 108.975 154.607 109.522 153.556 109.522C152.504 109.522 143.256 127.298 146.114 133.937C148.973 140.577 151.033 144.065 153.977 144.191C156.75 144.359 158.053 142.09 158.053 142.09L157.718 145.704C157.718 145.704 159.232 141.628 161.376 139.821C163.478 138.014 166.504 135.324 166.504 135.324C166.504 135.324 171.171 132.593 172.979 131.542C174.787 130.491 179.916 126.121 179.916 126.121C179.916 126.121 185.968 115.573 186.559 113.598C187.147 111.623 186.6 109.27 185.212 107.715C182.774 104.983 180.21 99.0999 180.21 99.0999ZM166.631 101.243C167.177 101.159 167.85 101.117 168.648 101.075C172.559 100.865 175.543 101.537 177.729 102.462C179.831 103.26 181.681 104.437 182.774 106.202C182.774 106.202 181.302 103.975 177.729 102.462C174.702 101.327 171.129 101.033 168.648 101.075C167.766 101.117 166.84 101.243 165.874 101.369C166.084 101.327 166.378 101.243 166.631 101.243Z" fill="#B2B2B2"/>
<path fill-rule="evenodd" clip-rule="evenodd" d="M161.545 108.937C164.206 109.097 169.612 110.218 169.612 110.218C169.612 110.218 165.12 109.097 161.545 108.937Z" fill="#DCDCDC"/>
<path fill-rule="evenodd" clip-rule="evenodd" d="M180.408 99.0118C180.45 98.3391 180.953 93.3778 179.946 90.3504C178.94 87.3651 176.294 83.4129 176 82.9505C175.874 82.1935 174.446 74.4572 172.012 71.3877C172.389 70.7992 173.692 68.3605 173.019 65.6276C172.474 63.5253 171.803 61.423 171.173 59.6151C170.921 58.8162 170.668 58.0593 170.417 57.3025C170.208 56.5877 169.914 54.99 169.578 53.1401C168.528 47.7161 167.645 43.4695 166.554 42.6286C166.723 41.7455 167.478 37.4149 166.512 35.9012C166.554 35.1865 166.597 29.8466 163.867 29.0898C163.784 29.0898 163.657 29.1319 163.616 29.2159C163.574 29.3422 162.021 32.1591 162.315 33.8831C162.483 34.8923 161.306 39.8115 160.426 43.3853C159.837 45.6979 159.375 47.674 159.292 48.3047C159.166 49.9024 156.311 60.5821 155.261 63.9457C154.799 65.3333 153.54 68.739 152.197 72.3129C149.929 78.4515 148.46 82.4878 148.46 83.0345C148.46 83.8754 148.837 84.38 148.922 84.5061C149.131 84.9264 150.894 88.9209 151.147 90.1822C151.568 92.0323 153.121 99.264 153.121 100.694C153.121 100.988 153.121 101.45 153.121 102.081C153.036 107.169 153.078 108.808 153.246 109.355C152.448 110.028 151.064 112.719 150.602 113.602C147.242 120.245 144.01 129.537 145.9 133.952C148.754 140.595 150.894 144.211 153.919 144.379C155.849 144.463 157.109 143.496 157.739 142.781L157.486 145.641C157.486 145.725 157.571 145.851 157.654 145.851C157.695 145.893 157.695 145.893 157.695 145.893C157.822 145.893 157.907 145.809 157.907 145.725C157.948 145.682 159.417 141.688 161.474 139.922C163.49 138.198 166.344 135.634 166.597 135.423C166.933 135.213 171.298 132.69 173.062 131.681C174.867 130.588 179.779 126.384 179.988 126.215C180.031 126.173 180.031 126.173 180.073 126.131C180.282 125.711 186.118 115.536 186.706 113.56C187.336 111.584 186.748 109.103 185.32 107.463C183.054 104.94 180.661 99.6004 180.408 99.0118ZM186.286 113.433C185.697 115.326 180.073 125.206 179.694 125.879C179.275 126.257 174.531 130.294 172.81 131.261C171.005 132.312 166.344 135.045 166.344 135.045C166.344 135.045 166.303 135.045 166.303 135.087C166.261 135.087 163.28 137.82 161.18 139.586C159.796 140.763 158.704 142.866 158.074 144.253L158.242 142.067C158.242 141.94 158.201 141.856 158.074 141.814H158.033C157.948 141.814 157.865 141.856 157.822 141.898C157.822 141.94 156.562 144.043 153.96 143.917C151.147 143.748 149.09 140.259 146.32 133.783C144.682 130 147.201 122.642 148.837 118.605C150.894 113.518 153.078 109.902 153.581 109.649C154.002 109.649 154.884 109.607 156.017 109.523C157.695 109.355 159.796 109.187 161.138 109.187C161.306 109.187 161.474 109.187 161.642 109.229C164.287 109.355 169.661 110.532 169.702 110.574C169.829 110.574 169.955 110.532 169.997 110.406C169.997 110.28 169.955 110.154 169.829 110.112C169.787 110.112 165.253 108.892 161.642 108.766C161.35 108.724 161.012 108.724 160.635 108.724C158.704 108.724 156.1 108.977 154.631 109.103C156.017 108.346 156.898 107.841 156.941 107.841V107.799C156.983 107.799 156.983 107.799 156.983 107.757C157.024 107.757 158.033 106.37 159.375 105.361C160.299 104.772 161.35 104.436 162.398 104.394C162.483 104.394 162.524 104.352 162.566 104.309C162.734 104.099 162.86 103.889 162.986 103.679C163.322 103.258 163.616 102.838 163.952 102.46C164.496 102.039 165.17 101.703 165.841 101.534H165.882C166.765 101.366 167.645 101.282 168.486 101.24C168.737 101.24 168.948 101.24 169.199 101.24C171.005 101.24 174.49 101.408 177.637 102.586C181.08 104.099 182.507 106.244 182.55 106.244C182.592 106.328 182.76 106.37 182.843 106.328C182.969 106.244 182.969 106.117 182.927 105.991C181.921 104.352 180.199 103.09 177.848 102.207C175.58 101.198 172.978 100.736 170.123 100.736C169.578 100.736 169.031 100.736 168.486 100.778C167.772 100.778 167.1 100.862 166.597 100.904C166.303 100.946 166.009 101.03 165.799 101.072C164.917 101.198 164.246 101.534 163.657 102.123C162.818 102.796 162.398 103.553 162.23 103.889C161.306 103.805 160.258 104.141 159.123 104.982C157.654 105.949 156.815 107.169 156.647 107.463L153.625 109.145C153.457 108.178 153.54 103.973 153.54 102.081C153.581 101.45 153.581 100.988 153.581 100.694C153.581 99.0118 151.65 90.1822 151.609 90.0982C151.315 88.7106 149.426 84.464 149.343 84.2958L149.299 84.2537C149.258 84.2118 148.922 83.8333 148.922 83.0345C148.922 82.5299 150.979 76.9799 152.659 72.481C153.96 68.9072 155.22 65.5015 155.682 64.1139C156.773 60.6242 159.585 50.0287 159.753 48.3468C159.796 47.7582 160.299 45.7821 160.844 43.5116C161.853 39.4751 162.945 34.8923 162.777 33.7989C162.524 32.4534 163.616 30.2251 163.952 29.5944C166.261 30.5194 166.094 35.9012 166.094 35.9433C166.094 35.9854 166.094 36.0694 166.135 36.1115C166.933 37.2467 166.386 41.2831 166.094 42.7128C166.05 42.7968 166.135 42.9229 166.218 42.9649C167.268 43.4274 168.401 49.566 169.116 53.2241C169.452 55.0742 169.787 56.714 169.997 57.4707C170.249 58.1856 170.5 58.9423 170.753 59.7412C171.341 61.5912 172.054 63.6514 172.557 65.7537C173.272 68.6129 171.55 71.2616 171.55 71.3037C171.465 71.3877 171.509 71.4719 171.55 71.5559C174.069 74.4991 175.58 82.9924 175.58 83.0766C175.58 83.1187 175.58 83.1187 175.623 83.1606C175.623 83.2027 178.478 87.4072 179.485 90.5186C180.535 93.5879 179.946 98.9697 179.946 99.0118C179.946 99.0539 179.946 99.0958 179.946 99.1379C180.073 99.3482 182.55 105.066 184.985 107.799C186.327 109.313 186.832 111.584 186.286 113.433Z" fill="black"/>
<path fill-rule="evenodd" clip-rule="evenodd" d="M155.825 110.64C154.258 109.881 153.834 110.429 153.242 110.767C151.716 111.652 146.254 128.103 146.169 130.465C146.084 132.827 147.396 135.02 148.582 137.973C149.81 140.926 152.563 143.246 154.003 143.625C155.444 144.005 157.561 141.811 158.704 139.829C159.847 137.889 160.736 132.194 161.032 128.651C161.372 125.108 161.881 121.312 161.117 118.823C160.356 116.292 158.153 111.779 155.825 110.64Z" fill="#B2B2B2"/>
<path fill-rule="evenodd" clip-rule="evenodd" d="M155.768 110.448C155.216 110.196 154.748 110.07 154.367 110.07C153.815 110.07 153.476 110.28 153.178 110.448C153.136 110.533 153.051 110.575 152.966 110.617C151.311 111.543 145.835 128.206 145.749 130.436C145.707 132.287 146.514 134.054 147.406 136.116C147.661 136.705 147.957 137.336 148.211 138.01C149.486 140.997 152.288 143.396 153.772 143.774C153.9 143.816 154.028 143.816 154.198 143.816C155.683 143.816 157.635 141.839 158.781 139.903C159.969 137.799 160.861 131.866 161.159 128.626C161.2 128.121 161.244 127.574 161.285 127.027C161.583 124.04 161.879 120.884 161.2 118.738C160.565 116.55 158.357 111.669 155.768 110.448ZM160.861 126.985C160.776 127.532 160.735 128.079 160.691 128.584C160.395 132.035 159.46 137.757 158.357 139.693C157.296 141.502 155.47 143.396 154.198 143.396C154.069 143.396 153.985 143.396 153.9 143.354C152.499 142.975 149.825 140.703 148.635 137.841C148.381 137.168 148.085 136.537 147.83 135.948C146.938 133.928 146.175 132.203 146.216 130.436C146.301 127.911 151.82 111.795 153.178 110.996C153.262 110.953 153.347 110.911 153.432 110.827C153.73 110.659 153.985 110.491 154.367 110.491C154.663 110.491 155.088 110.617 155.555 110.869C157.763 111.921 159.969 116.255 160.776 118.864C161.414 120.968 161.116 124.04 160.861 126.985Z" fill="black"/>
<path fill-rule="evenodd" clip-rule="evenodd" d="M155.642 110.636C154.088 109.881 153.668 110.426 153.079 110.762C151.567 111.644 138.21 128.267 137.16 130.366C137.034 130.66 137.705 131.877 139.049 134.06C139.932 135.487 140.352 134.564 143.797 136.621C146.904 138.468 150.811 138.552 151.484 138.72C151.484 138.72 157.574 137.502 158.583 136.075C159.843 134.228 160.514 132.087 160.808 128.561C160.978 127.008 161.858 126.798 161.943 125.328C162.069 123.355 161.313 120.165 160.893 118.78C160.137 116.261 157.951 111.77 155.642 110.636Z" fill="#D8D8D8"/>
<path fill-rule="evenodd" clip-rule="evenodd" d="M155.836 110.447C155.288 110.196 154.826 110.07 154.447 110.07C153.898 110.07 153.562 110.279 153.266 110.447C153.225 110.531 153.14 110.573 153.057 110.615C151.456 111.537 137.982 128.346 137.013 130.274C136.845 130.651 137.224 131.448 138.908 134.172C139.413 134.969 139.836 135.094 140.55 135.346C141.182 135.555 142.151 135.849 143.75 136.771C146.277 138.28 149.309 138.657 150.783 138.825C151.119 138.867 151.415 138.867 151.541 138.909H151.582H151.624C151.877 138.867 157.858 137.693 158.866 136.184C160.214 134.256 160.888 132.034 161.184 128.555C161.225 127.843 161.478 127.465 161.73 127.046C161.983 126.585 162.277 126.124 162.321 125.328C162.447 123.441 161.73 120.34 161.225 118.705C160.593 116.525 158.404 111.663 155.836 110.447ZM161.857 125.286C161.815 125.998 161.563 126.376 161.351 126.795C161.057 127.256 160.805 127.717 160.72 128.513C160.426 131.909 159.794 134.046 158.487 135.933C157.731 137.023 153.31 138.112 151.582 138.49C151.415 138.448 151.162 138.406 150.825 138.364C149.393 138.196 146.446 137.819 144.003 136.394C142.319 135.43 141.35 135.094 140.72 134.927C140.004 134.675 139.751 134.591 139.33 133.921C138.74 132.998 137.351 130.777 137.435 130.442C138.572 128.136 151.92 111.789 153.266 110.992C153.351 110.95 153.436 110.908 153.519 110.824C153.815 110.657 154.068 110.489 154.447 110.489C154.741 110.489 155.161 110.615 155.625 110.866C157.814 111.914 160.003 116.232 160.805 118.831C161.31 120.423 161.983 123.483 161.857 125.286Z" fill="black"/>
<path fill-rule="evenodd" clip-rule="evenodd" d="M139.862 130.653C139.862 130.653 143.935 134.397 144.859 134.86C145.739 135.322 146.957 135.154 148.762 134.86C150.568 134.565 156.822 133.051 158.167 132.967C159.509 132.883 160.81 132.757 161.272 131.747C161.693 130.78 161.104 128.803 160.895 127.625L139.862 130.653Z" fill="#D8D8D8"/>
<path fill-rule="evenodd" clip-rule="evenodd" d="M160.938 127.643C160.897 127.519 160.812 127.436 160.685 127.436C160.561 127.478 160.476 127.602 160.476 127.727C160.52 127.976 160.603 128.225 160.644 128.515C160.897 129.594 161.23 130.964 160.897 131.67C160.476 132.542 159.303 132.666 158.004 132.749C157.167 132.791 154.527 133.372 152.18 133.87C150.715 134.202 149.289 134.492 148.577 134.617C146.859 134.908 145.645 135.032 144.806 134.617C144.093 134.285 141.287 131.753 139.903 130.508C139.82 130.425 139.652 130.425 139.568 130.508C139.485 130.591 139.485 130.715 139.568 130.84C139.735 130.964 143.674 134.575 144.596 135.032C145.058 135.24 145.56 135.323 146.146 135.323C146.859 135.323 147.655 135.198 148.661 135.032C149.372 134.949 150.798 134.617 152.306 134.285C154.61 133.787 157.209 133.247 158.004 133.206C159.471 133.123 160.812 132.957 161.315 131.877C161.692 131.006 161.357 129.594 161.106 128.432C161.021 128.142 160.98 127.851 160.938 127.643Z" fill="black"/>
<path fill-rule="evenodd" clip-rule="evenodd" d="M146.576 122.927C145.907 123.766 142.313 127.583 142.313 127.583C142.313 127.583 142.898 130.729 143.776 131.106C144.697 131.484 146.493 131.736 146.493 131.736C146.493 131.736 151.007 131.484 151.801 131.568C152.636 131.652 158.197 127.751 159.241 127.08L157.445 120.536C155.271 118.564 147.246 122.088 146.576 122.927Z" fill="#D8D8D8"/>
<path fill-rule="evenodd" clip-rule="evenodd" d="M159.2 127.003C158.991 127.129 158.655 127.383 158.195 127.721C156.647 128.734 152.588 131.521 151.918 131.521C151.081 131.437 146.938 131.648 146.561 131.648C146.394 131.648 144.761 131.437 143.924 131.099C143.381 130.846 142.836 128.988 142.585 127.805C143.13 127.214 146.184 123.962 146.812 123.16C147.231 122.653 151.75 120.499 154.89 120.288C156.061 120.161 156.898 120.33 157.358 120.795C157.484 120.879 157.609 120.837 157.693 120.752C157.776 120.668 157.776 120.541 157.652 120.457C157.107 119.908 156.146 119.697 154.89 119.823C151.624 120.077 147.021 122.188 146.477 122.864C145.807 123.709 142.208 127.552 142.208 127.552C142.125 127.636 142.125 127.678 142.125 127.763C142.208 128.101 142.794 131.099 143.758 131.479C144.678 131.902 146.435 132.113 146.52 132.113C146.561 132.113 146.561 132.113 146.561 132.113C146.603 132.113 151.081 131.902 151.877 131.986C152.505 132.028 154.848 130.508 158.446 128.058C158.906 127.763 159.242 127.509 159.451 127.383C159.534 127.298 159.619 127.172 159.534 127.087C159.492 126.96 159.324 126.918 159.2 127.003Z" fill="black"/>
<path fill-rule="evenodd" clip-rule="evenodd" d="M144.186 119.697H80.0137C80.0137 119.697 69.3869 128.237 69.1361 128.572C68.9249 128.949 68.5893 130.163 70.06 130.289C71.5289 130.414 156.996 130.289 156.996 130.289C156.996 130.289 158.676 129.284 158.129 128.698C157.541 128.154 144.186 119.697 144.186 119.697Z" fill="white"/>
<path fill-rule="evenodd" clip-rule="evenodd" d="M144.331 119.55C144.331 119.55 144.287 119.508 144.205 119.508H80.0157C79.9742 119.508 79.8894 119.55 79.8479 119.592C77.3684 121.601 69.1777 128.175 68.9684 128.51C68.7987 128.803 68.5894 129.389 68.8421 129.891C68.9684 130.184 69.3041 130.519 70.0601 130.561C70.4806 130.603 78.2942 130.603 93.2483 130.603C118.705 130.603 156.638 130.561 157.017 130.561C157.058 130.561 157.1 130.561 157.1 130.519C157.311 130.394 158.402 129.766 158.487 129.096C158.487 128.928 158.444 128.761 158.276 128.593C157.731 128.049 145.717 120.429 144.331 119.55ZM158.025 129.054C157.982 129.347 157.394 129.849 156.932 130.101C155.169 130.142 118.243 130.184 93.2483 130.184C78.2942 130.184 70.5221 130.142 70.0601 130.101C69.6397 130.101 69.3455 129.933 69.2607 129.724C69.0929 129.389 69.2192 128.928 69.3455 128.803C69.5982 128.468 75.8996 123.36 80.1006 119.968H144.161C149.497 123.36 157.563 128.51 157.982 128.928C158.025 128.97 158.025 129.012 158.025 129.054Z" fill="black"/>
<path fill-rule="evenodd" clip-rule="evenodd" d="M144.004 119.697H79.8606C79.8606 119.697 69.2395 128.236 68.9868 128.57C68.7775 128.947 70.2463 129.031 71.7151 129.156C73.1859 129.282 153.407 129.156 153.407 129.156C153.407 129.156 158.487 129.282 157.94 128.696C157.354 128.152 144.004 119.697 144.004 119.697Z" fill="black"/>
<path fill-rule="evenodd" clip-rule="evenodd" d="M144.189 119.55C144.189 119.55 144.148 119.508 144.065 119.508H79.9041C79.8626 119.508 79.7797 119.55 79.7363 119.591C77.2587 121.601 69.0718 128.173 68.8625 128.508C68.7776 128.633 68.7776 128.759 68.8191 128.843C68.9869 129.219 69.743 129.303 71.7587 129.429C72.1791 129.47 79.527 129.47 93.593 129.47C117.526 129.47 153.091 129.429 153.47 129.429C153.47 129.429 153.888 129.47 154.476 129.47C158.046 129.47 158.172 129.136 158.214 128.968C158.298 128.843 158.255 128.717 158.131 128.591C157.584 128.047 145.575 120.429 144.189 119.55ZM154.476 129.01C153.888 129.01 153.47 129.01 153.47 129.01C153.091 129.01 117.526 129.052 93.593 129.052C79.527 129.052 72.2206 129.01 71.7587 129.01C70.9196 128.926 69.7015 128.843 69.3244 128.675C70.1635 127.922 75.9992 123.192 79.9889 119.968H144.021C149.061 123.192 156.492 127.922 157.669 128.801C157.375 128.884 156.577 129.01 154.476 129.01Z" fill="black"/>
<path fill-rule="evenodd" clip-rule="evenodd" d="M84.0145 120.829L77.2625 127.96L148.682 127.499L140.461 120.829H84.0145Z" fill="white"/>
<path fill-rule="evenodd" clip-rule="evenodd" d="M140.706 120.493C140.665 120.452 140.622 120.452 140.58 120.452H84.0841C84.0408 120.452 83.9578 120.452 83.9163 120.493L77.1586 127.585C77.0738 127.627 77.0738 127.752 77.1153 127.835C77.1586 127.919 77.2416 127.961 77.3265 127.961L148.807 127.502C148.933 127.502 149.016 127.46 149.059 127.376C149.059 127.293 149.059 127.168 148.974 127.126L140.706 120.493ZM77.8713 127.502L84.2086 120.869H140.495L148.177 127.084L77.8713 127.502Z" fill="black"/>
<path fill-rule="evenodd" clip-rule="evenodd" d="M85.9795 101.75C85.5591 101.198 91.1628 112.712 91.6267 113.052C92.0471 113.392 92.132 113.689 93.9855 114.029C95.8804 114.369 97.0193 113.519 97.0193 112.542C97.0193 111.565 94.2796 109.738 93.0163 107.359C92.3847 106.084 89.2245 105.532 85.9795 101.75Z" fill="#D8D8D8"/>
<path fill-rule="evenodd" clip-rule="evenodd" d="M93.2348 107.129C92.9406 106.58 92.2713 106.158 91.3097 105.609C89.9709 104.807 88.1306 103.751 86.2489 101.513C86.0811 101.386 85.8737 101.429 85.8303 101.597C85.7888 101.682 85.7474 101.851 88.4248 107.34C89.6787 109.831 91.2267 112.871 91.4774 113.082C91.5604 113.167 91.6019 113.209 91.6868 113.251C92.0205 113.547 92.3146 113.8 93.9456 114.096C94.2379 114.138 94.5301 114.18 94.7809 114.18C96.3704 114.18 97.2076 113.293 97.2076 112.407C97.2076 111.858 96.5797 111.182 95.701 110.211C94.8658 109.367 93.8608 108.311 93.2348 107.129ZM94.7809 113.716C94.5716 113.716 94.2793 113.716 94.0286 113.673C92.522 113.378 92.2713 113.167 91.979 112.913C91.8961 112.829 91.8546 112.787 91.7697 112.745C91.436 112.407 87.9648 105.482 86.709 102.738C88.34 104.426 89.9294 105.313 91.1003 106.031C91.979 106.538 92.6069 106.918 92.8577 107.34C93.4855 108.564 94.5301 109.662 95.3673 110.549C96.0781 111.309 96.7475 112.027 96.7475 112.407C96.7475 113.082 96.0781 113.716 94.7809 113.716Z" fill="black"/>
<path fill-rule="evenodd" clip-rule="evenodd" d="M70.9612 96.856C70.8405 96.9386 68.9663 98.136 68.9663 98.136C68.9663 98.136 71.0008 96.856 70.9612 96.856Z" fill="#D8D8D8"/>
<path fill-rule="evenodd" clip-rule="evenodd" d="M90.137 108.403C89.4695 106.852 87.8819 104.043 86.9222 102.995C85.9625 101.905 81.7879 97.2943 81.7879 97.2943C79.7836 94.4021 72.7713 96.3722 71.0178 97.0429C71.0593 97.0429 68.9306 98.3424 68.9306 98.3424C68.9306 98.3424 70.8915 97.1267 71.0178 97.0429C69.6395 97.3362 69.4321 96.3303 66.8433 98.0488C64.213 99.8094 61.4997 102.073 60.54 106.181C59.914 108.864 59.4124 113.013 59.2446 116.115C59.1616 117.373 61.0397 115.235 61.9164 114.481C61.6242 114.103 60.9152 112.636 60.9152 112.636C60.9152 112.636 63.2117 117.079 66.1758 117.583C67.4693 117.792 69.5565 122.152 73.3973 123.116C75.4017 123.619 77.2796 122.361 77.4456 120.349C77.4456 120.349 70.0147 112.217 69.681 111.588C69.3472 111.001 77.2796 104.085 78.0301 104.546C78.8239 105.007 83.6244 109.744 84.2919 110.415C84.9613 111.085 85.0857 111.253 85.6702 112.385C86.2962 113.517 86.7562 113.726 87.0485 115.151C87.2993 116.576 89.4695 118.924 91.2646 118.253C92.558 117.75 93.0596 116.074 92.8088 114.942C92.5995 113.81 90.8045 109.912 90.137 108.403Z" fill="#D8D8D8"/>
<path fill-rule="evenodd" clip-rule="evenodd" d="M90.7008 109.147C90.5349 108.812 90.4086 108.519 90.3256 108.309C89.6581 106.802 88.0705 103.912 87.0693 102.823C86.1511 101.776 82.1839 97.3776 81.9765 97.1263C81.2242 96.0793 79.7629 95.5347 77.6341 95.5347C74.8379 95.5347 71.789 96.4981 70.9556 96.8332C70.5785 96.9168 70.2448 96.8751 69.9525 96.8332C69.7432 96.8332 69.5773 96.7913 69.368 96.7913C68.8665 96.7913 68.116 96.9168 66.6962 97.8802C64.0659 99.5974 61.3112 101.901 60.31 106.132C59.5992 109.063 59.1824 113.294 58.9731 116.1C58.9731 116.309 59.0146 116.477 59.1409 116.603C59.1824 116.686 59.3069 116.728 59.4332 116.728C59.8499 116.728 60.4759 116.142 61.3527 115.262C61.6035 115.053 61.8127 114.844 61.9787 114.718C62.9384 116.016 64.4412 117.482 66.1532 117.775C66.5303 117.859 67.1148 118.529 67.8238 119.325C69.1172 120.749 70.8708 122.676 73.2918 123.304C73.6274 123.388 73.9612 123.43 74.2534 123.43C76.0899 123.43 77.5097 122.131 77.6341 120.33C77.6341 120.288 77.6342 120.205 77.5512 120.163C74.6701 116.98 70.2863 112.163 69.8696 111.535C70.1618 110.697 76.7989 104.791 77.9264 104.749C78.7202 105.21 83.2285 109.692 84.1053 110.571C84.7313 111.2 84.8576 111.367 85.4836 112.498C85.6495 112.833 85.8588 113.126 86.0247 113.378C86.3603 113.88 86.6092 114.257 86.777 115.179C87.0693 116.519 88.7814 118.571 90.5764 118.571C90.8272 118.571 91.0779 118.529 91.2854 118.446C92.7881 117.901 93.2481 116.016 93.0388 114.885C92.8296 113.88 91.5361 111.032 90.7008 109.147ZM91.1609 118.027C90.9516 118.11 90.7857 118.152 90.5764 118.152C89.0736 118.152 87.486 116.268 87.2371 115.095C87.0278 114.09 86.7356 113.671 86.4018 113.126C86.234 112.875 86.0681 112.624 85.8588 112.289C85.2328 111.158 85.1065 110.948 84.439 110.236C84.356 110.194 79.0124 104.875 78.1357 104.372C78.0942 104.331 78.0094 104.289 77.9264 104.289C76.6744 104.289 70.3278 109.901 69.5358 111.2C69.451 111.325 69.368 111.535 69.451 111.702C69.7866 112.331 76.1729 119.283 77.176 120.414C77.0082 121.922 75.7977 122.969 74.2949 122.969C74.0026 122.969 73.7104 122.927 73.4181 122.885C71.0801 122.299 69.4095 120.414 68.1575 118.99C67.3637 118.11 66.7792 117.44 66.1947 117.357C63.357 116.854 61.1019 112.54 61.1019 112.498C61.0604 112.414 60.9774 112.372 60.8926 112.372C60.8511 112.372 60.8096 112.372 60.7682 112.414C60.6852 112.456 60.6437 112.582 60.6852 112.707C60.7267 112.749 61.2697 113.88 61.6034 114.425C61.4356 114.592 61.2697 114.76 61.0604 114.927C60.5589 115.43 59.7255 116.184 59.4332 116.268C59.4332 116.226 59.4332 116.184 59.4332 116.1C59.6406 113.126 60.1007 108.938 60.7267 106.215C61.6864 102.194 64.2752 100.016 66.947 98.2572C68.282 97.3776 68.9098 97.252 69.368 97.252C69.5358 97.252 69.7018 97.252 69.8696 97.2938C69.9525 97.2938 70.0355 97.2938 70.1204 97.3357C69.6603 97.5871 69.1173 97.9641 68.7835 98.1734C68.7006 98.2153 68.6591 98.341 68.742 98.4666C68.7835 98.5504 68.9513 98.5923 69.0343 98.5504C69.0343 98.5504 69.5773 98.2153 70.0788 97.8802C70.62 97.5452 70.9123 97.3776 71.0801 97.252C72.1228 96.8332 75.0868 95.9954 77.6341 95.9954C79.597 95.9954 80.9319 96.4562 81.5994 97.4195C81.5994 97.4195 81.5994 97.4195 81.6428 97.4195C81.6842 97.4614 85.7758 102.069 86.7356 103.116C87.6953 104.205 89.2396 107.011 89.9089 108.477C89.9919 108.686 90.1163 108.98 90.2841 109.315C91.0779 111.074 92.4129 114.048 92.5807 114.969C92.7881 115.933 92.3714 117.566 91.1609 118.027Z" fill="black"/>
<path fill-rule="evenodd" clip-rule="evenodd" d="M77.1665 112.891C76.3218 111.834 72.0077 106.672 72.0077 106.672L66.8923 111.326C66.8923 111.326 67.6541 111.495 68.2461 111.918C68.7948 112.299 70.6973 115.091 71.5854 116.657C72.5149 118.18 74.672 118.984 76.3218 120.169C77.9698 121.353 78.1395 120.507 78.9427 120.338C79.7459 120.169 80.8037 118.857 80.7189 117.545C80.5907 116.234 78.0131 113.907 77.1665 112.891Z" fill="#D8D8D8"/>
<path fill-rule="evenodd" clip-rule="evenodd" d="M78.2939 113.602C77.9526 113.221 77.6566 112.924 77.4435 112.67C76.5951 111.653 72.264 106.483 72.264 106.483L71.9246 106.737C71.9246 106.737 76.2557 111.949 77.1041 112.966C77.3172 113.221 77.6132 113.56 77.996 113.941C78.9727 115 80.5 116.611 80.5848 117.543C80.7131 118.729 79.6949 119.916 79.0142 120.085C78.7596 120.128 78.5899 120.213 78.4202 120.34C77.996 120.552 77.6566 120.721 76.5517 119.958C76.0011 119.535 75.4072 119.196 74.8547 118.857C73.6235 118.136 72.4771 117.458 71.8831 116.483C71.0347 115.085 69.0813 112.119 68.4439 111.653C67.85 111.229 67.043 111.059 67.0015 111.059C66.8733 111.017 66.747 111.102 66.7036 111.229C66.7036 111.356 66.7884 111.483 66.8733 111.526C66.9167 111.526 67.6369 111.695 68.1894 112.034C68.6985 112.415 70.567 115.128 71.5004 116.695C72.1377 117.797 73.4104 118.56 74.6002 119.238C75.1941 119.577 75.7466 119.916 76.2971 120.297C76.9778 120.806 77.4435 120.975 77.8263 120.975C78.1223 120.975 78.3788 120.848 78.6333 120.721C78.7596 120.636 78.9293 120.552 79.099 120.509C80.0757 120.297 81.1807 118.857 81.0525 117.501C80.9676 116.399 79.4818 114.873 78.2939 113.602Z" fill="black"/>
<path fill-rule="evenodd" clip-rule="evenodd" d="M83.0792 109.275C82.9529 108.69 77.4038 102.33 77.4038 102.33L71.9829 106.681C72.4072 107.058 77.4038 113.25 77.9977 114.129C78.6312 114.966 79.5646 115.928 80.7506 117.225C81.9347 118.522 82.6983 117.434 83.7561 117.058C84.8572 116.639 85.7057 114.338 85.3663 113.627C85.0269 112.874 83.2056 109.819 83.0792 109.275Z" fill="#D8D8D8"/>
<path fill-rule="evenodd" clip-rule="evenodd" d="M84.6422 112.07C84.0917 111.023 83.2847 109.64 83.1998 109.305C83.115 108.719 78.7821 103.775 77.466 102.267C77.3811 102.183 77.2114 102.142 77.1266 102.225C77.0417 102.309 77.0417 102.477 77.0832 102.56C79.2082 104.948 82.604 108.928 82.7737 109.389C82.8585 109.766 83.411 110.813 84.2614 112.28C84.6008 112.908 84.9401 113.536 85.0684 113.788C85.1947 114.039 85.1532 114.668 84.812 115.422C84.4726 116.176 84.0068 116.762 83.5807 116.93C83.3262 117.014 83.0716 117.181 82.8171 117.307C82.0949 117.726 81.5858 117.977 80.8203 117.139L80.3546 116.637C79.3779 115.589 78.6123 114.793 78.1033 114.039C77.5093 113.243 72.4976 107.001 71.9885 106.582C71.9037 106.498 71.7754 106.498 71.6906 106.624C71.6057 106.708 71.6057 106.833 71.6906 106.917C72.1148 107.294 77.0832 113.495 77.7205 114.332C78.2729 115.086 79.0366 115.882 80.0133 116.93L80.4809 117.432C80.9485 117.977 81.3728 118.145 81.797 118.145C82.2231 118.145 82.6474 117.893 83.0301 117.684C83.2413 117.558 83.4958 117.432 83.7504 117.349C84.3028 117.139 84.8553 116.469 85.2381 115.589C85.4926 114.961 85.7038 114.081 85.4926 113.578C85.3644 113.327 85.025 112.74 84.6422 112.07Z" fill="black"/>
<path fill-rule="evenodd" clip-rule="evenodd" d="M146.65 118.941C146.763 120.146 146.914 121.393 147.178 122.296C147.178 122.296 146.876 120.791 146.65 118.941Z" fill="#D8D8D8"/>
<path fill-rule="evenodd" clip-rule="evenodd" d="M155.659 110.641C155.659 110.641 151.362 109.503 150.453 109.503C149.586 109.503 145.949 110.472 145.123 111.146C144.297 111.862 143.017 114.599 142.768 115.779C142.313 117.885 143.347 121.043 144.214 121.422C145.123 121.801 146.363 122.265 147.272 122.265C146.982 121.38 146.818 120.159 146.693 118.98C146.486 117.59 146.363 116.031 146.444 114.81C146.444 114.81 146.486 116.832 146.693 118.98C146.94 120.791 147.272 122.265 147.272 122.265C147.436 122.897 147.644 123.36 147.932 123.57C149.048 124.371 152.312 125.129 153.345 124.329C154.379 123.486 154.379 121.38 153.883 120.327C153.345 119.232 153.221 118.643 153.221 118.432C153.221 118.179 153.634 115.315 154.171 114.178L155.659 110.641Z" fill="#D8D8D8"/>
<path fill-rule="evenodd" clip-rule="evenodd" d="M155.64 110.263C155.474 110.221 151.279 109.125 150.366 109.125C149.452 109.125 145.715 110.094 144.844 110.81C143.971 111.568 142.641 114.39 142.393 115.569C141.936 117.759 143.017 121.045 144.012 121.466C144.885 121.845 146.088 122.266 147.003 122.308C147.169 122.898 147.418 123.361 147.708 123.572C148.456 124.119 150.325 124.751 151.82 124.751C152.442 124.751 153.023 124.625 153.398 124.33C154.56 123.403 154.518 121.129 153.979 120.034C153.481 119.023 153.357 118.433 153.357 118.265C153.357 118.012 153.813 115.19 154.311 114.095C154.352 114.011 154.311 113.885 154.187 113.8C154.062 113.758 153.938 113.8 153.896 113.927C153.357 115.106 152.899 118.012 152.899 118.265C152.899 118.602 153.148 119.36 153.606 120.244C154.062 121.213 154.104 123.193 153.148 123.951C152.194 124.709 149.037 123.993 147.957 123.193C147.749 123.024 147.542 122.645 147.376 122.14C147.376 122.098 147.376 122.098 147.376 122.055C147.376 122.013 147.044 120.539 146.795 118.728C146.629 117.17 146.588 115.527 146.588 114.643C146.546 114.516 146.463 114.39 146.339 114.39C146.213 114.39 146.13 114.474 146.13 114.601C146.005 115.822 146.171 117.38 146.339 118.728C146.463 119.823 146.588 120.96 146.837 121.845C146.171 121.803 145.259 121.508 144.178 121.087C143.431 120.75 142.393 117.717 142.851 115.654C143.1 114.474 144.386 111.779 145.134 111.189C145.922 110.515 149.535 109.547 150.366 109.547C151.072 109.547 154.062 110.305 155.516 110.684C155.64 110.726 155.765 110.642 155.806 110.515C155.848 110.389 155.765 110.263 155.64 110.263Z" fill="black"/>
<path fill-rule="evenodd" clip-rule="evenodd" d="M155.976 137.204C155.766 137.204 150.53 136.984 149.158 137.16C147.87 137.291 143.629 135.974 143.588 135.974C143.463 135.93 143.339 136.018 143.297 136.15C143.256 136.238 143.339 136.37 143.463 136.413C143.629 136.501 147.828 137.774 149.199 137.599C150.53 137.467 155.934 137.686 155.976 137.686C156.1 137.686 156.183 137.599 156.183 137.467C156.225 137.335 156.1 137.247 155.976 137.204Z" fill="black"/>
<path fill-rule="evenodd" clip-rule="evenodd" d="M43.2158 94.0009C42.6238 94.0009 42.0317 94.0009 41.4378 93.9595C36.7843 93.9182 31.9592 93.8357 28.7011 97.3869C28.6162 97.5107 28.6162 97.6346 28.7425 97.7173C28.7859 97.7584 28.8274 97.7584 28.8708 97.7584C28.9556 97.7584 28.9971 97.7584 29.0386 97.6759C32.129 94.2899 36.8673 94.3726 41.4378 94.4137C42.0317 94.4137 42.6238 94.455 43.2158 94.455C43.3421 94.455 43.4704 94.3312 43.4704 94.2074C43.4704 94.0834 43.3421 94.0009 43.2158 94.0009Z" fill="black"/>
<path fill-rule="evenodd" clip-rule="evenodd" d="M49.6717 81.8528C44.6845 80.8108 40.3271 81.3109 34.629 83.5613C34.5442 83.603 34.4612 83.728 34.5027 83.8531C34.5442 83.9364 34.6291 83.9781 34.712 83.9781C34.7554 83.9781 34.7969 83.9781 34.7969 83.9781C40.412 81.7277 44.6845 81.2693 49.5869 82.3111C49.7132 82.3111 49.7962 82.2694 49.8396 82.1445C49.8811 82.0195 49.7962 81.8943 49.6717 81.8528Z" fill="black"/>
<path fill-rule="evenodd" clip-rule="evenodd" d="M49.1041 78.4624C47.5523 77.8752 46.2494 77.162 45.0333 76.5327C43.1855 75.5679 41.464 74.645 38.9449 74.0578C38.8186 74.0159 38.6941 74.0997 38.6508 74.2256C38.6093 74.3515 38.6942 74.4353 38.8186 74.4772C41.2962 75.0646 43.0176 75.9873 44.8221 76.9102C46.0816 77.5814 47.3411 78.2946 48.9797 78.8818C48.9797 78.8818 49.0211 78.8818 49.0626 78.8818C49.1475 78.8818 49.2304 78.8399 49.2719 78.7559C49.3153 78.6302 49.2304 78.5043 49.1041 78.4624Z" fill="black"/>
<path fill-rule="evenodd" clip-rule="evenodd" d="M168.69 73.3236C165.386 72.6106 162.837 72.3169 159.534 72.3169C159.409 72.3169 159.283 72.4007 159.283 72.5266C159.283 72.6525 159.409 72.7782 159.534 72.7782C162.796 72.7782 165.345 73.072 168.565 73.7851C168.607 73.7851 168.607 73.7851 168.648 73.7851C168.731 73.7851 168.816 73.7011 168.858 73.6173C168.858 73.4914 168.816 73.3657 168.69 73.3236Z" fill="black"/>
<path fill-rule="evenodd" clip-rule="evenodd" d="M174.344 89.3465C170.886 87.4207 165.782 86.8516 161.945 87.9459C161.819 87.9459 161.734 88.0773 161.776 88.2084C161.819 88.3398 161.945 88.4274 162.072 88.3836C165.782 87.3331 170.76 87.9021 174.133 89.7843C174.177 89.7843 174.218 89.828 174.26 89.828C174.344 89.828 174.429 89.7405 174.429 89.6967C174.514 89.5655 174.471 89.4341 174.344 89.3465Z" fill="black"/>
<path fill-rule="evenodd" clip-rule="evenodd" d="M165.105 104.841C163.981 104.507 162.941 104.216 162.068 103.882C161.941 103.84 161.817 103.924 161.775 104.007C161.734 104.132 161.775 104.257 161.9 104.299C162.816 104.632 163.857 104.966 164.981 105.299C169.81 106.716 175.804 108.467 177.22 113.259C177.261 113.342 177.344 113.426 177.427 113.426C177.468 113.426 177.512 113.426 177.512 113.384C177.636 113.384 177.719 113.259 177.678 113.134C176.137 108.133 170.019 106.299 165.105 104.841Z" fill="black"/>
<path fill-rule="evenodd" clip-rule="evenodd" d="M75.3355 114.495C74.9584 114.786 74.6228 115.118 74.2871 115.451C73.9515 115.784 73.5744 116.158 73.2407 116.408C73.1143 116.491 73.1143 116.657 73.1973 116.74C73.2407 116.782 73.3237 116.824 73.3651 116.824C73.4085 116.824 73.45 116.824 73.4915 116.782C73.91 116.491 74.2457 116.117 74.5813 115.784C74.9169 115.451 75.2507 115.118 75.6278 114.827C75.7126 114.744 75.7126 114.619 75.6711 114.536C75.5863 114.411 75.4185 114.411 75.3355 114.495Z" fill="black"/>
<path fill-rule="evenodd" clip-rule="evenodd" d="M80.9565 109.402C80.2928 110.146 79.5065 110.803 78.7203 111.416C78.5128 111.591 78.3488 111.722 78.1414 111.897C78.0584 111.985 78.0169 112.116 78.0999 112.204C78.1414 112.291 78.2244 112.291 78.2659 112.291C78.3488 112.291 78.3903 112.291 78.4318 112.247C78.5958 112.116 78.8032 111.941 78.9692 111.81C79.7969 111.153 80.5832 110.496 81.2865 109.708C81.3694 109.621 81.328 109.49 81.245 109.402C81.162 109.315 81.0376 109.315 80.9565 109.402Z" fill="black"/>
<path fill-rule="evenodd" clip-rule="evenodd" d="M71.3099 117.939C71.1892 118.112 71.0667 118.242 70.946 118.415C70.6632 118.761 70.3804 119.107 70.1371 119.496C70.0975 119.626 70.0975 119.756 70.2182 119.842C70.2597 119.842 70.2993 119.842 70.3408 119.842C70.42 119.842 70.4614 119.799 70.501 119.756C70.7028 119.41 70.9856 119.064 71.2684 118.718C71.391 118.545 71.5513 118.372 71.6738 118.199C71.7549 118.112 71.7134 117.982 71.6323 117.896C71.5512 117.809 71.391 117.809 71.3099 117.939Z" fill="black"/>
<path fill-rule="evenodd" clip-rule="evenodd" d="M87.2841 105.351C86.4148 105.506 85.8058 105.817 85.4136 106.283C85.3703 106.4 85.3703 106.516 85.5004 106.594C85.5437 106.594 85.5871 106.633 85.6305 106.633C85.7191 106.633 85.7625 106.594 85.8058 106.516C86.1094 106.128 86.6317 105.895 87.3727 105.778C87.5028 105.739 87.5895 105.661 87.5895 105.545C87.5462 105.428 87.416 105.351 87.2841 105.351Z" fill="black"/>
<path fill-rule="evenodd" clip-rule="evenodd" d="M89.6448 110.491C88.8528 111.014 88.0609 111.667 87.533 112.277C87.4444 112.364 87.4877 112.495 87.5764 112.582C87.6197 112.625 87.665 112.669 87.7083 112.669C87.797 112.669 87.8403 112.625 87.929 112.582C88.4569 111.928 89.3356 111.275 89.9088 110.883C90.0408 110.839 90.0407 110.665 89.9955 110.578C89.9088 110.447 89.7768 110.447 89.6448 110.491Z" fill="black"/>
<path fill-rule="evenodd" clip-rule="evenodd" d="M71.2629 98.1088C70.4276 98.1888 69.7187 98.4691 69.3849 98.9497C69.3434 99.0298 69.3434 99.19 69.4679 99.23C69.5112 99.27 69.5528 99.27 69.5942 99.27C69.6772 99.27 69.7187 99.2701 69.7601 99.19C70.0109 98.8297 70.5954 98.5894 71.3044 98.5093C72.2226 98.4291 73.1805 98.6694 73.6406 99.0698C73.7235 99.15 73.848 99.15 73.9328 99.0698C74.0158 98.9897 74.0158 98.8697 73.9328 98.7494C73.3898 98.269 72.3471 97.9887 71.2629 98.1088Z" fill="black"/>
<path fill-rule="evenodd" clip-rule="evenodd" d="M66.9223 103.085C66.7922 103.126 66.7036 103.208 66.7036 103.33C66.7036 103.453 66.7922 103.534 66.9223 103.534C67.7576 103.534 68.6796 103.861 69.4697 104.514C69.513 104.555 69.5583 104.555 69.6017 104.555C69.6903 104.555 69.7337 104.555 69.777 104.514C69.8656 104.392 69.8656 104.269 69.777 104.187C68.8984 103.453 67.8896 103.085 66.9223 103.085Z" fill="black"/>
<path fill-rule="evenodd" clip-rule="evenodd" d="M152.612 118.267C152.57 118.267 152.57 118.267 152.527 118.227C151.316 117.741 150.062 117.62 148.897 117.984C148.767 118.025 148.724 118.146 148.767 118.267C148.81 118.389 148.94 118.429 149.069 118.389C150.106 118.065 151.229 118.146 152.353 118.631C152.44 118.672 152.483 118.712 152.57 118.712C152.57 118.712 152.612 118.712 152.655 118.672C152.742 118.631 152.828 118.51 152.742 118.389C152.742 118.348 152.655 118.267 152.612 118.267Z" fill="black"/>
<path fill-rule="evenodd" clip-rule="evenodd" d="M146.367 132.532C146.225 132.532 146.084 132.615 146.084 132.739C146.037 133.154 145.99 133.527 145.896 133.9C145.896 134.024 145.99 134.148 146.131 134.19H146.178C146.273 134.19 146.414 134.107 146.414 133.982C146.508 133.568 146.555 133.195 146.603 132.781C146.603 132.657 146.508 132.532 146.367 132.532Z" fill="black"/>
<path fill-rule="evenodd" clip-rule="evenodd" d="M108.332 87.7549C108.332 88.2427 108.206 88.6493 107.953 89.0965C107.701 89.5031 107.448 89.7877 106.986 90.0316C106.566 90.2755 106.102 90.3976 105.598 90.3976C105.134 90.3976 104.672 90.2755 104.252 90.0316C103.832 89.7877 103.494 89.5031 103.241 89.0965C103.032 88.6493 102.906 88.2427 102.906 87.7549C102.906 87.267 103.032 86.8604 103.241 86.4538C103.494 86.0474 103.832 85.7221 104.252 85.4781C104.672 85.2342 105.134 85.1528 105.598 85.1528C106.102 85.1528 106.566 85.2342 106.986 85.4781C107.448 85.7221 107.701 86.0474 107.953 86.4538C108.206 86.8604 108.332 87.267 108.332 87.7549Z" fill="#B2B2B2"/>
<path fill-rule="evenodd" clip-rule="evenodd" d="M105.525 84.9639C103.897 84.9639 102.529 86.292 102.529 87.8689C102.529 89.4876 103.897 90.774 105.525 90.774C107.193 90.774 108.519 89.4876 108.519 87.8689C108.519 86.292 107.193 84.9639 105.525 84.9639ZM105.525 90.3176C104.154 90.3176 103 89.1971 103 87.8689C103 86.4995 104.154 85.4205 105.525 85.4205C106.937 85.4205 108.091 86.4995 108.091 87.8689C108.091 89.1971 106.937 90.3176 105.525 90.3176Z" fill="black"/>
<path fill-rule="evenodd" clip-rule="evenodd" d="M108.519 114.371C108.519 114.858 108.389 115.265 108.131 115.712C107.872 116.119 107.569 116.403 107.093 116.647C106.662 116.891 106.23 117.013 105.713 117.013C105.195 117.013 104.806 116.891 104.331 116.647C103.899 116.403 103.554 116.119 103.294 115.712C103.036 115.265 102.906 114.858 102.906 114.371C102.906 113.883 103.036 113.476 103.294 113.07C103.554 112.663 103.899 112.338 104.331 112.094C104.806 111.85 105.195 111.769 105.713 111.769C106.23 111.769 106.662 111.85 107.093 112.094C107.569 112.338 107.872 112.663 108.131 113.07C108.389 113.476 108.519 113.883 108.519 114.371Z" fill="#DCDCDC"/>
<path fill-rule="evenodd" clip-rule="evenodd" d="M105.713 111.58C104.044 111.58 102.717 112.908 102.717 114.485C102.717 116.103 104.044 117.39 105.713 117.39C107.382 117.39 108.707 116.103 108.707 114.485C108.707 112.908 107.382 111.58 105.713 111.58ZM105.713 116.975C104.301 116.975 103.188 115.813 103.188 114.485C103.188 113.115 104.301 112.036 105.713 112.036C107.125 112.036 108.238 113.157 108.238 114.485C108.238 115.854 107.125 116.975 105.713 116.975Z" fill="black"/>
<path fill-rule="evenodd" clip-rule="evenodd" d="M107.201 142.138C107.201 142.657 107.08 143.046 106.837 143.521C106.592 143.954 106.349 144.299 105.902 144.559C105.497 144.818 105.05 144.948 104.561 144.948C104.116 144.948 103.67 144.818 103.262 144.559C102.857 144.299 102.572 143.954 102.329 143.521C102.125 143.046 101.963 142.657 101.963 142.138C101.963 141.619 102.125 141.187 102.329 140.755C102.572 140.279 102.857 139.977 103.262 139.717C103.67 139.458 104.116 139.328 104.561 139.328C105.05 139.328 105.497 139.458 105.902 139.717C106.349 139.977 106.592 140.279 106.837 140.755C107.08 141.187 107.201 141.619 107.201 142.138Z" fill="#B2B2B2"/>
<path fill-rule="evenodd" clip-rule="evenodd" d="M104.467 138.951C102.879 138.951 101.586 140.279 101.586 141.95C101.586 143.62 102.879 144.948 104.467 144.948C106.094 144.948 107.39 143.62 107.39 141.95C107.39 140.279 106.094 138.951 104.467 138.951ZM104.467 144.477C103.13 144.477 102.003 143.363 102.003 141.95C102.003 140.536 103.13 139.422 104.467 139.422C105.845 139.422 106.971 140.536 106.971 141.95C106.971 143.363 105.845 144.477 104.467 144.477Z" fill="black"/>
<path fill-rule="evenodd" clip-rule="evenodd" d="M142.773 91.8224H142.73C134.814 91.8224 128.16 91.403 122.432 90.4801C122.306 90.4382 122.179 90.522 122.179 90.648C122.138 90.7739 122.223 90.8996 122.349 90.9417C128.117 91.8224 134.771 92.284 142.73 92.284H142.773C142.899 92.284 143.026 92.1581 143.026 92.0322C143.026 91.9483 142.899 91.8224 142.773 91.8224Z" fill="black"/>
<path fill-rule="evenodd" clip-rule="evenodd" d="M90.5854 86.5402C82.687 84.9142 74.4944 83.2467 67.2295 80.2866C67.1032 80.2449 66.9768 80.2866 66.9335 80.4116C66.892 80.5368 66.9335 80.6619 67.0617 80.7034C74.3681 83.6634 82.5607 85.3729 90.5006 86.9987H90.5421C90.6684 86.9987 90.7533 86.9155 90.7533 86.832C90.7966 86.7069 90.7118 86.5819 90.5854 86.5402Z" fill="black"/>
<path fill-rule="evenodd" clip-rule="evenodd" d="M52.3075 69.9045C50.4842 69.5546 48.7043 69.0296 46.7962 68.5048C44.6768 67.8925 42.5142 67.2801 40.2251 66.8428C40.0988 66.8428 39.9706 66.9302 39.9706 67.0178C39.9291 67.1489 40.014 67.2801 40.1403 67.3239C42.3879 67.7175 44.592 68.3299 46.7113 68.9422C48.4931 69.467 50.3579 69.9919 52.2227 70.3855C52.2661 70.3855 52.2661 70.3855 52.2661 70.3855C52.3924 70.3855 52.4773 70.2981 52.5187 70.1669C52.5187 70.0793 52.4358 69.9481 52.3075 69.9045Z" fill="black"/>
<path fill-rule="evenodd" clip-rule="evenodd" d="M84.2406 138.629C80.6487 139.854 75.1373 139.241 70.6686 138.752C69.1659 138.588 67.7461 138.425 66.5771 138.384C66.4507 138.384 66.3678 138.466 66.3678 138.588C66.3263 138.711 66.4507 138.833 66.5771 138.833C67.7046 138.874 69.1244 139.037 70.6272 139.2C73.133 139.486 75.9726 139.813 78.6444 139.813C80.775 139.813 82.7793 139.609 84.4065 139.037C84.5329 138.996 84.5744 138.874 84.5329 138.752C84.4914 138.629 84.3651 138.588 84.2406 138.629Z" fill="black"/>
<path fill-rule="evenodd" clip-rule="evenodd" d="M138.309 135.636C135.98 137.598 130.817 138.559 127.39 139.185C126.926 139.268 126.501 139.352 126.121 139.435C125.994 139.435 125.909 139.561 125.909 139.686C125.951 139.769 126.036 139.853 126.164 139.853C126.164 139.853 126.164 139.853 126.205 139.853C126.586 139.769 127.009 139.686 127.474 139.644C131.157 138.934 136.191 138.016 138.605 135.97C138.69 135.887 138.69 135.762 138.605 135.678C138.52 135.595 138.392 135.553 138.309 135.636Z" fill="black"/>
<path fill-rule="evenodd" clip-rule="evenodd" d="M158.633 139.37C158.497 139.328 158.359 139.411 158.359 139.536L157.631 141.868C157.586 141.951 157.631 142.076 157.769 142.118C157.814 142.118 157.814 142.118 157.86 142.118C157.95 142.118 158.041 142.076 158.088 141.993L158.816 139.661C158.861 139.536 158.77 139.411 158.633 139.37Z" fill="black"/>
<path fill-rule="evenodd" clip-rule="evenodd" d="M162.394 134.42C162.522 134.462 162.65 134.587 162.694 134.796C162.78 135.005 162.822 135.255 162.78 135.589C162.78 135.881 162.694 136.215 162.609 136.59C162.522 136.924 162.437 137.216 162.266 137.55C162.137 137.842 161.966 138.009 161.794 138.176C161.666 138.301 161.494 138.343 161.366 138.343C161.236 138.301 161.151 138.218 161.065 138.009C161.023 137.8 160.98 137.55 160.98 137.216C161.023 136.882 161.065 136.549 161.151 136.215C161.236 135.839 161.366 135.547 161.494 135.255C161.666 134.963 161.838 134.754 161.966 134.629C162.137 134.462 162.266 134.42 162.394 134.42Z" fill="#DCDCDC"/>
<path fill-rule="evenodd" clip-rule="evenodd" d="M162.437 134.083C162.396 134.042 162.354 134.042 162.313 134.042C161.738 134.042 161.202 135.066 160.997 135.967C160.874 136.5 160.791 137.033 160.833 137.483C160.914 138.097 161.161 138.302 161.366 138.343C161.408 138.343 161.449 138.343 161.491 138.343C162.066 138.343 162.601 137.36 162.807 136.418C162.931 135.886 163.012 135.353 162.971 134.944C162.89 134.288 162.643 134.124 162.437 134.083ZM162.396 136.336C162.107 137.401 161.655 137.933 161.491 137.933C161.408 137.893 161.327 137.77 161.285 137.442C161.244 137.032 161.285 136.582 161.408 136.09C161.696 135.026 162.149 134.493 162.313 134.493C162.396 134.493 162.479 134.657 162.518 134.985C162.56 135.353 162.518 135.845 162.396 136.336Z" fill="black"/>
<path fill-rule="evenodd" clip-rule="evenodd" d="M54.0968 123.702C54.2326 123.661 54.3665 123.702 54.5456 123.867C54.7266 123.991 54.8605 124.156 54.9944 124.486C55.1754 124.775 55.264 125.064 55.3545 125.436C55.445 125.766 55.5336 126.097 55.5336 126.427C55.5336 126.716 55.5336 127.005 55.445 127.212C55.3545 127.418 55.264 127.542 55.1301 127.583C54.9944 127.583 54.8605 127.501 54.6814 127.377C54.5022 127.212 54.3665 127.046 54.1874 126.757C54.0516 126.468 53.963 126.138 53.8272 125.808C53.7386 125.436 53.6934 125.147 53.6934 124.817C53.6934 124.486 53.6934 124.239 53.7839 124.032C53.8272 123.826 53.963 123.702 54.0968 123.702Z" fill="#DCDCDC"/>
<path fill-rule="evenodd" clip-rule="evenodd" d="M54.2178 123.283C54.1763 123.283 54.133 123.283 54.0915 123.283C53.8822 123.324 53.6314 123.529 53.5465 124.143C53.5051 124.594 53.5465 125.085 53.6728 125.659C53.9236 126.56 54.4271 127.584 55.055 127.584C55.0964 127.584 55.1398 127.584 55.1813 127.543C55.3491 127.502 55.6414 127.297 55.6847 126.683C55.7262 126.273 55.6847 125.741 55.5584 125.208C55.3076 124.266 54.8042 123.283 54.2178 123.283ZM55.2228 126.642C55.2228 126.969 55.0964 127.133 55.055 127.133C54.8457 127.133 54.3856 126.601 54.133 125.536C54.0085 125.044 53.9651 124.553 54.0085 124.184C54.05 123.857 54.1329 123.734 54.2178 123.693C54.3856 123.693 54.8457 124.225 55.0964 125.29C55.2228 125.782 55.2643 126.273 55.2228 126.642Z" fill="black"/>
<path fill-rule="evenodd" clip-rule="evenodd" d="M50.5392 122.948C50.6674 122.905 50.839 122.948 50.9691 123.119C51.1388 123.248 51.2689 123.505 51.3971 123.804C51.5687 124.104 51.6535 124.404 51.7402 124.789C51.8251 125.174 51.9118 125.474 51.9118 125.816C51.9533 126.159 51.9118 126.416 51.8251 126.63C51.7817 126.844 51.6535 126.929 51.5253 126.972C51.3971 127.015 51.2688 126.972 51.0973 126.801C50.9257 126.63 50.7975 126.416 50.6259 126.116C50.4977 125.816 50.3676 125.474 50.2827 125.132C50.196 124.746 50.1545 124.446 50.1545 124.104C50.1111 123.761 50.1545 123.547 50.2393 123.333C50.2827 123.119 50.3676 122.991 50.5392 122.948Z" fill="#DCDCDC"/>
<path fill-rule="evenodd" clip-rule="evenodd" d="M50.5938 122.717C50.5504 122.717 50.5089 122.717 50.4674 122.717C50.2996 122.802 50.0055 122.973 49.964 123.657C49.9225 124.084 49.964 124.64 50.0903 125.196C50.3411 126.179 50.8446 127.204 51.4724 127.204C51.5139 127.204 51.5573 127.204 51.5573 127.204C51.7666 127.162 52.0588 126.948 52.1022 126.264C52.1437 125.837 52.1022 125.281 51.9759 124.726C51.7251 123.743 51.2217 122.717 50.5938 122.717ZM51.6403 126.221C51.6403 126.606 51.5139 126.734 51.4724 126.734C51.2631 126.734 50.8031 126.179 50.5504 125.11C50.426 124.597 50.3826 124.084 50.426 123.7C50.426 123.358 50.5504 123.187 50.5938 123.187C50.8031 123.187 51.2631 123.743 51.5139 124.854C51.6402 125.367 51.6818 125.837 51.6403 126.221Z" fill="black"/>
<path fill-rule="evenodd" clip-rule="evenodd" d="M165.066 132.198C165.198 132.241 165.33 132.326 165.373 132.54C165.462 132.755 165.462 133.011 165.462 133.354C165.416 133.696 165.373 133.996 165.286 134.382C165.198 134.724 165.111 135.067 164.936 135.366C164.804 135.666 164.628 135.88 164.453 136.051C164.321 136.222 164.189 136.265 164.014 136.222C163.884 136.18 163.795 136.094 163.708 135.88C163.663 135.666 163.62 135.409 163.663 135.067C163.663 134.724 163.708 134.424 163.795 134.039C163.884 133.654 164.014 133.354 164.146 133.054C164.321 132.755 164.496 132.498 164.628 132.369C164.804 132.198 164.936 132.155 165.066 132.198Z" fill="#DCDCDC"/>
<path fill-rule="evenodd" clip-rule="evenodd" d="M164.877 131.966C164.834 131.966 164.792 131.966 164.751 131.966C164.164 131.966 163.661 132.992 163.41 133.975C163.284 134.531 163.242 135.086 163.284 135.556C163.325 136.197 163.578 136.411 163.787 136.454C163.829 136.454 163.87 136.454 163.914 136.454C164.5 136.454 165.045 135.428 165.254 134.445C165.422 133.89 165.463 133.334 165.422 132.907C165.337 132.223 165.086 132.052 164.877 131.966ZM164.834 134.36C164.583 135.428 164.123 135.984 163.914 135.984C163.87 135.984 163.746 135.856 163.702 135.471C163.661 135.086 163.746 134.616 163.829 134.103C164.123 132.992 164.583 132.437 164.792 132.437C164.834 132.437 164.919 132.607 164.96 132.949C165.001 133.334 164.96 133.847 164.834 134.36Z" fill="black"/>
<path fill-rule="evenodd" clip-rule="evenodd" d="M84.7765 114.264C84.6445 114.223 84.5144 114.264 84.471 114.389C84.1222 115.138 82.4252 115.969 81.7728 116.219C81.6427 116.261 81.5994 116.385 81.6427 116.51C81.6861 116.593 81.7728 116.635 81.8595 116.635C81.9048 116.635 81.9482 116.635 81.9482 116.635C82.0783 116.593 84.3843 115.595 84.9066 114.555C84.9499 114.472 84.9066 114.347 84.7765 114.264Z" fill="black"/>
<path fill-rule="evenodd" clip-rule="evenodd" d="M91.4022 113.404C90.9893 113.279 88.4702 114.909 88.4702 114.909C88.3872 115.201 88.8002 116.747 89.5846 117.75C90.4104 118.711 92.6825 117.082 92.6825 116.497C92.6825 115.87 91.8566 113.572 91.4022 113.404Z" fill="#D8D8D8"/>
<path fill-rule="evenodd" clip-rule="evenodd" d="M91.3022 113.278C91.2608 113.278 91.2212 113.278 91.1797 113.278C90.5707 113.278 88.5796 114.521 88.2138 114.811C88.1723 114.811 88.1327 114.853 88.0912 114.936C88.0101 115.309 88.4174 116.925 89.2301 117.961C89.4318 118.209 89.758 118.334 90.1238 118.334C91.1797 118.334 92.6825 117.173 92.6825 116.552C92.6825 115.972 91.9113 113.486 91.3022 113.278ZM90.1238 117.878C89.8787 117.878 89.7165 117.795 89.5958 117.67C88.8643 116.8 88.5381 115.474 88.5381 115.102C89.4318 114.521 90.8139 113.693 91.1797 113.693C91.4644 113.858 92.277 115.93 92.277 116.552C92.277 116.842 91.0175 117.878 90.1238 117.878Z" fill="black"/>
<path fill-rule="evenodd" clip-rule="evenodd" d="M96.9094 112.194C96.0213 112.367 94.3281 110.339 93.9057 109.649C93.6078 109.131 93.8624 108.57 93.8624 108.57C93.9057 108.441 93.8624 108.311 93.7361 108.268C93.6078 108.182 93.4815 108.268 93.44 108.354C93.44 108.398 93.1006 109.174 93.523 109.908C93.8209 110.339 95.5141 112.669 96.8264 112.669C96.8679 112.669 96.9527 112.669 97.0376 112.626C97.1639 112.626 97.2073 112.496 97.2073 112.367C97.1639 112.238 97.0376 112.151 96.9094 112.194Z" fill="black"/>
<path fill-rule="evenodd" clip-rule="evenodd" d="M152.685 119.958C152.559 119.958 152.261 119.915 151.922 119.871C151.369 119.784 150.647 119.697 150.01 119.697C149.075 119.697 148.522 119.871 148.224 120.307C148.013 120.612 147.97 121.221 148.183 121.744C148.437 122.31 148.777 122.702 149.201 122.79C150.095 122.964 150.986 123.051 151.837 123.051C152.814 123.051 153.366 122.92 153.407 122.92C153.494 122.92 153.536 122.877 153.579 122.79C153.705 122.572 153.96 121.178 153.536 120.437C153.323 120.132 153.068 119.958 152.685 119.958ZM153.196 122.485C152.983 122.528 152.516 122.572 151.837 122.572C151.03 122.572 150.136 122.485 149.288 122.31C149.031 122.267 148.777 121.962 148.607 121.57C148.479 121.178 148.479 120.786 148.607 120.568C148.777 120.307 149.244 120.176 150.01 120.176C150.604 120.176 151.326 120.263 151.878 120.35C152.218 120.394 152.516 120.437 152.685 120.437C152.898 120.437 153.027 120.525 153.153 120.699C153.407 121.178 153.323 122.136 153.196 122.485Z" fill="black"/>
<path fill-rule="evenodd" clip-rule="evenodd" d="M156.234 124.78C155.715 124.115 155.039 123.366 154.203 123.283C154.083 123.283 154.043 123.366 154.003 123.491C154.003 123.616 154.083 123.741 154.203 123.741C154.841 123.782 155.397 124.448 155.915 125.072C156.076 125.28 156.234 125.446 156.394 125.612C156.473 125.654 156.513 125.696 156.553 125.696C156.632 125.696 156.673 125.654 156.713 125.612C156.792 125.529 156.792 125.363 156.713 125.28C156.553 125.155 156.394 124.947 156.234 124.78Z" fill="black"/>
<path fill-rule="evenodd" clip-rule="evenodd" d="M143.441 108.268C137.652 111.51 130.721 113.326 124.465 113.326H124.423C124.297 113.326 124.212 113.456 124.212 113.585C124.212 113.715 124.297 113.801 124.423 113.801H124.465C130.806 113.801 137.779 111.943 143.652 108.657C143.737 108.614 143.78 108.441 143.737 108.355C143.695 108.225 143.526 108.182 143.441 108.268Z" fill="black"/>
<path fill-rule="evenodd" clip-rule="evenodd" d="M91.5923 109.084L95.9554 104.293L100.445 105.344L112.069 89.9629L116.894 92.3583L130.572 78.7845C130.572 78.7845 129.229 77.902 129.691 77.7338C130.112 77.5658 136.615 74.582 136.615 74.582L133.426 81.8102L132.376 80.8856L116.894 95.6781L112.488 92.9886L100.78 107.151L96.5437 105.638L91.5923 109.084Z" fill="#939393"/>
<path fill-rule="evenodd" clip-rule="evenodd" d="M91.6549 109.462C91.5719 109.462 91.5304 109.42 91.487 109.378C91.4041 109.294 91.4041 109.169 91.487 109.085L95.8426 104.27C95.886 104.228 95.9689 104.186 96.0538 104.186L100.409 105.233L111.885 90.0332C111.968 89.9075 112.094 89.9075 112.177 89.9494L116.827 92.2942L130.229 79.0626C129.599 78.6439 129.307 78.267 129.348 78.0576C129.348 77.8902 129.475 77.8064 129.599 77.7647C129.935 77.639 134.709 75.4616 136.468 74.6242C136.553 74.5823 136.677 74.5823 136.719 74.6661C136.804 74.708 136.804 74.8335 136.804 74.9174L133.621 82.1193C133.621 82.2031 133.536 82.245 133.453 82.245C133.412 82.2867 133.327 82.245 133.285 82.2031L132.363 81.4493L117.036 96.0208C116.951 96.1046 116.868 96.1046 116.783 96.0627L112.595 93.4666L100.996 107.41C100.911 107.494 100.828 107.536 100.743 107.494L96.6402 106.028L91.7812 109.42C91.7397 109.462 91.6982 109.462 91.6549 109.462ZM96.0952 104.688L93.1633 107.913L96.4723 105.568C96.5138 105.568 96.5968 105.526 96.6816 105.568L100.743 106.991L112.345 93.006C112.428 92.9222 112.554 92.8805 112.637 92.9641L116.868 95.5602L132.195 80.9469C132.28 80.905 132.448 80.905 132.531 80.9469L133.327 81.6587L136.132 75.2941C134.667 75.9641 130.647 77.8064 129.852 78.1414C129.976 78.3089 130.312 78.602 130.689 78.8533C130.73 78.8952 130.772 78.9371 130.772 79.0207C130.813 79.0626 130.772 79.1464 130.73 79.1883L117.036 92.7129C116.994 92.7967 116.868 92.7967 116.783 92.7548L112.135 90.4519L100.702 105.61C100.619 105.693 100.534 105.693 100.451 105.693L96.0952 104.688Z" fill="black"/>
<path fill-rule="evenodd" clip-rule="evenodd" d="M91.8545 122.864H90.084V113.09H93.625V122.864H91.8545Z" fill="#E6E6E6"/>
<path fill-rule="evenodd" clip-rule="evenodd" d="M93.8155 123.24H89.8955V112.901H93.8155V123.24ZM90.3405 122.774H93.4101V113.367H90.3405V122.774Z" fill="black"/>
<path fill-rule="evenodd" clip-rule="evenodd" d="M96.0972 122.863H94.2324V110.447H97.9601V122.863H96.0972Z" fill="#E6E6E6"/>
<path fill-rule="evenodd" clip-rule="evenodd" d="M98.1504 123.052H94.0437V110.258H98.1504V123.052ZM94.5094 122.591H97.6847V110.72H94.5094V122.591Z" fill="black"/>
<path fill-rule="evenodd" clip-rule="evenodd" d="M100.434 122.864H98.5691V112.335H102.297V122.864H100.434Z" fill="#E6E6E6"/>
<path fill-rule="evenodd" clip-rule="evenodd" d="M102.487 123.241H98.3804V112.146H102.487V123.241ZM98.8461 122.775H102.021V112.612H98.8461V122.775Z" fill="black"/>
<path fill-rule="evenodd" clip-rule="evenodd" d="M104.771 122.863H102.906V108.371H106.633V122.863H104.771Z" fill="#E6E6E6"/>
<path fill-rule="evenodd" clip-rule="evenodd" d="M106.635 123.241H102.529V108.182H106.635V123.241ZM102.994 122.774H106.17V108.606H102.994V122.774Z" fill="black"/>
<path fill-rule="evenodd" clip-rule="evenodd" d="M109.107 122.864H107.242V102.896H110.97V122.864H109.107Z" fill="#E6E6E6"/>
<path fill-rule="evenodd" clip-rule="evenodd" d="M111.16 123.052H107.054V102.519H111.16V123.052ZM107.519 122.589H110.695V102.982H107.519V122.589Z" fill="black"/>
<path fill-rule="evenodd" clip-rule="evenodd" d="M113.35 122.863H111.579V97.0449H115.12V122.863H113.35Z" fill="#E6E6E6"/>
<path fill-rule="evenodd" clip-rule="evenodd" d="M115.311 123.052H111.391V96.6675H115.311V123.052ZM111.794 122.588H114.866V97.1318H111.794V122.588Z" fill="black"/>
<path fill-rule="evenodd" clip-rule="evenodd" d="M117.592 122.863H115.728V101.198H119.455V122.863H117.592Z" fill="#E6E6E6"/>
<path fill-rule="evenodd" clip-rule="evenodd" d="M119.646 123.052H115.539V101.009H119.646V123.052ZM116.005 122.589H119.18V101.471H116.005V122.589Z" fill="black"/>
<path fill-rule="evenodd" clip-rule="evenodd" d="M121.928 122.864H120.064V96.29H123.791V122.864H121.928Z" fill="#E6E6E6"/>
<path fill-rule="evenodd" clip-rule="evenodd" d="M123.793 123.052H119.875V95.9121H123.793V123.052ZM120.284 122.588H123.386V96.3763H120.284V122.588Z" fill="black"/>
<path fill-rule="evenodd" clip-rule="evenodd" d="M126.243 122.864H124.401V92.5146H128.128V122.864H126.243Z" fill="#E6E6E6"/>
<path fill-rule="evenodd" clip-rule="evenodd" d="M128.13 123.052H124.024V92.3257H128.13V123.052ZM124.489 122.59H127.665V92.7874H124.489V122.59Z" fill="black"/>
<path fill-rule="evenodd" clip-rule="evenodd" d="M130.602 122.863H128.738V89.8721H132.465V122.863H130.602Z" fill="#E6E6E6"/>
<path fill-rule="evenodd" clip-rule="evenodd" d="M132.655 123.052H128.549V89.6831H132.655V123.052ZM129.015 122.589H132.231V90.146H129.015V122.589Z" fill="black"/>
<path fill-rule="evenodd" clip-rule="evenodd" d="M134.844 122.863H133.074V85.9077H136.615V122.863H134.844Z" fill="#E6E6E6"/>
<path fill-rule="evenodd" clip-rule="evenodd" d="M136.806 123.052H132.885V85.7192H136.806V123.052ZM133.331 122.589H136.361V86.1823H133.331V122.589Z" fill="black"/>
</g>
</g>
<defs>
<clipPath id="clip0_17966_9079">
<rect width="205" height="150" fill="white"/>
</clipPath>
</defs>
</svg>
