<svg width="210" height="38" viewBox="0 0 210 38" fill="none" xmlns="http://www.w3.org/2000/svg">
<path d="M36.5518 36.2669H37.1621C37.1948 36.6289 37.3775 36.9226 37.7101 37.1481C38.0428 37.3708 38.4601 37.4822 38.9621 37.4822C39.4432 37.4822 39.8383 37.3722 40.1472 37.1523C40.459 36.9323 40.615 36.6525 40.615 36.3129C40.615 36.0317 40.5066 35.8034 40.2897 35.628C40.0729 35.4498 39.7254 35.3036 39.2472 35.1895L38.4497 34.9974C37.8527 34.8554 37.4161 34.6605 37.1399 34.4127C36.8666 34.165 36.73 33.8434 36.73 33.4481C36.73 32.9636 36.9379 32.5655 37.3537 32.2537C37.7695 31.9391 38.2953 31.7818 38.9309 31.7818C39.5546 31.7818 40.0729 31.9377 40.4858 32.2495C40.9016 32.5586 41.1184 32.9525 41.1362 33.4314H40.5259C40.4962 33.0917 40.3343 32.8189 40.0402 32.6129C39.7462 32.4041 39.3705 32.2996 38.9131 32.2996C38.4646 32.2996 38.0933 32.4054 37.7992 32.617C37.5082 32.8258 37.3626 33.0959 37.3626 33.4272C37.3626 33.6861 37.4681 33.8977 37.6789 34.062C37.8898 34.2234 38.2329 34.3612 38.7081 34.4754L39.4031 34.6424C40.0506 34.7956 40.5184 34.9974 40.8065 35.248C41.0947 35.4985 41.2387 35.8326 41.2387 36.2502C41.2387 36.7792 41.0278 37.2038 40.6061 37.5239C40.1843 37.8413 39.6185 38 38.9086 38C38.2373 38 37.6849 37.8413 37.2512 37.5239C36.8176 37.2038 36.5844 36.7848 36.5518 36.2669Z" fill="#6C757D"/>
<path d="M51.0945 37.9039H50.4841V32.3957H48.3634V31.8779H53.2196V32.3957H51.0945V37.9039Z" fill="#6C757D"/>
<path d="M61.3334 31.8779V35.7658C61.3334 36.2781 61.5012 36.6901 61.8368 37.0019C62.1725 37.3137 62.6313 37.4696 63.2135 37.4696C63.7957 37.4696 64.2546 37.3137 64.5902 37.0019C64.9258 36.6901 65.0936 36.2781 65.0936 35.7658V31.8779H65.704V35.7992C65.704 36.4562 65.4798 36.988 65.0313 37.3945C64.5828 37.7982 63.9768 38 63.2135 38C62.4502 38 61.8442 37.7982 61.3958 37.3945C60.9502 36.988 60.7275 36.4562 60.7275 35.7992V31.8779H61.3334Z" fill="#6C757D"/>
<path d="M73.3613 31.8779H75.4463C76.4087 31.8779 77.1571 32.1423 77.6918 32.6713C78.2264 33.1975 78.4937 33.9367 78.4937 34.8888C78.4937 35.8437 78.2264 36.5857 77.6918 37.1147C77.1601 37.6409 76.4116 37.9039 75.4463 37.9039H73.3613V31.8779ZM73.9716 32.3957V37.3861H75.4107C76.2007 37.3861 76.8082 37.1703 77.2329 36.7388C77.6606 36.3073 77.8744 35.692 77.8744 34.893C77.8744 34.0912 77.6606 33.4745 77.2329 33.043C76.8082 32.6115 76.2007 32.3957 75.4107 32.3957H73.9716Z" fill="#6C757D"/>
<path d="M86.601 37.9039H85.995V31.8779H86.601V37.9039Z" fill="#6C757D"/>
<path d="M97.0774 31.7818C97.9744 31.7818 98.6857 32.0616 99.2115 32.6212C99.7372 33.1808 100 33.9381 100 34.893C100 35.8479 99.7372 36.6052 99.2115 37.1648C98.6857 37.7216 97.9744 38 97.0774 38C96.1804 38 95.469 37.7216 94.9433 37.1648C94.4205 36.6052 94.1592 35.8479 94.1592 34.893C94.1592 33.9381 94.422 33.1808 94.9478 32.6212C95.4735 32.0616 96.1833 31.7818 97.0774 31.7818ZM98.7526 33.0096C98.3397 32.5446 97.7813 32.3122 97.0774 32.3122C96.3734 32.3122 95.815 32.5446 95.4022 33.0096C94.9893 33.4745 94.7829 34.1023 94.7829 34.893C94.7829 35.6837 94.9893 36.3115 95.4022 36.7764C95.815 37.2386 96.3734 37.4696 97.0774 37.4696C97.7813 37.4696 98.3397 37.2372 98.7526 36.7722C99.1684 36.3073 99.3763 35.6809 99.3763 34.893C99.3763 34.1023 99.1684 33.4745 98.7526 33.0096Z" fill="#6C757D"/>
<path d="M48.5422 24.0347V28.0938H36.5018V10.7131H41.6585V24.0347H48.5422Z" fill="#466CD3"/>
<path d="M57.6272 28.0938H52.4705V22.5893L46.4747 10.7131H51.9841L55.061 17.7593H55.1583L58.2353 10.7131H63.6231L57.6272 22.5893V28.0938Z" fill="#466CD3"/>
<path d="M70.0689 28.0938H65.2041V10.7131H69.2054L75.9797 19.7226H76.077V10.7131H80.9418V28.0938H76.9891L70.1662 18.9397H70.0689V28.0938Z" fill="#466CD3"/>
<path d="M82.6566 28.0938L87.8255 19.3854V19.289L82.6444 10.7131H88.6525L91.4132 16.2537H91.5105L94.2835 10.7131H99.9996L94.5632 19.3131V19.4095L99.9753 28.0938H94.2348L91.2187 22.8543H91.1092L88.1052 28.0938H82.6566Z" fill="#466CD3"/>
<mask id="mask0_19137_22665" style="mask-type:luminance" maskUnits="userSpaceOnUse" x="10" y="0" width="8" height="10">
<path d="M10.836 5.20615C10.864 4.46644 11.015 3.65665 11.3635 2.82569L10.8497 2.05072C10.104 0.924851 10.1605 0 10.1605 0L11.797 1.99958L13.5175 4.10232L17.8571 9.40545L12.7562 7.6902L10.8355 5.20659L10.836 5.20615Z" fill="white"/>
</mask>
<g mask="url(#mask0_19137_22665)">
<path d="M17.8571 0H10.104V9.40545H17.8571V0Z" fill="url(#paint0_linear_19137_22665)"/>
<path fill-rule="evenodd" clip-rule="evenodd" d="M10.8359 5.20615C10.8529 4.76048 10.9145 4.2888 11.0371 3.80257L15.4152 6.42063L17.8576 9.40501L12.7566 7.68976L10.8359 5.20615Z" fill="url(#paint1_linear_19137_22665)"/>
</g>
<mask id="mask1_19137_22665" style="mask-type:luminance" maskUnits="userSpaceOnUse" x="0" y="9" width="25" height="29">
<path d="M0 23.9862C0 31.7266 6.53581 38 14.597 38C16.5035 38 18.3245 37.6491 19.9941 37.0108C14.0676 35.4864 9.98187 27.9153 12.6428 23.4761C14.2999 20.7126 17.4057 20.8576 18.6983 21.943C19.5436 22.6527 19.2741 23.6313 18.7796 24.4808C21.951 23.0693 24.3585 19.6507 24.3585 19.6507L21.4992 11.6356C19.444 10.5745 17.0939 9.97191 14.597 9.97191C6.65841 9.97191 0 16.1285 0 23.9857" fill="white"/>
</mask>
<g mask="url(#mask1_19137_22665)">
<path d="M24.3589 9.97237H0V38.0005H24.3589V9.97237Z" fill="url(#paint2_linear_19137_22665)"/>
<path fill-rule="evenodd" clip-rule="evenodd" d="M19.9945 37.0112C14.068 35.4869 9.98234 27.9157 12.6432 23.4766C14.3004 20.713 17.4062 20.8581 18.6987 21.9434C19.5441 22.6531 19.2745 23.6318 18.78 24.4812C21.9515 23.0697 24.3589 19.6511 24.3589 19.6511L22.2252 13.6704L14.9634 16.2634C11.2878 16.2034 7.91011 17.4858 6.78422 20.0822C3.19582 28.3592 9.68709 37.1871 19.9941 37.0108" fill="url(#paint3_linear_19137_22665)"/>
<path fill-rule="evenodd" clip-rule="evenodd" d="M24.359 19.6515L21.4997 11.6364C19.4445 10.5754 17.0945 9.97276 14.5975 9.97276C12.7815 9.97276 11.033 10.2959 9.41577 10.8866C5.73415 14.0799 4.61011 18.1452 5.95915 22.818C10.1256 17.9874 14.9575 15.1348 24.3594 19.652" fill="url(#paint4_linear_19137_22665)"/>
<path fill-rule="evenodd" clip-rule="evenodd" d="M24.2693 19.7741C24.3281 19.6952 24.3588 19.6515 24.3588 19.6515L24.2891 19.4562L23.9736 19.6004C23.9396 19.6467 24.0475 19.7053 24.2693 19.7741ZM19.9944 37.0112C14.5919 35.6213 10.7197 29.2073 12.0935 24.721H12.0926C11.3873 26.0316 11.5545 28.5954 12.1757 30.174C12.5986 31.2483 13.19 32.2732 13.8994 33.1946C15.5221 35.3013 17.2771 36.5889 19.9944 37.0112Z" fill="#4F83D5"/>
</g>
<mask id="mask2_19137_22665" style="mask-type:luminance" maskUnits="userSpaceOnUse" x="3" y="0" width="22" height="21">
<path d="M14.9561 16.2638C12.7438 16.2404 10.4052 16.8527 8.25909 18.6641C7.75951 19.0859 7.2705 19.5726 6.79526 20.1311C6.79526 20.1311 5.76947 15.823 9.42492 10.8773C8.41796 10.0949 6.44583 7.53191 6.57623 3.97754L5.56285 3.22857C4.09213 2.13973 3.72388 0.953033 3.72388 0.953033L6.72914 2.75028L9.88868 4.63965L21.4763 11.5694L24.3594 19.6511C24.3594 19.6511 19.983 16.3167 14.9561 16.2633" fill="white"/>
</mask>
<g mask="url(#mask2_19137_22665)">
<path d="M24.3589 0.953033H3.72339V20.1311H24.3589V0.953033Z" fill="#499AE5"/>
<path fill-rule="evenodd" clip-rule="evenodd" d="M9.42443 10.8773C8.41747 10.0949 6.44534 7.53191 6.57575 3.97754L5.56236 3.22857C4.09164 2.13973 3.72339 0.953033 3.72339 0.953033L6.72865 2.75028L9.88819 4.63965L21.4758 11.5694L22.5305 14.5265L9.42443 10.8773Z" fill="url(#paint5_linear_19137_22665)"/>
</g>
<mask id="mask3_19137_22665" style="mask-type:luminance" maskUnits="userSpaceOnUse" x="11" y="22" width="19" height="16">
<path d="M29.1302 22.662C29.0833 29.9277 13.8063 32.789 12.0927 24.7211C10.7193 29.2069 14.5924 35.6214 19.9945 37.0113C25.3847 34.9509 29.1944 29.8959 29.1944 23.9862C29.1944 23.5397 29.1729 23.0979 29.1302 22.662Z" fill="white"/>
</mask>
<g mask="url(#mask3_19137_22665)">
<path d="M29.1945 22.662H10.7189V37.0113H29.1945V22.662Z" fill="url(#paint6_linear_19137_22665)"/>
<path fill-rule="evenodd" clip-rule="evenodd" d="M29.1301 22.662C29.0833 29.9277 13.8062 32.789 12.0926 24.7211C11.3832 27.0372 12.0729 29.8673 13.6492 32.2548C19.0894 35.1461 29.6646 30.7952 29.1301 22.6624" fill="url(#paint7_linear_19137_22665)"/>
<path fill-rule="evenodd" clip-rule="evenodd" d="M13.8871 27.8205C13.0124 27.0579 12.3718 26.0356 12.0922 24.721C10.7188 29.2069 14.5919 35.6213 19.994 37.0112C16.2422 35.6359 13.72 31.37 13.8871 27.8205Z" fill="#29259C"/>
</g>
<rect x="110.5" y="9" width="69" height="20" rx="3.5" stroke="#6C757D"/>
<path d="M123.996 16.464L122.892 16.476C122.772 15.312 122.064 14.736 120.768 14.736C120.156 14.736 119.676 14.856 119.34 15.108C119.004 15.348 118.836 15.696 118.836 16.152C118.836 16.308 118.86 16.452 118.908 16.572C118.956 16.692 119.04 16.788 119.16 16.884C119.28 16.98 119.388 17.052 119.484 17.124C119.592 17.184 119.76 17.244 119.976 17.304C120.204 17.376 120.384 17.424 120.516 17.448C120.66 17.472 120.864 17.52 121.152 17.58C121.512 17.652 121.8 17.724 122.028 17.784C122.268 17.844 122.544 17.94 122.856 18.072C123.18 18.216 123.432 18.36 123.624 18.528C123.816 18.696 123.972 18.912 124.116 19.176C124.26 19.452 124.32 19.764 124.32 20.1C124.32 20.7 124.152 21.204 123.816 21.612C123.48 22.02 123.072 22.296 122.592 22.452C122.112 22.62 121.584 22.692 120.996 22.692C119.928 22.692 119.076 22.44 118.428 21.936C117.78 21.432 117.456 20.676 117.456 19.68H118.548C118.572 20.412 118.824 20.94 119.28 21.276C119.748 21.612 120.348 21.78 121.092 21.78C121.68 21.78 122.184 21.648 122.604 21.408C123.012 21.168 123.228 20.772 123.228 20.22C123.228 19.956 123.168 19.74 123.06 19.56C122.94 19.38 122.772 19.236 122.532 19.116C122.292 18.996 122.052 18.912 121.812 18.84C121.572 18.768 121.248 18.684 120.864 18.6C120.804 18.588 120.768 18.576 120.744 18.564C119.856 18.372 119.28 18.204 119.016 18.084C118.176 17.724 117.768 17.112 117.768 16.224C117.768 15.408 118.068 14.808 118.668 14.4C119.268 13.992 120 13.788 120.852 13.788C121.788 13.788 122.544 14.016 123.096 14.46C123.66 14.916 123.96 15.576 123.996 16.464ZM128.201 16.308V17.148H126.965V20.76C126.965 20.964 126.965 21.096 126.965 21.156C126.965 21.228 126.989 21.312 127.037 21.42C127.073 21.528 127.145 21.6 127.241 21.624C127.337 21.66 127.469 21.672 127.649 21.672C127.793 21.672 127.985 21.66 128.201 21.636V22.512C127.913 22.548 127.649 22.56 127.421 22.56C127.133 22.56 126.893 22.536 126.701 22.464C126.509 22.404 126.353 22.332 126.257 22.248C126.161 22.176 126.089 22.032 126.041 21.828C125.993 21.624 125.957 21.456 125.957 21.312C125.945 21.168 125.945 20.94 125.945 20.604V20.556V20.496V20.436V17.148H124.901V16.308H125.945V14.472H126.965V16.308H128.201ZM134.818 21.684V22.488C134.602 22.56 134.374 22.608 134.122 22.608C133.534 22.608 133.234 22.296 133.222 21.696C132.634 22.344 131.89 22.68 130.978 22.68C130.366 22.68 129.886 22.524 129.526 22.212C129.166 21.9 128.998 21.468 128.998 20.928C128.998 19.824 129.73 19.176 131.194 18.996C131.29 18.972 131.422 18.96 131.614 18.948C132.31 18.864 132.73 18.768 132.898 18.672C133.078 18.54 133.174 18.324 133.174 18.012C133.174 17.328 132.706 16.992 131.77 16.992C131.29 16.992 130.918 17.088 130.678 17.28C130.426 17.472 130.282 17.796 130.234 18.252H129.238C129.25 17.58 129.49 17.064 129.946 16.704C130.402 16.332 131.026 16.152 131.83 16.152C132.694 16.152 133.342 16.344 133.774 16.752C133.906 16.872 134.002 17.04 134.074 17.256C134.134 17.46 134.17 17.628 134.182 17.76C134.182 17.892 134.194 18.096 134.194 18.36C134.194 18.66 134.182 19.116 134.17 19.728C134.146 20.352 134.146 20.808 134.146 21.108C134.146 21.336 134.17 21.492 134.23 21.588C134.29 21.684 134.398 21.72 134.566 21.72C134.626 21.72 134.71 21.708 134.818 21.684ZM133.174 19.296C133.102 19.344 133.018 19.392 132.946 19.44C132.862 19.476 132.754 19.512 132.634 19.536C132.514 19.56 132.43 19.572 132.382 19.584C132.334 19.596 132.238 19.608 132.07 19.632C131.902 19.656 131.806 19.668 131.806 19.668C131.554 19.692 131.386 19.716 131.314 19.728C131.242 19.74 131.098 19.776 130.882 19.836C130.666 19.884 130.522 19.956 130.438 20.028C130.342 20.1 130.258 20.196 130.174 20.34C130.09 20.484 130.054 20.652 130.054 20.844C130.054 21.156 130.162 21.408 130.378 21.6C130.594 21.78 130.906 21.876 131.29 21.876C131.77 21.876 132.214 21.732 132.598 21.444C132.982 21.156 133.174 20.808 133.174 20.424V19.296ZM136.74 16.308V17.268C137.244 16.524 137.952 16.14 138.852 16.14C139.572 16.14 140.1 16.332 140.424 16.716C140.748 17.1 140.916 17.652 140.916 18.384V22.5H139.896V18.852C139.896 18.552 139.884 18.312 139.86 18.144C139.836 17.976 139.788 17.784 139.716 17.592C139.632 17.4 139.5 17.256 139.308 17.16C139.116 17.076 138.864 17.028 138.564 17.028C137.388 17.028 136.8 17.772 136.8 19.26V22.5H135.78V16.308H136.74ZM148.028 13.956V22.5H147.068V21.588C146.672 22.308 145.988 22.668 145.028 22.668C144.14 22.668 143.444 22.38 142.928 21.792C142.412 21.204 142.16 20.4 142.16 19.392C142.16 18.456 142.4 17.688 142.88 17.064C143.36 16.44 144.068 16.128 144.98 16.128C145.868 16.128 146.54 16.464 147.008 17.136V13.956H148.028ZM145.112 17.004C144.524 17.004 144.056 17.22 143.72 17.64C143.384 18.072 143.216 18.648 143.216 19.368C143.216 20.124 143.384 20.724 143.732 21.168C144.08 21.612 144.548 21.828 145.136 21.828C145.724 21.828 146.192 21.624 146.528 21.192C146.864 20.76 147.032 20.172 147.032 19.404C147.032 18.732 146.864 18.156 146.552 17.7C146.24 17.244 145.76 17.004 145.112 17.004ZM155.045 21.684V22.488C154.829 22.56 154.601 22.608 154.349 22.608C153.761 22.608 153.461 22.296 153.449 21.696C152.861 22.344 152.117 22.68 151.205 22.68C150.593 22.68 150.113 22.524 149.753 22.212C149.393 21.9 149.225 21.468 149.225 20.928C149.225 19.824 149.957 19.176 151.421 18.996C151.517 18.972 151.649 18.96 151.841 18.948C152.537 18.864 152.957 18.768 153.125 18.672C153.305 18.54 153.401 18.324 153.401 18.012C153.401 17.328 152.933 16.992 151.997 16.992C151.517 16.992 151.145 17.088 150.905 17.28C150.653 17.472 150.509 17.796 150.461 18.252H149.465C149.477 17.58 149.717 17.064 150.173 16.704C150.629 16.332 151.253 16.152 152.057 16.152C152.921 16.152 153.569 16.344 154.001 16.752C154.133 16.872 154.229 17.04 154.301 17.256C154.361 17.46 154.397 17.628 154.409 17.76C154.409 17.892 154.421 18.096 154.421 18.36C154.421 18.66 154.409 19.116 154.397 19.728C154.373 20.352 154.373 20.808 154.373 21.108C154.373 21.336 154.397 21.492 154.457 21.588C154.517 21.684 154.625 21.72 154.793 21.72C154.853 21.72 154.937 21.708 155.045 21.684ZM153.401 19.296C153.329 19.344 153.245 19.392 153.173 19.44C153.089 19.476 152.981 19.512 152.861 19.536C152.741 19.56 152.657 19.572 152.609 19.584C152.561 19.596 152.465 19.608 152.297 19.632C152.129 19.656 152.033 19.668 152.033 19.668C151.781 19.692 151.613 19.716 151.541 19.728C151.469 19.74 151.325 19.776 151.109 19.836C150.893 19.884 150.749 19.956 150.665 20.028C150.569 20.1 150.485 20.196 150.401 20.34C150.317 20.484 150.281 20.652 150.281 20.844C150.281 21.156 150.389 21.408 150.605 21.6C150.821 21.78 151.133 21.876 151.517 21.876C151.997 21.876 152.441 21.732 152.825 21.444C153.209 21.156 153.401 20.808 153.401 20.424V19.296ZM159.234 16.164L159.222 17.232C159.15 17.22 159.066 17.22 158.958 17.22C158.634 17.22 158.346 17.268 158.106 17.364C157.866 17.46 157.686 17.592 157.542 17.748C157.398 17.916 157.29 18.108 157.194 18.348C157.11 18.588 157.05 18.828 157.026 19.068C157.002 19.308 156.99 19.584 156.99 19.884V22.5H155.97V16.308H156.942V17.64C157.35 16.656 158.106 16.164 159.234 16.164ZM165.371 13.956V22.5H164.411V21.588C164.015 22.308 163.331 22.668 162.371 22.668C161.483 22.668 160.787 22.38 160.271 21.792C159.755 21.204 159.503 20.4 159.503 19.392C159.503 18.456 159.743 17.688 160.223 17.064C160.703 16.44 161.411 16.128 162.323 16.128C163.211 16.128 163.883 16.464 164.351 17.136V13.956H165.371ZM162.455 17.004C161.867 17.004 161.399 17.22 161.063 17.64C160.727 18.072 160.559 18.648 160.559 19.368C160.559 20.124 160.727 20.724 161.075 21.168C161.423 21.612 161.891 21.828 162.479 21.828C163.067 21.828 163.535 21.624 163.871 21.192C164.207 20.76 164.375 20.172 164.375 19.404C164.375 18.732 164.207 18.156 163.895 17.7C163.583 17.244 163.103 17.004 162.455 17.004ZM171.501 18.108H170.481C170.409 17.364 169.905 16.98 168.969 16.98C168.573 16.98 168.261 17.064 168.045 17.208C167.817 17.364 167.709 17.568 167.709 17.82C167.709 17.892 167.709 17.964 167.733 18.036C167.745 18.108 167.769 18.168 167.817 18.216C167.865 18.264 167.901 18.312 167.937 18.348C167.973 18.396 168.033 18.432 168.117 18.468C168.201 18.504 168.261 18.528 168.309 18.552C168.357 18.576 168.429 18.612 168.549 18.636C168.669 18.66 168.753 18.684 168.801 18.696C168.849 18.708 168.933 18.732 169.077 18.756C169.221 18.792 169.305 18.816 169.353 18.816C169.641 18.888 169.869 18.936 170.013 18.972C170.157 19.02 170.361 19.092 170.625 19.2C170.889 19.308 171.081 19.416 171.225 19.536C171.357 19.656 171.477 19.812 171.585 20.016C171.693 20.22 171.753 20.448 171.753 20.7C171.753 21.3 171.513 21.792 171.045 22.152C170.577 22.512 169.953 22.692 169.185 22.692C168.345 22.692 167.697 22.512 167.241 22.14C166.785 21.78 166.545 21.24 166.521 20.544H167.529C167.577 21.42 168.141 21.852 169.209 21.852C169.665 21.852 170.025 21.768 170.301 21.576C170.577 21.384 170.721 21.132 170.721 20.82C170.721 20.616 170.649 20.448 170.505 20.304C170.361 20.172 170.193 20.076 170.025 20.016C169.845 19.956 169.593 19.884 169.269 19.8C169.221 19.8 169.185 19.788 169.161 19.776C169.089 19.764 168.933 19.728 168.693 19.68C168.453 19.632 168.285 19.584 168.189 19.548C168.081 19.524 167.925 19.476 167.733 19.404C167.541 19.332 167.397 19.26 167.301 19.188C167.205 19.116 167.097 19.02 166.977 18.9C166.857 18.78 166.785 18.648 166.737 18.492C166.689 18.336 166.665 18.156 166.665 17.952C166.665 17.4 166.869 16.956 167.301 16.62C167.733 16.296 168.309 16.128 169.029 16.128C169.749 16.128 170.349 16.308 170.805 16.644C171.261 16.992 171.501 17.484 171.501 18.108Z" fill="#6C757D"/>
<defs>
<linearGradient id="paint0_linear_19137_22665" x1="21.457" y1="11.8802" x2="6.52495" y2="-3.67312" gradientUnits="userSpaceOnUse">
<stop stop-color="#2E279D"/>
<stop offset="0.46" stop-color="#4D80E4"/>
<stop offset="1" stop-color="#46B3E6"/>
</linearGradient>
<linearGradient id="paint1_linear_19137_22665" x1="18.9765" y1="8.08915" x2="9.32279" y2="4.76895" gradientUnits="userSpaceOnUse">
<stop stop-color="#363DAF"/>
<stop offset="1" stop-color="#4471D2"/>
</linearGradient>
<linearGradient id="paint2_linear_19137_22665" x1="12.1795" y1="10.2272" x2="12.1795" y2="39.8286" gradientUnits="userSpaceOnUse">
<stop stop-color="#2E279D"/>
<stop offset="0.0001" stop-color="#4262CC"/>
<stop offset="1" stop-color="#4A93E5"/>
</linearGradient>
<linearGradient id="paint3_linear_19137_22665" x1="15.0966" y1="16.8175" x2="15.075" y2="37.0134" gradientUnits="userSpaceOnUse">
<stop stop-color="#4871D7"/>
<stop offset="1" stop-color="#3A53BB"/>
</linearGradient>
<linearGradient id="paint4_linear_19137_22665" x1="24.7621" y1="15.0762" x2="5.77548" y2="15.0762" gradientUnits="userSpaceOnUse">
<stop stop-color="#3336A9"/>
<stop offset="1" stop-color="#425FCA"/>
</linearGradient>
<linearGradient id="paint5_linear_19137_22665" x1="22.5121" y1="14.5472" x2="3.73212" y2="14.5472" gradientUnits="userSpaceOnUse">
<stop stop-color="#6CAAE8"/>
<stop offset="1" stop-color="#93D5EB"/>
</linearGradient>
<linearGradient id="paint6_linear_19137_22665" x1="12.0463" y1="31.8713" x2="38.3334" y2="24.5356" gradientUnits="userSpaceOnUse">
<stop stop-color="#2E279D"/>
<stop offset="0.46" stop-color="#4D80E4"/>
<stop offset="1" stop-color="#46B3E6"/>
</linearGradient>
<linearGradient id="paint7_linear_19137_22665" x1="11.8134" y1="26.6259" x2="30.272" y2="26.6259" gradientUnits="userSpaceOnUse">
<stop stop-color="#3438AB"/>
<stop offset="1" stop-color="#3C59BF"/>
</linearGradient>
</defs>
</svg>
