<svg width="100" height="38" viewBox="0 0 100 38" fill="none" xmlns="http://www.w3.org/2000/svg">
<path d="M36.5518 36.2669H37.1621C37.1948 36.6289 37.3775 36.9226 37.7101 37.1481C38.0428 37.3708 38.4601 37.4822 38.9621 37.4822C39.4432 37.4822 39.8383 37.3722 40.1472 37.1523C40.459 36.9323 40.615 36.6525 40.615 36.3129C40.615 36.0317 40.5066 35.8034 40.2897 35.628C40.0729 35.4498 39.7254 35.3036 39.2472 35.1895L38.4497 34.9974C37.8527 34.8554 37.4161 34.6605 37.1399 34.4127C36.8666 34.165 36.73 33.8434 36.73 33.4481C36.73 32.9636 36.9379 32.5655 37.3537 32.2537C37.7695 31.9391 38.2953 31.7818 38.9309 31.7818C39.5546 31.7818 40.0729 31.9377 40.4858 32.2495C40.9016 32.5586 41.1184 32.9525 41.1362 33.4314H40.5259C40.4962 33.0917 40.3343 32.8189 40.0402 32.6129C39.7462 32.4041 39.3705 32.2996 38.9131 32.2996C38.4646 32.2996 38.0933 32.4054 37.7992 32.617C37.5082 32.8258 37.3626 33.0959 37.3626 33.4272C37.3626 33.6861 37.4681 33.8977 37.6789 34.062C37.8898 34.2234 38.2329 34.3612 38.7081 34.4754L39.4031 34.6424C40.0506 34.7956 40.5184 34.9974 40.8065 35.248C41.0947 35.4985 41.2387 35.8326 41.2387 36.2502C41.2387 36.7792 41.0278 37.2038 40.6061 37.5239C40.1843 37.8413 39.6185 38 38.9086 38C38.2373 38 37.6849 37.8413 37.2512 37.5239C36.8176 37.2038 36.5844 36.7848 36.5518 36.2669Z" fill="#6C757D"/>
<path d="M51.0945 37.9039H50.4841V32.3957H48.3634V31.8779H53.2196V32.3957H51.0945V37.9039Z" fill="#6C757D"/>
<path d="M61.3334 31.8779V35.7658C61.3334 36.2781 61.5012 36.6901 61.8368 37.0019C62.1725 37.3137 62.6313 37.4696 63.2135 37.4696C63.7957 37.4696 64.2546 37.3137 64.5902 37.0019C64.9258 36.6901 65.0936 36.2781 65.0936 35.7658V31.8779H65.704V35.7992C65.704 36.4562 65.4798 36.988 65.0313 37.3945C64.5828 37.7982 63.9768 38 63.2135 38C62.4502 38 61.8442 37.7982 61.3958 37.3945C60.9502 36.988 60.7275 36.4562 60.7275 35.7992V31.8779H61.3334Z" fill="#6C757D"/>
<path d="M73.3613 31.8779H75.4463C76.4087 31.8779 77.1571 32.1423 77.6918 32.6713C78.2264 33.1975 78.4937 33.9367 78.4937 34.8888C78.4937 35.8437 78.2264 36.5857 77.6918 37.1147C77.1601 37.6409 76.4116 37.9039 75.4463 37.9039H73.3613V31.8779ZM73.9716 32.3957V37.3861H75.4107C76.2007 37.3861 76.8082 37.1703 77.2329 36.7388C77.6606 36.3073 77.8744 35.692 77.8744 34.893C77.8744 34.0912 77.6606 33.4745 77.2329 33.043C76.8082 32.6115 76.2007 32.3957 75.4107 32.3957H73.9716Z" fill="#6C757D"/>
<path d="M86.601 37.9039H85.995V31.8779H86.601V37.9039Z" fill="#6C757D"/>
<path d="M97.0774 31.7818C97.9744 31.7818 98.6857 32.0616 99.2115 32.6212C99.7372 33.1808 100 33.9381 100 34.893C100 35.8479 99.7372 36.6052 99.2115 37.1648C98.6857 37.7216 97.9744 38 97.0774 38C96.1804 38 95.469 37.7216 94.9433 37.1648C94.4205 36.6052 94.1592 35.8479 94.1592 34.893C94.1592 33.9381 94.422 33.1808 94.9478 32.6212C95.4735 32.0616 96.1833 31.7818 97.0774 31.7818ZM98.7526 33.0096C98.3397 32.5446 97.7813 32.3122 97.0774 32.3122C96.3734 32.3122 95.815 32.5446 95.4022 33.0096C94.9893 33.4745 94.7829 34.1023 94.7829 34.893C94.7829 35.6837 94.9893 36.3115 95.4022 36.7764C95.815 37.2386 96.3734 37.4696 97.0774 37.4696C97.7813 37.4696 98.3397 37.2372 98.7526 36.7722C99.1684 36.3073 99.3763 35.6809 99.3763 34.893C99.3763 34.1023 99.1684 33.4745 98.7526 33.0096Z" fill="#6C757D"/>
<path d="M48.5422 24.0347V28.0938H36.5018V10.7131H41.6585V24.0347H48.5422Z" fill="#466CD3"/>
<path d="M57.6272 28.0938H52.4705V22.5893L46.4747 10.7131H51.9841L55.061 17.7593H55.1583L58.2353 10.7131H63.6231L57.6272 22.5893V28.0938Z" fill="#466CD3"/>
<path d="M70.0689 28.0938H65.2041V10.7131H69.2054L75.9797 19.7226H76.077V10.7131H80.9418V28.0938H76.9891L70.1662 18.9397H70.0689V28.0938Z" fill="#466CD3"/>
<path d="M82.6566 28.0938L87.8255 19.3854V19.289L82.6444 10.7131H88.6525L91.4132 16.2537H91.5105L94.2835 10.7131H99.9996L94.5632 19.3131V19.4095L99.9753 28.0938H94.2348L91.2187 22.8543H91.1092L88.1052 28.0938H82.6566Z" fill="#466CD3"/>
<mask id="mask0_19137_22634" style="mask-type:luminance" maskUnits="userSpaceOnUse" x="10" y="0" width="8" height="10">
<path d="M10.836 5.20615C10.864 4.46644 11.015 3.65665 11.3635 2.82569L10.8497 2.05072C10.104 0.924851 10.1605 0 10.1605 0L11.797 1.99958L13.5175 4.10232L17.8571 9.40545L12.7562 7.6902L10.8355 5.20659L10.836 5.20615Z" fill="white"/>
</mask>
<g mask="url(#mask0_19137_22634)">
<path d="M17.8571 0H10.104V9.40545H17.8571V0Z" fill="url(#paint0_linear_19137_22634)"/>
<path fill-rule="evenodd" clip-rule="evenodd" d="M10.8359 5.20616C10.8529 4.76049 10.9145 4.2888 11.0371 3.80257L15.4152 6.42064L17.8576 9.40502L12.7566 7.68977L10.8359 5.20616Z" fill="url(#paint1_linear_19137_22634)"/>
</g>
<mask id="mask1_19137_22634" style="mask-type:luminance" maskUnits="userSpaceOnUse" x="0" y="9" width="25" height="29">
<path d="M0 23.9862C0 31.7266 6.53581 38 14.597 38C16.5035 38 18.3245 37.6491 19.9941 37.0108C14.0676 35.4864 9.98187 27.9153 12.6428 23.4761C14.2999 20.7126 17.4057 20.8576 18.6983 21.943C19.5436 22.6527 19.2741 23.6313 18.7796 24.4808C21.951 23.0693 24.3585 19.6507 24.3585 19.6507L21.4992 11.6356C19.444 10.5745 17.0939 9.97191 14.597 9.97191C6.65841 9.97191 0 16.1285 0 23.9857" fill="white"/>
</mask>
<g mask="url(#mask1_19137_22634)">
<path d="M24.3589 9.97237H0V38.0005H24.3589V9.97237Z" fill="url(#paint2_linear_19137_22634)"/>
<path fill-rule="evenodd" clip-rule="evenodd" d="M19.9945 37.0112C14.068 35.4869 9.98234 27.9157 12.6432 23.4766C14.3004 20.713 17.4062 20.8581 18.6987 21.9434C19.5441 22.6531 19.2745 23.6317 18.78 24.4812C21.9515 23.0697 24.3589 19.6511 24.3589 19.6511L22.2252 13.6704L14.9634 16.2634C11.2878 16.2034 7.91011 17.4858 6.78422 20.0822C3.19582 28.3592 9.68709 37.1871 19.9941 37.0108" fill="url(#paint3_linear_19137_22634)"/>
<path fill-rule="evenodd" clip-rule="evenodd" d="M24.359 19.6515L21.4997 11.6364C19.4445 10.5754 17.0945 9.97276 14.5975 9.97276C12.7815 9.97276 11.033 10.2959 9.41577 10.8866C5.73415 14.0799 4.61011 18.1452 5.95915 22.818C10.1256 17.9874 14.9575 15.1348 24.3594 19.652" fill="url(#paint4_linear_19137_22634)"/>
<path fill-rule="evenodd" clip-rule="evenodd" d="M24.2693 19.7741C24.3281 19.6952 24.3588 19.6515 24.3588 19.6515L24.2891 19.4562L23.9736 19.6004C23.9396 19.6467 24.0475 19.7053 24.2693 19.7741ZM19.9944 37.0112C14.5919 35.6213 10.7197 29.2073 12.0935 24.721H12.0926C11.3873 26.0316 11.5545 28.5954 12.1757 30.174C12.5986 31.2483 13.19 32.2732 13.8994 33.1946C15.5221 35.3013 17.2771 36.5889 19.9944 37.0112Z" fill="#4F83D5"/>
</g>
<mask id="mask2_19137_22634" style="mask-type:luminance" maskUnits="userSpaceOnUse" x="3" y="0" width="22" height="21">
<path d="M14.9561 16.2638C12.7438 16.2404 10.4052 16.8527 8.25909 18.6641C7.75951 19.0859 7.2705 19.5726 6.79526 20.1311C6.79526 20.1311 5.76947 15.823 9.42492 10.8773C8.41796 10.0949 6.44583 7.53191 6.57623 3.97754L5.56285 3.22857C4.09213 2.13973 3.72388 0.953033 3.72388 0.953033L6.72914 2.75028L9.88868 4.63965L21.4763 11.5694L24.3594 19.6511C24.3594 19.6511 19.983 16.3167 14.9561 16.2633" fill="white"/>
</mask>
<g mask="url(#mask2_19137_22634)">
<path d="M24.3589 0.953033H3.72339V20.1311H24.3589V0.953033Z" fill="#499AE5"/>
<path fill-rule="evenodd" clip-rule="evenodd" d="M9.42443 10.8773C8.41747 10.0949 6.44534 7.53191 6.57575 3.97754L5.56236 3.22857C4.09164 2.13973 3.72339 0.953033 3.72339 0.953033L6.72865 2.75028L9.88819 4.63965L21.4758 11.5694L22.5305 14.5265L9.42443 10.8773Z" fill="url(#paint5_linear_19137_22634)"/>
</g>
<mask id="mask3_19137_22634" style="mask-type:luminance" maskUnits="userSpaceOnUse" x="11" y="22" width="19" height="16">
<path d="M29.1302 22.662C29.0833 29.9277 13.8063 32.7891 12.0927 24.7211C10.7193 29.2069 14.5924 35.6214 19.9945 37.0113C25.3847 34.9509 29.1944 29.8959 29.1944 23.9862C29.1944 23.5397 29.1729 23.098 29.1302 22.662Z" fill="white"/>
</mask>
<g mask="url(#mask3_19137_22634)">
<path d="M29.1945 22.662H10.7189V37.0113H29.1945V22.662Z" fill="url(#paint6_linear_19137_22634)"/>
<path fill-rule="evenodd" clip-rule="evenodd" d="M29.1301 22.662C29.0833 29.9277 13.8062 32.7891 12.0926 24.7211C11.3832 27.0372 12.0729 29.8673 13.6492 32.2548C19.0894 35.1461 29.6646 30.7952 29.1301 22.6624" fill="url(#paint7_linear_19137_22634)"/>
<path fill-rule="evenodd" clip-rule="evenodd" d="M13.8871 27.8205C13.0124 27.0579 12.3718 26.0356 12.0922 24.721C10.7188 29.2069 14.5919 35.6213 19.994 37.0112C16.2422 35.6359 13.72 31.37 13.8871 27.8205Z" fill="#29259C"/>
</g>
<defs>
<linearGradient id="paint0_linear_19137_22634" x1="21.457" y1="11.8802" x2="6.52495" y2="-3.67312" gradientUnits="userSpaceOnUse">
<stop stop-color="#2E279D"/>
<stop offset="0.46" stop-color="#4D80E4"/>
<stop offset="1" stop-color="#46B3E6"/>
</linearGradient>
<linearGradient id="paint1_linear_19137_22634" x1="18.9765" y1="8.08916" x2="9.32279" y2="4.76896" gradientUnits="userSpaceOnUse">
<stop stop-color="#363DAF"/>
<stop offset="1" stop-color="#4471D2"/>
</linearGradient>
<linearGradient id="paint2_linear_19137_22634" x1="12.1795" y1="10.2272" x2="12.1795" y2="39.8286" gradientUnits="userSpaceOnUse">
<stop stop-color="#2E279D"/>
<stop offset="0.0001" stop-color="#4262CC"/>
<stop offset="1" stop-color="#4A93E5"/>
</linearGradient>
<linearGradient id="paint3_linear_19137_22634" x1="15.0966" y1="16.8175" x2="15.075" y2="37.0134" gradientUnits="userSpaceOnUse">
<stop stop-color="#4871D7"/>
<stop offset="1" stop-color="#3A53BB"/>
</linearGradient>
<linearGradient id="paint4_linear_19137_22634" x1="24.7621" y1="15.0762" x2="5.77548" y2="15.0762" gradientUnits="userSpaceOnUse">
<stop stop-color="#3336A9"/>
<stop offset="1" stop-color="#425FCA"/>
</linearGradient>
<linearGradient id="paint5_linear_19137_22634" x1="22.5121" y1="14.5472" x2="3.73212" y2="14.5472" gradientUnits="userSpaceOnUse">
<stop stop-color="#6CAAE8"/>
<stop offset="1" stop-color="#93D5EB"/>
</linearGradient>
<linearGradient id="paint6_linear_19137_22634" x1="12.0463" y1="31.8713" x2="38.3334" y2="24.5356" gradientUnits="userSpaceOnUse">
<stop stop-color="#2E279D"/>
<stop offset="0.46" stop-color="#4D80E4"/>
<stop offset="1" stop-color="#46B3E6"/>
</linearGradient>
<linearGradient id="paint7_linear_19137_22634" x1="11.8134" y1="26.6259" x2="30.272" y2="26.6259" gradientUnits="userSpaceOnUse">
<stop stop-color="#3438AB"/>
<stop offset="1" stop-color="#3C59BF"/>
</linearGradient>
</defs>
</svg>
