<svg width="300" height="200" viewBox="0 0 300 200" fill="none" xmlns="http://www.w3.org/2000/svg">
<path d="M277.93 130.19C277.945 131.347 277.73 132.495 277.297 133.568C276.865 134.641 276.224 135.617 275.411 136.44C274.598 137.263 273.63 137.916 272.562 138.362C271.495 138.808 270.35 139.037 269.193 139.037H206.786C207.693 140.694 208.039 142.601 207.771 144.472C207.503 146.342 206.636 148.075 205.301 149.412C204.791 149.919 204.222 150.364 203.606 150.736H215.135C219.957 150.736 224.038 154.542 224.1 159.359C224.115 160.516 223.899 161.664 223.466 162.737C223.034 163.809 222.392 164.786 221.58 165.609C220.767 166.432 219.799 167.086 218.732 167.532C217.665 167.978 216.52 168.209 215.363 168.209H158.058C156.146 168.209 154.286 167.581 152.765 166.423C151.243 165.264 150.144 163.638 149.635 161.794C149.127 159.951 149.237 157.991 149.949 156.216C150.661 154.442 151.936 152.949 153.577 151.968H119.249C114.427 151.968 110.345 148.162 110.283 143.345C110.263 141.785 110.661 140.248 111.436 138.894C112.21 137.54 113.333 136.418 114.688 135.645C113.269 134.908 112.079 133.796 111.249 132.429C110.418 131.062 109.98 129.494 109.98 127.895V117.195C109.979 115.828 110.298 114.481 110.913 113.261C111.528 112.041 112.421 110.982 113.52 110.17H51.8305C47.013 110.17 42.9365 106.373 42.865 101.561C42.8478 100.402 43.0612 99.2523 43.4928 98.1772C43.9243 97.1021 44.5654 96.1236 45.3787 95.2986C46.192 94.4736 47.1613 93.8186 48.2301 93.3718C49.299 92.925 50.446 92.6952 51.6045 92.6958H55.9645C57.7547 92.6958 59.4716 91.9847 60.7375 90.7188C62.0033 89.4529 62.7145 87.7361 62.7145 85.9458V85.9408C62.7145 84.1506 62.0033 82.4337 60.7375 81.1679C59.4716 79.902 57.7547 79.1908 55.9645 79.1908H26.942C24.6253 79.1908 22.4034 78.2705 20.7652 76.6324C19.1271 74.9942 18.2067 72.7723 18.2067 70.4556C18.2067 68.1389 19.1271 65.917 20.7652 64.2788C22.4034 62.6407 24.6253 61.7203 26.942 61.7203H68.9045C71.2212 61.7209 73.4433 60.8012 75.0819 59.1634C76.7205 57.5257 77.6414 55.3041 77.642 52.9873C77.6426 50.6706 76.7228 48.4485 75.0851 46.8099C73.4473 45.1713 71.2257 44.2504 68.909 44.2498H56.9235C52.0965 44.2498 48.015 40.4338 47.963 35.6073C47.9504 34.4521 48.1672 33.3059 48.6006 32.235C49.0341 31.1641 49.6757 30.1898 50.4883 29.3686C51.3009 28.5473 52.2683 27.8954 53.3345 27.4506C54.4008 27.0059 55.5447 26.777 56.7 26.7773H136.4C141.094 26.7773 145.123 30.3893 145.35 35.0828C145.427 36.6314 145.091 38.1726 144.377 39.5488H247.167C249.483 39.5488 251.705 40.4692 253.343 42.1073C254.981 43.7455 255.902 45.9674 255.902 48.2841C255.902 50.6008 254.981 52.8227 253.343 54.4608C251.705 56.099 249.483 57.0193 247.167 57.0193H209.093C209.091 58.899 208.344 60.7013 207.015 62.0307C205.686 63.36 203.884 64.108 202.005 64.1103H159.088C160.36 65.311 161.242 66.8659 161.62 68.5736C161.997 70.2813 161.854 72.0632 161.207 73.6883C160.561 75.3134 159.441 76.707 157.994 77.6885C156.546 78.6701 154.837 79.1943 153.088 79.1933H141.088C140.616 79.1926 140.148 79.285 139.711 79.4652C139.274 79.6455 138.878 79.91 138.543 80.2437C138.209 80.5774 137.944 80.9737 137.763 81.41C137.581 81.8463 137.488 82.314 137.488 82.7863V82.7913C137.488 83.2637 137.581 83.7314 137.763 84.1677C137.944 84.604 138.209 85.0003 138.543 85.334C138.878 85.6677 139.274 85.9322 139.711 86.1125C140.148 86.2927 140.616 86.3851 141.088 86.3843H238.495C240.812 86.3843 243.034 87.3047 244.672 88.9428C246.31 90.581 247.23 92.8029 247.23 95.1196C247.23 97.4363 246.31 99.6582 244.672 101.296C243.034 102.935 240.812 103.855 238.495 103.855H213.305C214.582 104.636 215.637 105.733 216.369 107.039C217.102 108.346 217.486 109.818 217.486 111.316V113.807C217.487 115.41 217.046 116.982 216.212 118.351C215.378 119.72 214.184 120.833 212.759 121.567H268.965C273.787 121.567 277.868 125.374 277.93 130.191" fill="white"/>
<path d="M260.463 76.9004V87.6584M255.084 82.2794H265.842" stroke="#343A40" stroke-miterlimit="10" stroke-linecap="round"/>
<path d="M130.763 6V15.502M126.012 10.751H135.514" stroke="#343A40" stroke-miterlimit="10" stroke-linecap="round"/>
<path d="M273.107 21.1228C273.107 22.3732 272.736 23.5955 272.041 24.6351C271.347 25.6748 270.359 26.4851 269.204 26.9636C268.049 27.4421 266.778 27.5672 265.551 27.3233C264.325 27.0793 263.199 26.4771 262.314 25.5929C261.43 24.7087 260.828 23.5822 260.584 22.3558C260.34 21.1295 260.466 19.8583 260.944 18.7031C261.423 17.5479 262.233 16.5606 263.273 15.866C264.313 15.1714 265.535 14.8007 266.785 14.8008C267.616 14.8008 268.438 14.9643 269.205 15.282C269.972 15.5997 270.669 16.0654 271.256 16.6525C271.843 17.2395 272.308 17.9365 272.626 18.7035C272.944 19.4705 273.107 20.2926 273.107 21.1228Z" stroke="#343A40" stroke-miterlimit="10"/>
<path d="M73.644 124.353C73.6445 125.603 73.2741 126.826 72.5797 127.866C71.8853 128.906 70.8981 129.716 69.7429 130.195C68.5878 130.674 67.3165 130.8 66.09 130.556C64.8635 130.312 63.7368 129.71 62.8524 128.826C61.968 127.942 61.3657 126.816 61.1216 125.589C60.8775 124.363 61.0026 123.091 61.4811 121.936C61.9596 120.781 62.77 119.793 63.8098 119.099C64.8496 118.404 66.072 118.033 67.3225 118.033C68.9987 118.033 70.6062 118.699 71.7916 119.884C72.9771 121.069 73.6433 122.677 73.644 124.353Z" stroke="#343A40" stroke-miterlimit="10"/>
<path d="M284.479 111.135C284.479 111.74 284.3 112.331 283.964 112.835C283.627 113.338 283.149 113.73 282.59 113.961C282.031 114.193 281.416 114.253 280.822 114.135C280.229 114.017 279.684 113.726 279.256 113.298C278.828 112.87 278.536 112.325 278.418 111.731C278.3 111.138 278.361 110.523 278.592 109.963C278.824 109.404 279.216 108.926 279.719 108.59C280.222 108.254 280.814 108.074 281.419 108.074C282.231 108.074 283.009 108.397 283.583 108.971C284.157 109.545 284.479 110.323 284.479 111.135Z" stroke="#343A40" stroke-miterlimit="10"/>
<path d="M95.7631 98.8281C95.763 99.4332 95.5834 100.025 95.2472 100.528C94.9109 101.031 94.433 101.423 93.8738 101.655C93.3147 101.886 92.6995 101.947 92.106 101.829C91.5124 101.711 90.9672 101.419 90.5393 100.991C90.1114 100.563 89.82 100.018 89.7019 99.4247C89.5838 98.8311 89.6444 98.2159 89.8759 97.6568C90.1074 97.0977 90.4996 96.6198 91.0027 96.2835C91.5059 95.9472 92.0974 95.7677 92.7026 95.7676C93.5143 95.7676 94.2927 96.09 94.8667 96.664C95.4406 97.2379 95.7631 98.0164 95.7631 98.8281Z" stroke="#343A40" stroke-miterlimit="10"/>
<path d="M150.344 194.153C188.089 194.153 218.688 191.784 218.688 188.861C218.688 185.939 188.089 183.569 150.344 183.569C112.599 183.569 82 185.939 82 188.861C82 191.784 112.599 194.153 150.344 194.153Z" fill="#E9ECEF"/>
<path d="M172.74 187.364V177.864H115.74V187.364H172.74Z" fill="#FFC107" stroke="#343A40"/>
<path d="M129.769 163.864L125.24 177.864H163.74L159.348 163.864H129.769Z" fill="white" stroke="#343A40"/>
<path d="M134.24 150.114H155.034L158.25 160.364H130.902L134.24 150.114Z" fill="#FFC107"/>
<path d="M172.74 177.864V187.364H115.74M155.034 150.114H134.24L130.902 160.364H158.25L155.034 150.114Z" stroke="#343A40"/>
<path d="M141.74 126.864L135.431 146.364H153.858L147.74 126.864H141.74Z" fill="white" stroke="#343A40"/>
<rect x="174.74" y="107.864" width="7.5" height="80" fill="#DEE2E6" stroke="#343A40"/>
<path d="M223.74 87.8574L197.233 114.364H159.747L133.24 87.8574V50.3711L159.747 23.8643H197.233L223.74 50.3711V87.8574Z" fill="white" stroke="black"/>
<path d="M215.24 83.9834L193.859 105.364H163.621L142.24 83.9834V53.7451L142.386 53.5996L163.475 32.5107L163.621 32.3643H193.858L215.24 53.7461V83.9834Z" fill="#DC3545" stroke="black"/>
<path d="M178.63 95.6922C180.45 95.6922 181.926 94.2164 181.926 92.3959C181.926 90.5754 180.45 89.0996 178.63 89.0996C176.809 89.0996 175.333 90.5754 175.333 92.3959C175.333 94.2164 176.809 95.6922 178.63 95.6922Z" fill="white"/>
<path d="M178.667 43.334H178.666C176.826 43.334 175.333 44.6383 175.333 46.2472V79.7541C175.333 81.363 176.826 82.6673 178.666 82.6673H178.667C180.508 82.6673 182 81.363 182 79.7541V46.2472C182 44.6383 180.508 43.334 178.667 43.334Z" fill="white"/>
</svg>
