<svg width="300" height="200" viewBox="0 0 300 200" fill="none" xmlns="http://www.w3.org/2000/svg">
<path d="M209.948 65.7734V74.1952M205.737 69.9846H214.158" stroke="#343A40" stroke-miterlimit="10" stroke-linecap="round"/>
<path d="M102.845 25.5V32.9388M99.1257 29.2192H106.565" stroke="#343A40" stroke-miterlimit="10" stroke-linecap="round"/>
<path d="M240.506 32.2582C240.506 33.2368 240.216 34.1934 239.672 35.007C239.129 35.8206 238.356 36.4548 237.452 36.8293C236.548 37.2038 235.553 37.3017 234.593 37.1108C233.634 36.9199 232.752 36.4487 232.06 35.7568C231.368 35.0648 230.897 34.1832 230.706 33.2235C230.515 32.2637 230.613 31.2689 230.987 30.3648C231.362 29.4608 231.996 28.688 232.81 28.1444C233.623 27.6007 234.58 27.3105 235.559 27.3105C236.871 27.3105 238.129 27.8318 239.057 28.7597C239.985 29.6876 240.506 30.946 240.506 32.2582Z" stroke="#343A40" stroke-miterlimit="10" stroke-linecap="round"/>
<path d="M65.8995 136.972C65.8995 137.951 65.6093 138.907 65.0657 139.721C64.522 140.535 63.7493 141.169 62.8452 141.543C61.9411 141.918 60.9463 142.016 59.9866 141.825C59.0268 141.634 58.1452 141.163 57.4533 140.471C56.7613 139.779 56.2901 138.897 56.0992 137.937C55.9083 136.978 56.0063 135.983 56.3808 135.079C56.7552 134.175 57.3894 133.402 58.203 132.858C59.0167 132.315 59.9733 132.024 60.9518 132.024C62.264 132.024 63.5225 132.546 64.4504 133.474C65.3782 134.401 65.8995 135.66 65.8995 136.972Z" stroke="#343A40" stroke-miterlimit="10" stroke-linecap="round"/>
<path d="M256.847 131.289C256.847 131.763 256.706 132.226 256.443 132.62C256.18 133.014 255.805 133.321 255.368 133.502C254.93 133.683 254.448 133.731 253.984 133.638C253.519 133.546 253.092 133.318 252.758 132.983C252.423 132.648 252.194 132.221 252.102 131.756C252.01 131.292 252.057 130.81 252.238 130.372C252.419 129.935 252.726 129.561 253.12 129.297C253.514 129.034 253.977 128.894 254.451 128.894C255.086 128.894 255.696 129.146 256.145 129.595C256.594 130.045 256.847 130.654 256.847 131.289Z" stroke="#343A40" stroke-miterlimit="10" stroke-linecap="round"/>
<path d="M83.2174 116.989C83.2173 117.462 83.0767 117.925 82.8135 118.319C82.5502 118.713 82.1761 119.02 81.7384 119.201C81.3007 119.383 80.8191 119.43 80.3545 119.338C79.8899 119.245 79.4631 119.017 79.1281 118.682C78.7931 118.347 78.565 117.92 78.4726 117.456C78.3801 116.991 78.4275 116.509 78.6088 116.072C78.79 115.634 79.097 115.26 79.4908 114.997C79.8847 114.733 80.3477 114.593 80.8215 114.593C81.4569 114.593 82.0663 114.845 82.5156 115.295C82.9649 115.744 83.2174 116.353 83.2174 116.989Z" stroke="#343A40" stroke-miterlimit="10" stroke-linecap="round"/>
<path d="M246.406 118.977C246.417 119.883 246.249 120.782 245.91 121.622C245.572 122.461 245.07 123.226 244.433 123.87C243.797 124.514 243.039 125.026 242.203 125.375C241.368 125.724 240.471 125.903 239.566 125.903H190.71C191.42 127.201 191.69 128.693 191.48 130.158C191.271 131.622 190.592 132.979 189.547 134.025C189.148 134.422 188.702 134.77 188.22 135.061H197.245C199.066 135.044 200.821 135.741 202.133 137.004C203.446 138.266 204.211 139.993 204.264 141.813C204.275 142.718 204.107 143.617 203.768 144.457C203.429 145.297 202.927 146.062 202.291 146.706C201.655 147.351 200.897 147.862 200.061 148.212C199.226 148.562 198.329 148.742 197.423 148.742H152.563C151.066 148.742 149.61 148.251 148.419 147.343C147.228 146.436 146.367 145.163 145.969 143.72C145.571 142.277 145.657 140.743 146.215 139.353C146.772 137.964 147.77 136.795 149.056 136.028H122.181C120.36 136.045 118.605 135.348 117.293 134.086C115.98 132.823 115.216 131.097 115.162 129.276C115.147 128.056 115.459 126.853 116.065 125.793C116.671 124.734 117.55 123.855 118.61 123.25C117.499 122.674 116.567 121.803 115.917 120.733C115.266 119.663 114.923 118.434 114.923 117.182V108.804C114.922 107.734 115.172 106.679 115.653 105.724C116.135 104.769 116.834 103.94 117.695 103.305H69.4034C67.5846 103.322 65.8315 102.626 64.5196 101.366C63.2077 100.106 62.4414 98.3828 62.3847 96.5648C62.3712 95.6581 62.5382 94.7577 62.8759 93.9161C63.2136 93.0745 63.7154 92.3084 64.3519 91.6625C64.9885 91.0166 65.7472 90.5038 66.5838 90.1538C67.4204 89.8039 68.3182 89.6238 69.2251 89.6241H72.6394C74.0405 89.6236 75.384 89.0668 76.3747 88.0761C77.3654 87.0854 77.9222 85.7419 77.9227 84.3408V84.3371C77.9222 82.936 77.3654 81.5925 76.3747 80.6018C75.384 79.6111 74.0405 79.0543 72.6394 79.0538H49.9184C49.0137 79.0644 48.1159 78.8953 47.277 78.5564C46.4381 78.2175 45.6748 77.7155 45.0313 77.0795C44.3878 76.4435 43.8769 75.6861 43.5282 74.8512C43.1795 74.0163 43 73.1205 43 72.2157C43 71.311 43.1795 70.4152 43.5282 69.5803C43.8769 68.7454 44.3878 67.988 45.0313 67.352C45.6748 66.716 46.4381 66.214 47.277 65.8751C48.1159 65.5362 49.0137 65.3671 49.9184 65.3777H82.7672C83.6654 65.3779 84.5549 65.2013 85.3848 64.8578C86.2147 64.5143 86.9689 64.0107 87.6042 63.3757C88.2395 62.7408 88.7435 61.9869 89.0874 61.1572C89.4314 60.3274 89.6085 59.4381 89.6088 58.5399C89.609 57.6417 89.4324 56.7522 89.0889 55.9223C88.7454 55.0924 88.2418 54.3382 87.6068 53.7029C86.9719 53.0676 86.218 52.5636 85.3883 52.2197C84.5585 51.8757 83.6692 51.6986 82.771 51.6983H73.3891C71.566 51.7147 69.8095 51.0147 68.4975 49.7489C67.1855 48.4831 66.423 46.7527 66.3741 44.9303C66.3645 44.026 66.5344 43.1288 66.8739 42.2907C67.2134 41.4525 67.7158 40.69 68.352 40.0474C68.9882 39.4047 69.7455 38.8946 70.5801 38.5465C71.4148 38.1985 72.3102 38.0195 73.2145 38.0199H135.609C137.387 38.0026 139.104 38.6668 140.407 39.8761C141.71 41.0853 142.501 42.7478 142.617 44.5218C142.677 45.7342 142.414 46.9409 141.855 48.0184H222.322C223.227 48.0078 224.124 48.1769 224.963 48.5158C225.802 48.8547 226.566 49.3567 227.209 49.9927C227.853 50.6287 228.363 51.3861 228.712 52.221C229.061 53.0559 229.24 53.9516 229.24 54.8564C229.24 55.7612 229.061 56.657 228.712 57.4918C228.363 58.3267 227.853 59.0841 227.209 59.7201C226.566 60.3562 225.802 60.8582 224.963 61.1971C224.124 61.536 223.227 61.705 222.322 61.6945H192.516C192.515 63.1666 191.93 64.5781 190.889 65.6191C189.848 66.6601 188.437 67.2453 186.965 67.2461H153.369C154.365 68.186 155.056 69.4033 155.352 70.7404C155.648 72.0774 155.536 73.4726 155.03 74.7451C154.524 76.0176 153.647 77.1087 152.514 77.8772C151.38 78.6457 150.042 79.0561 148.673 79.0552H139.28C138.91 79.0548 138.544 79.1273 138.203 79.2685C137.861 79.4097 137.55 79.6168 137.289 79.878C137.027 80.1392 136.82 80.4494 136.678 80.7908C136.537 81.1323 136.464 81.4983 136.463 81.8679V81.8716C136.464 82.2413 136.537 82.6073 136.678 82.9487C136.82 83.2902 137.027 83.6004 137.289 83.8616C137.55 84.1228 137.861 84.3299 138.203 84.4711C138.544 84.6122 138.91 84.6847 139.28 84.6843H215.533C216.438 84.6738 217.336 84.8428 218.175 85.1817C219.014 85.5206 219.777 86.0227 220.42 86.6587C221.064 87.2947 221.575 88.0521 221.924 88.887C222.272 89.7219 222.452 90.6176 222.452 91.5224C222.452 92.4272 222.272 93.323 221.924 94.1578C221.575 94.9927 221.064 95.7501 220.42 96.3861C219.777 97.0222 219.014 97.5242 218.175 97.8631C217.336 98.202 216.438 98.371 215.533 98.3605H195.812C196.812 98.9723 197.638 99.8307 198.211 100.853C198.784 101.876 199.085 103.029 199.085 104.201V106.152C199.086 107.406 198.741 108.637 198.088 109.709C197.435 110.78 196.5 111.652 195.385 112.227H239.388C241.208 112.209 242.964 112.906 244.276 114.169C245.588 115.431 246.353 117.158 246.406 118.978" fill="white"/>
<path d="M150.138 193C183.628 193 210.777 191.145 210.777 188.857C210.777 186.569 183.628 184.714 150.138 184.714C116.649 184.714 89.5 186.569 89.5 188.857C89.5 191.145 116.649 193 150.138 193Z" fill="#E9ECEF"/>
<path d="M152.071 95.2297C146.993 95.2263 141.987 94.0346 137.453 91.7498C132.918 89.465 128.982 86.1507 125.958 82.0719C122.934 77.9931 120.907 73.2632 120.038 68.2606C119.17 63.2579 119.484 58.1215 120.957 53.2622L126.393 35.374L188.597 54.2779L183.161 72.166C181.132 78.916 176.946 84.8147 171.244 88.9583C165.672 93.0125 158.964 95.2069 152.072 95.2292L152.071 95.2297Z" fill="#F8F9FA"/>
<path d="M121.735 75.4375C124.086 79.5222 126.992 83.2615 130.37 86.5488C134.309 90.3421 139.845 93.8807 144.756 94.3904C156.316 95.5857 158.132 95.2165 160.362 94.3904C162.592 93.5642 173.408 88.8434 174.318 86.5488C175.228 84.2542 121.735 75.4375 121.735 75.4375Z" fill="#E9ECEF"/>
<path d="M147.411 83.8906C161.762 86.9411 173.666 88.1462 173.998 86.5824C174.33 85.0185 162.966 81.2779 148.615 78.2274C134.263 75.177 122.36 73.9719 122.028 75.5357C121.695 77.0995 133.06 80.8402 147.411 83.8906Z" fill="#DEE2E6"/>
<path d="M126.678 35.3018L121.137 53.3168C119.902 57.3778 119.48 61.6421 119.894 65.8663C120.308 70.0904 121.55 74.1917 123.549 77.9359C125.547 81.6802 128.264 84.994 131.544 87.6883C134.823 90.3825 138.602 92.4044 142.663 93.6385C147.457 95.1022 152.527 95.4277 157.47 94.5891C162.412 93.7506 167.091 91.7711 171.135 88.808C176.804 84.688 180.966 78.8232 182.983 72.1119L188.524 53.9722" stroke="#343A40" stroke-linecap="round"/>
<path d="M165.692 158.497C165.451 158.497 165.211 158.464 164.979 158.401L92.2912 138.545C91.6551 138.369 91.1042 137.968 90.74 137.417C90.3758 136.867 90.2228 136.203 90.3092 135.549C90.3956 134.894 90.7155 134.293 91.2101 133.856C91.7046 133.418 92.3405 133.174 93.0007 133.169C93.2417 133.169 93.4815 133.201 93.7139 133.265L166.402 153.122C167.038 153.298 167.589 153.699 167.953 154.249C168.317 154.8 168.47 155.464 168.384 156.118C168.297 156.773 167.977 157.374 167.483 157.811C166.988 158.248 166.352 158.492 165.692 158.498" fill="#DEE2E6"/>
<path d="M165.692 158.497C165.451 158.497 165.211 158.464 164.979 158.401L92.2912 138.545C91.6551 138.369 91.1042 137.968 90.74 137.417C90.3758 136.867 90.2228 136.203 90.3092 135.549C90.3956 134.894 90.7155 134.293 91.2101 133.856C91.7046 133.418 92.3405 133.174 93.0007 133.169C93.2417 133.169 93.4815 133.201 93.7139 133.265L166.402 153.122C167.038 153.298 167.589 153.699 167.953 154.249C168.317 154.8 168.47 155.464 168.384 156.118C168.297 156.773 167.977 157.374 167.483 157.811C166.988 158.248 166.352 158.492 165.692 158.498" stroke="#343A40" stroke-linecap="round"/>
<path d="M98.6858 134.734L103.579 116.688C104.69 112.56 106.603 108.693 109.211 105.306C111.818 101.918 115.068 99.079 118.774 96.9494C122.48 94.8199 126.57 93.4422 130.809 92.8952C135.048 92.3482 139.354 92.6426 143.479 93.7616C147.604 94.8806 151.468 96.8022 154.85 99.4165C158.232 102.031 161.065 105.286 163.187 108.997C165.309 112.707 166.678 116.799 167.217 121.04C167.755 125.28 167.452 129.585 166.325 133.708L161.428 151.754L98.6858 134.734Z" fill="#F8F9FA"/>
<path d="M113.842 100.648C113.842 100.648 111.806 122.995 139.59 123.199C167.375 123.402 167.119 127.095 167.119 127.095C167.394 130.34 166.041 133.634 165.186 137.056C163.786 142.657 161.317 151.797 161.317 151.797L119.288 140.309L98.4846 134.546L103.301 118.007C103.301 118.007 105.207 109.984 109.175 105.783C112.457 102.075 113.842 100.648 113.842 100.648Z" fill="#E9ECEF"/>
<path d="M139.768 93.0259L132.093 115.348C132.093 115.348 132.693 116.235 133.316 115.907L147.682 95.5138L143.482 94.1135L139.768 93.0259Z" fill="#E9ECEF"/>
<path d="M134.932 92.8725C139.902 92.8649 144.807 94.0043 149.264 96.202C153.722 98.3997 157.612 101.596 160.632 105.543C163.653 109.49 165.721 114.08 166.678 118.957C167.634 123.834 167.452 128.866 166.146 133.661L161.452 151.759L98.4392 134.488L103.759 116.737C105.615 109.889 109.674 103.842 115.307 99.5289C120.941 95.2158 127.837 92.8759 134.932 92.8701" stroke="#343A40" stroke-linecap="round"/>
<path d="M131.504 120.287C132.459 120.388 133.314 119.696 133.414 118.742C133.515 117.788 132.823 116.932 131.869 116.832C130.915 116.731 130.06 117.423 129.959 118.377C129.858 119.331 130.55 120.186 131.504 120.287Z" fill="#E9ECEF"/>
<path d="M194.348 55.8465C194.08 55.8464 193.813 55.8066 193.557 55.7285L121.497 33.8294C120.808 33.6199 120.23 33.1451 119.891 32.5095C119.552 31.8739 119.479 31.1296 119.688 30.4402C119.898 29.7509 120.373 29.173 121.008 28.8337C121.644 28.4945 122.388 28.4216 123.077 28.6311L195.136 50.5301C195.759 50.7197 196.294 51.1266 196.642 51.6769C196.99 52.2272 197.129 52.8842 197.033 53.5283C196.938 54.1724 196.614 54.7608 196.121 55.1863C195.628 55.6118 194.999 55.8461 194.348 55.8465Z" fill="#DEE2E6"/>
<path d="M122.285 28.6992C122.534 28.6995 122.783 28.7366 123.022 28.8094L195.083 50.7084C195.403 50.8026 195.702 50.9595 195.962 51.1699C196.222 51.3803 196.437 51.6401 196.596 51.9343C196.755 52.2285 196.854 52.5513 196.887 52.884C196.921 53.2166 196.888 53.5526 196.791 53.8725C196.694 54.1924 196.534 54.4899 196.321 54.7477C196.108 55.0056 195.846 55.2187 195.551 55.3748C195.255 55.5308 194.931 55.6268 194.598 55.657C194.265 55.6873 193.93 55.6513 193.611 55.5511L121.549 33.6525C120.969 33.4762 120.471 33.0971 120.146 32.5844C119.822 32.0716 119.692 31.4594 119.781 30.8591C119.87 30.2588 120.172 29.7105 120.631 29.3141C121.091 28.9176 121.677 28.6994 122.284 28.6992" stroke="#343A40" stroke-linecap="round"/>
<path d="M173.714 166.191H136.37C135.865 166.191 135.412 165.929 135.158 165.492C134.905 165.055 134.904 164.532 135.155 164.094L153.827 131.526C154.08 131.085 154.534 130.822 155.042 130.822C155.55 130.822 156.004 131.085 156.257 131.526L174.929 164.094C175.18 164.532 175.179 165.055 174.926 165.492C174.673 165.929 174.22 166.191 173.714 166.191Z" fill="#FFC107"/>
<path d="M155.042 131.289C154.88 131.289 154.475 131.335 154.232 131.758L135.56 164.326C135.319 164.747 135.481 165.118 135.562 165.258C135.643 165.398 135.884 165.724 136.37 165.724H173.714C174.2 165.724 174.441 165.398 174.522 165.258C174.603 165.118 174.766 164.747 174.524 164.326L155.852 131.758C155.609 131.335 155.205 131.289 155.042 131.289ZM155.042 130.355C155.673 130.355 156.303 130.668 156.662 131.294L175.334 163.862C176.048 165.106 175.149 166.657 173.714 166.657C173.714 166.657 173.714 166.657 173.714 166.657H136.37C134.935 166.657 134.037 165.106 134.75 163.862L153.422 131.294C153.781 130.668 154.412 130.355 155.042 130.355Z" fill="black"/>
<path d="M154.533 161.565C155.096 161.565 155.552 161.109 155.552 160.547C155.552 159.984 155.096 159.528 154.533 159.528C153.971 159.528 153.515 159.984 153.515 160.547C153.515 161.109 153.971 161.565 154.533 161.565Z" fill="black"/>
<path d="M155.552 144.763C155.552 144.2 155.096 143.744 154.533 143.744C153.971 143.744 153.515 144.2 153.515 144.763V156.474C153.515 157.036 153.971 157.492 154.533 157.492C155.096 157.492 155.552 157.036 155.552 156.474V144.763Z" fill="black"/>
</svg>
