<svg width="300" height="200" viewBox="0 0 300 200" fill="none" xmlns="http://www.w3.org/2000/svg">
<path d="M149.978 192.462C91.45 192.462 42 186.614 42 179.692C42 172.77 91.45 166.923 149.978 166.923C208.507 166.923 257.957 172.773 257.957 179.692C257.957 186.612 208.507 192.462 149.978 192.462Z" fill="#E9ECEF"/>
<path d="M81.9882 176.113C79.9786 176.111 78.0519 175.311 76.631 173.89C75.21 172.469 74.4108 170.543 74.4087 168.533V67.103C74.4079 65.0904 75.2054 63.1596 76.6264 61.7343C78.0473 60.3089 79.9756 59.5054 81.9882 59.5H214.188C216.201 59.5054 218.129 60.3089 219.55 61.7343C220.971 63.1596 221.768 65.0904 221.768 67.103V168.533C221.766 170.543 220.966 172.469 219.545 173.89C218.124 175.311 216.198 176.111 214.188 176.113H81.9882Z" fill="white" stroke="black"/>
<path d="M81.9882 59.208H214.188C216.279 59.2116 218.282 60.0453 219.759 61.5258C221.235 63.0063 222.062 65.0124 222.06 67.103V168.534C222.061 169.567 221.858 170.591 221.462 171.547C221.067 172.502 220.487 173.37 219.756 174.102C219.025 174.833 218.157 175.413 217.202 175.808C216.246 176.203 215.222 176.406 214.188 176.406H81.9882C80.9542 176.406 79.9303 176.203 78.9749 175.808C78.0195 175.413 77.1514 174.833 76.4203 174.102C75.6892 173.37 75.1094 172.502 74.7141 171.547C74.3189 170.591 74.1159 169.567 74.1167 168.534V67.103C74.1141 65.0124 74.9418 63.0063 76.4179 61.5258C77.8939 60.0453 79.8976 59.2116 81.9882 59.208Z" fill="white" stroke="#343A40"/>
<path d="M74.4087 85.7725V67.103C74.4079 65.0904 75.2054 63.1596 76.6264 61.7343C78.0473 60.3089 79.9756 59.5054 81.9882 59.5H214.188C216.201 59.5053 218.129 60.3088 219.55 61.7341C220.971 63.1595 221.769 65.0903 221.768 67.103V85.773L74.4087 85.7725Z" fill="#E9ECEF" stroke="black"/>
<path d="M81.9882 59.208H214.188C216.279 59.2116 218.282 60.0453 219.759 61.5258C221.235 63.0063 222.062 65.0124 222.06 67.103V86.065H74.1167V67.103C74.1141 65.0124 74.9418 63.0063 76.4179 61.5258C77.8939 60.0453 79.8976 59.2116 81.9882 59.208Z" fill="#F8F9FA" stroke="#343A40"/>
<path d="M112.938 70.1914C113.519 70.0757 114.123 70.1353 114.671 70.3623C115.219 70.5893 115.687 70.9737 116.017 71.4668C116.346 71.9601 116.522 72.5404 116.522 73.1338C116.521 73.929 116.205 74.6916 115.643 75.2539C115.08 75.8164 114.317 76.1317 113.521 76.1328C112.928 76.1326 112.349 75.9574 111.855 75.6279C111.362 75.2984 110.978 74.8301 110.751 74.2822C110.524 73.7341 110.464 73.1307 110.58 72.5488C110.696 71.9669 110.982 71.4323 111.401 71.0127C111.821 70.5931 112.356 70.3072 112.938 70.1914Z" fill="#E9ECEF" stroke="#343A40"/>
<path d="M101.426 70.1914C102.008 70.0757 102.611 70.1353 103.159 70.3623C103.707 70.5893 104.175 70.9737 104.505 71.4668C104.835 71.9601 105.011 72.5404 105.011 73.1338C105.009 73.929 104.693 74.6916 104.131 75.2539C103.568 75.8164 102.805 76.1317 102.01 76.1328C101.417 76.1326 100.837 75.9574 100.344 75.6279C99.8507 75.2984 99.4663 74.8301 99.2393 74.2822C99.0122 73.7341 98.9527 73.1307 99.0684 72.5488C99.1841 71.9669 99.4701 71.4323 99.8896 71.0127C100.309 70.5931 100.844 70.3072 101.426 70.1914Z" fill="#E9ECEF" stroke="#343A40"/>
<path d="M89.9131 70.1914C90.4949 70.0757 91.0984 70.1353 91.6465 70.3623C92.1944 70.5893 92.6626 70.9737 92.9922 71.4668C93.3218 71.9601 93.498 72.5404 93.498 73.1338C93.4967 73.929 93.1805 74.6916 92.6182 75.2539C92.0557 75.8164 91.2926 76.1317 90.4971 76.1328C89.9041 76.1326 89.3241 75.9574 88.8311 75.6279C88.338 75.2984 87.9536 74.8301 87.7266 74.2822C87.4995 73.7341 87.44 73.1307 87.5557 72.5488C87.6714 71.9669 87.9574 71.4323 88.377 71.0127C88.7965 70.5931 89.3311 70.3072 89.9131 70.1914Z" fill="#E9ECEF" stroke="#343A40"/>
<path d="M226.585 26.0127C230.917 26.1344 235.181 27.1473 239.109 28.9922C243.299 30.96 247.004 33.8262 249.961 37.3867C252.919 40.9473 255.058 45.1151 256.224 49.5947C257.39 54.0743 257.556 58.7557 256.709 63.3066C255.863 67.8575 254.027 72.1667 251.329 75.9277C248.63 79.6888 245.137 82.8097 241.097 85.0693C237.057 87.329 232.569 88.6724 227.952 89.0029C223.335 89.3334 218.702 88.6434 214.381 86.9824L214.348 86.9688L214.317 86.9834L199.953 93.2236L199.11 93.5908L199.26 92.6836L201.7 78.0225L201.706 77.9844L201.32 77.5215C197.628 73.0164 195.253 67.5735 194.464 61.7949C193.651 55.8299 194.562 49.7568 197.09 44.293C199.618 38.8291 203.657 34.2025 208.73 30.9609C213.803 27.7195 219.698 25.9982 225.718 26L226.585 26.0127Z" fill="#479F76" stroke="black"/>
<path d="M217.48 44.0612C219.713 42.5558 222.313 41.6863 225.001 41.5456C227.69 41.405 230.367 41.9987 232.744 43.2629C235.122 44.5272 237.11 46.4145 238.497 48.7226C239.884 51.0307 240.616 53.6725 240.616 56.3652C240.616 57.4857 240.852 60.2192 240.616 61.2682" stroke="black" stroke-miterlimit="10" stroke-linecap="round"/>
<path d="M234.347 68.4798C231.841 70.2497 228.847 71.1995 225.779 71.1985C222.711 71.1975 219.718 70.2457 217.213 68.4741C214.708 66.7025 212.813 64.1981 211.789 61.3056C210.766 58.413 210.664 55.2743 211.497 52.3213" stroke="black" stroke-miterlimit="10" stroke-linecap="round"/>
<path d="M235.219 55.7549L239.724 61.9244L245.698 56.7339" stroke="black" stroke-miterlimit="10" stroke-linecap="round"/>
<path d="M205.737 56.223L212.046 51.915L215.941 58.804" stroke="black" stroke-miterlimit="10" stroke-linecap="round"/>
<path d="M60.3403 62.9122C61.0425 59.1195 62.8219 55.6093 65.466 52.801C68.11 49.9928 71.5068 48.0053 75.2503 47.0762" stroke="#343A40"/>
<path d="M46.9819 60.7128C48.0714 54.5479 50.8619 48.81 55.0385 44.1465C59.2152 39.4829 64.6119 36.0792 70.6199 34.3193" stroke="#343A40"/>
<path d="M172.249 113.065C172.972 112.581 173.823 112.323 174.693 112.323C175.271 112.323 175.843 112.437 176.377 112.658C176.911 112.879 177.396 113.203 177.804 113.612C178.213 114.021 178.537 114.506 178.758 115.039C178.979 115.573 179.093 116.145 179.093 116.723C179.093 117.593 178.835 118.444 178.352 119.168C177.868 119.891 177.181 120.455 176.377 120.788C175.573 121.121 174.688 121.208 173.835 121.039C172.981 120.869 172.197 120.45 171.582 119.835C170.967 119.219 170.548 118.435 170.378 117.582C170.208 116.728 170.295 115.843 170.628 115.039C170.961 114.235 171.525 113.548 172.249 113.065Z" stroke="#343A40"/>
<path d="M118.978 113.065C119.702 112.581 120.553 112.323 121.423 112.323C122.001 112.323 122.573 112.437 123.107 112.658C123.641 112.879 124.126 113.203 124.534 113.612C124.943 114.021 125.267 114.506 125.488 115.039C125.709 115.573 125.823 116.145 125.823 116.723C125.823 117.593 125.565 118.444 125.081 119.168C124.598 119.891 123.911 120.455 123.107 120.788C122.303 121.121 121.418 121.208 120.565 121.039C119.711 120.869 118.927 120.45 118.312 119.835C117.696 119.219 117.277 118.435 117.107 117.582C116.938 116.728 117.025 115.843 117.358 115.039C117.691 114.235 118.255 113.548 118.978 113.065Z" stroke="#343A40"/>
<path d="M160.579 146.305C159.35 143.957 157.502 141.989 155.234 140.617C152.967 139.244 150.367 138.519 147.716 138.519C145.066 138.519 142.466 139.244 140.199 140.617C137.931 141.989 136.083 143.957 134.854 146.305" fill="white"/>
<path d="M160.579 146.305C159.35 143.957 157.502 141.989 155.234 140.617C152.967 139.244 150.367 138.519 147.716 138.519C145.066 138.519 142.466 139.244 140.199 140.617C137.931 141.989 136.083 143.957 134.854 146.305" stroke="#343A40"/>
<path d="M232.463 105.4V116.158M227.084 110.779H237.842" stroke="#343A40" stroke-miterlimit="10" stroke-linecap="round"/>
<path d="M102.763 34.5V44.002M98.0117 39.251H107.514" stroke="#343A40" stroke-miterlimit="10" stroke-linecap="round"/>
<path d="M185.144 20.322C185.144 21.5724 184.773 22.7947 184.079 23.8344C183.384 24.874 182.396 25.6843 181.241 26.1628C180.086 26.6413 178.815 26.7665 177.588 26.5225C176.362 26.2785 175.236 25.6763 174.351 24.7922C173.467 23.908 172.865 22.7814 172.621 21.5551C172.378 20.3287 172.503 19.0575 172.981 17.9023C173.46 16.7471 174.27 15.7598 175.31 15.0652C176.35 14.3706 177.572 13.9999 178.822 14C179.653 14 180.475 14.1635 181.242 14.4812C182.009 14.799 182.706 15.2646 183.293 15.8517C183.88 16.4388 184.345 17.1357 184.663 17.9027C184.981 18.6697 185.144 19.4918 185.144 20.322Z" stroke="#343A40" stroke-miterlimit="10"/>
<path d="M45.644 152.853C45.6445 154.103 45.2741 155.326 44.5797 156.366C43.8853 157.406 42.8981 158.216 41.7429 158.695C40.5878 159.174 39.3165 159.3 38.09 159.056C36.8635 158.812 35.7368 158.21 34.8524 157.326C33.968 156.442 33.3657 155.316 33.1216 154.089C32.8775 152.863 33.0026 151.591 33.4811 150.436C33.9596 149.281 34.77 148.293 35.8098 147.599C36.8496 146.904 38.072 146.533 39.3225 146.533C40.9987 146.533 42.6062 147.199 43.7916 148.384C44.9771 149.569 45.6433 151.177 45.644 152.853Z" stroke="#343A40" stroke-miterlimit="10"/>
<path d="M256.479 139.635C256.479 140.24 256.3 140.831 255.963 141.335C255.627 141.838 255.149 142.23 254.59 142.461C254.031 142.693 253.416 142.753 252.822 142.635C252.229 142.517 251.684 142.226 251.256 141.798C250.828 141.37 250.536 140.825 250.418 140.231C250.3 139.638 250.361 139.023 250.592 138.463C250.824 137.904 251.216 137.426 251.719 137.09C252.222 136.754 252.814 136.574 253.419 136.574C254.231 136.574 255.009 136.897 255.583 137.471C256.157 138.045 256.479 138.823 256.479 139.635Z" stroke="#343A40" stroke-miterlimit="10"/>
<path d="M67.7631 127.328C67.763 127.933 67.5834 128.525 67.2472 129.028C66.9109 129.531 66.433 129.923 65.8738 130.155C65.3147 130.386 64.6995 130.447 64.106 130.329C63.5124 130.211 62.9672 129.919 62.5393 129.491C62.1114 129.063 61.82 128.518 61.7019 127.925C61.5838 127.331 61.6444 126.716 61.8759 126.157C62.1074 125.598 62.4996 125.12 63.0027 124.783C63.5059 124.447 64.0974 124.268 64.7026 124.268C65.5143 124.268 66.2927 124.59 66.8667 125.164C67.4406 125.738 67.7631 126.516 67.7631 127.328Z" stroke="#343A40" stroke-miterlimit="10"/>
</svg>
