<svg width="300" height="200" viewBox="0 0 300 200" fill="none" xmlns="http://www.w3.org/2000/svg">
<g clip-path="url(#clip0_17966_9220)">
<mask id="mask0_17966_9220" style="mask-type:luminance" maskUnits="userSpaceOnUse" x="12" y="36" width="260" height="143">
<path d="M271.931 36.7773H12.2041V178.211H271.931V36.7773Z" fill="white"/>
</mask>
<g mask="url(#mask0_17966_9220)">
<path d="M271.93 140.19C271.945 141.347 271.73 142.495 271.297 143.568C270.865 144.641 270.223 145.617 269.41 146.44C268.598 147.263 267.629 147.916 266.562 148.362C265.495 148.808 264.349 149.037 263.193 149.037H200.786C201.693 150.694 202.038 152.601 201.77 154.472C201.503 156.342 200.636 158.075 199.301 159.412C198.791 159.919 198.222 160.364 197.606 160.736H209.135C213.957 160.736 218.038 164.542 218.1 169.359C218.114 170.516 217.899 171.664 217.466 172.737C217.033 173.809 216.392 174.786 215.579 175.609C214.767 176.432 213.799 177.086 212.731 177.532C211.664 177.978 210.519 178.209 209.363 178.209H152.058C150.145 178.209 148.286 177.581 146.764 176.423C145.243 175.264 144.144 173.638 143.635 171.794C143.126 169.951 143.237 167.991 143.949 166.216C144.661 164.442 145.935 162.949 147.577 161.968H113.249C108.427 161.968 104.345 158.162 104.283 153.345C104.263 151.785 104.661 150.248 105.435 148.894C106.21 147.54 107.333 146.418 108.688 145.645C107.268 144.908 106.078 143.796 105.248 142.429C104.418 141.062 103.979 139.494 103.98 137.895V127.195C103.978 125.828 104.298 124.481 104.913 123.261C105.528 122.041 106.421 120.982 107.52 120.17H45.83C41.0125 120.17 36.936 116.373 36.8645 111.561C36.8474 110.402 37.0608 109.252 37.4923 108.177C37.9239 107.102 38.565 106.124 39.3783 105.299C40.1916 104.474 41.1609 103.819 42.2297 103.372C43.2985 102.925 44.4456 102.695 45.604 102.696H49.964C51.7543 102.696 53.4711 101.985 54.737 100.719C56.0029 99.4529 56.714 97.7361 56.714 95.9458V95.9408C56.714 94.1506 56.0029 92.4337 54.737 91.1679C53.4711 89.902 51.7543 89.1908 49.964 89.1908H20.9415C18.6248 89.1908 16.403 88.2705 14.7648 86.6324C13.1266 84.9942 12.2063 82.7723 12.2063 80.4556C12.2063 78.1389 13.1266 75.917 14.7648 74.2788C16.403 72.6407 18.6248 71.7203 20.9415 71.7203H62.904C65.2208 71.7209 67.4429 70.8012 69.0815 69.1634C70.7201 67.5257 71.641 65.3041 71.6415 62.9873C71.6421 60.6706 70.7224 58.4485 69.0846 56.8099C67.4469 55.1713 65.2253 54.2504 62.9085 54.2498H50.923C46.0961 54.2498 42.0145 50.4338 41.9625 45.6073C41.95 44.4521 42.1667 43.3059 42.6002 42.235C43.0337 41.1641 43.6753 40.1898 44.4878 39.3686C45.3004 38.5473 46.2679 37.8954 47.3341 37.4506C48.4004 37.0059 49.5442 36.777 50.6995 36.7773H130.4C135.094 36.7773 139.123 40.3893 139.35 45.0828C139.426 46.6314 139.091 48.1726 138.377 49.5488H241.166C243.483 49.5488 245.705 50.4692 247.343 52.1073C248.981 53.7455 249.901 55.9674 249.901 58.2841C249.901 60.6008 248.981 62.8227 247.343 64.4608C245.705 66.099 243.483 67.0193 241.166 67.0193H203.093C203.091 68.899 202.344 70.7013 201.015 72.0307C199.686 73.36 197.884 74.108 196.004 74.1103H153.088C154.359 75.311 155.241 76.8659 155.619 78.5736C155.997 80.2813 155.853 82.0632 155.207 83.6883C154.56 85.3134 153.441 86.707 151.993 87.6885C150.546 88.6701 148.837 89.1943 147.088 89.1933H135.088C134.615 89.1926 134.147 89.285 133.711 89.4652C133.274 89.6455 132.877 89.91 132.543 90.2437C132.208 90.5774 131.943 90.9737 131.762 91.41C131.581 91.8463 131.488 92.314 131.488 92.7863V92.7913C131.488 93.2637 131.581 93.7314 131.762 94.1677C131.943 94.604 132.208 95.0003 132.543 95.334C132.877 95.6677 133.274 95.9322 133.711 96.1125C134.147 96.2927 134.615 96.3851 135.088 96.3843H232.495C234.811 96.3843 237.033 97.3047 238.671 98.9428C240.309 100.581 241.23 102.803 241.23 105.12C241.23 107.436 240.309 109.658 238.671 111.296C237.033 112.935 234.811 113.855 232.495 113.855H207.304C208.582 114.636 209.637 115.733 210.369 117.039C211.101 118.346 211.486 119.818 211.486 121.316V123.807C211.486 125.41 211.046 126.982 210.212 128.351C209.378 129.72 208.183 130.833 206.759 131.567H262.965C267.787 131.567 271.868 135.374 271.93 140.191" fill="white"/>
</g>
<path d="M218.573 37.4443V48.2023M213.194 42.8233H223.952" stroke="#343A40" stroke-miterlimit="10" stroke-linecap="round"/>
<path d="M81.7627 1V10.502M77.0117 5.751H86.5137" stroke="#343A40" stroke-miterlimit="10" stroke-linecap="round"/>
<path d="M257.607 9.63255C257.607 10.8829 257.236 12.1053 256.541 13.1449C255.847 14.1846 254.859 14.9949 253.704 15.4734C252.549 15.9518 251.278 16.077 250.051 15.833C248.825 15.5891 247.699 14.9869 246.814 14.1027C245.93 13.2185 245.328 12.092 245.084 10.8656C244.84 9.63922 244.966 8.36806 245.444 7.21288C245.923 6.05769 246.733 5.07036 247.773 4.37575C248.813 3.68114 250.035 3.31045 251.285 3.31055C252.116 3.31055 252.938 3.47407 253.705 3.79179C254.472 4.10951 255.169 4.57519 255.756 5.16225C256.343 5.74931 256.808 6.44624 257.126 7.21326C257.443 7.98028 257.607 8.80235 257.607 9.63255Z" stroke="#343A40" stroke-miterlimit="10" stroke-linecap="round"/>
<path d="M36.644 134.353C36.6445 135.603 36.2741 136.826 35.5797 137.866C34.8853 138.906 33.8981 139.716 32.7429 140.195C31.5878 140.674 30.3165 140.8 29.09 140.556C27.8635 140.312 26.7368 139.71 25.8524 138.826C24.968 137.942 24.3657 136.816 24.1216 135.589C23.8775 134.363 24.0026 133.091 24.4811 131.936C24.9596 130.781 25.77 129.793 26.8098 129.099C27.8496 128.404 29.072 128.033 30.3225 128.033C31.9987 128.033 33.6062 128.699 34.7916 129.884C35.9771 131.069 36.6433 132.677 36.644 134.353Z" stroke="#343A40" stroke-miterlimit="10" stroke-linecap="round"/>
<path d="M278.48 121.135C278.48 121.74 278.3 122.331 277.964 122.835C277.628 123.338 277.15 123.73 276.591 123.961C276.032 124.193 275.416 124.253 274.823 124.135C274.229 124.017 273.684 123.726 273.256 123.298C272.828 122.87 272.537 122.325 272.419 121.731C272.301 121.138 272.361 120.523 272.593 119.963C272.824 119.404 273.216 118.926 273.72 118.59C274.223 118.254 274.814 118.074 275.419 118.074C276.231 118.074 277.01 118.397 277.583 118.971C278.157 119.545 278.48 120.323 278.48 121.135Z" stroke="#343A40" stroke-miterlimit="10" stroke-linecap="round"/>
<path d="M58.7636 108.828C58.7635 109.433 58.5839 110.025 58.2476 110.528C57.9114 111.031 57.4335 111.423 56.8743 111.655C56.3152 111.886 55.7 111.947 55.1065 111.829C54.5129 111.711 53.9677 111.419 53.5398 110.991C53.1119 110.563 52.8205 110.018 52.7024 109.425C52.5843 108.831 52.6448 108.216 52.8764 107.657C53.1079 107.098 53.5001 106.62 54.0032 106.283C54.5063 105.947 55.0979 105.768 55.7031 105.768C56.5148 105.768 57.2932 106.09 57.8672 106.664C58.4411 107.238 58.7636 108.016 58.7636 108.828Z" stroke="#343A40" stroke-miterlimit="10" stroke-linecap="round"/>
<path d="M150.162 194.014C217.63 194.014 272.324 191.644 272.324 188.722C272.324 185.799 217.63 183.43 150.162 183.43C82.6938 183.43 28 185.799 28 188.722C28 191.644 82.6938 194.014 150.162 194.014Z" fill="#E9ECEF"/>
<path d="M94.6494 152.592C92.0017 152.59 89.4293 151.711 87.3335 150.093C85.2378 148.474 83.7367 146.208 83.0644 143.647L70.2284 94.7472L66.7569 81.4922L64.4709 72.7922C63.6624 69.7185 64.1081 66.4495 65.7098 63.7044C67.3116 60.9592 69.9382 58.9628 73.0119 58.1542L139.431 40.7207C139.567 42.0665 139.773 43.4043 140.047 44.7287C141.056 49.5232 143.947 54.1762 146.5 58.2812C146.942 58.9917 147.371 59.6812 147.777 60.3512C149.511 63.2052 150.666 65.4397 150.666 67.0742C150.666 68.8242 149.727 70.9567 148.733 73.2137L148.407 73.9577C146.846 77.5487 145.595 81.0042 147.425 83.8272C148.258 85.1107 149.125 86.2417 149.891 87.2397C151.959 89.9397 153.591 92.0692 153.261 95.3572C153.098 96.7039 152.83 98.0359 152.461 99.3412C151.725 102.205 151.029 104.908 153.115 107.691C154.207 109.03 155.469 110.221 156.869 111.233C159.042 112.94 160.757 114.287 160.354 116.573C159.931 118.373 159.331 120.128 158.563 121.81C157.337 124.8 155.947 128.188 156.092 131.305C156.156 132.699 156.319 134.481 156.588 136.741L97.7014 152.196C96.7058 152.458 95.6808 152.591 94.6514 152.592" fill="#F8F9FA"/>
<path d="M94.6494 152.592C92.0017 152.59 89.4293 151.711 87.3335 150.093C85.2378 148.474 83.7367 146.208 83.0644 143.647L70.2284 94.7472L66.7569 81.4922L64.4709 72.7922C63.6624 69.7185 64.1081 66.4495 65.7098 63.7044C67.3116 60.9592 69.9382 58.9628 73.0119 58.1542L139.431 40.7207C139.567 42.0665 139.773 43.4043 140.047 44.7287C141.056 49.5232 143.947 54.1762 146.5 58.2812C146.942 58.9917 147.371 59.6812 147.777 60.3512C149.511 63.2052 150.666 65.4397 150.666 67.0742C150.666 68.8242 149.727 70.9567 148.733 73.2137L148.407 73.9577C146.846 77.5487 145.595 81.0042 147.425 83.8272C148.258 85.1107 149.125 86.2417 149.891 87.2397C151.959 89.9397 153.591 92.0692 153.261 95.3572C153.098 96.7039 152.83 98.0359 152.461 99.3412C151.725 102.205 151.029 104.908 153.115 107.691C154.207 109.03 155.469 110.221 156.869 111.233C159.042 112.94 160.757 114.287 160.354 116.573C159.931 118.373 159.331 120.128 158.563 121.81C157.337 124.8 155.947 128.188 156.092 131.305C156.156 132.699 156.319 134.481 156.588 136.741L97.7014 152.196C96.7058 152.458 95.6808 152.591 94.6514 152.592" stroke="#343A40" stroke-linecap="round"/>
<path d="M66.8579 81.906L147.943 60.624C149.586 63.3475 150.668 65.4925 150.668 67.074C150.668 68.824 149.729 70.9565 148.735 73.2145L148.492 73.768L70.1204 94.3335L66.8579 81.906Z" fill="#DEE2E6" stroke="#343A40" stroke-linecap="round"/>
<path d="M121.47 98.2032L86.7329 107.32L89.9414 119.545L124.679 110.428L121.47 98.2032Z" fill="#E9ECEF" stroke="#343A40" stroke-linecap="round"/>
<path d="M111.732 135.363L96.5605 139.346L97.1827 141.716L112.354 137.733L111.732 135.363Z" fill="#E9ECEF" stroke="#343A40" stroke-linecap="round"/>
<path d="M135.673 128.831L120.506 132.815L121.128 135.185L136.296 131.201L135.673 128.831Z" fill="#E9ECEF" stroke="#343A40" stroke-linecap="round"/>
<path d="M240.999 172.394C240.682 172.394 240.363 172.381 240.042 172.356L166.113 166.512C166.588 164.369 167.008 162.69 167.394 161.391C168.23 158.582 170.591 155.916 172.674 153.563C173.995 152.183 175.175 150.674 176.197 149.059C177.579 146.587 176.152 144.354 174.639 141.991C173.689 140.638 172.921 139.167 172.354 137.614C171.425 134.689 172.796 132.63 174.383 130.245C175.187 129.099 175.9 127.892 176.516 126.635C178.055 123.333 177.168 120.641 176.044 117.232C175.637 115.995 175.214 114.716 174.858 113.263C174.161 110.405 176.341 107.747 178.833 105.048L179.377 104.463C181.127 102.588 182.777 100.818 183.411 98.9947C184.017 97.2582 183.675 94.7382 182.925 91.2372C182.762 90.4677 182.583 89.6697 182.399 88.8487C181.356 84.2017 180.178 78.9367 180.785 74.2267C180.964 72.8715 181.216 71.5268 181.539 70.1982L247.699 75.4292C250.866 75.6842 253.803 77.1846 255.866 79.6015C257.929 82.0184 258.949 85.1547 258.704 88.3227L252.935 161.352C252.685 164.351 251.321 167.148 249.112 169.192C246.902 171.235 244.008 172.378 240.998 172.393" fill="#F8F9FA"/>
<path d="M240.999 172.394C240.682 172.394 240.363 172.381 240.042 172.356L166.113 166.512C166.588 164.369 167.008 162.69 167.394 161.391C168.23 158.582 170.591 155.916 172.674 153.563C173.995 152.183 175.175 150.674 176.197 149.059C177.579 146.587 176.152 144.354 174.639 141.991C173.689 140.638 172.921 139.167 172.354 137.614C171.425 134.689 172.796 132.63 174.383 130.245C175.187 129.099 175.9 127.892 176.516 126.635C178.055 123.333 177.168 120.641 176.044 117.232C175.637 115.995 175.214 114.716 174.858 113.263C174.161 110.405 176.341 107.747 178.833 105.048L179.377 104.463C181.127 102.588 182.777 100.818 183.411 98.9947C184.017 97.2582 183.675 94.7382 182.925 91.2372C182.762 90.4677 182.583 89.6697 182.399 88.8487C181.356 84.2017 180.178 78.9367 180.785 74.2267C180.964 72.8715 181.216 71.5268 181.539 70.1982L247.699 75.4292C250.866 75.6842 253.803 77.1846 255.866 79.6015C257.929 82.0184 258.949 85.1547 258.704 88.3227L252.935 161.352C252.685 164.351 251.321 167.148 249.112 169.192C246.902 171.235 244.008 172.378 240.998 172.393" stroke="#343A40" stroke-linecap="round"/>
<path d="M179.433 104.404C181.159 102.552 182.783 100.799 183.411 98.9959C183.985 97.3524 183.711 95.0094 183.043 91.7959L257.962 97.7154L256.948 110.535L179.433 104.404Z" fill="#DEE2E6" stroke="#343A40" stroke-linecap="round"/>
<path d="M238.447 138.231C237.187 138.231 235.955 137.857 234.908 137.157C233.86 136.457 233.043 135.462 232.561 134.298C232.079 133.134 231.953 131.853 232.199 130.617C232.445 129.381 233.051 128.246 233.942 127.355C234.833 126.464 235.969 125.858 237.204 125.612C238.44 125.366 239.721 125.492 240.885 125.974C242.049 126.456 243.044 127.273 243.744 128.32C244.445 129.368 244.818 130.6 244.818 131.86C244.817 133.549 244.145 135.169 242.95 136.363C241.756 137.558 240.136 138.229 238.447 138.231Z" fill="#F8F9FA" stroke="#343A40" stroke-linecap="round"/>
<path d="M227.792 137.233C226.532 137.233 225.3 136.859 224.253 136.159C223.205 135.459 222.388 134.464 221.906 133.3C221.424 132.136 221.298 130.855 221.544 129.619C221.79 128.383 222.396 127.248 223.287 126.357C224.178 125.466 225.314 124.859 226.549 124.614C227.785 124.368 229.066 124.494 230.23 124.976C231.394 125.458 232.389 126.275 233.089 127.322C233.79 128.37 234.163 129.602 234.163 130.862C234.161 132.551 233.489 134.17 232.295 135.365C231.101 136.559 229.481 137.231 227.792 137.233Z" fill="#E9ECEF" stroke="#343A40" stroke-linecap="round"/>
<path d="M60.1628 40.7773L65.6908 50.1383" stroke="#343A40" stroke-linecap="round"/>
<path d="M60.1628 40.7773L65.6908 50.1383" stroke="#343A40" stroke-miterlimit="10" stroke-linecap="round"/>
<path d="M48.0969 55.6504L58.4474 58.9744" stroke="#343A40" stroke-linecap="round"/>
<path d="M48.0969 55.6504L58.4474 58.9744" stroke="#343A40" stroke-miterlimit="10" stroke-linecap="round"/>
<path d="M48.959 74.7821L58.9035 70.3896" stroke="#343A40" stroke-linecap="round"/>
<path d="M48.959 74.7821L58.9035 70.3896" stroke="#343A40" stroke-miterlimit="10" stroke-linecap="round"/>
<path d="M276.726 86.6075H236.722C236.181 86.6075 235.696 86.3279 235.424 85.8595C235.153 85.3911 235.152 84.8311 235.421 84.3615L255.423 49.4746C255.693 49.0025 256.18 48.7207 256.724 48.7207C257.268 48.7207 257.755 49.0025 258.025 49.4746L278.027 84.3615C278.296 84.8311 278.295 85.3911 278.024 85.8595C277.752 86.3279 277.267 86.6075 276.726 86.6075Z" fill="#FFC107"/>
<path d="M256.724 49.2207C256.55 49.2207 256.117 49.2697 255.856 49.7233L235.855 84.6102C235.596 85.0614 235.77 85.4589 235.857 85.6089C235.944 85.7588 236.202 86.1075 236.722 86.1075H276.726C277.246 86.1075 277.504 85.7588 277.591 85.6088C277.678 85.4589 277.852 85.0614 277.593 84.6102L257.592 49.7233C257.331 49.2697 256.898 49.2207 256.724 49.2207ZM256.724 48.2207C257.399 48.2207 258.075 48.5558 258.459 49.2259L278.461 84.1128C279.225 85.446 278.263 87.1075 276.726 87.1075C276.726 87.1075 276.726 87.1075 276.726 87.1075H236.722C235.185 87.1075 234.223 85.4461 234.987 84.1128L254.989 49.2259C255.373 48.5558 256.049 48.2207 256.724 48.2207Z" fill="black"/>
<path d="M256.179 81.6527C256.781 81.6527 257.27 81.1642 257.27 80.5617C257.27 79.9592 256.781 79.4707 256.179 79.4707C255.576 79.4707 255.088 79.9592 255.088 80.5617C255.088 81.1642 255.576 81.6527 256.179 81.6527Z" fill="black"/>
<path d="M257.27 63.6535C257.27 63.051 256.781 62.5625 256.179 62.5625C255.576 62.5625 255.088 63.051 255.088 63.6535V76.1985C255.088 76.801 255.576 77.2895 256.179 77.2895C256.781 77.2895 257.27 76.801 257.27 76.1985V63.6535Z" fill="black"/>
</g>
<defs>
<clipPath id="clip0_17966_9220">
<rect width="281" height="198.5" fill="white" transform="translate(9.5 0.5)"/>
</clipPath>
</defs>
</svg>
