<svg width="300" height="200" viewBox="0 0 300 200" fill="none" xmlns="http://www.w3.org/2000/svg">
<g clip-path="url(#clip0_17966_9532)">
<mask id="mask0_17966_9532" style="mask-type:luminance" maskUnits="userSpaceOnUse" x="8" y="25" width="279" height="152">
<path d="M286.852 25.4727H8.85815V176.854H286.852V25.4727Z" fill="white"/>
</mask>
<g mask="url(#mask0_17966_9532)">
<path d="M286.851 136.159C286.867 137.397 286.637 138.625 286.174 139.773C285.711 140.921 285.025 141.966 284.155 142.847C283.285 143.728 282.249 144.427 281.107 144.905C279.965 145.382 278.739 145.628 277.501 145.628H210.703C211.674 147.402 212.043 149.443 211.757 151.445C211.47 153.447 210.543 155.302 209.113 156.732C208.568 157.275 207.959 157.751 207.3 158.15H219.639C224.8 158.15 229.169 162.224 229.235 167.38C229.25 168.618 229.02 169.846 228.557 170.995C228.094 172.143 227.408 173.188 226.538 174.069C225.668 174.95 224.632 175.65 223.49 176.128C222.348 176.606 221.123 176.853 219.885 176.854H158.548C156.501 176.853 154.51 176.182 152.882 174.941C151.253 173.701 150.076 171.961 149.532 169.988C148.988 168.014 149.106 165.917 149.868 164.017C150.63 162.117 151.995 160.52 153.752 159.47H117.008C111.847 159.47 107.478 155.396 107.412 150.24C107.391 148.571 107.817 146.927 108.646 145.478C109.475 144.029 110.676 142.828 112.126 142.001C110.607 141.212 109.334 140.021 108.445 138.559C107.557 137.096 107.087 135.417 107.088 133.705V122.25C107.087 120.788 107.429 119.345 108.087 118.039C108.745 116.733 109.701 115.6 110.878 114.732H44.8492C39.6932 114.732 35.3292 110.668 35.2532 105.517C35.2347 104.277 35.4628 103.046 35.9244 101.896C36.386 100.745 37.0718 99.6979 37.9419 98.8149C38.812 97.9318 39.849 97.2306 40.9925 96.752C42.1361 96.2734 43.3635 96.027 44.6032 96.0272H49.2717C51.1872 96.0265 53.0242 95.2653 54.3787 93.9107C55.7332 92.5562 56.4945 90.7193 56.4952 88.8037V88.7987C56.4945 86.8835 55.7336 85.047 54.3796 83.6925C53.0256 82.3381 51.1893 81.5765 49.2742 81.5752H18.2082C15.7284 81.5752 13.3502 80.5901 11.5967 78.8366C9.84324 77.0832 8.85815 74.705 8.85815 72.2252C8.85815 69.7454 9.84324 67.3672 11.5967 65.6137C13.3502 63.8603 15.7284 62.8752 18.2082 62.8752H63.1197C64.3475 62.8755 65.5634 62.634 66.6979 62.1644C67.8325 61.6948 68.8634 61.0064 69.7318 60.1384C70.6003 59.2704 71.2893 58.2398 71.7595 57.1056C72.2297 55.9713 72.4718 54.7555 72.4722 53.5277C72.4725 52.2998 72.231 51.0839 71.7614 49.9494C71.2918 48.8149 70.6034 47.784 69.7354 46.9155C68.8674 46.047 67.8368 45.358 66.7026 44.8879C65.5683 44.4177 64.3525 44.1755 63.1247 44.1752H50.3002C45.1337 44.1752 40.7652 40.0912 40.7092 34.9252C40.6955 33.6886 40.9272 32.4617 41.391 31.3153C41.8547 30.1689 42.5412 29.1259 43.4108 28.2467C44.2804 27.3675 45.3158 26.6695 46.457 26.1932C47.5982 25.7168 48.8225 25.4716 50.0592 25.4717H135.368C140.392 25.4717 144.705 29.3377 144.949 34.3617C145.031 36.0191 144.671 37.6687 143.907 39.1417H253.923C256.403 39.1417 258.781 40.1268 260.535 41.8802C262.288 43.6337 263.273 46.0119 263.273 48.4917C263.273 50.9715 262.288 53.3497 260.535 55.1031C258.781 56.8566 256.403 57.8417 253.923 57.8417H213.173C213.171 59.854 212.371 61.7833 210.948 63.2062C209.525 64.6291 207.596 65.4293 205.584 65.4312H159.65C161.011 66.7162 161.956 68.3804 162.36 70.2082C162.765 72.036 162.611 73.9431 161.919 75.6826C161.227 77.4221 160.029 78.9137 158.48 79.9644C156.93 81.015 155.101 81.5761 153.229 81.5752H140.387C139.882 81.5748 139.381 81.674 138.914 81.867C138.447 82.0601 138.023 82.3432 137.666 82.7004C137.308 83.0575 137.024 83.4815 136.831 83.9483C136.637 84.415 136.537 84.9154 136.537 85.4207V85.4257C136.537 85.931 136.637 86.4313 136.831 86.8981C137.024 87.3649 137.308 87.7889 137.666 88.146C138.023 88.5031 138.447 88.7863 138.914 88.9794C139.381 89.1724 139.882 89.2716 140.387 89.2712H244.642C247.122 89.2712 249.5 90.2563 251.254 92.0097C253.007 93.7632 253.992 96.1414 253.992 98.6212C253.992 101.101 253.007 103.479 251.254 105.233C249.5 106.986 247.122 107.971 244.642 107.971H217.678C219.045 108.808 220.175 109.981 220.959 111.38C221.742 112.778 222.154 114.354 222.154 115.957V118.625C222.154 120.341 221.683 122.023 220.79 123.488C219.898 124.954 218.619 126.145 217.094 126.931H277.255C282.416 126.931 286.785 131.005 286.851 136.161" fill="white"/>
</g>
<path d="M230.811 62.7598V74.2743M225.054 68.5168H236.569" stroke="#343A40" stroke-miterlimit="10" stroke-linecap="round"/>
<path d="M75.9165 0V10.1705M70.8315 5.085H81.002" stroke="#343A40" stroke-miterlimit="10" stroke-linecap="round"/>
<path d="M272.592 16.9369C272.592 18.2752 272.195 19.5835 271.451 20.6963C270.708 21.8091 269.651 22.6765 268.415 23.1887C267.178 23.7009 265.818 23.835 264.505 23.5739C263.193 23.3129 261.987 22.6685 261.041 21.7222C260.094 20.7759 259.45 19.5702 259.189 18.2577C258.928 16.9451 259.061 15.5845 259.574 14.3481C260.086 13.1116 260.953 12.0548 262.066 11.3113C263.179 10.5678 264.487 10.1709 265.825 10.1709C267.62 10.1709 269.341 10.8837 270.61 12.1526C271.879 13.4214 272.591 15.1424 272.592 16.9369Z" stroke="#343A40" stroke-miterlimit="10"/>
<path d="M46.033 129.911C46.0335 131.25 45.6371 132.558 44.8939 133.671C44.1506 134.784 43.094 135.652 41.8577 136.165C40.6213 136.677 39.2607 136.812 37.948 136.551C36.6352 136.29 35.4293 135.646 34.4827 134.699C33.5362 133.753 32.8915 132.548 32.6302 131.235C32.3689 129.922 32.5028 128.562 33.0148 127.325C33.5269 126.089 34.3942 125.032 35.507 124.288C36.6198 123.544 37.9281 123.147 39.2665 123.147C41.0607 123.147 42.7814 123.86 44.0503 125.128C45.3192 126.397 46.0323 128.117 46.033 129.911Z" stroke="#343A40" stroke-miterlimit="10"/>
<path d="M293.862 115.762C293.862 116.41 293.67 117.043 293.31 117.582C292.95 118.12 292.439 118.54 291.84 118.788C291.241 119.036 290.583 119.101 289.948 118.974C289.312 118.848 288.728 118.536 288.27 118.078C287.812 117.62 287.5 117.036 287.374 116.401C287.248 115.765 287.312 115.107 287.56 114.508C287.808 113.91 288.228 113.398 288.767 113.038C289.305 112.678 289.939 112.486 290.587 112.486C291.455 112.486 292.288 112.831 292.903 113.446C293.517 114.06 293.862 114.893 293.862 115.762Z" stroke="#343A40" stroke-miterlimit="10"/>
<path d="M69.7077 102.59C69.7077 103.238 69.5156 103.871 69.1557 104.41C68.7958 104.948 68.2842 105.368 67.6857 105.616C67.0872 105.864 66.4286 105.929 65.7932 105.803C65.1578 105.676 64.5742 105.364 64.1161 104.906C63.658 104.448 63.3461 103.864 63.2197 103.229C63.0933 102.594 63.1582 101.935 63.4061 101.336C63.654 100.738 64.0738 100.226 64.6125 99.8665C65.1511 99.5066 65.7844 99.3145 66.4322 99.3145C67.301 99.3145 68.1341 99.6596 68.7484 100.274C69.3626 100.888 69.7077 101.721 69.7077 102.59Z" stroke="#343A40" stroke-miterlimit="10"/>
<path d="M150.176 194.584C177.612 194.584 199.853 192.048 199.853 188.92C199.853 185.792 177.612 183.256 150.176 183.256C122.741 183.256 100.5 185.792 100.5 188.92C100.5 192.048 122.741 194.584 150.176 194.584Z" fill="#E9ECEF"/>
<mask id="path-10-inside-1_17966_9532" fill="white">
<path d="M126.073 25.8241C138.874 30.9963 145.059 45.5671 139.887 58.3688C134.715 71.1704 120.144 77.3555 107.342 72.1833L79.5268 60.9451C66.7253 55.7727 60.5403 41.2019 65.7123 28.4003C70.8845 15.5987 85.4554 9.41385 98.2571 14.5859L126.073 25.8241ZM94.511 23.8577C86.8301 20.7546 78.0875 24.4654 74.9842 32.1464C71.881 39.8273 75.5921 48.5698 83.2728 51.6732L111.088 62.9114C118.769 66.0147 127.512 62.3037 130.615 54.6228C133.719 46.9417 130.008 38.1992 122.327 35.0959L94.511 23.8577Z"/>
</mask>
<path d="M126.073 25.8241C138.874 30.9963 145.059 45.5671 139.887 58.3688C134.715 71.1704 120.144 77.3555 107.342 72.1833L79.5268 60.9451C66.7253 55.7727 60.5403 41.2019 65.7123 28.4003C70.8845 15.5987 85.4554 9.41385 98.2571 14.5859L126.073 25.8241ZM94.511 23.8577C86.8301 20.7546 78.0875 24.4654 74.9842 32.1464C71.881 39.8273 75.5921 48.5698 83.2728 51.6732L111.088 62.9114C118.769 66.0147 127.512 62.3037 130.615 54.6228C133.719 46.9417 130.008 38.1992 122.327 35.0959L94.511 23.8577Z" fill="#DEE2E6"/>
<path d="M139.887 58.3688L140.814 58.7434L140.814 58.7434L139.887 58.3688ZM79.5268 60.9451L79.1522 61.8722L79.1522 61.8722L79.5268 60.9451ZM65.7123 28.4003L64.7852 28.0257L64.7852 28.0257L65.7123 28.4003ZM98.2571 14.5859L98.6317 13.6587L98.6317 13.6587L98.2571 14.5859ZM94.511 23.8577L94.8857 22.9305L94.8856 22.9305L94.511 23.8577ZM74.9842 32.1464L74.057 31.7718L74.057 31.7718L74.9842 32.1464ZM83.2728 51.6732L82.8982 52.6004L82.8982 52.6004L83.2728 51.6732ZM111.088 62.9114L110.714 63.8386L111.088 62.9114ZM130.615 54.6228L131.542 54.9974L131.542 54.9974L130.615 54.6228ZM126.073 25.8241L125.698 26.7513C137.988 31.7166 143.925 45.7046 138.96 57.9942L139.887 58.3688L140.814 58.7434C146.193 45.4296 139.761 30.276 126.447 24.8969L126.073 25.8241ZM139.887 58.3688L138.96 57.9942C133.994 70.2838 120.007 76.2214 107.717 71.2561L107.342 72.1833L106.968 73.1104C120.281 78.4896 135.435 72.0571 140.814 58.7434L139.887 58.3688ZM107.342 72.1833L107.717 71.2561L79.9014 60.0179L79.5268 60.9451L79.1522 61.8722L106.968 73.1104L107.342 72.1833ZM79.5268 60.9451L79.9014 60.0179C67.612 55.0525 61.6744 41.0644 66.6395 28.7749L65.7123 28.4003L64.7852 28.0257C59.4062 41.3394 65.8386 56.493 79.1522 61.8722L79.5268 60.9451ZM65.7123 28.4003L66.6395 28.7749C71.6048 16.4854 85.5929 10.5479 97.8825 15.5131L98.2571 14.5859L98.6317 13.6587C85.318 8.27979 70.1643 14.712 64.7852 28.0257L65.7123 28.4003ZM98.2571 14.5859L97.8825 15.5131L125.698 26.7513L126.073 25.8241L126.447 24.8969L98.6317 13.6587L98.2571 14.5859ZM94.511 23.8577L94.8856 22.9305C86.6926 19.6205 77.3672 23.5787 74.057 31.7718L74.9842 32.1464L75.9114 32.521C78.8078 25.3521 86.9675 21.8886 94.1365 24.7849L94.511 23.8577ZM74.9842 32.1464L74.057 31.7718C70.747 39.9647 74.7054 49.2901 82.8982 52.6004L83.2728 51.6732L83.6475 50.746C76.4787 47.8495 73.0151 39.6898 75.9114 32.521L74.9842 32.1464ZM83.2728 51.6732L82.8982 52.6004L110.714 63.8386L111.088 62.9114L111.463 61.9842L83.6475 50.746L83.2728 51.6732ZM111.088 62.9114L110.714 63.8386C118.907 67.1488 128.232 63.1903 131.542 54.9974L130.615 54.6228L129.688 54.2481C126.792 61.417 118.632 64.8807 111.463 61.9842L111.088 62.9114ZM130.615 54.6228L131.542 54.9974C134.853 46.8043 130.894 37.479 122.701 34.1687L122.327 35.0959L121.952 36.0231C129.121 38.9195 132.584 47.0792 129.688 54.2482L130.615 54.6228ZM122.327 35.0959L122.701 34.1687L94.8857 22.9305L94.511 23.8577L94.1364 24.7849L121.952 36.0231L122.327 35.0959Z" fill="#343A40" mask="url(#path-10-inside-1_17966_9532)"/>
<mask id="path-12-inside-2_17966_9532" fill="white">
<path d="M201.744 134.317C205.78 147.521 198.349 161.497 185.145 165.534C171.941 169.571 157.965 162.14 153.928 148.936L145.157 120.247C141.12 107.043 148.552 93.0668 161.756 89.03C174.959 84.9934 188.936 92.4246 192.972 105.628L201.744 134.317ZM183.409 108.552C180.987 100.63 172.601 96.1712 164.679 98.593C156.757 101.015 152.298 109.401 154.72 117.323L163.491 146.012C165.914 153.935 174.299 158.393 182.222 155.971C190.144 153.549 194.603 145.163 192.181 137.241L183.409 108.552Z"/>
</mask>
<path d="M201.744 134.317C205.78 147.521 198.349 161.497 185.145 165.534C171.941 169.571 157.965 162.14 153.928 148.936L145.157 120.247C141.12 107.043 148.552 93.0668 161.756 89.03C174.959 84.9934 188.936 92.4246 192.972 105.628L201.744 134.317ZM183.409 108.552C180.987 100.63 172.601 96.1712 164.679 98.593C156.757 101.015 152.298 109.401 154.72 117.323L163.491 146.012C165.914 153.935 174.299 158.393 182.222 155.971C190.144 153.549 194.603 145.163 192.181 137.241L183.409 108.552Z" fill="#DEE2E6"/>
<path d="M201.744 134.317L202.7 134.025V134.025L201.744 134.317ZM185.145 165.534L185.438 166.491L185.438 166.491L185.145 165.534ZM153.928 148.936L152.972 149.228V149.228L153.928 148.936ZM145.157 120.247L144.201 120.539L145.157 120.247ZM161.756 89.03L161.463 88.0737L161.463 88.0737L161.756 89.03ZM192.972 105.628L192.016 105.921L192.972 105.628ZM183.409 108.552L182.453 108.844L183.409 108.552ZM164.679 98.593L164.387 97.6367L164.387 97.6367L164.679 98.593ZM154.72 117.323L153.764 117.616L154.72 117.323ZM163.491 146.012L162.535 146.305L162.535 146.305L163.491 146.012ZM182.222 155.971L182.514 156.928L182.514 156.928L182.222 155.971ZM192.181 137.241L193.137 136.949L193.137 136.949L192.181 137.241ZM201.744 134.317L200.787 134.61C204.663 147.285 197.528 160.703 184.853 164.578L185.145 165.534L185.438 166.491C199.169 162.292 206.898 147.757 202.7 134.025L201.744 134.317ZM185.145 165.534L184.853 164.578C172.177 168.453 158.76 161.319 154.885 148.644L153.928 148.936L152.972 149.228C157.17 162.96 171.706 170.689 185.438 166.491L185.145 165.534ZM153.928 148.936L154.885 148.644L146.114 119.955L145.157 120.247L144.201 120.539L152.972 149.228L153.928 148.936ZM145.157 120.247L146.114 119.955C142.238 107.279 149.372 93.8616 162.048 89.9863L161.756 89.03L161.463 88.0737C147.731 92.272 140.003 106.807 144.201 120.539L145.157 120.247ZM161.756 89.03L162.048 89.9863C174.723 86.1111 188.141 93.2451 192.016 105.921L192.972 105.628L193.929 105.336C189.73 91.6041 175.195 83.8756 161.463 88.0737L161.756 89.03ZM192.972 105.628L192.016 105.921L200.787 134.61L201.744 134.317L202.7 134.025L193.929 105.336L192.972 105.628ZM183.409 108.552L184.366 108.26C181.782 99.8093 172.837 95.0534 164.387 97.6367L164.679 98.593L164.972 99.5494C172.366 97.2889 180.193 101.45 182.453 108.844L183.409 108.552ZM164.679 98.593L164.387 97.6367C155.936 100.22 151.18 109.165 153.764 117.616L154.72 117.323L155.677 117.031C153.416 109.637 157.577 101.81 164.972 99.5493L164.679 98.593ZM154.72 117.323L153.764 117.616L162.535 146.305L163.491 146.012L164.448 145.72L155.677 117.031L154.72 117.323ZM163.491 146.012L162.535 146.305C165.119 154.755 174.063 159.511 182.514 156.928L182.222 155.971L181.929 155.015C174.535 157.276 166.708 153.114 164.448 145.72L163.491 146.012ZM182.222 155.971L182.514 156.928C190.964 154.344 195.72 145.399 193.137 136.949L192.181 137.241L191.224 137.534C193.485 144.928 189.323 152.754 181.929 155.015L182.222 155.971ZM192.181 137.241L193.137 136.949L184.366 108.26L183.409 108.552L182.453 108.844L191.224 137.534L192.181 137.241Z" fill="#343A40" mask="url(#path-12-inside-2_17966_9532)"/>
<mask id="path-14-inside-3_17966_9532" fill="white">
<path d="M179.352 72.2741C187.271 83.5842 184.522 99.1729 173.212 107.092C161.902 115.012 146.314 112.263 138.394 100.953L121.187 76.3783C113.267 65.0682 116.016 49.4796 127.326 41.5601C138.636 33.6407 154.225 36.3894 162.144 47.6995L165.012 51.7953C168.741 57.1198 160.549 62.8555 156.821 57.531L153.953 53.4353C149.201 46.6492 139.848 45 133.062 49.7516C126.276 54.5033 124.627 63.8565 129.378 70.6426L146.586 95.2171C151.337 102.003 160.691 103.652 167.477 98.9008C174.263 94.1491 175.912 84.7959 171.16 78.0098L168.292 73.9141C164.564 68.5894 172.755 62.8541 176.484 68.1783L179.352 72.2741Z"/>
</mask>
<path d="M179.352 72.2741C187.271 83.5842 184.522 99.1729 173.212 107.092C161.902 115.012 146.314 112.263 138.394 100.953L121.187 76.3783C113.267 65.0682 116.016 49.4796 127.326 41.5601C138.636 33.6407 154.225 36.3894 162.144 47.6995L165.012 51.7953C168.741 57.1198 160.549 62.8555 156.821 57.531L153.953 53.4353C149.201 46.6492 139.848 45 133.062 49.7516C126.276 54.5033 124.627 63.8565 129.378 70.6426L146.586 95.2171C151.337 102.003 160.691 103.652 167.477 98.9008C174.263 94.1491 175.912 84.7959 171.16 78.0098L168.292 73.9141C164.564 68.5894 172.755 62.8541 176.484 68.1783L179.352 72.2741Z" fill="#DC3545"/>
<path d="M179.352 72.2741L180.171 71.7005L180.171 71.7005L179.352 72.2741ZM173.212 107.092L173.786 107.911V107.911L173.212 107.092ZM138.394 100.953L137.575 101.526L137.575 101.526L138.394 100.953ZM127.326 41.5601L126.753 40.741V40.741L127.326 41.5601ZM165.012 51.7953L164.193 52.3688L165.012 51.7953ZM156.821 57.531L156.002 58.1046L156.821 57.531ZM133.062 49.7516L132.488 48.9325L132.488 48.9325L133.062 49.7516ZM146.586 95.2171L145.767 95.7907L145.767 95.7907L146.586 95.2171ZM167.477 98.9008L168.05 99.7199L168.05 99.7199L167.477 98.9008ZM171.16 78.0098L171.979 77.4363L171.979 77.4363L171.16 78.0098ZM168.292 73.9141L167.473 74.4876L167.473 74.4876L168.292 73.9141ZM176.484 68.1783L177.303 67.6047L177.303 67.6047L176.484 68.1783ZM179.352 72.2741L178.533 72.8476C186.135 83.7054 183.496 98.6705 172.639 106.273L173.212 107.092L173.786 107.911C185.548 99.6752 188.407 83.463 180.171 71.7005L179.352 72.2741ZM173.212 107.092L172.639 106.273C161.781 113.876 146.816 111.237 139.213 100.379L138.394 100.953L137.575 101.526C145.811 113.289 162.023 116.148 173.786 107.911L173.212 107.092ZM138.394 100.953L139.213 100.379L122.006 75.8048L121.187 76.3783L120.368 76.9519L137.575 101.526L138.394 100.953ZM121.187 76.3783L122.006 75.8048C114.403 64.947 117.042 49.9819 127.9 42.3793L127.326 41.5601L126.753 40.741C114.99 48.9772 112.131 65.1894 120.368 76.9519L121.187 76.3783ZM127.326 41.5601L127.9 42.3793C138.758 34.7766 153.723 37.4154 161.325 48.2731L162.144 47.6995L162.964 47.1259C154.727 35.3634 138.515 32.5048 126.753 40.741L127.326 41.5601ZM162.144 47.6995L161.325 48.2731L164.193 52.3688L165.012 51.7953L165.831 51.2217L162.964 47.1259L162.144 47.6995ZM165.012 51.7953L164.193 52.3688C164.964 53.4703 165.089 54.5304 164.86 55.4431C164.624 56.3819 163.994 57.2387 163.139 57.8374C162.284 58.436 161.264 58.7349 160.301 58.6352C159.365 58.5382 158.411 58.059 157.64 56.9575L156.821 57.531L156.002 58.1046C157.095 59.6654 158.563 60.4658 160.095 60.6245C161.6 60.7805 163.093 60.311 164.286 59.4757C165.479 58.6404 166.431 57.3977 166.799 55.9299C167.174 54.436 166.924 52.7824 165.831 51.2217L165.012 51.7953ZM156.821 57.531L157.64 56.9575L154.772 52.8617L153.953 53.4353L153.134 54.0088L156.002 58.1046L156.821 57.531ZM153.953 53.4353L154.772 52.8617C149.704 45.6232 139.727 43.8641 132.488 48.9325L133.062 49.7516L133.636 50.5708C139.969 46.1359 148.699 47.6752 153.134 54.0088L153.953 53.4353ZM133.062 49.7516L132.488 48.9325C125.25 54.0009 123.491 63.9777 128.559 71.2161L129.378 70.6426L130.198 70.069C125.763 63.7353 127.302 55.0057 133.636 50.5708L133.062 49.7516ZM129.378 70.6426L128.559 71.2161L145.767 95.7907L146.586 95.2171L147.405 94.6435L130.198 70.069L129.378 70.6426ZM146.586 95.2171L145.767 95.7907C150.835 103.029 160.812 104.788 168.05 99.7199L167.477 98.9008L166.903 98.0816C160.569 102.516 151.84 100.977 147.405 94.6435L146.586 95.2171ZM167.477 98.9008L168.05 99.7199C175.289 94.6515 177.048 84.6747 171.979 77.4363L171.16 78.0098L170.341 78.5834C174.776 84.9171 173.237 93.6468 166.903 98.0816L167.477 98.9008ZM171.16 78.0098L171.979 77.4363L169.112 73.3405L168.292 73.9141L167.473 74.4876L170.341 78.5834L171.16 78.0098ZM168.292 73.9141L169.112 73.3405C168.34 72.2389 168.216 71.1789 168.445 70.2662C168.681 69.3275 169.31 68.4706 170.165 67.872C171.02 67.2734 172.041 66.9745 173.004 67.0743C173.94 67.1712 174.893 67.6505 175.665 68.7519L176.484 68.1783L177.303 67.6047C176.21 66.044 174.742 65.2436 173.21 65.0849C171.704 64.929 170.211 65.3984 169.018 66.2337C167.825 67.069 166.873 68.3116 166.505 69.7794C166.13 71.2733 166.38 72.9269 167.473 74.4876L168.292 73.9141ZM176.484 68.1783L175.665 68.7519L178.533 72.8476L179.352 72.2741L180.171 71.7005L177.303 67.6047L176.484 68.1783Z" fill="#343A40" mask="url(#path-14-inside-3_17966_9532)"/>
<g clip-path="url(#clip1_17966_9532)">
<mask id="path-16-inside-4_17966_9532" fill="white">
<path d="M126.073 25.8241C138.875 30.9964 145.06 45.5672 139.887 58.3688C134.715 71.1704 120.144 77.3553 107.343 72.1833L79.5272 60.9451C66.7255 55.7728 60.5406 41.202 65.7128 28.4003C70.885 15.5986 85.4558 9.41363 98.2575 14.5859L126.073 25.8241ZM94.5115 23.8577C86.8304 20.7544 78.088 24.4653 74.9846 32.1464C71.8813 39.8274 75.5923 48.5699 83.2733 51.6732L111.089 62.9114C118.77 66.0146 127.512 62.3037 130.616 54.6228C133.719 46.9418 130.008 38.1993 122.327 35.0959L94.5115 23.8577Z"/>
</mask>
<path d="M126.073 25.8241C138.875 30.9964 145.06 45.5672 139.887 58.3688C134.715 71.1704 120.144 77.3553 107.343 72.1833L79.5272 60.9451C66.7255 55.7728 60.5406 41.202 65.7128 28.4003C70.885 15.5986 85.4558 9.41363 98.2575 14.5859L126.073 25.8241ZM94.5115 23.8577C86.8304 20.7544 78.088 24.4653 74.9846 32.1464C71.8813 39.8274 75.5923 48.5699 83.2733 51.6732L111.089 62.9114C118.77 66.0146 127.512 62.3037 130.616 54.6228C133.719 46.9418 130.008 38.1993 122.327 35.0959L94.5115 23.8577Z" fill="#DEE2E6"/>
<path d="M126.073 25.8241L126.448 24.8969L126.448 24.8969L126.073 25.8241ZM139.887 58.3688L140.815 58.7434L140.815 58.7434L139.887 58.3688ZM107.343 72.1833L106.968 73.1104L106.968 73.1105L107.343 72.1833ZM65.7128 28.4003L64.7856 28.0257L64.7856 28.0257L65.7128 28.4003ZM74.9846 32.1464L74.0574 31.7718L74.0574 31.7718L74.9846 32.1464ZM83.2733 51.6732L83.6479 50.746L83.2733 51.6732ZM111.089 62.9114L110.714 63.8386L110.714 63.8386L111.089 62.9114ZM130.616 54.6228L131.543 54.9974L131.543 54.9974L130.616 54.6228ZM122.327 35.0959L122.702 34.1687L122.702 34.1687L122.327 35.0959ZM126.073 25.8241L125.698 26.7512C137.988 31.7167 143.926 45.7046 138.96 57.9942L139.887 58.3688L140.815 58.7434C146.194 45.4297 139.761 30.2761 126.448 24.8969L126.073 25.8241ZM139.887 58.3688L138.96 57.9942C133.995 70.2837 120.007 76.2213 107.717 71.2561L107.343 72.1833L106.968 73.1105C120.282 78.4894 135.436 72.0571 140.815 58.7434L139.887 58.3688ZM107.343 72.1833L107.717 71.2561L79.9018 60.0179L79.5272 60.9451L79.1526 61.8722L106.968 73.1104L107.343 72.1833ZM79.5272 60.9451L79.9018 60.0179C67.6122 55.0525 61.6747 41.0646 66.64 28.7749L65.7128 28.4003L64.7856 28.0257C59.4065 41.3395 65.8388 56.4931 79.1526 61.8722L79.5272 60.9451ZM65.7128 28.4003L66.64 28.7749C71.6053 16.4852 85.5933 10.5477 97.8829 15.5131L98.2575 14.5859L98.6321 13.6587C85.3183 8.27956 70.1647 14.7119 64.7856 28.0257L65.7128 28.4003ZM98.2575 14.5859L97.8829 15.5131L125.698 26.7513L126.073 25.8241L126.448 24.8969L98.6321 13.6587L98.2575 14.5859ZM94.5115 23.8577L94.8861 22.9305C86.693 19.6203 77.3677 23.5786 74.0574 31.7718L74.9846 32.1464L75.9118 32.521C78.8083 25.352 86.9679 21.8884 94.1369 24.7849L94.5115 23.8577ZM74.9846 32.1464L74.0574 31.7718C70.7473 39.9648 74.7056 49.2902 82.8987 52.6004L83.2733 51.6732L83.6479 50.746C76.4789 47.8496 73.0154 39.6899 75.9118 32.521L74.9846 32.1464ZM83.2733 51.6732L82.8987 52.6004L110.714 63.8386L111.089 62.9114L111.463 61.9842L83.6479 50.746L83.2733 51.6732ZM111.089 62.9114L110.714 63.8386C118.907 67.1486 128.233 63.1904 131.543 54.9974L130.616 54.6228L129.688 54.2482C126.792 61.417 118.632 64.8805 111.463 61.9842L111.089 62.9114ZM130.616 54.6228L131.543 54.9974C134.853 46.8043 130.895 37.479 122.702 34.1687L122.327 35.0959L121.952 36.0231C129.121 38.9196 132.585 47.0793 129.688 54.2482L130.616 54.6228ZM122.327 35.0959L122.702 34.1687L94.8861 22.9305L94.5115 23.8577L94.1369 24.7849L121.952 36.0231L122.327 35.0959Z" fill="#343A40" mask="url(#path-16-inside-4_17966_9532)"/>
</g>
<g clip-path="url(#clip2_17966_9532)">
<mask id="path-18-inside-5_17966_9532" fill="white">
<path d="M201.743 134.317C205.779 147.521 198.348 161.498 185.144 165.534C171.941 169.571 157.964 162.14 153.927 148.936L145.156 120.247C141.12 107.043 148.551 93.067 161.755 89.03C174.958 84.9932 188.935 92.4245 192.972 105.628L201.743 134.317ZM183.409 108.552C180.986 100.63 172.601 96.171 164.678 98.593C156.756 101.015 152.297 109.401 154.719 117.323L163.491 146.012C165.913 153.934 174.299 158.393 182.221 155.971C190.143 153.549 194.602 145.163 192.18 137.241L183.409 108.552Z"/>
</mask>
<path d="M201.743 134.317C205.779 147.521 198.348 161.498 185.144 165.534C171.941 169.571 157.964 162.14 153.927 148.936L145.156 120.247C141.12 107.043 148.551 93.067 161.755 89.03C174.958 84.9932 188.935 92.4245 192.972 105.628L201.743 134.317ZM183.409 108.552C180.986 100.63 172.601 96.171 164.678 98.593C156.756 101.015 152.297 109.401 154.719 117.323L163.491 146.012C165.913 153.934 174.299 158.393 182.221 155.971C190.143 153.549 194.602 145.163 192.18 137.241L183.409 108.552Z" fill="#DEE2E6"/>
<path d="M201.743 134.317L202.699 134.025L202.699 134.025L201.743 134.317ZM185.144 165.534L185.437 166.491L185.437 166.491L185.144 165.534ZM153.927 148.936L152.971 149.228L152.971 149.228L153.927 148.936ZM145.156 120.247L146.113 119.955L145.156 120.247ZM161.755 89.03L161.462 88.0737L161.462 88.0737L161.755 89.03ZM192.972 105.628L193.928 105.336L192.972 105.628ZM183.409 108.552L184.365 108.26L183.409 108.552ZM164.678 98.593L164.386 97.6367L164.386 97.6367L164.678 98.593ZM154.719 117.323L155.676 117.031L154.719 117.323ZM163.491 146.012L162.534 146.305L162.534 146.305L163.491 146.012ZM182.221 155.971L182.513 156.928L182.513 156.928L182.221 155.971ZM192.18 137.241L193.136 136.949L193.136 136.949L192.18 137.241ZM201.743 134.317L200.786 134.61C204.662 147.285 197.528 160.703 184.852 164.578L185.144 165.534L185.437 166.491C199.169 162.292 206.897 147.757 202.699 134.025L201.743 134.317ZM185.144 165.534L184.852 164.578C172.177 168.453 158.759 161.319 154.884 148.644L153.927 148.936L152.971 149.228C157.17 162.96 171.705 170.689 185.437 166.491L185.144 165.534ZM153.927 148.936L154.884 148.644L146.113 119.955L145.156 120.247L144.2 120.539L152.971 149.228L153.927 148.936ZM145.156 120.247L146.113 119.955C142.237 107.279 149.372 93.8618 162.047 89.9863L161.755 89.03L161.462 88.0737C147.731 92.2722 140.002 106.807 144.2 120.539L145.156 120.247ZM161.755 89.03L162.047 89.9863C174.723 86.111 188.14 93.245 192.015 105.921L192.972 105.628L193.928 105.336C189.73 91.604 175.194 83.8754 161.462 88.0737L161.755 89.03ZM192.972 105.628L192.015 105.921L200.786 134.61L201.743 134.317L202.699 134.025L193.928 105.336L192.972 105.628ZM183.409 108.552L184.365 108.26C181.781 99.8092 172.836 95.0532 164.386 97.6367L164.678 98.593L164.971 99.5493C172.365 97.2887 180.192 101.45 182.452 108.844L183.409 108.552ZM164.678 98.593L164.386 97.6367C155.936 100.22 151.18 109.165 153.763 117.616L154.719 117.323L155.676 117.031C153.415 109.637 157.577 101.81 164.971 99.5493L164.678 98.593ZM154.719 117.323L153.763 117.616L162.534 146.305L163.491 146.012L164.447 145.72L155.676 117.031L154.719 117.323ZM163.491 146.012L162.534 146.305C165.118 154.755 174.063 159.511 182.513 156.928L182.221 155.971L181.928 155.015C174.534 157.275 166.707 153.114 164.447 145.72L163.491 146.012ZM182.221 155.971L182.513 156.928C190.963 154.344 195.719 145.399 193.136 136.949L192.18 137.241L191.223 137.534C193.484 144.928 189.322 152.754 181.928 155.015L182.221 155.971ZM192.18 137.241L193.136 136.949L184.365 108.26L183.409 108.552L182.452 108.844L191.223 137.534L192.18 137.241Z" fill="#343A40" mask="url(#path-18-inside-5_17966_9532)"/>
</g>
<path d="M172.938 35.4492L170.573 46.0603" stroke="#DC3545" stroke-width="3" stroke-miterlimit="10" stroke-linecap="round"/>
<path d="M189.009 45.8652L180.193 52.225" stroke="#DC3545" stroke-width="3" stroke-miterlimit="10" stroke-linecap="round"/>
<path d="M194.101 64.3269L183.286 63.2224" stroke="#DC3545" stroke-width="3" stroke-miterlimit="10" stroke-linecap="round"/>
</g>
<defs>
<clipPath id="clip0_17966_9532">
<rect width="300" height="200" fill="white"/>
</clipPath>
<clipPath id="clip1_17966_9532">
<rect width="93" height="46.5" fill="white" transform="translate(56.3474 5.2207)"/>
</clipPath>
<clipPath id="clip2_17966_9532">
<rect width="43" height="91" fill="white" transform="translate(165.847 81.7207)"/>
</clipPath>
</defs>
</svg>
