<svg width="300" height="200" viewBox="0 0 300 200" fill="none" xmlns="http://www.w3.org/2000/svg">
<path d="M277.931 130.19C277.945 131.347 277.73 132.495 277.298 133.568C276.865 134.641 276.224 135.617 275.411 136.44C274.598 137.263 273.63 137.916 272.562 138.362C271.495 138.808 270.35 139.037 269.193 139.037H206.787C207.693 140.694 208.039 142.601 207.771 144.472C207.503 146.342 206.637 148.075 205.301 149.412C204.791 149.919 204.222 150.364 203.607 150.736H215.135C219.957 150.736 224.039 154.542 224.101 159.359C224.115 160.516 223.899 161.664 223.466 162.737C223.034 163.809 222.392 164.786 221.58 165.609C220.767 166.432 219.799 167.086 218.732 167.532C217.665 167.978 216.52 168.209 215.363 168.209H158.058C156.146 168.209 154.286 167.581 152.765 166.423C151.243 165.264 150.144 163.638 149.635 161.794C149.127 159.951 149.237 157.991 149.949 156.216C150.661 154.442 151.936 152.949 153.578 151.968H119.249C114.427 151.968 110.346 148.162 110.284 143.345C110.263 141.785 110.661 140.248 111.436 138.894C112.21 137.54 113.333 136.418 114.688 135.645C113.269 134.908 112.079 133.796 111.249 132.429C110.418 131.062 109.98 129.494 109.98 127.895V117.195C109.979 115.828 110.298 114.481 110.913 113.261C111.528 112.041 112.421 110.982 113.521 110.17H51.8305C47.013 110.17 42.9365 106.373 42.865 101.561C42.8479 100.402 43.0613 99.2523 43.4928 98.1772C43.9244 97.1021 44.5655 96.1236 45.3788 95.2986C46.1921 94.4736 47.1614 93.8186 48.2302 93.3718C49.299 92.925 50.4461 92.6952 51.6045 92.6958H55.9645C57.7547 92.6958 59.4716 91.9847 60.7375 90.7188C62.0034 89.4529 62.7145 87.7361 62.7145 85.9458V85.9408C62.7145 84.1506 62.0034 82.4337 60.7375 81.1679C59.4716 79.902 57.7547 79.1908 55.9645 79.1908H26.942C24.6253 79.1908 22.4035 78.2705 20.7653 76.6324C19.1271 74.9942 18.2068 72.7723 18.2068 70.4556C18.2068 68.1389 19.1271 65.917 20.7653 64.2788C22.4035 62.6407 24.6253 61.7203 26.942 61.7203H68.9045C71.2213 61.7209 73.4434 60.8012 75.082 59.1634C76.7206 57.5257 77.6414 55.3041 77.642 52.9873C77.6426 50.6706 76.7229 48.4485 75.0851 46.8099C73.4474 45.1713 71.2258 44.2504 68.909 44.2498H56.9235C52.0965 44.2498 48.015 40.4338 47.963 35.6073C47.9505 34.4521 48.1672 33.3059 48.6007 32.235C49.0341 31.1641 49.6757 30.1898 50.4883 29.3686C51.3009 28.5473 52.2683 27.8954 53.3346 27.4506C54.4008 27.0059 55.5447 26.777 56.7 26.7773H136.4C141.094 26.7773 145.124 30.3893 145.35 35.0828C145.427 36.6314 145.091 38.1726 144.377 39.5488H247.167C249.483 39.5488 251.705 40.4692 253.343 42.1073C254.981 43.7455 255.902 45.9674 255.902 48.2841C255.902 50.6008 254.981 52.8227 253.343 54.4608C251.705 56.099 249.483 57.0193 247.167 57.0193H209.093C209.091 58.899 208.344 60.7013 207.015 62.0307C205.686 63.36 203.884 64.108 202.005 64.1103H159.088C160.36 65.311 161.242 66.8659 161.62 68.5736C161.997 70.2813 161.854 72.0632 161.207 73.6883C160.561 75.3134 159.441 76.707 157.994 77.6885C156.546 78.6701 154.837 79.1943 153.088 79.1933H141.088C140.616 79.1926 140.148 79.285 139.711 79.4652C139.274 79.6455 138.878 79.91 138.543 80.2437C138.209 80.5774 137.944 80.9737 137.763 81.41C137.582 81.8463 137.488 82.314 137.488 82.7863V82.7913C137.488 83.2637 137.582 83.7314 137.763 84.1677C137.944 84.604 138.209 85.0003 138.543 85.334C138.878 85.6677 139.274 85.9322 139.711 86.1125C140.148 86.2927 140.616 86.3851 141.088 86.3843H238.495C240.812 86.3843 243.034 87.3047 244.672 88.9428C246.31 90.581 247.23 92.8029 247.23 95.1196C247.23 97.4363 246.31 99.6582 244.672 101.296C243.034 102.935 240.812 103.855 238.495 103.855H213.305C214.582 104.636 215.637 105.733 216.37 107.039C217.102 108.346 217.486 109.818 217.486 111.316V113.807C217.487 115.41 217.046 116.982 216.212 118.351C215.378 119.72 214.184 120.833 212.759 121.567H268.965C273.787 121.567 277.869 125.374 277.931 130.191" fill="white"/>
<path d="M260.463 76.9004V87.6584M255.084 82.2794H265.842" stroke="#343A40" stroke-miterlimit="10" stroke-linecap="round"/>
<path d="M130.763 6V15.502M126.012 10.751H135.514" stroke="#343A40" stroke-miterlimit="10" stroke-linecap="round"/>
<path d="M273.107 21.1228C273.107 22.3732 272.736 23.5955 272.042 24.6351C271.347 25.6748 270.359 26.4851 269.204 26.9636C268.049 27.4421 266.778 27.5672 265.551 27.3233C264.325 27.0793 263.199 26.4771 262.315 25.5929C261.43 24.7087 260.828 23.5822 260.584 22.3558C260.341 21.1295 260.466 19.8583 260.944 18.7031C261.423 17.5479 262.233 16.5606 263.273 15.866C264.313 15.1714 265.535 14.8007 266.786 14.8008C267.616 14.8008 268.438 14.9643 269.205 15.282C269.972 15.5997 270.669 16.0654 271.256 16.6525C271.843 17.2395 272.308 17.9365 272.626 18.7035C272.944 19.4705 273.107 20.2926 273.107 21.1228Z" stroke="#343A40" stroke-miterlimit="10"/>
<path d="M73.644 151.02C73.6445 152.27 73.2741 153.493 72.5797 154.533C71.8853 155.573 70.8981 156.383 69.7429 156.862C68.5878 157.341 67.3165 157.467 66.09 157.223C64.8635 156.979 63.7368 156.377 62.8524 155.493C61.968 154.609 61.3657 153.483 61.1216 152.256C60.8775 151.03 61.0026 149.758 61.4811 148.603C61.9596 147.448 62.77 146.46 63.8098 145.766C64.8496 145.071 66.072 144.7 67.3225 144.7C68.9987 144.7 70.6062 145.366 71.7916 146.551C72.9771 147.736 73.6433 149.344 73.644 151.02Z" stroke="#343A40" stroke-miterlimit="10"/>
<path d="M284.48 111.135C284.479 111.74 284.3 112.331 283.964 112.835C283.627 113.338 283.149 113.73 282.59 113.961C282.031 114.193 281.416 114.253 280.822 114.135C280.229 114.017 279.684 113.726 279.256 113.298C278.828 112.87 278.536 112.325 278.418 111.731C278.3 111.138 278.361 110.523 278.592 109.963C278.824 109.404 279.216 108.926 279.719 108.59C280.222 108.254 280.814 108.074 281.419 108.074C282.231 108.074 283.009 108.397 283.583 108.971C284.157 109.545 284.48 110.323 284.48 111.135Z" stroke="#343A40" stroke-miterlimit="10"/>
<path d="M129.096 125.494C129.096 126.099 128.917 126.691 128.581 127.194C128.244 127.697 127.766 128.089 127.207 128.321C126.648 128.552 126.033 128.613 125.439 128.495C124.846 128.377 124.301 128.085 123.873 127.657C123.445 127.229 123.153 126.684 123.035 126.091C122.917 125.497 122.978 124.882 123.209 124.323C123.441 123.764 123.833 123.286 124.336 122.95C124.839 122.613 125.431 122.434 126.036 122.434C126.848 122.434 127.626 122.756 128.2 123.33C128.774 123.904 129.096 124.682 129.096 125.494Z" stroke="#343A40" stroke-miterlimit="10"/>
<path d="M150.344 194.153C188.089 194.153 218.688 191.784 218.688 188.861C218.688 185.939 188.089 183.569 150.344 183.569C112.599 183.569 82 185.939 82 188.861C82 191.784 112.599 194.153 150.344 194.153Z" fill="#E9ECEF"/>
<rect x="148.073" y="107.864" width="7.5" height="80" fill="#DEE2E6" stroke="#343A40"/>
<circle cx="152" cy="74.667" r="45.5" fill="white" stroke="#212529"/>
<circle cx="151.667" cy="74.334" r="36.5" fill="#DC3545" stroke="#212529"/>
<rect x="132.667" y="68.667" width="38.6667" height="12" fill="white"/>
<path d="M79.5993 88C84.8006 87.9931 89.8287 89.8692 93.7543 93.2815H100.074C100.447 93.2814 100.814 93.3731 101.144 93.5487C101.473 93.7242 101.753 93.9781 101.961 94.2879C102.169 94.5977 102.297 94.9539 102.334 95.325C102.371 95.6961 102.316 96.0707 102.174 96.4155L99.8528 102.058C101.195 105.659 101.553 109.553 100.889 113.338C100.225 117.123 98.5642 120.663 96.0766 123.592C93.589 126.521 90.3652 128.734 86.7375 130.002C83.1097 131.271 79.2094 131.548 75.4386 130.807C71.6678 130.066 68.1629 128.332 65.2854 125.785C62.4078 123.238 60.2617 119.969 59.0683 116.316C57.8749 112.663 57.6773 108.758 58.496 105.003C59.3147 101.248 61.12 97.7796 63.7258 94.955C65.6963 92.822 68.5258 90.35 71.9338 89.0375C74.4938 88.05 77.6263 88 79.5993 88Z" fill="#FFC107" stroke="black" stroke-miterlimit="10" stroke-linecap="round"/>
<path d="M88.0423 117.513C85.661 116.07 82.93 115.308 80.1458 115.308C77.3615 115.308 74.6305 116.07 72.2493 117.513" stroke="black" stroke-miterlimit="10" stroke-linecap="round"/>
<path d="M71.9848 106.044C72.4722 106.044 72.8673 105.649 72.8673 105.162C72.8673 104.674 72.4722 104.279 71.9848 104.279C71.4974 104.279 71.1023 104.674 71.1023 105.162C71.1023 105.649 71.4974 106.044 71.9848 106.044Z" stroke="black" stroke-miterlimit="10" stroke-linecap="round"/>
<path d="M87.8663 106.044C88.3537 106.044 88.7488 105.649 88.7488 105.162C88.7488 104.674 88.3537 104.279 87.8663 104.279C87.3789 104.279 86.9838 104.674 86.9838 105.162C86.9838 105.649 87.3789 106.044 87.8663 106.044Z" stroke="black" stroke-miterlimit="10" stroke-linecap="round"/>
</svg>
